<svg width="30" height="20" viewBox="0 0 30 20" version="1.1" xmlns="http://www.w3.org/2000/svg" xmlns:xlink="http://www.w3.org/1999/xlink">
<g data-name="Canvas" fill="none">
<g data-name="Volunteer Icon">
<g data-name="Vector">
<path d="M 20 8C 22.2133 8 23.9867 6.21333 23.9867 4C 23.9867 1.78667 22.2133 0 20 0C 17.7867 0 16 1.78667 16 4C 16 6.21333 17.7867 8 20 8ZM 9.33333 8C 11.5467 8 13.32 6.21333 13.32 4C 13.32 1.78667 11.5467 0 9.33333 0C 7.12 0 5.33333 1.78667 5.33333 4C 5.33333 6.21333 7.12 8 9.33333 8ZM 9.33333 10.6667C 6.22667 10.6667 0 12.2267 0 15.3333L 0 18.6667L 18.6667 18.6667L 18.6667 15.3333C 18.6667 12.2267 12.44 10.6667 9.33333 10.6667ZM 20 10.6667C 19.6133 10.6667 19.1733 10.6933 18.7067 10.7333C 20.2533 11.8533 21.3333 13.36 21.3333 15.3333L 21.3333 18.6667L 29.3333 18.6667L 29.3333 15.3333C 29.3333 12.2267 23.1067 10.6667 20 10.6667Z" transform="translate(0.333252 0.666748)" fill="#687178"/>
</g>
</g>
</g>
</svg>

