<svg width="28" height="32" viewBox="0 0 28 32" version="1.1" xmlns="http://www.w3.org/2000/svg" xmlns:xlink="http://www.w3.org/1999/xlink">
<title>Inactive</title>
<desc>Created using Figma</desc>
<g id="Canvas" transform="translate(2368 1576)">
<g id="Inactive">
<g id="Vector">
<use xlink:href="#path0_stroke" transform="translate(-2367 -1571.87)" fill="#687178"/>
</g>
<g id="Vector">
<use xlink:href="#path1_stroke" transform="translate(-2367 -1564.77)" fill="#687178"/>
</g>
<g id="Vector">
<use xlink:href="#path2_fill" transform="translate(-2361.2 -1559.89)" fill="#687178"/>
</g>
<g id="Vector">
<use xlink:href="#path3_fill" transform="translate(-2353.54 -1559.89)" fill="#687178"/>
</g>
<g id="Vector">
<use xlink:href="#path4_stroke" transform="translate(-2362.09 -1575)" fill="#687178"/>
</g>
<g id="Vector">
<use xlink:href="#path5_stroke" transform="translate(-2345.53 -1575)" fill="#687178"/>
</g>
</g>
</g>
<defs>
<path id="path0_stroke" d="M 1.30579e-07 -5.99481e-08L 1.30579e-07 -1C -0.552285 -1 -1 -0.552285 -1 -5.99481e-08L 1.30579e-07 -5.99481e-08ZM 26 -5.99481e-08L 27 -5.99481e-08C 27 -0.552285 26.5523 -1 26 -1L 26 -5.99481e-08ZM 26 7.1032L 26 8.1032C 26.5523 8.1032 27 7.65548 27 7.1032L 26 7.1032ZM 1.30579e-07 7.1032L -1 7.1032C -1 7.65548 -0.552285 8.1032 1.30579e-07 8.1032L 1.30579e-07 7.1032ZM 1.30579e-07 1L 26 1L 26 -1L 1.30579e-07 -1L 1.30579e-07 1ZM 25 -5.99481e-08L 25 7.1032L 27 7.1032L 27 -5.99481e-08L 25 -5.99481e-08ZM 26 6.1032L 1.30579e-07 6.1032L 1.30579e-07 8.1032L 26 8.1032L 26 6.1032ZM 1 7.1032L 1 -5.99481e-08L -1 -5.99481e-08L -1 7.1032L 1 7.1032Z"/>
<path id="path1_stroke" d="M 1.30579e-07 6.59429e-07L 1.30579e-07 -0.999999C -0.552285 -0.999999 -1 -0.552284 -1 6.59429e-07L 1.30579e-07 6.59429e-07ZM 26 6.59429e-07L 27 6.59429e-07C 27 -0.552284 26.5523 -0.999999 26 -0.999999L 26 6.59429e-07ZM 26 19.7695L 26 20.7695C 26.5523 20.7695 27 20.3218 27 19.7695L 26 19.7695ZM 1.30579e-07 19.7695L -1 19.7695C -1 20.3218 -0.552285 20.7695 1.30579e-07 20.7695L 1.30579e-07 19.7695ZM 1.30579e-07 1L 26 1L 26 -0.999999L 1.30579e-07 -0.999999L 1.30579e-07 1ZM 25 6.59429e-07L 25 19.7695L 27 19.7695L 27 6.59429e-07L 25 6.59429e-07ZM 26 18.7695L 1.30579e-07 18.7695L 1.30579e-07 20.7695L 26 20.7695L 26 18.7695ZM 1 19.7695L 1 6.59429e-07L -1 6.59429e-07L -1 19.7695L 1 19.7695Z"/>
<path id="path2_fill" d="M 4.68578 2.57727C 4.68578 1.82294 4.09245 1.38292 3.16442 1.38292C 2.2112 1.44863 1.31121 1.86057 0.623757 2.54584L -3.19194e-07 1.33578C 0.92722 0.525753 2.0882 0.0560029 3.30135 0C 5.06612 0 6.34406 0.927187 6.34406 2.35726C 6.14507 3.55044 5.54096 4.63132 4.64014 5.40597L 2.09947 7.99895L 6.66355 7.99895L 6.66355 9.42902L 0.0912818 9.42902L 0.0912818 8.26611L 3.4687 4.57307C 4.08834 4.07575 4.51912 3.36934 4.68578 2.57727Z"/>
<path id="path3_fill" d="M 6.81568 6.52174C 6.81568 8.26611 5.44646 9.47617 3.27092 9.47617C 2.1084 9.48184 0.970269 9.13188 3.48211e-07 8.4704L 0.638971 7.19749C 1.34769 7.82235 2.24786 8.16756 3.17964 8.17182C 4.54886 8.17182 5.35518 7.5275 5.35518 6.60031C 5.35518 5.67313 4.54886 5.02881 3.16442 5.02881L 1.88648 5.02881L 1.88648 4.11734L 4.53365 1.49293L 0.441194 1.49293L 0.441194 0L 6.37449 0L 6.37449 0.990047L 3.40784 3.96019L 3.94032 3.96019C 5.68988 4.14877 6.81568 5.02881 6.81568 6.52174Z"/>
<path id="path4_stroke" d="M 1 -7.49351e-08C 1 -0.552285 0.552285 -1 -1.33514e-07 -1C -0.552285 -1 -1 -0.552285 -1 -7.49351e-08L 1 -7.49351e-08ZM -1 5.0131C -1 5.56538 -0.552285 6.0131 -1.33514e-07 6.0131C 0.552285 6.0131 1 5.56538 1 5.0131L -1 5.0131ZM -1 -7.49351e-08L -1 5.0131L 1 5.0131L 1 -7.49351e-08L -1 -7.49351e-08Z"/>
<path id="path5_stroke" d="M 1 -7.49351e-08C 1 -0.552285 0.552285 -1 4.57764e-07 -1C -0.552284 -1 -1 -0.552285 -1 -7.49351e-08L 1 -7.49351e-08ZM -1 5.0131C -1 5.56538 -0.552284 6.0131 4.57764e-07 6.0131C 0.552285 6.0131 1 5.56538 1 5.0131L -1 5.0131ZM -1 -7.49351e-08L -1 5.0131L 1 5.0131L 1 -7.49351e-08L -1 -7.49351e-08Z"/>
</defs>
</svg>
