<svg width="29" height="35" viewBox="0 0 29 35" version="1.1" xmlns="http://www.w3.org/2000/svg" xmlns:xlink="http://www.w3.org/1999/xlink">
<title>Grey Icon</title>
<desc>Created using Figma</desc>
<g id="Canvas" transform="translate(2361 2790)">
<rect x="-2361" y="-2790" width="29" height="35" fill="#E5E5E5"/>
<clipPath id="clip-0" clip-rule="evenodd">
<path d="M -2384 -3161L -944 -3161L -944 -2137L -2384 -2137L -2384 -3161Z" fill="#FFFFFF"/>
</clipPath>
<g id="Calendar" clip-path="url(#clip-0)">
<path d="M -2384 -3161L -944 -3161L -944 -2137L -2384 -2137L -2384 -3161Z" fill="#FFFFFF"/>
<g id="Student Cordinator Navigation">
<g id="dining hall navigation">
<clipPath id="clip-1" clip-rule="evenodd">
<path d="M -2384 -3161L -2124 -3161L -2124 -2137L -2384 -2137L -2384 -3161Z" fill="#FFFFFF"/>
</clipPath>
<g id="Frame" clip-path="url(#clip-1)">
<path d="M -2384 -3161L -2124 -3161L -2124 -2137L -2384 -2137L -2384 -3161Z" fill="#FFFFFF"/>
<g id="Rectangle" filter="url(#filter0_i)">
<use xlink:href="#path0_fill" transform="translate(-2384 -3161)" fill="#FFFFFF"/>
</g>
<g id="Directory">
<g id="Inactive">
<g id="Grey Icon">
<g id="directory icon">
<g id="Vector">
<use xlink:href="#path1_fill" transform="translate(-2357.68 -2790)" fill="#687178"/>
</g>
<g id="Vector">
<use xlink:href="#path2_stroke" transform="translate(-2359.88 -2782.98)" fill="#687178"/>
</g>
<g id="Vector">
<use xlink:href="#path3_stroke" transform="translate(-2359.88 -2773.43)" fill="#687178"/>
</g>
<g id="Vector">
<use xlink:href="#path4_stroke" transform="translate(-2359.88 -2763.86)" fill="#687178"/>
</g>
<g id="Vector">
<use xlink:href="#path5_fill" transform="translate(-2357.61 -2758.2)" fill="#687178"/>
</g>
<g id="Vector">
<use xlink:href="#path6_stroke" transform="translate(-2347.32 -2781.8)" fill="#687178"/>
</g>
<g id="Vector">
<use xlink:href="#path7_stroke" transform="translate(-2350.68 -2773.73)" fill="#687178"/>
</g>
</g>
</g>
</g>
</g>
</g>
</g>
</g>
</g>
</g>
<defs>
<filter id="filter0_i" filterUnits="userSpaceOnUse" x="-2384" y="-3161" width="260" height="1024" color-interpolation-filters="sRGB">
<feFlood flood-opacity="0" result="BackgroundImageFix"/>
<feBlend mode="normal" in="SourceGraphic" in2="BackgroundImageFix" result="shape"/>
<feColorMatrix in="SourceAlpha" type="matrix" values="0 0 0 0 0 0 0 0 0 0 0 0 0 0 0 0 0 0 255 0" result="hardAlpha"/>
<feOffset dx="-1" dy="0"/>
<feComposite in2="hardAlpha" operator="arithmetic" k2="-1" k3="1"/>
<feColorMatrix type="matrix" values="0 0 0 0 0.866667 0 0 0 0 0.866667 0 0 0 0 0.866667 0 0 0 1 0"/>
<feBlend mode="normal" in2="shape" result="effect1_innerShadow"/>
</filter>
<path id="path0_fill" fill-rule="evenodd" d="M 0 0L 260 0L 260 1024L 0 1024L 0 0Z"/>
<path id="path1_fill" d="M 23.6055 1.21023C 23.6385 1.21023 23.6701 1.22383 23.6935 1.24804C 23.7168 1.27225 23.7299 1.30509 23.7299 1.33933L 23.7299 31.805C 23.7299 31.8392 23.7168 31.872 23.6935 31.8962C 23.6701 31.9205 23.6385 31.9341 23.6055 31.9341L 1.29068 31.9341C 1.25769 31.9341 1.22605 31.9205 1.20272 31.8962C 1.17939 31.872 1.16628 31.8392 1.16628 31.805L 1.16628 1.33933C 1.16628 1.30509 1.17939 1.27225 1.20272 1.24804C 1.22605 1.22383 1.25769 1.21023 1.29068 1.21023L 23.6055 1.21023ZM 23.6055 0L 1.29068 0C 0.948372 0 0.620082 0.141107 0.378032 0.392279C 0.135982 0.643452 1.1864e-07 0.984115 1.1864e-07 1.33933L 1.1864e-07 31.805C 0.0159903 32.1489 0.158999 32.4732 0.399338 32.7105C 0.639677 32.9479 0.958881 33.0801 1.29068 33.0797L 23.6055 33.0797C 23.9478 33.0797 24.2761 32.9386 24.5181 32.6875C 24.7602 32.4363 24.8962 32.0956 24.8962 31.7404L 24.8962 1.33933C 24.8962 0.984115 24.7602 0.643452 24.5181 0.392279C 24.2761 0.141107 23.9478 1.43321e-15 23.6055 0Z"/>
<path id="path2_stroke" d="M 0 -1C -0.552285 -1 -1 -0.552285 -1 -9.53674e-08C -1 0.552285 -0.552285 1 0 1L 0 -1ZM 4.52516 1C 5.07745 1 5.52516 0.552285 5.52516 -9.53674e-08C 5.52516 -0.552285 5.07745 -1 4.52516 -1L 4.52516 1ZM 0 1L 4.52516 1L 4.52516 -1L 0 -1L 0 1Z"/>
<path id="path3_stroke" d="M 0 -1C -0.552285 -1 -1 -0.552284 -1 4.57764e-07C -1 0.552285 -0.552285 1 0 1L 0 -1ZM 4.52516 1C 5.07745 1 5.52516 0.552285 5.52516 4.57764e-07C 5.52516 -0.552284 5.07745 -1 4.52516 -1L 4.52516 1ZM 0 1L 4.52516 1L 4.52516 -1L 0 -1L 0 1Z"/>
<path id="path4_stroke" d="M 0 -0.999999C -0.552285 -0.999999 -1 -0.552284 -1 7.62939e-07C -1 0.552285 -0.552285 1 0 1L 0 -0.999999ZM 4.52516 1C 5.07745 1 5.52516 0.552285 5.52516 7.62939e-07C 5.52516 -0.552284 5.07745 -0.999999 4.52516 -0.999999L 4.52516 1ZM 0 1L 4.52516 1L 4.52516 -0.999999L 0 -0.999999L 0 1Z"/>
<path id="path5_fill" d="M 23.6055 1.07727L 1.22848 1.07727C 0.902667 1.07727 0.590199 0.963774 0.359814 0.761746C 0.129429 0.559718 5.932e-08 0.285709 5.932e-08 -1.24845e-06L 5.932e-08 1.62273C 5.932e-08 1.90844 0.129429 2.18245 0.359814 2.38447C 0.590199 2.5865 0.902667 2.7 1.22848 2.7L 23.6055 2.7C 23.9313 2.7 24.2438 2.5865 24.4742 2.38447C 24.7045 2.18245 24.834 1.90844 24.834 1.62273L 24.834 0.0545455C 24.818 0.330697 24.6816 0.590892 24.4529 0.781269C 24.2242 0.971646 23.9208 1.07763 23.6055 1.07727Z"/>
<path id="path6_stroke" d="M 5.03355 3.13047C 5.03355 4.34229 4.09606 5.26095 3.01678 5.26095L 3.01678 7.26095C 5.26973 7.26095 7.03355 5.37648 7.03355 3.13047L 5.03355 3.13047ZM 3.01678 5.26095C 1.93749 5.26095 1 4.34229 1 3.13047L -1 3.13047C -1 5.37648 0.763825 7.26095 3.01678 7.26095L 3.01678 5.26095ZM 1 3.13047C 1 1.91865 1.93749 1 3.01678 1L 3.01678 -1C 0.763825 -1 -1 0.884467 -1 3.13047L 1 3.13047ZM 3.01678 1C 4.09606 1 5.03355 1.91865 5.03355 3.13047L 7.03355 3.13047C 7.03355 0.884468 5.26973 -1 3.01678 -1L 3.01678 1Z"/>
<path id="path7_stroke" d="M 1.1864e-07 5.42185L -1 5.42185L -1 6.42185L 1.1864e-07 6.42185L 1.1864e-07 5.42185ZM 12.7513 5.42185L 12.7513 6.42185L 13.7513 6.42185L 13.7513 5.42185L 12.7513 5.42185ZM 1 5.42185C 1 3.13434 3.2559 1 6.37566 1L 6.37566 -1C 2.46664 -1 -1 1.73887 -1 5.42185L 1 5.42185ZM 6.37566 1C 9.49748 1 11.7513 3.11996 11.7513 5.42185L 13.7513 5.42185C 13.7513 1.72098 10.2826 -1 6.37566 -1L 6.37566 1ZM 12.7513 4.42185L 1.1864e-07 4.42185L 1.1864e-07 6.42185L 12.7513 6.42185L 12.7513 4.42185Z"/>
</defs>
</svg>
