<svg width="16" height="14" viewBox="0 0 16 14" version="1.1" xmlns="http://www.w3.org/2000/svg" xmlns:xlink="http://www.w3.org/1999/xlink">
<title>&#194;&#176;F</title>
<desc>Created using Figma</desc>
<g id="Canvas" transform="translate(-3770 -5139)">
<g id="&#194;&#176;F">
<use xlink:href="#path0_fill" transform="translate(3730.83 5134)" fill="#4F4F4F"/>
</g>
</g>
<defs>
<path id="path0_fill" d="M 39.582 8.70801C 39.582 7.94629 39.8457 7.29883 40.373 6.76562C 40.9062 6.23242 41.5537 5.96582 42.3154 5.96582C 43.0771 5.96582 43.7246 6.23242 44.2578 6.76562C 44.791 7.29297 45.0576 7.94043 45.0576 8.70801C 45.0576 9.2002 44.9375 9.65723 44.6973 10.0791C 44.457 10.4951 44.123 10.8262 43.6953 11.0723C 43.2676 11.3184 42.8076 11.4414 42.3154 11.4414C 41.5537 11.4414 40.9062 11.1777 40.373 10.6504C 39.8457 10.123 39.582 9.47559 39.582 8.70801ZM 40.5928 8.70801C 40.5928 9.18848 40.7627 9.5957 41.1025 9.92969C 41.4482 10.2637 41.8584 10.4307 42.333 10.4307C 42.8017 10.4307 43.2031 10.2666 43.5371 9.93848C 43.8769 9.60449 44.0469 9.19434 44.0469 8.70801C 44.0469 8.21582 43.8799 7.80566 43.5459 7.47754C 43.2178 7.14355 42.8135 6.97656 42.333 6.97656C 41.8467 6.97656 41.4336 7.14355 41.0937 7.47754C 40.7598 7.81152 40.5928 8.22168 40.5928 8.70801ZM 49.4433 19L 47.9492 19L 47.9492 6.15039L 55.1123 6.15039L 55.1123 7.47754L 49.4433 7.47754L 49.4433 12.1797L 54.7695 12.1797L 54.7695 13.5068L 49.4433 13.5068L 49.4433 19Z"/>
</defs>
</svg>
