<svg width="31" height="31" viewBox="0 0 31 31" version="1.1" xmlns="http://www.w3.org/2000/svg" xmlns:xlink="http://www.w3.org/1999/xlink">
<title>Log icon</title>
<desc>Created using Figma</desc>
<g id="Canvas" transform="translate(2357 2870)">
<rect x="-2357" y="-2870" width="31" height="31" fill="#E5E5E5"/>
<clipPath id="clip-0" clip-rule="evenodd">
<path d="M -2384 -3161L -944 -3161L -944 -2137L -2384 -2137L -2384 -3161Z" fill="#FFFFFF"/>
</clipPath>
<g id="Calendar" clip-path="url(#clip-0)">
<path d="M -2384 -3161L -944 -3161L -944 -2137L -2384 -2137L -2384 -3161Z" fill="#FFFFFF"/>
<g id="Student Cordinator Navigation">
<g id="dining hall navigation">
<clipPath id="clip-1" clip-rule="evenodd">
<path d="M -2384 -3161L -2124 -3161L -2124 -2137L -2384 -2137L -2384 -3161Z" fill="#FFFFFF"/>
</clipPath>
<g id="Frame" clip-path="url(#clip-1)">
<path d="M -2384 -3161L -2124 -3161L -2124 -2137L -2384 -2137L -2384 -3161Z" fill="#FFFFFF"/>
<g id="Rectangle" filter="url(#filter0_i)">
<use xlink:href="#path0_fill" transform="translate(-2384 -3161)" fill="#FFFFFF"/>
</g>
<g id="Food Logs">
<g id="Inactive">
<g id="Grey Icon">
<g id="Log icon">
<g id="Vector">
<use xlink:href="#path1_stroke" transform="translate(-2355.87 -2867.29)" fill="#687178"/>
</g>
<g id="Group">
<g id="Vector">
<use xlink:href="#path2_stroke" transform="translate(-2351.12 -2869)" fill="#687178"/>
</g>
<g id="Vector">
<use xlink:href="#path3_stroke" transform="translate(-2346.94 -2869)" fill="#687178"/>
</g>
<g id="Vector">
<use xlink:href="#path4_stroke" transform="translate(-2342.77 -2869)" fill="#687178"/>
</g>
<g id="Vector">
<use xlink:href="#path5_stroke" transform="translate(-2338.59 -2869)" fill="#687178"/>
</g>
</g>
<g id="Vector">
<use xlink:href="#path6_stroke" transform="translate(-2352.57 -2860.88)" fill="#687178"/>
</g>
<g id="Vector">
<use xlink:href="#path6_stroke" transform="translate(-2352.57 -2857.17)" fill="#687178"/>
</g>
<g id="Vector">
<use xlink:href="#path7_stroke" transform="translate(-2352.57 -2853.47)" fill="#687178"/>
</g>
<g id="Vector">
<use xlink:href="#path8_stroke" transform="translate(-2352.57 -2849.76)" fill="#687178"/>
</g>
<g id="Vector">
<use xlink:href="#path9_stroke" transform="translate(-2342.94 -2862.32)" fill="#687178"/>
</g>
</g>
</g>
</g>
</g>
</g>
</g>
</g>
</g>
</g>
<defs>
<filter id="filter0_i" filterUnits="userSpaceOnUse" x="-2384" y="-3161" width="260" height="1024" color-interpolation-filters="sRGB">
<feFlood flood-opacity="0" result="BackgroundImageFix"/>
<feBlend mode="normal" in="SourceGraphic" in2="BackgroundImageFix" result="shape"/>
<feColorMatrix in="SourceAlpha" type="matrix" values="0 0 0 0 0 0 0 0 0 0 0 0 0 0 0 0 0 0 255 0" result="hardAlpha"/>
<feOffset dx="-1" dy="0"/>
<feComposite in2="hardAlpha" operator="arithmetic" k2="-1" k3="1"/>
<feColorMatrix type="matrix" values="0 0 0 0 0.866667 0 0 0 0 0.866667 0 0 0 0 0.866667 0 0 0 1 0"/>
<feBlend mode="normal" in2="shape" result="effect1_innerShadow"/>
</filter>
<path id="path0_fill" fill-rule="evenodd" d="M 0 0L 260 0L 260 1024L 0 1024L 0 0Z"/>
<path id="path1_stroke" d="M 14.0914 18.7712L 13.5307 18.2731L 13.418 18.3999L 13.3709 18.5627L 14.0914 18.7712ZM 12.9316 22.78L 12.2111 22.5716L 11.7683 24.1022L 13.2301 23.468L 12.9316 22.78ZM 16.8072 21.0986L 17.1057 21.7866L 17.2582 21.7204L 17.3685 21.596L 16.8072 21.0986ZM 22.0359 15.1993L 22.7859 15.1993L 22.7859 13.2224L 21.4746 14.7019L 22.0359 15.1993ZM 1.85566 27.1783L 1.8487 27.9283L 1.85566 27.9283L 1.85566 27.1783ZM 22.0456 9.80357L 22.6071 10.3008L 22.7956 10.0879L 22.7956 9.80357L 22.0456 9.80357ZM 18.4792 13.8314L 19.04 14.3295L 19.0408 14.3286L 18.4792 13.8314ZM 13.3709 18.5627L 12.2111 22.5716L 13.6521 22.9884L 14.8118 18.9796L 13.3709 18.5627ZM 13.2301 23.468L 17.1057 21.7866L 16.5087 20.4105L 12.6331 22.092L 13.2301 23.468ZM 17.3685 21.596L 22.5972 15.6968L 21.4746 14.7019L 16.2459 20.6011L 17.3685 21.596ZM 21.2859 15.1993L 21.2859 25.3544L 22.7859 25.3544L 22.7859 15.1993L 21.2859 15.1993ZM 21.2859 25.3544C 21.2859 25.935 20.8028 26.4283 20.1802 26.4283L 20.1802 27.9283C 21.6067 27.9283 22.7859 26.7877 22.7859 25.3544L 21.2859 25.3544ZM 20.1802 26.4283L 1.85566 26.4283L 1.85566 27.9283L 20.1802 27.9283L 20.1802 26.4283ZM 1.86261 26.4283C 1.23338 26.4225 0.75 25.9243 0.75 25.3449L -0.75 25.3449C -0.75 26.7794 0.428974 27.9151 1.8487 27.9283L 1.86261 26.4283ZM 0.75 25.3449L 0.75 1.82392L -0.75 1.82392L -0.75 25.3449L 0.75 25.3449ZM 0.75 1.82392C 0.75 1.24332 1.23314 0.75 1.85566 0.75L 1.85566 -0.75C 0.429215 -0.75 -0.75 0.390606 -0.75 1.82392L 0.75 1.82392ZM 1.85566 0.75L 20.1899 0.75L 20.1899 -0.75L 1.85566 -0.75L 1.85566 0.75ZM 20.1899 0.75C 20.8124 0.75 21.2956 1.24332 21.2956 1.82392L 22.7956 1.82392C 22.7956 0.390606 21.6164 -0.75 20.1899 -0.75L 20.1899 0.75ZM 21.2956 1.82392L 21.2956 9.80357L 22.7956 9.80357L 22.7956 1.82392L 21.2956 1.82392ZM 21.484 9.30638L 17.9177 13.3342L 19.0408 14.3286L 22.6071 10.3008L 21.484 9.30638ZM 17.9185 13.3333L 13.5307 18.2731L 14.6521 19.2692L 19.04 14.3295L 17.9185 13.3333Z"/>
<path id="path2_stroke" d="M 0.750001 0C 0.750001 -0.414214 0.414214 -0.75 7.62939e-07 -0.75C -0.414213 -0.75 -0.749999 -0.414214 -0.749999 0L 0.750001 0ZM -0.749999 3.54334C -0.749999 3.95756 -0.414213 4.29334 7.62939e-07 4.29334C 0.414214 4.29334 0.750001 3.95756 0.750001 3.54334L -0.749999 3.54334ZM -0.749999 0L -0.749999 3.54334L 0.750001 3.54334L 0.750001 0L -0.749999 0Z"/>
<path id="path3_stroke" d="M 0.750002 0C 0.750002 -0.414214 0.414215 -0.75 1.52588e-06 -0.75C -0.414212 -0.75 -0.749998 -0.414214 -0.749998 0L 0.750002 0ZM -0.749998 3.54334C -0.749998 3.95756 -0.414212 4.29334 1.52588e-06 4.29334C 0.414215 4.29334 0.750002 3.95756 0.750002 3.54334L -0.749998 3.54334ZM -0.749998 0L -0.749998 3.54334L 0.750002 3.54334L 0.750002 0L -0.749998 0Z"/>
<path id="path4_stroke" d="M 0.750006 0C 0.750006 -0.414214 0.41422 -0.75 6.10352e-06 -0.75C -0.414207 -0.75 -0.749994 -0.414214 -0.749994 0L 0.750006 0ZM -0.749994 3.54334C -0.749994 3.95756 -0.414207 4.29334 6.10352e-06 4.29334C 0.41422 4.29334 0.750006 3.95756 0.750006 3.54334L -0.749994 3.54334ZM -0.749994 0L -0.749994 3.54334L 0.750006 3.54334L 0.750006 0L -0.749994 0Z"/>
<path id="path5_stroke" d="M 0.750003 0C 0.750003 -0.414214 0.414217 -0.75 3.05176e-06 -0.75C -0.41421 -0.75 -0.749997 -0.414214 -0.749997 0L 0.750003 0ZM -0.749997 3.54334C -0.749997 3.95756 -0.41421 4.29334 3.05176e-06 4.29334C 0.414217 4.29334 0.750003 3.95756 0.750003 3.54334L -0.749997 3.54334ZM -0.749997 0L -0.749997 3.54334L 0.750003 3.54334L 0.750003 0L -0.749997 0Z"/>
<path id="path6_stroke" d="M 7.37371e-08 -0.75C -0.414213 -0.75 -0.75 -0.414214 -0.75 0C -0.75 0.414214 -0.414213 0.75 7.37371e-08 0.75L 7.37371e-08 -0.75ZM 15.4638 0.75C 15.878 0.75 16.2138 0.414214 16.2138 0C 16.2138 -0.414214 15.878 -0.75 15.4638 -0.75L 15.4638 0.75ZM 7.37371e-08 0.75L 15.4638 0.75L 15.4638 -0.75L 7.37371e-08 -0.75L 7.37371e-08 0.75Z"/>
<path id="path7_stroke" d="M 15.1642 0.75C 15.5784 0.75 15.9142 0.414214 15.9142 0C 15.9142 -0.414214 15.5784 -0.75 15.1642 -0.75L 15.1642 0.75ZM 7.37371e-08 -0.75C -0.414213 -0.75 -0.75 -0.414214 -0.75 0C -0.75 0.414214 -0.414213 0.75 7.37371e-08 0.75L 7.37371e-08 -0.75ZM 15.1642 -0.75L 7.37371e-08 -0.75L 7.37371e-08 0.75L 15.1642 0.75L 15.1642 -0.75Z"/>
<path id="path8_stroke" d="M 7.37371e-08 -0.75C -0.414213 -0.75 -0.75 -0.414214 -0.75 0C -0.75 0.414214 -0.414213 0.75 7.37371e-08 0.75L 7.37371e-08 -0.75ZM 8.78537 0.75C 9.19958 0.75 9.53537 0.414214 9.53537 0C 9.53537 -0.414214 9.19958 -0.75 8.78537 -0.75L 8.78537 0.75ZM 7.37371e-08 0.75L 8.78537 0.75L 8.78537 -0.75L 7.37371e-08 -0.75L 7.37371e-08 0.75Z"/>
<path id="path9_stroke" d="M 15.8697 2.59295L 16.4312 3.09027L 16.435 3.08589L 15.8697 2.59295ZM 9.10431 10.2306L 9.66558 10.7281L 9.66572 10.7279L 9.10431 10.2306ZM 3.87561 16.1299L 4.17412 16.8179C 4.27456 16.7743 4.36425 16.7093 4.43688 16.6273L 3.87561 16.1299ZM 2.94948e-07 17.8113L -0.720455 17.6028C -0.801188 17.8819 -0.71351 18.1825 -0.495404 18.3744C -0.277299 18.5663 0.0320028 18.6149 0.298504 18.4993L 2.94948e-07 17.8113ZM 1.15978 13.8025L 0.59851 13.305C 0.524652 13.3883 0.470276 13.4871 0.43933 13.594L 1.15978 13.8025ZM 5.53797 8.86267L 6.09925 9.36014L 6.09949 9.35986L 5.53797 8.86267ZM 9.10431 4.83485L 8.54294 4.33749L 8.54278 4.33767L 9.10431 4.83485ZM 13.1442 0.275052L 12.587 -0.227035L 12.5829 -0.222309L 13.1442 0.275052ZM 14.2943 0.199056L 13.8019 0.764749L 13.8066 0.7688L 14.2943 0.199056ZM 15.7924 1.4815L 15.3047 2.05124C 15.3093 2.05523 15.314 2.05917 15.3188 2.06304L 15.7924 1.4815ZM 15.3083 2.09565L 8.54289 9.73331L 9.66572 10.7279L 16.4311 3.09025L 15.3083 2.09565ZM 8.54304 9.73314L 3.31434 15.6324L 4.43688 16.6273L 9.66558 10.7281L 8.54304 9.73314ZM 3.57711 15.4418L -0.298503 17.1232L 0.298504 18.4993L 4.17412 16.8179L 3.57711 15.4418ZM 0.720455 18.0197L 1.88024 14.0109L 0.43933 13.594L -0.720455 17.6028L 0.720455 18.0197ZM 1.72106 14.2999L 6.09925 9.36014L 4.9767 8.36521L 0.59851 13.305L 1.72106 14.2999ZM 6.09949 9.35986L 9.66583 5.33204L 8.54278 4.33767L 4.97645 8.36549L 6.09949 9.35986ZM 9.66567 5.33221L 13.7056 0.772414L 12.5829 -0.222309L 8.54294 4.33749L 9.66567 5.33221ZM 13.7014 0.777122C 13.7165 0.760395 13.7357 0.751578 13.7561 0.750182C 13.7755 0.748849 13.79 0.754381 13.8019 0.764729L 14.7868 -0.366618C 14.1315 -0.937078 13.1531 -0.855186 12.5871 -0.227018L 13.7014 0.777122ZM 13.8066 0.7688L 15.3047 2.05124L 16.2801 0.911756L 14.7821 -0.370688L 13.8066 0.7688ZM 15.3188 2.06304C 15.3197 2.06378 15.3186 2.06286 15.3177 2.06115C 15.3172 2.06011 15.318 2.06125 15.3183 2.06512C 15.3188 2.07328 15.3164 2.08629 15.3045 2.10001L 16.435 3.08589C 16.9852 2.45493 16.9545 1.46068 16.266 0.899956L 15.3188 2.06304Z"/>
</defs>
</svg>
