<svg width="31" height="31" viewBox="0 0 31 31" version="1.1" xmlns="http://www.w3.org/2000/svg" xmlns:xlink="http://www.w3.org/1999/xlink">
<g id="Canvas" fill="none">
<g id="Grey Icon">
<g id="Log icon">
<g id="Vector">
<path d="M 14.0914 18.7712L 12.9316 22.78L 16.8072 21.0986L 22.0359 15.1993L 22.0359 25.3544C 22.0359 26.3613 21.2047 27.1783 20.1802 27.1783L 1.85566 27.1783C 0.831179 27.1688 0 26.3518 0 25.3449L 0 1.82392C 0 0.816964 0.831179 0 1.85566 0L 20.1899 0C 21.2144 0 22.0456 0.816964 22.0456 1.82392L 22.0456 9.80357L 18.4792 13.8314L 14.0914 18.7712Z" stroke-width="1.5" stroke-miterlimit="10" transform="translate(1.12744 2.71027)" stroke="#687178"/>
</g>
<g id="Group">
<g id="Vector_2">
<path d="M 7.62939e-07 0L 7.62939e-07 3.54334" stroke-width="1.5" stroke-miterlimit="10" stroke-linecap="round" transform="translate(5.88269 1)" stroke="#687178"/>
</g>
<g id="Vector_3">
<path d="M 1.52588e-06 0L 1.52588e-06 3.54334" stroke-width="1.5" stroke-miterlimit="10" stroke-linecap="round" transform="translate(10.0579 1)" stroke="#687178"/>
</g>
<g id="Vector_4">
<path d="M 6.10352e-06 0L 6.10352e-06 3.54334" stroke-width="1.5" stroke-miterlimit="10" stroke-linecap="round" transform="translate(14.2332 1)" stroke="#687178"/>
</g>
<g id="Vector_5">
<path d="M 3.05176e-06 0L 3.05176e-06 3.54334" stroke-width="1.5" stroke-miterlimit="10" stroke-linecap="round" transform="translate(18.4083 1)" stroke="#687178"/>
</g>
</g>
<g id="Vector_6">
<path d="M 7.37371e-08 0L 15.4638 0" stroke-width="1.5" stroke-miterlimit="10" stroke-linecap="round" transform="translate(4.4328 9.12201)" stroke="#687178"/>
</g>
<g id="Vector_7">
<path d="M 7.37371e-08 0L 15.4638 0" stroke-width="1.5" stroke-miterlimit="10" stroke-linecap="round" transform="translate(4.4328 12.8268)" stroke="#687178"/>
</g>
<g id="Vector_8">
<path d="M 15.1642 0L 7.37371e-08 0" stroke-width="1.5" stroke-miterlimit="10" stroke-linecap="round" transform="translate(4.4328 16.5312)" stroke="#687178"/>
</g>
<g id="Vector_9">
<path d="M 7.37371e-08 0L 8.78537 0" stroke-width="1.5" stroke-miterlimit="10" stroke-linecap="round" transform="translate(4.4328 20.2366)" stroke="#687178"/>
</g>
<g id="Vector_10">
<path d="M 15.8697 2.59295L 9.10431 10.2306L 3.87561 16.1299L 2.94948e-07 17.8113L 1.15978 13.8025L 5.53797 8.86267L 9.10431 4.83485L 13.1442 0.275052C 13.4438 -0.0574331 13.9561 -0.095431 14.2943 0.199056L 15.7924 1.4815C 16.1307 1.75699 16.1597 2.26046 15.8697 2.59295Z" stroke-width="1.5" stroke-miterlimit="10" stroke-linecap="round" stroke-linejoin="round" transform="translate(14.0591 7.6792)" stroke="#687178"/>
</g>
</g>
</g>
</g>
</svg>

