<svg width="45" height="28" viewBox="0 0 45 28" version="1.1" xmlns="http://www.w3.org/2000/svg" xmlns:xlink="http://www.w3.org/1999/xlink">
<title>delivery icon</title>
<desc>Created using Figma</desc>
<g id="Canvas" transform="matrix(0.75 0 0 0.75 -4307.25 -668.25)">
<g id="delivery icon">
<g id="Vector">
<mask id="mask0_outline_ins">
<use xlink:href="#path0_fill" fill="white" transform="matrix(0.999012 -0.0434677 0.0302027 0.9995 5761.4 918.68)"/>
</mask>
<g mask="url(#mask0_outline_ins)">
<use xlink:href="#path1_stroke_2x" transform="matrix(0.999012 -0.0434677 0.0302027 0.9995 5761.4 918.68)" fill="#37B674"/>
</g>
</g>
<g id="Vector">
<use xlink:href="#path2_fill" transform="translate(5785.8 898.599)" fill="#37B674"/>
</g>
<g id="Vector">
<mask id="mask1_outline_ins">
<use xlink:href="#path3_fill" fill="white" transform="translate(5790.64 918.515)"/>
</mask>
<g mask="url(#mask1_outline_ins)">
<use xlink:href="#path4_stroke_2x" transform="translate(5790.64 918.515)" fill="#37B674"/>
</g>
</g>
<g id="Vector">
<mask id="mask2_outline_ins">
<use xlink:href="#path5_fill" fill="white" transform="translate(5743 891)"/>
</mask>
<g mask="url(#mask2_outline_ins)">
<use xlink:href="#path6_stroke_2x" transform="translate(5743 891)" fill="#37B674"/>
</g>
</g>
</g>
</g>
<defs>
<path id="path0_fill" d="M 3.77649 9.05884C 5.86219 9.05884 7.55299 7.03095 7.55299 4.52942C 7.55299 2.02789 5.86219 0 3.77649 0C 1.69079 0 0 2.02789 0 4.52942C 0 7.03095 1.69079 9.05884 3.77649 9.05884Z"/>
<path id="path1_stroke_2x" d="M 6.05299 4.52942C 6.05299 6.46942 4.78997 7.55884 3.77649 7.55884L 3.77649 10.5588C 6.93442 10.5588 9.05299 7.59248 9.05299 4.52942L 6.05299 4.52942ZM 3.77649 7.55884C 2.76302 7.55884 1.5 6.46942 1.5 4.52942L -1.5 4.52942C -1.5 7.59248 0.618569 10.5588 3.77649 10.5588L 3.77649 7.55884ZM 1.5 4.52942C 1.5 2.58942 2.76302 1.5 3.77649 1.5L 3.77649 -1.5C 0.618569 -1.5 -1.5 1.46636 -1.5 4.52942L 1.5 4.52942ZM 3.77649 1.5C 4.78997 1.5 6.05299 2.58942 6.05299 4.52942L 9.05299 4.52942C 9.05299 1.46636 6.93442 -1.5 3.77649 -1.5L 3.77649 1.5Z"/>
<path id="path2_fill" d="M 10.7701 1.19354C 10.3209 0.436349 9.60428 0 8.83423 0L 0 0L 0 12.0638L 0 24.1275L 2.69519 24.1275C 2.83422 20.3672 5.43316 17.3513 8.59893 17.3513C 11.7647 17.3513 14.3636 20.3544 14.5027 24.1275L 17.1979 24.1275L 17.1979 12.0638L 10.7701 1.19354ZM 2.01069 10.1002L 2.01069 2.46409L 8.59893 2.46409L 12.8984 10.1002L 2.01069 10.1002Z"/>
<path id="path3_fill" d="M 3.7754 9.06066C 5.8605 9.06066 7.55081 7.03236 7.55081 4.53033C 7.55081 2.0283 5.8605 0 3.7754 0C 1.69031 0 0 2.0283 0 4.53033C 0 7.03236 1.69031 9.06066 3.7754 9.06066Z"/>
<path id="path4_stroke_2x" d="M 6.05081 4.53033C 6.05081 6.47157 4.78766 7.56066 3.7754 7.56066L 3.7754 10.5607C 6.93335 10.5607 9.05081 7.59315 9.05081 4.53033L 6.05081 4.53033ZM 3.7754 7.56066C 2.76315 7.56066 1.5 6.47157 1.5 4.53033L -1.5 4.53033C -1.5 7.59315 0.617465 10.5607 3.7754 10.5607L 3.7754 7.56066ZM 1.5 4.53033C 1.5 2.58909 2.76315 1.5 3.7754 1.5L 3.7754 -1.5C 0.617466 -1.5 -1.5 1.46751 -1.5 4.53033L 1.5 4.53033ZM 3.7754 1.5C 4.78766 1.5 6.05081 2.58909 6.05081 4.53033L 9.05081 4.53033C 9.05081 1.46751 6.93335 -1.5 3.7754 -1.5L 3.7754 1.5Z"/>
<path id="path5_fill" d="M 40.1925 0L 15.2406 0C 14.385 0 13.6898 0.834197 13.6898 1.8609L 13.6898 3.6833L 4.41711 3.6833C 3.71123 3.6833 3.13369 4.37632 3.13369 5.22336C 3.13369 6.07039 3.71123 6.76341 4.41711 6.76341L 13.6898 6.76341L 13.6898 9.266L 7.05883 9.266C 6.35294 9.266 5.7754 9.95903 5.7754 10.8061C 5.7754 11.6531 6.35294 12.3461 7.05883 12.3461L 13.6898 12.3461L 13.6898 14.8487L 1.28342 14.8487C 0.57754 14.8487 0 15.5417 0 16.3888C 0 17.2358 0.57754 17.9288 1.28342 17.9288L 13.6898 17.9288L 13.6898 29.8642C 13.6898 30.8909 14.385 31.7251 15.2406 31.7251L 16.4064 31.7251C 16.5455 28.0803 18.9947 25.0901 22.0963 24.9617C 22.1711 24.9617 22.246 24.9617 22.3102 24.9617C 25.4866 24.9617 28.0642 27.9263 28.2139 31.738L 40.1925 31.738C 41.0481 31.738 41.7433 30.9038 41.7433 29.8771L 41.7433 1.8609C 41.7433 0.834197 41.0481 0 40.1925 0Z"/>
<path id="path6_stroke_2x" d="M 13.6898 3.6833L 13.6898 5.1833L 15.1898 5.1833L 15.1898 3.6833L 13.6898 3.6833ZM 13.6898 6.76341L 15.1898 6.76341L 15.1898 5.26341L 13.6898 5.26341L 13.6898 6.76341ZM 13.6898 9.266L 13.6898 10.766L 15.1898 10.766L 15.1898 9.266L 13.6898 9.266ZM 13.6898 12.3461L 15.1898 12.3461L 15.1898 10.8461L 13.6898 10.8461L 13.6898 12.3461ZM 13.6898 14.8487L 13.6898 16.3487L 15.1898 16.3487L 15.1898 14.8487L 13.6898 14.8487ZM 13.6898 17.9288L 15.1898 17.9288L 15.1898 16.4288L 13.6898 16.4288L 13.6898 17.9288ZM 16.4064 31.7251L 16.4064 33.2251L 17.8503 33.2251L 17.9053 31.7823L 16.4064 31.7251ZM 22.0963 24.9617L 22.0963 23.4617L 22.0652 23.4617L 22.0343 23.463L 22.0963 24.9617ZM 28.2139 31.738L 26.7151 31.7969L 26.7717 33.238L 28.2139 33.238L 28.2139 31.738ZM 40.1925 -1.5L 15.2406 -1.5L 15.2406 1.5L 40.1925 1.5L 40.1925 -1.5ZM 15.2406 -1.5C 13.3122 -1.5 12.1898 0.273409 12.1898 1.8609L 15.1898 1.8609C 15.1898 1.68093 15.2516 1.55987 15.2967 1.50573C 15.3394 1.45454 15.3264 1.5 15.2406 1.5L 15.2406 -1.5ZM 12.1898 1.8609L 12.1898 3.6833L 15.1898 3.6833L 15.1898 1.8609L 12.1898 1.8609ZM 13.6898 2.1833L 4.41711 2.1833L 4.41711 5.1833L 13.6898 5.1833L 13.6898 2.1833ZM 4.41711 2.1833C 2.63839 2.1833 1.63369 3.81554 1.63369 5.22336L 4.63369 5.22336C 4.63369 5.13549 4.66463 5.09405 4.66301 5.09599C 4.66077 5.09868 4.6427 5.11945 4.60005 5.14119C 4.55478 5.16426 4.49091 5.1833 4.41711 5.1833L 4.41711 2.1833ZM 1.63369 5.22336C 1.63369 6.63117 2.63839 8.26341 4.41711 8.26341L 4.41711 5.26341C 4.49091 5.26341 4.55478 5.28245 4.60005 5.30552C 4.6427 5.32727 4.66077 5.34803 4.66301 5.35072C 4.66463 5.35266 4.63369 5.31122 4.63369 5.22336L 1.63369 5.22336ZM 4.41711 8.26341L 13.6898 8.26341L 13.6898 5.26341L 4.41711 5.26341L 4.41711 8.26341ZM 12.1898 6.76341L 12.1898 9.266L 15.1898 9.266L 15.1898 6.76341L 12.1898 6.76341ZM 13.6898 7.766L 7.05883 7.766L 7.05883 10.766L 13.6898 10.766L 13.6898 7.766ZM 7.05883 7.766C 5.2801 7.766 4.2754 9.39824 4.2754 10.8061L 7.2754 10.8061C 7.2754 10.7182 7.30634 10.6768 7.30473 10.6787C 7.30248 10.6814 7.28441 10.7021 7.24176 10.7239C 7.1965 10.747 7.13262 10.766 7.05883 10.766L 7.05883 7.766ZM 4.2754 10.8061C 4.2754 12.2139 5.2801 13.8461 7.05883 13.8461L 7.05883 10.8461C 7.13262 10.8461 7.1965 10.8651 7.24176 10.8882C 7.28441 10.91 7.30248 10.9307 7.30473 10.9334C 7.30634 10.9354 7.2754 10.8939 7.2754 10.8061L 4.2754 10.8061ZM 7.05883 13.8461L 13.6898 13.8461L 13.6898 10.8461L 7.05883 10.8461L 7.05883 13.8461ZM 12.1898 12.3461L 12.1898 14.8487L 15.1898 14.8487L 15.1898 12.3461L 12.1898 12.3461ZM 13.6898 13.3487L 1.28342 13.3487L 1.28342 16.3487L 13.6898 16.3487L 13.6898 13.3487ZM 1.28342 13.3487C -0.495303 13.3487 -1.5 14.9809 -1.5 16.3888L 1.5 16.3888C 1.5 16.3009 1.53094 16.2595 1.52932 16.2614C 1.52708 16.2641 1.50901 16.2848 1.46636 16.3066C 1.42109 16.3297 1.35722 16.3487 1.28342 16.3487L 1.28342 13.3487ZM -1.5 16.3888C -1.5 17.7966 -0.495303 19.4288 1.28342 19.4288L 1.28342 16.4288C 1.35722 16.4288 1.42109 16.4479 1.46636 16.4709C 1.50901 16.4927 1.52708 16.5134 1.52932 16.5161C 1.53094 16.5181 1.5 16.4766 1.5 16.3888L -1.5 16.3888ZM 1.28342 19.4288L 13.6898 19.4288L 13.6898 16.4288L 1.28342 16.4288L 1.28342 19.4288ZM 12.1898 17.9288L 12.1898 29.8642L 15.1898 29.8642L 15.1898 17.9288L 12.1898 17.9288ZM 12.1898 29.8642C 12.1898 31.4517 13.3122 33.2251 15.2406 33.2251L 15.2406 30.2251C 15.3264 30.2251 15.3394 30.2706 15.2967 30.2194C 15.2516 30.1653 15.1898 30.0442 15.1898 29.8642L 12.1898 29.8642ZM 15.2406 33.2251L 16.4064 33.2251L 16.4064 30.2251L 15.2406 30.2251L 15.2406 33.2251ZM 17.9053 31.7823C 18.0242 28.6676 20.0669 26.547 22.1583 26.4605L 22.0343 23.463C 17.9225 23.6332 15.0668 27.4931 14.9075 31.668L 17.9053 31.7823ZM 22.0963 26.4617C 22.0964 26.4617 22.0966 26.4617 22.0967 26.4617C 22.0969 26.4617 22.097 26.4617 22.0971 26.4617C 22.0973 26.4617 22.0974 26.4617 22.0976 26.4617C 22.0977 26.4617 22.0979 26.4617 22.098 26.4617C 22.0982 26.4617 22.0983 26.4617 22.0985 26.4617C 22.0986 26.4617 22.0988 26.4617 22.0989 26.4617C 22.099 26.4617 22.0992 26.4617 22.0993 26.4617C 22.0995 26.4617 22.0996 26.4617 22.0998 26.4617C 22.0999 26.4617 22.1001 26.4617 22.1002 26.4617C 22.1004 26.4617 22.1005 26.4617 22.1007 26.4617C 22.1008 26.4617 22.1009 26.4617 22.1011 26.4617C 22.1012 26.4617 22.1014 26.4617 22.1015 26.4617C 22.1017 26.4617 22.1018 26.4617 22.102 26.4617C 22.1021 26.4617 22.1023 26.4617 22.1024 26.4617C 22.1026 26.4617 22.1027 26.4617 22.1028 26.4617C 22.103 26.4617 22.1031 26.4617 22.1033 26.4617C 22.1034 26.4617 22.1036 26.4617 22.1037 26.4617C 22.1039 26.4617 22.104 26.4617 22.1042 26.4617C 22.1043 26.4617 22.1045 26.4617 22.1046 26.4617C 22.1047 26.4617 22.1049 26.4617 22.105 26.4617C 22.1052 26.4617 22.1053 26.4617 22.1055 26.4617C 22.1056 26.4617 22.1058 26.4617 22.1059 26.4617C 22.1061 26.4617 22.1062 26.4617 22.1064 26.4617C 22.1065 26.4617 22.1066 26.4617 22.1068 26.4617C 22.1069 26.4617 22.1071 26.4617 22.1072 26.4617C 22.1074 26.4617 22.1075 26.4617 22.1077 26.4617C 22.1078 26.4617 22.108 26.4617 22.1081 26.4617C 22.1083 26.4617 22.1084 26.4617 22.1085 26.4617C 22.1087 26.4617 22.1088 26.4617 22.109 26.4617C 22.1091 26.4617 22.1093 26.4617 22.1094 26.4617C 22.1096 26.4617 22.1097 26.4617 22.1099 26.4617C 22.11 26.4617 22.1102 26.4617 22.1103 26.4617C 22.1104 26.4617 22.1106 26.4617 22.1107 26.4617C 22.1109 26.4617 22.111 26.4617 22.1112 26.4617C 22.1113 26.4617 22.1115 26.4617 22.1116 26.4617C 22.1118 26.4617 22.1119 26.4617 22.1121 26.4617C 22.1122 26.4617 22.1123 26.4617 22.1125 26.4617C 22.1126 26.4617 22.1128 26.4617 22.1129 26.4617C 22.1131 26.4617 22.1132 26.4617 22.1134 26.4617C 22.1135 26.4617 22.1137 26.4617 22.1138 26.4617C 22.114 26.4617 22.1141 26.4617 22.1142 26.4617C 22.1144 26.4617 22.1145 26.4617 22.1147 26.4617C 22.1148 26.4617 22.115 26.4617 22.1151 26.4617C 22.1153 26.4617 22.1154 26.4617 22.1156 26.4617C 22.1157 26.4617 22.1159 26.4617 22.116 26.4617C 22.1161 26.4617 22.1163 26.4617 22.1164 26.4617C 22.1166 26.4617 22.1167 26.4617 22.1169 26.4617C 22.117 26.4617 22.1172 26.4617 22.1173 26.4617C 22.1175 26.4617 22.1176 26.4617 22.1178 26.4617C 22.1179 26.4617 22.118 26.4617 22.1182 26.4617C 22.1183 26.4617 22.1185 26.4617 22.1186 26.4617C 22.1188 26.4617 22.1189 26.4617 22.1191 26.4617C 22.1192 26.4617 22.1194 26.4617 22.1195 26.4617C 22.1197 26.4617 22.1198 26.4617 22.1199 26.4617C 22.1201 26.4617 22.1202 26.4617 22.1204 26.4617C 22.1205 26.4617 22.1207 26.4617 22.1208 26.4617C 22.121 26.4617 22.1211 26.4617 22.1213 26.4617C 22.1214 26.4617 22.1215 26.4617 22.1217 26.4617C 22.1218 26.4617 22.122 26.4617 22.1221 26.4617C 22.1223 26.4617 22.1224 26.4617 22.1226 26.4617C 22.1227 26.4617 22.1229 26.4617 22.123 26.4617C 22.1232 26.4617 22.1233 26.4617 22.1234 26.4617C 22.1236 26.4617 22.1237 26.4617 22.1239 26.4617C 22.124 26.4617 22.1242 26.4617 22.1243 26.4617C 22.1245 26.4617 22.1246 26.4617 22.1248 26.4617C 22.1249 26.4617 22.1251 26.4617 22.1252 26.4617C 22.1253 26.4617 22.1255 26.4617 22.1256 26.4617C 22.1258 26.4617 22.1259 26.4617 22.1261 26.4617C 22.1262 26.4617 22.1264 26.4617 22.1265 26.4617C 22.1267 26.4617 22.1268 26.4617 22.1269 26.4617C 22.1271 26.4617 22.1272 26.4617 22.1274 26.4617C 22.1275 26.4617 22.1277 26.4617 22.1278 26.4617C 22.128 26.4617 22.1281 26.4617 22.1283 26.4617C 22.1284 26.4617 22.1286 26.4617 22.1287 26.4617C 22.1288 26.4617 22.129 26.4617 22.1291 26.4617C 22.1293 26.4617 22.1294 26.4617 22.1296 26.4617C 22.1297 26.4617 22.1299 26.4617 22.13 26.4617C 22.1302 26.4617 22.1303 26.4617 22.1304 26.4617C 22.1306 26.4617 22.1307 26.4617 22.1309 26.4617C 22.131 26.4617 22.1312 26.4617 22.1313 26.4617C 22.1315 26.4617 22.1316 26.4617 22.1318 26.4617C 22.1319 26.4617 22.132 26.4617 22.1322 26.4617C 22.1323 26.4617 22.1325 26.4617 22.1326 26.4617C 22.1328 26.4617 22.1329 26.4617 22.1331 26.4617C 22.1332 26.4617 22.1334 26.4617 22.1335 26.4617C 22.1337 26.4617 22.1338 26.4617 22.1339 26.4617C 22.1341 26.4617 22.1342 26.4617 22.1344 26.4617C 22.1345 26.4617 22.1347 26.4617 22.1348 26.4617C 22.135 26.4617 22.1351 26.4617 22.1353 26.4617C 22.1354 26.4617 22.1355 26.4617 22.1357 26.4617C 22.1358 26.4617 22.136 26.4617 22.1361 26.4617C 22.1363 26.4617 22.1364 26.4617 22.1366 26.4617C 22.1367 26.4617 22.1369 26.4617 22.137 26.4617C 22.1371 26.4617 22.1373 26.4617 22.1374 26.4617C 22.1376 26.4617 22.1377 26.4617 22.1379 26.4617C 22.138 26.4617 22.1382 26.4617 22.1383 26.4617C 22.1385 26.4617 22.1386 26.4617 22.1387 26.4617C 22.1389 26.4617 22.139 26.4617 22.1392 26.4617C 22.1393 26.4617 22.1395 26.4617 22.1396 26.4617C 22.1398 26.4617 22.1399 26.4617 22.1401 26.4617C 22.1402 26.4617 22.1403 26.4617 22.1405 26.4617C 22.1406 26.4617 22.1408 26.4617 22.1409 26.4617C 22.1411 26.4617 22.1412 26.4617 22.1414 26.4617C 22.1415 26.4617 22.1417 26.4617 22.1418 26.4617C 22.1419 26.4617 22.1421 26.4617 22.1422 26.4617C 22.1424 26.4617 22.1425 26.4617 22.1427 26.4617C 22.1428 26.4617 22.143 26.4617 22.1431 26.4617C 22.1433 26.4617 22.1434 26.4617 22.1435 26.4617C 22.1437 26.4617 22.1438 26.4617 22.144 26.4617C 22.1441 26.4617 22.1443 26.4617 22.1444 26.4617C 22.1446 26.4617 22.1447 26.4617 22.1449 26.4617C 22.145 26.4617 22.1451 26.4617 22.1453 26.4617C 22.1454 26.4617 22.1456 26.4617 22.1457 26.4617C 22.1459 26.4617 22.146 26.4617 22.1462 26.4617C 22.1463 26.4617 22.1464 26.4617 22.1466 26.4617C 22.1467 26.4617 22.1469 26.4617 22.147 26.4617C 22.1472 26.4617 22.1473 26.4617 22.1475 26.4617C 22.1476 26.4617 22.1478 26.4617 22.1479 26.4617C 22.148 26.4617 22.1482 26.4617 22.1483 26.4617C 22.1485 26.4617 22.1486 26.4617 22.1488 26.4617C 22.1489 26.4617 22.1491 26.4617 22.1492 26.4617C 22.1494 26.4617 22.1495 26.4617 22.1496 26.4617C 22.1498 26.4617 22.1499 26.4617 22.1501 26.4617C 22.1502 26.4617 22.1504 26.4617 22.1505 26.4617C 22.1507 26.4617 22.1508 26.4617 22.1509 26.4617C 22.1511 26.4617 22.1512 26.4617 22.1514 26.4617C 22.1515 26.4617 22.1517 26.4617 22.1518 26.4617C 22.152 26.4617 22.1521 26.4617 22.1523 26.4617C 22.1524 26.4617 22.1525 26.4617 22.1527 26.4617C 22.1528 26.4617 22.153 26.4617 22.1531 26.4617C 22.1533 26.4617 22.1534 26.4617 22.1536 26.4617C 22.1537 26.4617 22.1538 26.4617 22.154 26.4617C 22.1541 26.4617 22.1543 26.4617 22.1544 26.4617C 22.1546 26.4617 22.1547 26.4617 22.1549 26.4617C 22.155 26.4617 22.1551 26.4617 22.1553 26.4617C 22.1554 26.4617 22.1556 26.4617 22.1557 26.4617C 22.1559 26.4617 22.156 26.4617 22.1562 26.4617C 22.1563 26.4617 22.1565 26.4617 22.1566 26.4617C 22.1567 26.4617 22.1569 26.4617 22.157 26.4617C 22.1572 26.4617 22.1573 26.4617 22.1575 26.4617C 22.1576 26.4617 22.1578 26.4617 22.1579 26.4617C 22.158 26.4617 22.1582 26.4617 22.1583 26.4617C 22.1585 26.4617 22.1586 26.4617 22.1588 26.4617C 22.1589 26.4617 22.1591 26.4617 22.1592 26.4617C 22.1593 26.4617 22.1595 26.4617 22.1596 26.4617C 22.1598 26.4617 22.1599 26.4617 22.1601 26.4617C 22.1602 26.4617 22.1604 26.4617 22.1605 26.4617C 22.1606 26.4617 22.1608 26.4617 22.1609 26.4617C 22.1611 26.4617 22.1612 26.4617 22.1614 26.4617C 22.1615 26.4617 22.1617 26.4617 22.1618 26.4617C 22.1619 26.4617 22.1621 26.4617 22.1622 26.4617C 22.1624 26.4617 22.1625 26.4617 22.1627 26.4617C 22.1628 26.4617 22.163 26.4617 22.1631 26.4617C 22.1632 26.4617 22.1634 26.4617 22.1635 26.4617C 22.1637 26.4617 22.1638 26.4617 22.164 26.4617C 22.1641 26.4617 22.1643 26.4617 22.1644 26.4617C 22.1645 26.4617 22.1647 26.4617 22.1648 26.4617C 22.165 26.4617 22.1651 26.4617 22.1653 26.4617C 22.1654 26.4617 22.1656 26.4617 22.1657 26.4617C 22.1658 26.4617 22.166 26.4617 22.1661 26.4617C 22.1663 26.4617 22.1664 26.4617 22.1666 26.4617C 22.1667 26.4617 22.1668 26.4617 22.167 26.4617C 22.1671 26.4617 22.1673 26.4617 22.1674 26.4617C 22.1676 26.4617 22.1677 26.4617 22.1679 26.4617C 22.168 26.4617 22.1681 26.4617 22.1683 26.4617C 22.1684 26.4617 22.1686 26.4617 22.1687 26.4617C 22.1689 26.4617 22.169 26.4617 22.1692 26.4617C 22.1693 26.4617 22.1694 26.4617 22.1696 26.4617C 22.1697 26.4617 22.1699 26.4617 22.17 26.4617C 22.1702 26.4617 22.1703 26.4617 22.1705 26.4617C 22.1706 26.4617 22.1707 26.4617 22.1709 26.4617C 22.171 26.4617 22.1712 26.4617 22.1713 26.4617C 22.1715 26.4617 22.1716 26.4617 22.1717 26.4617C 22.1719 26.4617 22.172 26.4617 22.1722 26.4617C 22.1723 26.4617 22.1725 26.4617 22.1726 26.4617C 22.1728 26.4617 22.1729 26.4617 22.173 26.4617C 22.1732 26.4617 22.1733 26.4617 22.1735 26.4617C 22.1736 26.4617 22.1738 26.4617 22.1739 26.4617C 22.174 26.4617 22.1742 26.4617 22.1743 26.4617C 22.1745 26.4617 22.1746 26.4617 22.1748 26.4617C 22.1749 26.4617 22.1751 26.4617 22.1752 26.4617C 22.1753 26.4617 22.1755 26.4617 22.1756 26.4617C 22.1758 26.4617 22.1759 26.4617 22.1761 26.4617C 22.1762 26.4617 22.1763 26.4617 22.1765 26.4617C 22.1766 26.4617 22.1768 26.4617 22.1769 26.4617C 22.1771 26.4617 22.1772 26.4617 22.1773 26.4617C 22.1775 26.4617 22.1776 26.4617 22.1778 26.4617C 22.1779 26.4617 22.1781 26.4617 22.1782 26.4617C 22.1784 26.4617 22.1785 26.4617 22.1786 26.4617C 22.1788 26.4617 22.1789 26.4617 22.1791 26.4617C 22.1792 26.4617 22.1794 26.4617 22.1795 26.4617C 22.1796 26.4617 22.1798 26.4617 22.1799 26.4617C 22.1801 26.4617 22.1802 26.4617 22.1804 26.4617C 22.1805 26.4617 22.1806 26.4617 22.1808 26.4617C 22.1809 26.4617 22.1811 26.4617 22.1812 26.4617C 22.1814 26.4617 22.1815 26.4617 22.1816 26.4617C 22.1818 26.4617 22.1819 26.4617 22.1821 26.4617C 22.1822 26.4617 22.1824 26.4617 22.1825 26.4617C 22.1826 26.4617 22.1828 26.4617 22.1829 26.4617C 22.1831 26.4617 22.1832 26.4617 22.1834 26.4617C 22.1835 26.4617 22.1837 26.4617 22.1838 26.4617C 22.1839 26.4617 22.1841 26.4617 22.1842 26.4617C 22.1844 26.4617 22.1845 26.4617 22.1847 26.4617C 22.1848 26.4617 22.1849 26.4617 22.1851 26.4617C 22.1852 26.4617 22.1854 26.4617 22.1855 26.4617C 22.1857 26.4617 22.1858 26.4617 22.1859 26.4617C 22.1861 26.4617 22.1862 26.4617 22.1864 26.4617C 22.1865 26.4617 22.1867 26.4617 22.1868 26.4617C 22.1869 26.4617 22.1871 26.4617 22.1872 26.4617C 22.1874 26.4617 22.1875 26.4617 22.1877 26.4617C 22.1878 26.4617 22.1879 26.4617 22.1881 26.4617C 22.1882 26.4617 22.1884 26.4617 22.1885 26.4617C 22.1887 26.4617 22.1888 26.4617 22.1889 26.4617C 22.1891 26.4617 22.1892 26.4617 22.1894 26.4617C 22.1895 26.4617 22.1896 26.4617 22.1898 26.4617C 22.1899 26.4617 22.1901 26.4617 22.1902 26.4617C 22.1904 26.4617 22.1905 26.4617 22.1906 26.4617C 22.1908 26.4617 22.1909 26.4617 22.1911 26.4617C 22.1912 26.4617 22.1914 26.4617 22.1915 26.4617C 22.1916 26.4617 22.1918 26.4617 22.1919 26.4617C 22.1921 26.4617 22.1922 26.4617 22.1924 26.4617C 22.1925 26.4617 22.1926 26.4617 22.1928 26.4617C 22.1929 26.4617 22.1931 26.4617 22.1932 26.4617C 22.1933 26.4617 22.1935 26.4617 22.1936 26.4617C 22.1938 26.4617 22.1939 26.4617 22.1941 26.4617C 22.1942 26.4617 22.1943 26.4617 22.1945 26.4617C 22.1946 26.4617 22.1948 26.4617 22.1949 26.4617C 22.1951 26.4617 22.1952 26.4617 22.1953 26.4617C 22.1955 26.4617 22.1956 26.4617 22.1958 26.4617C 22.1959 26.4617 22.1961 26.4617 22.1962 26.4617C 22.1963 26.4617 22.1965 26.4617 22.1966 26.4617C 22.1968 26.4617 22.1969 26.4617 22.197 26.4617C 22.1972 26.4617 22.1973 26.4617 22.1975 26.4617C 22.1976 26.4617 22.1978 26.4617 22.1979 26.4617C 22.198 26.4617 22.1982 26.4617 22.1983 26.4617C 22.1985 26.4617 22.1986 26.4617 22.1987 26.4617C 22.1989 26.4617 22.199 26.4617 22.1992 26.4617C 22.1993 26.4617 22.1995 26.4617 22.1996 26.4617C 22.1997 26.4617 22.1999 26.4617 22.2 26.4617C 22.2002 26.4617 22.2003 26.4617 22.2004 26.4617C 22.2006 26.4617 22.2007 26.4617 22.2009 26.4617C 22.201 26.4617 22.2012 26.4617 22.2013 26.4617C 22.2014 26.4617 22.2016 26.4617 22.2017 26.4617C 22.2019 26.4617 22.202 26.4617 22.2021 26.4617C 22.2023 26.4617 22.2024 26.4617 22.2026 26.4617C 22.2027 26.4617 22.2029 26.4617 22.203 26.4617C 22.2031 26.4617 22.2033 26.4617 22.2034 26.4617C 22.2036 26.4617 22.2037 26.4617 22.2038 26.4617C 22.204 26.4617 22.2041 26.4617 22.2043 26.4617C 22.2044 26.4617 22.2045 26.4617 22.2047 26.4617C 22.2048 26.4617 22.205 26.4617 22.2051 26.4617C 22.2053 26.4617 22.2054 26.4617 22.2055 26.4617C 22.2057 26.4617 22.2058 26.4617 22.206 26.4617C 22.2061 26.4617 22.2062 26.4617 22.2064 26.4617C 22.2065 26.4617 22.2067 26.4617 22.2068 26.4617C 22.2069 26.4617 22.2071 26.4617 22.2072 26.4617C 22.2074 26.4617 22.2075 26.4617 22.2077 26.4617C 22.2078 26.4617 22.2079 26.4617 22.2081 26.4617C 22.2082 26.4617 22.2084 26.4617 22.2085 26.4617C 22.2086 26.4617 22.2088 26.4617 22.2089 26.4617C 22.2091 26.4617 22.2092 26.4617 22.2093 26.4617C 22.2095 26.4617 22.2096 26.4617 22.2098 26.4617C 22.2099 26.4617 22.21 26.4617 22.2102 26.4617C 22.2103 26.4617 22.2105 26.4617 22.2106 26.4617C 22.2108 26.4617 22.2109 26.4617 22.211 26.4617C 22.2112 26.4617 22.2113 26.4617 22.2115 26.4617C 22.2116 26.4617 22.2117 26.4617 22.2119 26.4617C 22.212 26.4617 22.2122 26.4617 22.2123 26.4617C 22.2124 26.4617 22.2126 26.4617 22.2127 26.4617C 22.2129 26.4617 22.213 26.4617 22.2131 26.4617C 22.2133 26.4617 22.2134 26.4617 22.2136 26.4617C 22.2137 26.4617 22.2138 26.4617 22.214 26.4617C 22.2141 26.4617 22.2143 26.4617 22.2144 26.4617C 22.2145 26.4617 22.2147 26.4617 22.2148 26.4617C 22.215 26.4617 22.2151 26.4617 22.2152 26.4617C 22.2154 26.4617 22.2155 26.4617 22.2157 26.4617C 22.2158 26.4617 22.2159 26.4617 22.2161 26.4617C 22.2162 26.4617 22.2164 26.4617 22.2165 26.4617C 22.2166 26.4617 22.2168 26.4617 22.2169 26.4617C 22.2171 26.4617 22.2172 26.4617 22.2173 26.4617C 22.2175 26.4617 22.2176 26.4617 22.2178 26.4617C 22.2179 26.4617 22.218 26.4617 22.2182 26.4617C 22.2183 26.4617 22.2185 26.4617 22.2186 26.4617C 22.2187 26.4617 22.2189 26.4617 22.219 26.4617C 22.2192 26.4617 22.2193 26.4617 22.2194 26.4617C 22.2196 26.4617 22.2197 26.4617 22.2199 26.4617C 22.22 26.4617 22.2201 26.4617 22.2203 26.4617C 22.2204 26.4617 22.2206 26.4617 22.2207 26.4617C 22.2208 26.4617 22.221 26.4617 22.2211 26.4617C 22.2213 26.4617 22.2214 26.4617 22.2215 26.4617C 22.2217 26.4617 22.2218 26.4617 22.222 26.4617C 22.2221 26.4617 22.2222 26.4617 22.2224 26.4617C 22.2225 26.4617 22.2227 26.4617 22.2228 26.4617C 22.2229 26.4617 22.2231 26.4617 22.2232 26.4617C 22.2234 26.4617 22.2235 26.4617 22.2236 26.4617C 22.2238 26.4617 22.2239 26.4617 22.224 26.4617C 22.2242 26.4617 22.2243 26.4617 22.2245 26.4617C 22.2246 26.4617 22.2247 26.4617 22.2249 26.4617C 22.225 26.4617 22.2252 26.4617 22.2253 26.4617C 22.2254 26.4617 22.2256 26.4617 22.2257 26.4617C 22.2259 26.4617 22.226 26.4617 22.2261 26.4617C 22.2263 26.4617 22.2264 26.4617 22.2266 26.4617C 22.2267 26.4617 22.2268 26.4617 22.227 26.4617C 22.2271 26.4617 22.2272 26.4617 22.2274 26.4617C 22.2275 26.4617 22.2277 26.4617 22.2278 26.4617C 22.2279 26.4617 22.2281 26.4617 22.2282 26.4617C 22.2284 26.4617 22.2285 26.4617 22.2286 26.4617C 22.2288 26.4617 22.2289 26.4617 22.229 26.4617C 22.2292 26.4617 22.2293 26.4617 22.2295 26.4617C 22.2296 26.4617 22.2297 26.4617 22.2299 26.4617C 22.23 26.4617 22.2302 26.4617 22.2303 26.4617C 22.2304 26.4617 22.2306 26.4617 22.2307 26.4617C 22.2309 26.4617 22.231 26.4617 22.2311 26.4617C 22.2313 26.4617 22.2314 26.4617 22.2315 26.4617C 22.2317 26.4617 22.2318 26.4617 22.232 26.4617C 22.2321 26.4617 22.2322 26.4617 22.2324 26.4617C 22.2325 26.4617 22.2326 26.4617 22.2328 26.4617C 22.2329 26.4617 22.2331 26.4617 22.2332 26.4617C 22.2333 26.4617 22.2335 26.4617 22.2336 26.4617C 22.2338 26.4617 22.2339 26.4617 22.234 26.4617C 22.2342 26.4617 22.2343 26.4617 22.2344 26.4617C 22.2346 26.4617 22.2347 26.4617 22.2349 26.4617C 22.235 26.4617 22.2351 26.4617 22.2353 26.4617C 22.2354 26.4617 22.2355 26.4617 22.2357 26.4617C 22.2358 26.4617 22.236 26.4617 22.2361 26.4617C 22.2362 26.4617 22.2364 26.4617 22.2365 26.4617C 22.2367 26.4617 22.2368 26.4617 22.2369 26.4617C 22.2371 26.4617 22.2372 26.4617 22.2373 26.4617C 22.2375 26.4617 22.2376 26.4617 22.2378 26.4617C 22.2379 26.4617 22.238 26.4617 22.2382 26.4617C 22.2383 26.4617 22.2384 26.4617 22.2386 26.4617C 22.2387 26.4617 22.2389 26.4617 22.239 26.4617C 22.2391 26.4617 22.2393 26.4617 22.2394 26.4617C 22.2395 26.4617 22.2397 26.4617 22.2398 26.4617C 22.24 26.4617 22.2401 26.4617 22.2402 26.4617C 22.2404 26.4617 22.2405 26.4617 22.2406 26.4617C 22.2408 26.4617 22.2409 26.4617 22.241 26.4617C 22.2412 26.4617 22.2413 26.4617 22.2415 26.4617C 22.2416 26.4617 22.2417 26.4617 22.2419 26.4617C 22.242 26.4617 22.2421 26.4617 22.2423 26.4617C 22.2424 26.4617 22.2426 26.4617 22.2427 26.4617C 22.2428 26.4617 22.243 26.4617 22.2431 26.4617C 22.2432 26.4617 22.2434 26.4617 22.2435 26.4617C 22.2437 26.4617 22.2438 26.4617 22.2439 26.4617C 22.2441 26.4617 22.2442 26.4617 22.2443 26.4617C 22.2445 26.4617 22.2446 26.4617 22.2447 26.4617C 22.2449 26.4617 22.245 26.4617 22.2452 26.4617C 22.2453 26.4617 22.2454 26.4617 22.2456 26.4617C 22.2457 26.4617 22.2458 26.4617 22.246 26.4617C 22.2461 26.4617 22.2462 26.4617 22.2464 26.4617C 22.2465 26.4617 22.2467 26.4617 22.2468 26.4617C 22.2469 26.4617 22.2471 26.4617 22.2472 26.4617C 22.2473 26.4617 22.2475 26.4617 22.2476 26.4617C 22.2477 26.4617 22.2479 26.4617 22.248 26.4617C 22.2482 26.4617 22.2483 26.4617 22.2484 26.4617C 22.2486 26.4617 22.2487 26.4617 22.2488 26.4617C 22.249 26.4617 22.2491 26.4617 22.2492 26.4617C 22.2494 26.4617 22.2495 26.4617 22.2497 26.4617C 22.2498 26.4617 22.2499 26.4617 22.2501 26.4617C 22.2502 26.4617 22.2503 26.4617 22.2505 26.4617C 22.2506 26.4617 22.2507 26.4617 22.2509 26.4617C 22.251 26.4617 22.2512 26.4617 22.2513 26.4617C 22.2514 26.4617 22.2516 26.4617 22.2517 26.4617C 22.2518 26.4617 22.252 26.4617 22.2521 26.4617C 22.2522 26.4617 22.2524 26.4617 22.2525 26.4617C 22.2526 26.4617 22.2528 26.4617 22.2529 26.4617C 22.253 26.4617 22.2532 26.4617 22.2533 26.4617C 22.2535 26.4617 22.2536 26.4617 22.2537 26.4617C 22.2539 26.4617 22.254 26.4617 22.2541 26.4617C 22.2543 26.4617 22.2544 26.4617 22.2545 26.4617C 22.2547 26.4617 22.2548 26.4617 22.2549 26.4617C 22.2551 26.4617 22.2552 26.4617 22.2554 26.4617C 22.2555 26.4617 22.2556 26.4617 22.2558 26.4617C 22.2559 26.4617 22.256 26.4617 22.2562 26.4617C 22.2563 26.4617 22.2564 26.4617 22.2566 26.4617C 22.2567 26.4617 22.2568 26.4617 22.257 26.4617C 22.2571 26.4617 22.2572 26.4617 22.2574 26.4617C 22.2575 26.4617 22.2576 26.4617 22.2578 26.4617C 22.2579 26.4617 22.2581 26.4617 22.2582 26.4617C 22.2583 26.4617 22.2585 26.4617 22.2586 26.4617C 22.2587 26.4617 22.2589 26.4617 22.259 26.4617C 22.2591 26.4617 22.2593 26.4617 22.2594 26.4617C 22.2595 26.4617 22.2597 26.4617 22.2598 26.4617C 22.2599 26.4617 22.2601 26.4617 22.2602 26.4617C 22.2603 26.4617 22.2605 26.4617 22.2606 26.4617C 22.2607 26.4617 22.2609 26.4617 22.261 26.4617C 22.2611 26.4617 22.2613 26.4617 22.2614 26.4617C 22.2615 26.4617 22.2617 26.4617 22.2618 26.4617C 22.262 26.4617 22.2621 26.4617 22.2622 26.4617C 22.2624 26.4617 22.2625 26.4617 22.2626 26.4617C 22.2628 26.4617 22.2629 26.4617 22.263 26.4617C 22.2632 26.4617 22.2633 26.4617 22.2634 26.4617C 22.2636 26.4617 22.2637 26.4617 22.2638 26.4617C 22.264 26.4617 22.2641 26.4617 22.2642 26.4617C 22.2644 26.4617 22.2645 26.4617 22.2646 26.4617C 22.2648 26.4617 22.2649 26.4617 22.265 26.4617C 22.2652 26.4617 22.2653 26.4617 22.2654 26.4617C 22.2656 26.4617 22.2657 26.4617 22.2658 26.4617C 22.266 26.4617 22.2661 26.4617 22.2662 26.4617C 22.2664 26.4617 22.2665 26.4617 22.2666 26.4617C 22.2668 26.4617 22.2669 26.4617 22.267 26.4617C 22.2672 26.4617 22.2673 26.4617 22.2674 26.4617C 22.2676 26.4617 22.2677 26.4617 22.2678 26.4617C 22.268 26.4617 22.2681 26.4617 22.2682 26.4617C 22.2684 26.4617 22.2685 26.4617 22.2686 26.4617C 22.2688 26.4617 22.2689 26.4617 22.269 26.4617C 22.2692 26.4617 22.2693 26.4617 22.2694 26.4617C 22.2696 26.4617 22.2697 26.4617 22.2698 26.4617C 22.27 26.4617 22.2701 26.4617 22.2702 26.4617C 22.2704 26.4617 22.2705 26.4617 22.2706 26.4617C 22.2708 26.4617 22.2709 26.4617 22.271 26.4617C 22.2712 26.4617 22.2713 26.4617 22.2714 26.4617C 22.2716 26.4617 22.2717 26.4617 22.2718 26.4617C 22.272 26.4617 22.2721 26.4617 22.2722 26.4617C 22.2724 26.4617 22.2725 26.4617 22.2726 26.4617C 22.2728 26.4617 22.2729 26.4617 22.273 26.4617C 22.2731 26.4617 22.2733 26.4617 22.2734 26.4617C 22.2735 26.4617 22.2737 26.4617 22.2738 26.4617C 22.2739 26.4617 22.2741 26.4617 22.2742 26.4617C 22.2743 26.4617 22.2745 26.4617 22.2746 26.4617C 22.2747 26.4617 22.2749 26.4617 22.275 26.4617C 22.2751 26.4617 22.2753 26.4617 22.2754 26.4617C 22.2755 26.4617 22.2757 26.4617 22.2758 26.4617C 22.2759 26.4617 22.2761 26.4617 22.2762 26.4617C 22.2763 26.4617 22.2765 26.4617 22.2766 26.4617C 22.2767 26.4617 22.2768 26.4617 22.277 26.4617C 22.2771 26.4617 22.2772 26.4617 22.2774 26.4617C 22.2775 26.4617 22.2776 26.4617 22.2778 26.4617C 22.2779 26.4617 22.278 26.4617 22.2782 26.4617C 22.2783 26.4617 22.2784 26.4617 22.2786 26.4617C 22.2787 26.4617 22.2788 26.4617 22.279 26.4617C 22.2791 26.4617 22.2792 26.4617 22.2793 26.4617C 22.2795 26.4617 22.2796 26.4617 22.2797 26.4617C 22.2799 26.4617 22.28 26.4617 22.2801 26.4617C 22.2803 26.4617 22.2804 26.4617 22.2805 26.4617C 22.2807 26.4617 22.2808 26.4617 22.2809 26.4617C 22.2811 26.4617 22.2812 26.4617 22.2813 26.4617C 22.2814 26.4617 22.2816 26.4617 22.2817 26.4617C 22.2818 26.4617 22.282 26.4617 22.2821 26.4617C 22.2822 26.4617 22.2824 26.4617 22.2825 26.4617C 22.2826 26.4617 22.2828 26.4617 22.2829 26.4617C 22.283 26.4617 22.2831 26.4617 22.2833 26.4617C 22.2834 26.4617 22.2835 26.4617 22.2837 26.4617C 22.2838 26.4617 22.2839 26.4617 22.2841 26.4617C 22.2842 26.4617 22.2843 26.4617 22.2845 26.4617C 22.2846 26.4617 22.2847 26.4617 22.2848 26.4617C 22.285 26.4617 22.2851 26.4617 22.2852 26.4617C 22.2854 26.4617 22.2855 26.4617 22.2856 26.4617C 22.2858 26.4617 22.2859 26.4617 22.286 26.4617C 22.2861 26.4617 22.2863 26.4617 22.2864 26.4617C 22.2865 26.4617 22.2867 26.4617 22.2868 26.4617C 22.2869 26.4617 22.2871 26.4617 22.2872 26.4617C 22.2873 26.4617 22.2874 26.4617 22.2876 26.4617C 22.2877 26.4617 22.2878 26.4617 22.288 26.4617C 22.2881 26.4617 22.2882 26.4617 22.2884 26.4617C 22.2885 26.4617 22.2886 26.4617 22.2887 26.4617C 22.2889 26.4617 22.289 26.4617 22.2891 26.4617C 22.2893 26.4617 22.2894 26.4617 22.2895 26.4617C 22.2897 26.4617 22.2898 26.4617 22.2899 26.4617C 22.29 26.4617 22.2902 26.4617 22.2903 26.4617C 22.2904 26.4617 22.2906 26.4617 22.2907 26.4617C 22.2908 26.4617 22.2909 26.4617 22.2911 26.4617C 22.2912 26.4617 22.2913 26.4617 22.2915 26.4617C 22.2916 26.4617 22.2917 26.4617 22.2918 26.4617C 22.292 26.4617 22.2921 26.4617 22.2922 26.4617C 22.2924 26.4617 22.2925 26.4617 22.2926 26.4617C 22.2928 26.4617 22.2929 26.4617 22.293 26.4617C 22.2931 26.4617 22.2933 26.4617 22.2934 26.4617C 22.2935 26.4617 22.2937 26.4617 22.2938 26.4617C 22.2939 26.4617 22.294 26.4617 22.2942 26.4617C 22.2943 26.4617 22.2944 26.4617 22.2946 26.4617C 22.2947 26.4617 22.2948 26.4617 22.2949 26.4617C 22.2951 26.4617 22.2952 26.4617 22.2953 26.4617C 22.2955 26.4617 22.2956 26.4617 22.2957 26.4617C 22.2958 26.4617 22.296 26.4617 22.2961 26.4617C 22.2962 26.4617 22.2964 26.4617 22.2965 26.4617C 22.2966 26.4617 22.2967 26.4617 22.2969 26.4617C 22.297 26.4617 22.2971 26.4617 22.2972 26.4617C 22.2974 26.4617 22.2975 26.4617 22.2976 26.4617C 22.2978 26.4617 22.2979 26.4617 22.298 26.4617C 22.2981 26.4617 22.2983 26.4617 22.2984 26.4617C 22.2985 26.4617 22.2987 26.4617 22.2988 26.4617C 22.2989 26.4617 22.299 26.4617 22.2992 26.4617C 22.2993 26.4617 22.2994 26.4617 22.2995 26.4617C 22.2997 26.4617 22.2998 26.4617 22.2999 26.4617C 22.3001 26.4617 22.3002 26.4617 22.3003 26.4617C 22.3004 26.4617 22.3006 26.4617 22.3007 26.4617C 22.3008 26.4617 22.3009 26.4617 22.3011 26.4617C 22.3012 26.4617 22.3013 26.4617 22.3015 26.4617C 22.3016 26.4617 22.3017 26.4617 22.3018 26.4617C 22.302 26.4617 22.3021 26.4617 22.3022 26.4617C 22.3023 26.4617 22.3025 26.4617 22.3026 26.4617C 22.3027 26.4617 22.3029 26.4617 22.303 26.4617C 22.3031 26.4617 22.3032 26.4617 22.3034 26.4617C 22.3035 26.4617 22.3036 26.4617 22.3037 26.4617C 22.3039 26.4617 22.304 26.4617 22.3041 26.4617C 22.3043 26.4617 22.3044 26.4617 22.3045 26.4617C 22.3046 26.4617 22.3048 26.4617 22.3049 26.4617C 22.305 26.4617 22.3051 26.4617 22.3053 26.4617C 22.3054 26.4617 22.3055 26.4617 22.3056 26.4617C 22.3058 26.4617 22.3059 26.4617 22.306 26.4617C 22.3061 26.4617 22.3063 26.4617 22.3064 26.4617C 22.3065 26.4617 22.3067 26.4617 22.3068 26.4617C 22.3069 26.4617 22.307 26.4617 22.3072 26.4617C 22.3073 26.4617 22.3074 26.4617 22.3075 26.4617C 22.3077 26.4617 22.3078 26.4617 22.3079 26.4617C 22.308 26.4617 22.3082 26.4617 22.3083 26.4617C 22.3084 26.4617 22.3085 26.4617 22.3087 26.4617C 22.3088 26.4617 22.3089 26.4617 22.309 26.4617C 22.3092 26.4617 22.3093 26.4617 22.3094 26.4617C 22.3095 26.4617 22.3097 26.4617 22.3098 26.4617C 22.3099 26.4617 22.31 26.4617 22.3102 26.4617L 22.3102 23.4617C 22.31 23.4617 22.3099 23.4617 22.3098 23.4617C 22.3097 23.4617 22.3095 23.4617 22.3094 23.4617C 22.3093 23.4617 22.3092 23.4617 22.309 23.4617C 22.3089 23.4617 22.3088 23.4617 22.3087 23.4617C 22.3085 23.4617 22.3084 23.4617 22.3083 23.4617C 22.3082 23.4617 22.308 23.4617 22.3079 23.4617C 22.3078 23.4617 22.3077 23.4617 22.3075 23.4617C 22.3074 23.4617 22.3073 23.4617 22.3072 23.4617C 22.307 23.4617 22.3069 23.4617 22.3068 23.4617C 22.3067 23.4617 22.3065 23.4617 22.3064 23.4617C 22.3063 23.4617 22.3061 23.4617 22.306 23.4617C 22.3059 23.4617 22.3058 23.4617 22.3056 23.4617C 22.3055 23.4617 22.3054 23.4617 22.3053 23.4617C 22.3051 23.4617 22.305 23.4617 22.3049 23.4617C 22.3048 23.4617 22.3046 23.4617 22.3045 23.4617C 22.3044 23.4617 22.3043 23.4617 22.3041 23.4617C 22.304 23.4617 22.3039 23.4617 22.3037 23.4617C 22.3036 23.4617 22.3035 23.4617 22.3034 23.4617C 22.3032 23.4617 22.3031 23.4617 22.303 23.4617C 22.3029 23.4617 22.3027 23.4617 22.3026 23.4617C 22.3025 23.4617 22.3023 23.4617 22.3022 23.4617C 22.3021 23.4617 22.302 23.4617 22.3018 23.4617C 22.3017 23.4617 22.3016 23.4617 22.3015 23.4617C 22.3013 23.4617 22.3012 23.4617 22.3011 23.4617C 22.3009 23.4617 22.3008 23.4617 22.3007 23.4617C 22.3006 23.4617 22.3004 23.4617 22.3003 23.4617C 22.3002 23.4617 22.3001 23.4617 22.2999 23.4617C 22.2998 23.4617 22.2997 23.4617 22.2995 23.4617C 22.2994 23.4617 22.2993 23.4617 22.2992 23.4617C 22.299 23.4617 22.2989 23.4617 22.2988 23.4617C 22.2987 23.4617 22.2985 23.4617 22.2984 23.4617C 22.2983 23.4617 22.2981 23.4617 22.298 23.4617C 22.2979 23.4617 22.2978 23.4617 22.2976 23.4617C 22.2975 23.4617 22.2974 23.4617 22.2972 23.4617C 22.2971 23.4617 22.297 23.4617 22.2969 23.4617C 22.2967 23.4617 22.2966 23.4617 22.2965 23.4617C 22.2964 23.4617 22.2962 23.4617 22.2961 23.4617C 22.296 23.4617 22.2958 23.4617 22.2957 23.4617C 22.2956 23.4617 22.2955 23.4617 22.2953 23.4617C 22.2952 23.4617 22.2951 23.4617 22.2949 23.4617C 22.2948 23.4617 22.2947 23.4617 22.2946 23.4617C 22.2944 23.4617 22.2943 23.4617 22.2942 23.4617C 22.294 23.4617 22.2939 23.4617 22.2938 23.4617C 22.2937 23.4617 22.2935 23.4617 22.2934 23.4617C 22.2933 23.4617 22.2931 23.4617 22.293 23.4617C 22.2929 23.4617 22.2928 23.4617 22.2926 23.4617C 22.2925 23.4617 22.2924 23.4617 22.2922 23.4617C 22.2921 23.4617 22.292 23.4617 22.2918 23.4617C 22.2917 23.4617 22.2916 23.4617 22.2915 23.4617C 22.2913 23.4617 22.2912 23.4617 22.2911 23.4617C 22.2909 23.4617 22.2908 23.4617 22.2907 23.4617C 22.2906 23.4617 22.2904 23.4617 22.2903 23.4617C 22.2902 23.4617 22.29 23.4617 22.2899 23.4617C 22.2898 23.4617 22.2897 23.4617 22.2895 23.4617C 22.2894 23.4617 22.2893 23.4617 22.2891 23.4617C 22.289 23.4617 22.2889 23.4617 22.2887 23.4617C 22.2886 23.4617 22.2885 23.4617 22.2884 23.4617C 22.2882 23.4617 22.2881 23.4617 22.288 23.4617C 22.2878 23.4617 22.2877 23.4617 22.2876 23.4617C 22.2874 23.4617 22.2873 23.4617 22.2872 23.4617C 22.2871 23.4617 22.2869 23.4617 22.2868 23.4617C 22.2867 23.4617 22.2865 23.4617 22.2864 23.4617C 22.2863 23.4617 22.2861 23.4617 22.286 23.4617C 22.2859 23.4617 22.2858 23.4617 22.2856 23.4617C 22.2855 23.4617 22.2854 23.4617 22.2852 23.4617C 22.2851 23.4617 22.285 23.4617 22.2848 23.4617C 22.2847 23.4617 22.2846 23.4617 22.2845 23.4617C 22.2843 23.4617 22.2842 23.4617 22.2841 23.4617C 22.2839 23.4617 22.2838 23.4617 22.2837 23.4617C 22.2835 23.4617 22.2834 23.4617 22.2833 23.4617C 22.2831 23.4617 22.283 23.4617 22.2829 23.4617C 22.2828 23.4617 22.2826 23.4617 22.2825 23.4617C 22.2824 23.4617 22.2822 23.4617 22.2821 23.4617C 22.282 23.4617 22.2818 23.4617 22.2817 23.4617C 22.2816 23.4617 22.2814 23.4617 22.2813 23.4617C 22.2812 23.4617 22.2811 23.4617 22.2809 23.4617C 22.2808 23.4617 22.2807 23.4617 22.2805 23.4617C 22.2804 23.4617 22.2803 23.4617 22.2801 23.4617C 22.28 23.4617 22.2799 23.4617 22.2797 23.4617C 22.2796 23.4617 22.2795 23.4617 22.2793 23.4617C 22.2792 23.4617 22.2791 23.4617 22.279 23.4617C 22.2788 23.4617 22.2787 23.4617 22.2786 23.4617C 22.2784 23.4617 22.2783 23.4617 22.2782 23.4617C 22.278 23.4617 22.2779 23.4617 22.2778 23.4617C 22.2776 23.4617 22.2775 23.4617 22.2774 23.4617C 22.2772 23.4617 22.2771 23.4617 22.277 23.4617C 22.2768 23.4617 22.2767 23.4617 22.2766 23.4617C 22.2765 23.4617 22.2763 23.4617 22.2762 23.4617C 22.2761 23.4617 22.2759 23.4617 22.2758 23.4617C 22.2757 23.4617 22.2755 23.4617 22.2754 23.4617C 22.2753 23.4617 22.2751 23.4617 22.275 23.4617C 22.2749 23.4617 22.2747 23.4617 22.2746 23.4617C 22.2745 23.4617 22.2743 23.4617 22.2742 23.4617C 22.2741 23.4617 22.2739 23.4617 22.2738 23.4617C 22.2737 23.4617 22.2735 23.4617 22.2734 23.4617C 22.2733 23.4617 22.2731 23.4617 22.273 23.4617C 22.2729 23.4617 22.2728 23.4617 22.2726 23.4617C 22.2725 23.4617 22.2724 23.4617 22.2722 23.4617C 22.2721 23.4617 22.272 23.4617 22.2718 23.4617C 22.2717 23.4617 22.2716 23.4617 22.2714 23.4617C 22.2713 23.4617 22.2712 23.4617 22.271 23.4617C 22.2709 23.4617 22.2708 23.4617 22.2706 23.4617C 22.2705 23.4617 22.2704 23.4617 22.2702 23.4617C 22.2701 23.4617 22.27 23.4617 22.2698 23.4617C 22.2697 23.4617 22.2696 23.4617 22.2694 23.4617C 22.2693 23.4617 22.2692 23.4617 22.269 23.4617C 22.2689 23.4617 22.2688 23.4617 22.2686 23.4617C 22.2685 23.4617 22.2684 23.4617 22.2682 23.4617C 22.2681 23.4617 22.268 23.4617 22.2678 23.4617C 22.2677 23.4617 22.2676 23.4617 22.2674 23.4617C 22.2673 23.4617 22.2672 23.4617 22.267 23.4617C 22.2669 23.4617 22.2668 23.4617 22.2666 23.4617C 22.2665 23.4617 22.2664 23.4617 22.2662 23.4617C 22.2661 23.4617 22.266 23.4617 22.2658 23.4617C 22.2657 23.4617 22.2656 23.4617 22.2654 23.4617C 22.2653 23.4617 22.2652 23.4617 22.265 23.4617C 22.2649 23.4617 22.2648 23.4617 22.2646 23.4617C 22.2645 23.4617 22.2644 23.4617 22.2642 23.4617C 22.2641 23.4617 22.264 23.4617 22.2638 23.4617C 22.2637 23.4617 22.2636 23.4617 22.2634 23.4617C 22.2633 23.4617 22.2632 23.4617 22.263 23.4617C 22.2629 23.4617 22.2628 23.4617 22.2626 23.4617C 22.2625 23.4617 22.2624 23.4617 22.2622 23.4617C 22.2621 23.4617 22.262 23.4617 22.2618 23.4617C 22.2617 23.4617 22.2615 23.4617 22.2614 23.4617C 22.2613 23.4617 22.2611 23.4617 22.261 23.4617C 22.2609 23.4617 22.2607 23.4617 22.2606 23.4617C 22.2605 23.4617 22.2603 23.4617 22.2602 23.4617C 22.2601 23.4617 22.2599 23.4617 22.2598 23.4617C 22.2597 23.4617 22.2595 23.4617 22.2594 23.4617C 22.2593 23.4617 22.2591 23.4617 22.259 23.4617C 22.2589 23.4617 22.2587 23.4617 22.2586 23.4617C 22.2585 23.4617 22.2583 23.4617 22.2582 23.4617C 22.2581 23.4617 22.2579 23.4617 22.2578 23.4617C 22.2576 23.4617 22.2575 23.4617 22.2574 23.4617C 22.2572 23.4617 22.2571 23.4617 22.257 23.4617C 22.2568 23.4617 22.2567 23.4617 22.2566 23.4617C 22.2564 23.4617 22.2563 23.4617 22.2562 23.4617C 22.256 23.4617 22.2559 23.4617 22.2558 23.4617C 22.2556 23.4617 22.2555 23.4617 22.2554 23.4617C 22.2552 23.4617 22.2551 23.4617 22.2549 23.4617C 22.2548 23.4617 22.2547 23.4617 22.2545 23.4617C 22.2544 23.4617 22.2543 23.4617 22.2541 23.4617C 22.254 23.4617 22.2539 23.4617 22.2537 23.4617C 22.2536 23.4617 22.2535 23.4617 22.2533 23.4617C 22.2532 23.4617 22.253 23.4617 22.2529 23.4617C 22.2528 23.4617 22.2526 23.4617 22.2525 23.4617C 22.2524 23.4617 22.2522 23.4617 22.2521 23.4617C 22.252 23.4617 22.2518 23.4617 22.2517 23.4617C 22.2516 23.4617 22.2514 23.4617 22.2513 23.4617C 22.2512 23.4617 22.251 23.4617 22.2509 23.4617C 22.2507 23.4617 22.2506 23.4617 22.2505 23.4617C 22.2503 23.4617 22.2502 23.4617 22.2501 23.4617C 22.2499 23.4617 22.2498 23.4617 22.2497 23.4617C 22.2495 23.4617 22.2494 23.4617 22.2492 23.4617C 22.2491 23.4617 22.249 23.4617 22.2488 23.4617C 22.2487 23.4617 22.2486 23.4617 22.2484 23.4617C 22.2483 23.4617 22.2482 23.4617 22.248 23.4617C 22.2479 23.4617 22.2477 23.4617 22.2476 23.4617C 22.2475 23.4617 22.2473 23.4617 22.2472 23.4617C 22.2471 23.4617 22.2469 23.4617 22.2468 23.4617C 22.2467 23.4617 22.2465 23.4617 22.2464 23.4617C 22.2462 23.4617 22.2461 23.4617 22.246 23.4617C 22.2458 23.4617 22.2457 23.4617 22.2456 23.4617C 22.2454 23.4617 22.2453 23.4617 22.2452 23.4617C 22.245 23.4617 22.2449 23.4617 22.2447 23.4617C 22.2446 23.4617 22.2445 23.4617 22.2443 23.4617C 22.2442 23.4617 22.2441 23.4617 22.2439 23.4617C 22.2438 23.4617 22.2437 23.4617 22.2435 23.4617C 22.2434 23.4617 22.2432 23.4617 22.2431 23.4617C 22.243 23.4617 22.2428 23.4617 22.2427 23.4617C 22.2426 23.4617 22.2424 23.4617 22.2423 23.4617C 22.2421 23.4617 22.242 23.4617 22.2419 23.4617C 22.2417 23.4617 22.2416 23.4617 22.2415 23.4617C 22.2413 23.4617 22.2412 23.4617 22.241 23.4617C 22.2409 23.4617 22.2408 23.4617 22.2406 23.4617C 22.2405 23.4617 22.2404 23.4617 22.2402 23.4617C 22.2401 23.4617 22.24 23.4617 22.2398 23.4617C 22.2397 23.4617 22.2395 23.4617 22.2394 23.4617C 22.2393 23.4617 22.2391 23.4617 22.239 23.4617C 22.2389 23.4617 22.2387 23.4617 22.2386 23.4617C 22.2384 23.4617 22.2383 23.4617 22.2382 23.4617C 22.238 23.4617 22.2379 23.4617 22.2378 23.4617C 22.2376 23.4617 22.2375 23.4617 22.2373 23.4617C 22.2372 23.4617 22.2371 23.4617 22.2369 23.4617C 22.2368 23.4617 22.2367 23.4617 22.2365 23.4617C 22.2364 23.4617 22.2362 23.4617 22.2361 23.4617C 22.236 23.4617 22.2358 23.4617 22.2357 23.4617C 22.2355 23.4617 22.2354 23.4617 22.2353 23.4617C 22.2351 23.4617 22.235 23.4617 22.2349 23.4617C 22.2347 23.4617 22.2346 23.4617 22.2344 23.4617C 22.2343 23.4617 22.2342 23.4617 22.234 23.4617C 22.2339 23.4617 22.2338 23.4617 22.2336 23.4617C 22.2335 23.4617 22.2333 23.4617 22.2332 23.4617C 22.2331 23.4617 22.2329 23.4617 22.2328 23.4617C 22.2326 23.4617 22.2325 23.4617 22.2324 23.4617C 22.2322 23.4617 22.2321 23.4617 22.232 23.4617C 22.2318 23.4617 22.2317 23.4617 22.2315 23.4617C 22.2314 23.4617 22.2313 23.4617 22.2311 23.4617C 22.231 23.4617 22.2309 23.4617 22.2307 23.4617C 22.2306 23.4617 22.2304 23.4617 22.2303 23.4617C 22.2302 23.4617 22.23 23.4617 22.2299 23.4617C 22.2297 23.4617 22.2296 23.4617 22.2295 23.4617C 22.2293 23.4617 22.2292 23.4617 22.229 23.4617C 22.2289 23.4617 22.2288 23.4617 22.2286 23.4617C 22.2285 23.4617 22.2284 23.4617 22.2282 23.4617C 22.2281 23.4617 22.2279 23.4617 22.2278 23.4617C 22.2277 23.4617 22.2275 23.4617 22.2274 23.4617C 22.2272 23.4617 22.2271 23.4617 22.227 23.4617C 22.2268 23.4617 22.2267 23.4617 22.2266 23.4617C 22.2264 23.4617 22.2263 23.4617 22.2261 23.4617C 22.226 23.4617 22.2259 23.4617 22.2257 23.4617C 22.2256 23.4617 22.2254 23.4617 22.2253 23.4617C 22.2252 23.4617 22.225 23.4617 22.2249 23.4617C 22.2247 23.4617 22.2246 23.4617 22.2245 23.4617C 22.2243 23.4617 22.2242 23.4617 22.224 23.4617C 22.2239 23.4617 22.2238 23.4617 22.2236 23.4617C 22.2235 23.4617 22.2234 23.4617 22.2232 23.4617C 22.2231 23.4617 22.2229 23.4617 22.2228 23.4617C 22.2227 23.4617 22.2225 23.4617 22.2224 23.4617C 22.2222 23.4617 22.2221 23.4617 22.222 23.4617C 22.2218 23.4617 22.2217 23.4617 22.2215 23.4617C 22.2214 23.4617 22.2213 23.4617 22.2211 23.4617C 22.221 23.4617 22.2208 23.4617 22.2207 23.4617C 22.2206 23.4617 22.2204 23.4617 22.2203 23.4617C 22.2201 23.4617 22.22 23.4617 22.2199 23.4617C 22.2197 23.4617 22.2196 23.4617 22.2194 23.4617C 22.2193 23.4617 22.2192 23.4617 22.219 23.4617C 22.2189 23.4617 22.2187 23.4617 22.2186 23.4617C 22.2185 23.4617 22.2183 23.4617 22.2182 23.4617C 22.218 23.4617 22.2179 23.4617 22.2178 23.4617C 22.2176 23.4617 22.2175 23.4617 22.2173 23.4617C 22.2172 23.4617 22.2171 23.4617 22.2169 23.4617C 22.2168 23.4617 22.2166 23.4617 22.2165 23.4617C 22.2164 23.4617 22.2162 23.4617 22.2161 23.4617C 22.2159 23.4617 22.2158 23.4617 22.2157 23.4617C 22.2155 23.4617 22.2154 23.4617 22.2152 23.4617C 22.2151 23.4617 22.215 23.4617 22.2148 23.4617C 22.2147 23.4617 22.2145 23.4617 22.2144 23.4617C 22.2143 23.4617 22.2141 23.4617 22.214 23.4617C 22.2138 23.4617 22.2137 23.4617 22.2136 23.4617C 22.2134 23.4617 22.2133 23.4617 22.2131 23.4617C 22.213 23.4617 22.2129 23.4617 22.2127 23.4617C 22.2126 23.4617 22.2124 23.4617 22.2123 23.4617C 22.2122 23.4617 22.212 23.4617 22.2119 23.4617C 22.2117 23.4617 22.2116 23.4617 22.2115 23.4617C 22.2113 23.4617 22.2112 23.4617 22.211 23.4617C 22.2109 23.4617 22.2108 23.4617 22.2106 23.4617C 22.2105 23.4617 22.2103 23.4617 22.2102 23.4617C 22.21 23.4617 22.2099 23.4617 22.2098 23.4617C 22.2096 23.4617 22.2095 23.4617 22.2093 23.4617C 22.2092 23.4617 22.2091 23.4617 22.2089 23.4617C 22.2088 23.4617 22.2086 23.4617 22.2085 23.4617C 22.2084 23.4617 22.2082 23.4617 22.2081 23.4617C 22.2079 23.4617 22.2078 23.4617 22.2077 23.4617C 22.2075 23.4617 22.2074 23.4617 22.2072 23.4617C 22.2071 23.4617 22.2069 23.4617 22.2068 23.4617C 22.2067 23.4617 22.2065 23.4617 22.2064 23.4617C 22.2062 23.4617 22.2061 23.4617 22.206 23.4617C 22.2058 23.4617 22.2057 23.4617 22.2055 23.4617C 22.2054 23.4617 22.2053 23.4617 22.2051 23.4617C 22.205 23.4617 22.2048 23.4617 22.2047 23.4617C 22.2045 23.4617 22.2044 23.4617 22.2043 23.4617C 22.2041 23.4617 22.204 23.4617 22.2038 23.4617C 22.2037 23.4617 22.2036 23.4617 22.2034 23.4617C 22.2033 23.4617 22.2031 23.4617 22.203 23.4617C 22.2029 23.4617 22.2027 23.4617 22.2026 23.4617C 22.2024 23.4617 22.2023 23.4617 22.2021 23.4617C 22.202 23.4617 22.2019 23.4617 22.2017 23.4617C 22.2016 23.4617 22.2014 23.4617 22.2013 23.4617C 22.2012 23.4617 22.201 23.4617 22.2009 23.4617C 22.2007 23.4617 22.2006 23.4617 22.2004 23.4617C 22.2003 23.4617 22.2002 23.4617 22.2 23.4617C 22.1999 23.4617 22.1997 23.4617 22.1996 23.4617C 22.1995 23.4617 22.1993 23.4617 22.1992 23.4617C 22.199 23.4617 22.1989 23.4617 22.1987 23.4617C 22.1986 23.4617 22.1985 23.4617 22.1983 23.4617C 22.1982 23.4617 22.198 23.4617 22.1979 23.4617C 22.1978 23.4617 22.1976 23.4617 22.1975 23.4617C 22.1973 23.4617 22.1972 23.4617 22.197 23.4617C 22.1969 23.4617 22.1968 23.4617 22.1966 23.4617C 22.1965 23.4617 22.1963 23.4617 22.1962 23.4617C 22.1961 23.4617 22.1959 23.4617 22.1958 23.4617C 22.1956 23.4617 22.1955 23.4617 22.1953 23.4617C 22.1952 23.4617 22.1951 23.4617 22.1949 23.4617C 22.1948 23.4617 22.1946 23.4617 22.1945 23.4617C 22.1943 23.4617 22.1942 23.4617 22.1941 23.4617C 22.1939 23.4617 22.1938 23.4617 22.1936 23.4617C 22.1935 23.4617 22.1933 23.4617 22.1932 23.4617C 22.1931 23.4617 22.1929 23.4617 22.1928 23.4617C 22.1926 23.4617 22.1925 23.4617 22.1924 23.4617C 22.1922 23.4617 22.1921 23.4617 22.1919 23.4617C 22.1918 23.4617 22.1916 23.4617 22.1915 23.4617C 22.1914 23.4617 22.1912 23.4617 22.1911 23.4617C 22.1909 23.4617 22.1908 23.4617 22.1906 23.4617C 22.1905 23.4617 22.1904 23.4617 22.1902 23.4617C 22.1901 23.4617 22.1899 23.4617 22.1898 23.4617C 22.1896 23.4617 22.1895 23.4617 22.1894 23.4617C 22.1892 23.4617 22.1891 23.4617 22.1889 23.4617C 22.1888 23.4617 22.1887 23.4617 22.1885 23.4617C 22.1884 23.4617 22.1882 23.4617 22.1881 23.4617C 22.1879 23.4617 22.1878 23.4617 22.1877 23.4617C 22.1875 23.4617 22.1874 23.4617 22.1872 23.4617C 22.1871 23.4617 22.1869 23.4617 22.1868 23.4617C 22.1867 23.4617 22.1865 23.4617 22.1864 23.4617C 22.1862 23.4617 22.1861 23.4617 22.1859 23.4617C 22.1858 23.4617 22.1857 23.4617 22.1855 23.4617C 22.1854 23.4617 22.1852 23.4617 22.1851 23.4617C 22.1849 23.4617 22.1848 23.4617 22.1847 23.4617C 22.1845 23.4617 22.1844 23.4617 22.1842 23.4617C 22.1841 23.4617 22.1839 23.4617 22.1838 23.4617C 22.1837 23.4617 22.1835 23.4617 22.1834 23.4617C 22.1832 23.4617 22.1831 23.4617 22.1829 23.4617C 22.1828 23.4617 22.1826 23.4617 22.1825 23.4617C 22.1824 23.4617 22.1822 23.4617 22.1821 23.4617C 22.1819 23.4617 22.1818 23.4617 22.1816 23.4617C 22.1815 23.4617 22.1814 23.4617 22.1812 23.4617C 22.1811 23.4617 22.1809 23.4617 22.1808 23.4617C 22.1806 23.4617 22.1805 23.4617 22.1804 23.4617C 22.1802 23.4617 22.1801 23.4617 22.1799 23.4617C 22.1798 23.4617 22.1796 23.4617 22.1795 23.4617C 22.1794 23.4617 22.1792 23.4617 22.1791 23.4617C 22.1789 23.4617 22.1788 23.4617 22.1786 23.4617C 22.1785 23.4617 22.1784 23.4617 22.1782 23.4617C 22.1781 23.4617 22.1779 23.4617 22.1778 23.4617C 22.1776 23.4617 22.1775 23.4617 22.1773 23.4617C 22.1772 23.4617 22.1771 23.4617 22.1769 23.4617C 22.1768 23.4617 22.1766 23.4617 22.1765 23.4617C 22.1763 23.4617 22.1762 23.4617 22.1761 23.4617C 22.1759 23.4617 22.1758 23.4617 22.1756 23.4617C 22.1755 23.4617 22.1753 23.4617 22.1752 23.4617C 22.1751 23.4617 22.1749 23.4617 22.1748 23.4617C 22.1746 23.4617 22.1745 23.4617 22.1743 23.4617C 22.1742 23.4617 22.174 23.4617 22.1739 23.4617C 22.1738 23.4617 22.1736 23.4617 22.1735 23.4617C 22.1733 23.4617 22.1732 23.4617 22.173 23.4617C 22.1729 23.4617 22.1728 23.4617 22.1726 23.4617C 22.1725 23.4617 22.1723 23.4617 22.1722 23.4617C 22.172 23.4617 22.1719 23.4617 22.1717 23.4617C 22.1716 23.4617 22.1715 23.4617 22.1713 23.4617C 22.1712 23.4617 22.171 23.4617 22.1709 23.4617C 22.1707 23.4617 22.1706 23.4617 22.1705 23.4617C 22.1703 23.4617 22.1702 23.4617 22.17 23.4617C 22.1699 23.4617 22.1697 23.4617 22.1696 23.4617C 22.1694 23.4617 22.1693 23.4617 22.1692 23.4617C 22.169 23.4617 22.1689 23.4617 22.1687 23.4617C 22.1686 23.4617 22.1684 23.4617 22.1683 23.4617C 22.1681 23.4617 22.168 23.4617 22.1679 23.4617C 22.1677 23.4617 22.1676 23.4617 22.1674 23.4617C 22.1673 23.4617 22.1671 23.4617 22.167 23.4617C 22.1668 23.4617 22.1667 23.4617 22.1666 23.4617C 22.1664 23.4617 22.1663 23.4617 22.1661 23.4617C 22.166 23.4617 22.1658 23.4617 22.1657 23.4617C 22.1656 23.4617 22.1654 23.4617 22.1653 23.4617C 22.1651 23.4617 22.165 23.4617 22.1648 23.4617C 22.1647 23.4617 22.1645 23.4617 22.1644 23.4617C 22.1643 23.4617 22.1641 23.4617 22.164 23.4617C 22.1638 23.4617 22.1637 23.4617 22.1635 23.4617C 22.1634 23.4617 22.1632 23.4617 22.1631 23.4617C 22.163 23.4617 22.1628 23.4617 22.1627 23.4617C 22.1625 23.4617 22.1624 23.4617 22.1622 23.4617C 22.1621 23.4617 22.1619 23.4617 22.1618 23.4617C 22.1617 23.4617 22.1615 23.4617 22.1614 23.4617C 22.1612 23.4617 22.1611 23.4617 22.1609 23.4617C 22.1608 23.4617 22.1606 23.4617 22.1605 23.4617C 22.1604 23.4617 22.1602 23.4617 22.1601 23.4617C 22.1599 23.4617 22.1598 23.4617 22.1596 23.4617C 22.1595 23.4617 22.1593 23.4617 22.1592 23.4617C 22.1591 23.4617 22.1589 23.4617 22.1588 23.4617C 22.1586 23.4617 22.1585 23.4617 22.1583 23.4617C 22.1582 23.4617 22.158 23.4617 22.1579 23.4617C 22.1578 23.4617 22.1576 23.4617 22.1575 23.4617C 22.1573 23.4617 22.1572 23.4617 22.157 23.4617C 22.1569 23.4617 22.1567 23.4617 22.1566 23.4617C 22.1565 23.4617 22.1563 23.4617 22.1562 23.4617C 22.156 23.4617 22.1559 23.4617 22.1557 23.4617C 22.1556 23.4617 22.1554 23.4617 22.1553 23.4617C 22.1551 23.4617 22.155 23.4617 22.1549 23.4617C 22.1547 23.4617 22.1546 23.4617 22.1544 23.4617C 22.1543 23.4617 22.1541 23.4617 22.154 23.4617C 22.1538 23.4617 22.1537 23.4617 22.1536 23.4617C 22.1534 23.4617 22.1533 23.4617 22.1531 23.4617C 22.153 23.4617 22.1528 23.4617 22.1527 23.4617C 22.1525 23.4617 22.1524 23.4617 22.1523 23.4617C 22.1521 23.4617 22.152 23.4617 22.1518 23.4617C 22.1517 23.4617 22.1515 23.4617 22.1514 23.4617C 22.1512 23.4617 22.1511 23.4617 22.1509 23.4617C 22.1508 23.4617 22.1507 23.4617 22.1505 23.4617C 22.1504 23.4617 22.1502 23.4617 22.1501 23.4617C 22.1499 23.4617 22.1498 23.4617 22.1496 23.4617C 22.1495 23.4617 22.1494 23.4617 22.1492 23.4617C 22.1491 23.4617 22.1489 23.4617 22.1488 23.4617C 22.1486 23.4617 22.1485 23.4617 22.1483 23.4617C 22.1482 23.4617 22.148 23.4617 22.1479 23.4617C 22.1478 23.4617 22.1476 23.4617 22.1475 23.4617C 22.1473 23.4617 22.1472 23.4617 22.147 23.4617C 22.1469 23.4617 22.1467 23.4617 22.1466 23.4617C 22.1464 23.4617 22.1463 23.4617 22.1462 23.4617C 22.146 23.4617 22.1459 23.4617 22.1457 23.4617C 22.1456 23.4617 22.1454 23.4617 22.1453 23.4617C 22.1451 23.4617 22.145 23.4617 22.1449 23.4617C 22.1447 23.4617 22.1446 23.4617 22.1444 23.4617C 22.1443 23.4617 22.1441 23.4617 22.144 23.4617C 22.1438 23.4617 22.1437 23.4617 22.1435 23.4617C 22.1434 23.4617 22.1433 23.4617 22.1431 23.4617C 22.143 23.4617 22.1428 23.4617 22.1427 23.4617C 22.1425 23.4617 22.1424 23.4617 22.1422 23.4617C 22.1421 23.4617 22.1419 23.4617 22.1418 23.4617C 22.1417 23.4617 22.1415 23.4617 22.1414 23.4617C 22.1412 23.4617 22.1411 23.4617 22.1409 23.4617C 22.1408 23.4617 22.1406 23.4617 22.1405 23.4617C 22.1403 23.4617 22.1402 23.4617 22.1401 23.4617C 22.1399 23.4617 22.1398 23.4617 22.1396 23.4617C 22.1395 23.4617 22.1393 23.4617 22.1392 23.4617C 22.139 23.4617 22.1389 23.4617 22.1387 23.4617C 22.1386 23.4617 22.1385 23.4617 22.1383 23.4617C 22.1382 23.4617 22.138 23.4617 22.1379 23.4617C 22.1377 23.4617 22.1376 23.4617 22.1374 23.4617C 22.1373 23.4617 22.1371 23.4617 22.137 23.4617C 22.1369 23.4617 22.1367 23.4617 22.1366 23.4617C 22.1364 23.4617 22.1363 23.4617 22.1361 23.4617C 22.136 23.4617 22.1358 23.4617 22.1357 23.4617C 22.1355 23.4617 22.1354 23.4617 22.1353 23.4617C 22.1351 23.4617 22.135 23.4617 22.1348 23.4617C 22.1347 23.4617 22.1345 23.4617 22.1344 23.4617C 22.1342 23.4617 22.1341 23.4617 22.1339 23.4617C 22.1338 23.4617 22.1337 23.4617 22.1335 23.4617C 22.1334 23.4617 22.1332 23.4617 22.1331 23.4617C 22.1329 23.4617 22.1328 23.4617 22.1326 23.4617C 22.1325 23.4617 22.1323 23.4617 22.1322 23.4617C 22.132 23.4617 22.1319 23.4617 22.1318 23.4617C 22.1316 23.4617 22.1315 23.4617 22.1313 23.4617C 22.1312 23.4617 22.131 23.4617 22.1309 23.4617C 22.1307 23.4617 22.1306 23.4617 22.1304 23.4617C 22.1303 23.4617 22.1302 23.4617 22.13 23.4617C 22.1299 23.4617 22.1297 23.4617 22.1296 23.4617C 22.1294 23.4617 22.1293 23.4617 22.1291 23.4617C 22.129 23.4617 22.1288 23.4617 22.1287 23.4617C 22.1286 23.4617 22.1284 23.4617 22.1283 23.4617C 22.1281 23.4617 22.128 23.4617 22.1278 23.4617C 22.1277 23.4617 22.1275 23.4617 22.1274 23.4617C 22.1272 23.4617 22.1271 23.4617 22.1269 23.4617C 22.1268 23.4617 22.1267 23.4617 22.1265 23.4617C 22.1264 23.4617 22.1262 23.4617 22.1261 23.4617C 22.1259 23.4617 22.1258 23.4617 22.1256 23.4617C 22.1255 23.4617 22.1253 23.4617 22.1252 23.4617C 22.1251 23.4617 22.1249 23.4617 22.1248 23.4617C 22.1246 23.4617 22.1245 23.4617 22.1243 23.4617C 22.1242 23.4617 22.124 23.4617 22.1239 23.4617C 22.1237 23.4617 22.1236 23.4617 22.1234 23.4617C 22.1233 23.4617 22.1232 23.4617 22.123 23.4617C 22.1229 23.4617 22.1227 23.4617 22.1226 23.4617C 22.1224 23.4617 22.1223 23.4617 22.1221 23.4617C 22.122 23.4617 22.1218 23.4617 22.1217 23.4617C 22.1215 23.4617 22.1214 23.4617 22.1213 23.4617C 22.1211 23.4617 22.121 23.4617 22.1208 23.4617C 22.1207 23.4617 22.1205 23.4617 22.1204 23.4617C 22.1202 23.4617 22.1201 23.4617 22.1199 23.4617C 22.1198 23.4617 22.1197 23.4617 22.1195 23.4617C 22.1194 23.4617 22.1192 23.4617 22.1191 23.4617C 22.1189 23.4617 22.1188 23.4617 22.1186 23.4617C 22.1185 23.4617 22.1183 23.4617 22.1182 23.4617C 22.118 23.4617 22.1179 23.4617 22.1178 23.4617C 22.1176 23.4617 22.1175 23.4617 22.1173 23.4617C 22.1172 23.4617 22.117 23.4617 22.1169 23.4617C 22.1167 23.4617 22.1166 23.4617 22.1164 23.4617C 22.1163 23.4617 22.1161 23.4617 22.116 23.4617C 22.1159 23.4617 22.1157 23.4617 22.1156 23.4617C 22.1154 23.4617 22.1153 23.4617 22.1151 23.4617C 22.115 23.4617 22.1148 23.4617 22.1147 23.4617C 22.1145 23.4617 22.1144 23.4617 22.1142 23.4617C 22.1141 23.4617 22.114 23.4617 22.1138 23.4617C 22.1137 23.4617 22.1135 23.4617 22.1134 23.4617C 22.1132 23.4617 22.1131 23.4617 22.1129 23.4617C 22.1128 23.4617 22.1126 23.4617 22.1125 23.4617C 22.1123 23.4617 22.1122 23.4617 22.1121 23.4617C 22.1119 23.4617 22.1118 23.4617 22.1116 23.4617C 22.1115 23.4617 22.1113 23.4617 22.1112 23.4617C 22.111 23.4617 22.1109 23.4617 22.1107 23.4617C 22.1106 23.4617 22.1104 23.4617 22.1103 23.4617C 22.1102 23.4617 22.11 23.4617 22.1099 23.4617C 22.1097 23.4617 22.1096 23.4617 22.1094 23.4617C 22.1093 23.4617 22.1091 23.4617 22.109 23.4617C 22.1088 23.4617 22.1087 23.4617 22.1085 23.4617C 22.1084 23.4617 22.1083 23.4617 22.1081 23.4617C 22.108 23.4617 22.1078 23.4617 22.1077 23.4617C 22.1075 23.4617 22.1074 23.4617 22.1072 23.4617C 22.1071 23.4617 22.1069 23.4617 22.1068 23.4617C 22.1066 23.4617 22.1065 23.4617 22.1064 23.4617C 22.1062 23.4617 22.1061 23.4617 22.1059 23.4617C 22.1058 23.4617 22.1056 23.4617 22.1055 23.4617C 22.1053 23.4617 22.1052 23.4617 22.105 23.4617C 22.1049 23.4617 22.1047 23.4617 22.1046 23.4617C 22.1045 23.4617 22.1043 23.4617 22.1042 23.4617C 22.104 23.4617 22.1039 23.4617 22.1037 23.4617C 22.1036 23.4617 22.1034 23.4617 22.1033 23.4617C 22.1031 23.4617 22.103 23.4617 22.1028 23.4617C 22.1027 23.4617 22.1026 23.4617 22.1024 23.4617C 22.1023 23.4617 22.1021 23.4617 22.102 23.4617C 22.1018 23.4617 22.1017 23.4617 22.1015 23.4617C 22.1014 23.4617 22.1012 23.4617 22.1011 23.4617C 22.1009 23.4617 22.1008 23.4617 22.1007 23.4617C 22.1005 23.4617 22.1004 23.4617 22.1002 23.4617C 22.1001 23.4617 22.0999 23.4617 22.0998 23.4617C 22.0996 23.4617 22.0995 23.4617 22.0993 23.4617C 22.0992 23.4617 22.099 23.4617 22.0989 23.4617C 22.0988 23.4617 22.0986 23.4617 22.0985 23.4617C 22.0983 23.4617 22.0982 23.4617 22.098 23.4617C 22.0979 23.4617 22.0977 23.4617 22.0976 23.4617C 22.0974 23.4617 22.0973 23.4617 22.0971 23.4617C 22.097 23.4617 22.0969 23.4617 22.0967 23.4617C 22.0966 23.4617 22.0964 23.4617 22.0963 23.4617L 22.0963 26.4617ZM 22.3102 26.4617C 24.4468 26.4617 26.5869 28.5334 26.7151 31.7969L 29.7128 31.6791C 29.5415 27.3193 26.5265 23.4617 22.3102 23.4617L 22.3102 26.4617ZM 28.2139 33.238L 40.1925 33.238L 40.1925 30.238L 28.2139 30.238L 28.2139 33.238ZM 40.1925 33.238C 42.121 33.238 43.2433 31.4646 43.2433 29.8771L 40.2433 29.8771C 40.2433 30.0571 40.1816 30.1781 40.1365 30.2322C 40.0938 30.2834 40.1068 30.238 40.1925 30.238L 40.1925 33.238ZM 43.2433 29.8771L 43.2433 1.8609L 40.2433 1.8609L 40.2433 29.8771L 43.2433 29.8771ZM 43.2433 1.8609C 43.2433 0.273407 42.121 -1.5 40.1925 -1.5L 40.1925 1.5C 40.1068 1.5 40.0938 1.45454 40.1365 1.50573C 40.1816 1.55987 40.2433 1.68093 40.2433 1.8609L 43.2433 1.8609Z"/>
</defs>
</svg>
