<svg width="75" height="69" viewBox="0 0 75 69" version="1.1" xmlns="http://www.w3.org/2000/svg" xmlns:xlink="http://www.w3.org/1999/xlink">
<title>green_truck</title>
<desc>Created using Figma</desc>
<g id="Canvas" transform="translate(367 121)">
<clipPath id="clip-0" clip-rule="evenodd">
<path d="M -367 -121L -292 -121L -292 -52L -367 -52L -367 -121Z" fill="#FFFFFF"/>
</clipPath>
<g id="green_truck" clip-path="url(#clip-0)">
<g id="delivery icon">
<g id="Vector">
<mask id="mask0_outline_ins">
<use xlink:href="#path0_fill" fill="white" transform="matrix(0.998852 -0.0469892 0.0279366 0.999566 -344.224 -75.581)"/>
</mask>
<g mask="url(#mask0_outline_ins)">
<use xlink:href="#path1_stroke_2x" transform="matrix(0.998852 -0.0469892 0.0279366 0.999566 -344.224 -75.581)" fill="#37B674"/>
</g>
</g>
<g id="Vector">
<use xlink:href="#path2_fill" transform="translate(-315.344 -101.277)" fill="#37B674"/>
</g>
<g id="Vector">
<mask id="mask1_outline_ins">
<use xlink:href="#path3_fill" fill="white" transform="translate(-309.623 -75.7932)"/>
</mask>
<g mask="url(#mask1_outline_ins)">
<use xlink:href="#path4_stroke_2x" transform="translate(-309.623 -75.7932)" fill="#37B674"/>
</g>
</g>
<g id="Vector">
<mask id="mask2_outline_ins">
<use xlink:href="#path5_fill" fill="white" transform="translate(-366 -111)"/>
</mask>
<g mask="url(#mask2_outline_ins)">
<use xlink:href="#path6_stroke_2x" transform="translate(-366 -111)" fill="#37B674"/>
</g>
</g>
</g>
</g>
</g>
<defs>
<path id="path0_fill" d="M 4.47014 11.5907C 6.93893 11.5907 8.94028 8.996 8.94028 5.79533C 8.94028 2.59466 6.93893 0 4.47014 0C 2.00135 0 0 2.59466 0 5.79533C 0 8.996 2.00135 11.5907 4.47014 11.5907Z"/>
<path id="path1_stroke_2x" d="M 7.44028 5.79533C 7.44028 8.55297 5.77166 10.0907 4.47014 10.0907L 4.47014 13.0907C 8.10621 13.0907 10.4403 9.43902 10.4403 5.79533L 7.44028 5.79533ZM 4.47014 10.0907C 3.16862 10.0907 1.5 8.55297 1.5 5.79533L -1.5 5.79533C -1.5 9.43903 0.83408 13.0907 4.47014 13.0907L 4.47014 10.0907ZM 1.5 5.79533C 1.5 3.03769 3.16862 1.5 4.47014 1.5L 4.47014 -1.5C 0.834081 -1.5 -1.5 2.15163 -1.5 5.79533L 1.5 5.79533ZM 4.47014 1.5C 5.77166 1.5 7.44028 3.03768 7.44028 5.79533L 10.4403 5.79533C 10.4403 2.15163 8.10621 -1.5 4.47014 -1.5L 4.47014 1.5Z"/>
<path id="path2_fill" d="M 12.7462 1.52722C 12.2146 0.558339 11.3665 0 10.4552 0L 0 0L 0 15.4364L 0 30.8729L 3.18972 30.8729C 3.35426 26.0613 6.43007 22.2022 10.1767 22.2022C 13.9234 22.2022 16.9992 26.0449 17.1637 30.8729L 20.3534 30.8729L 20.3534 15.4364L 12.7462 1.52722ZM 2.37963 12.9239L 2.37963 3.15297L 10.1767 3.15297L 15.2651 12.9239L 2.37963 12.9239Z"/>
<path id="path3_fill" d="M 4.46814 11.5938C 6.93583 11.5938 8.93629 8.9984 8.93629 5.79687C 8.93629 2.59535 6.93583 0 4.46814 0C 2.00046 0 0 2.59535 0 5.79687C 0 8.9984 2.00046 11.5938 4.46814 11.5938Z"/>
<path id="path4_stroke_2x" d="M 7.43629 5.79687C 7.43629 8.55647 5.76772 10.0938 4.46814 10.0938L 4.46814 13.0938C 8.10395 13.0938 10.4363 9.44033 10.4363 5.79687L 7.43629 5.79687ZM 4.46814 10.0938C 3.16857 10.0938 1.5 8.55646 1.5 5.79687L -1.5 5.79687C -1.5 9.44034 0.832343 13.0938 4.46814 13.0938L 4.46814 10.0938ZM 1.5 5.79687C 1.5 3.03728 3.16857 1.5 4.46814 1.5L 4.46814 -1.5C 0.832343 -1.5 -1.5 2.15341 -1.5 5.79687L 1.5 5.79687ZM 4.46814 1.5C 5.76772 1.5 7.43629 3.03728 7.43629 5.79687L 10.4363 5.79687C 10.4363 2.15341 8.10395 -1.5 4.46814 -1.5L 4.46814 1.5Z"/>
<path id="path5_fill" d="M 47.5673 0L 18.0371 0C 17.0245 0 16.2017 1.06741 16.2017 2.38115L 16.2017 4.71304L 5.22759 4.71304C 4.39219 4.71304 3.70868 5.59981 3.70868 6.68365C 3.70868 7.76748 4.39219 8.65426 5.22759 8.65426L 16.2017 8.65426L 16.2017 11.8565L 8.35403 11.8565C 7.51862 11.8565 6.83511 12.7433 6.83511 13.8271C 6.83511 14.9109 7.51862 15.7977 8.35403 15.7977L 16.2017 15.7977L 16.2017 19L 1.51891 19C 0.683511 19 0 19.8867 0 20.9706C 0 22.0544 0.683511 22.9412 1.51891 22.9412L 16.2017 22.9412L 16.2017 38.2134C 16.2017 39.5271 17.0245 40.5945 18.0371 40.5945L 19.4168 40.5945C 19.5813 35.9308 22.4799 32.1045 26.1506 31.9403C 26.2392 31.9403 26.3278 31.9403 26.4038 31.9403C 30.1631 31.9403 33.2136 35.7337 33.3908 40.611L 47.5673 40.611C 48.5799 40.611 49.4027 39.5435 49.4027 38.2298L 49.4027 2.38115C 49.4027 1.06741 48.5799 0 47.5673 0Z"/>
<path id="path6_stroke_2x" d="M 16.2017 4.71304L 16.2017 6.21304L 17.7017 6.21304L 17.7017 4.71304L 16.2017 4.71304ZM 16.2017 8.65426L 17.7017 8.65426L 17.7017 7.15426L 16.2017 7.15426L 16.2017 8.65426ZM 16.2017 11.8565L 16.2017 13.3565L 17.7017 13.3565L 17.7017 11.8565L 16.2017 11.8565ZM 16.2017 15.7977L 17.7017 15.7977L 17.7017 14.2977L 16.2017 14.2977L 16.2017 15.7977ZM 16.2017 19L 16.2017 20.5L 17.7017 20.5L 17.7017 19L 16.2017 19ZM 16.2017 22.9412L 17.7017 22.9412L 17.7017 21.4412L 16.2017 21.4412L 16.2017 22.9412ZM 19.4168 40.5945L 19.4168 42.0945L 20.8648 42.0945L 20.9158 40.6474L 19.4168 40.5945ZM 26.1506 31.9403L 26.1506 30.4403L 26.1171 30.4403L 26.0836 30.4418L 26.1506 31.9403ZM 33.3908 40.611L 31.8918 40.6654L 31.9443 42.111L 33.3908 42.111L 33.3908 40.611ZM 47.5673 -1.5L 18.0371 -1.5L 18.0371 1.5L 47.5673 1.5L 47.5673 -1.5ZM 18.0371 -1.5C 16.9694 -1.5 16.1035 -0.933743 15.5517 -0.217801C 15.0008 0.496807 14.7017 1.42066 14.7017 2.38115L 17.7017 2.38115C 17.7017 2.0279 17.814 1.76118 17.9277 1.61365C 18.0404 1.46745 18.0922 1.5 18.0371 1.5L 18.0371 -1.5ZM 14.7017 2.38115L 14.7017 4.71304L 17.7017 4.71304L 17.7017 2.38115L 14.7017 2.38115ZM 16.2017 3.21304L 5.22759 3.21304L 5.22759 6.21304L 16.2017 6.21304L 16.2017 3.21304ZM 5.22759 3.21304C 4.24563 3.21304 3.4596 3.73685 2.96682 4.37618C 2.47419 5.0153 2.20868 5.83596 2.20868 6.68365L 5.20868 6.68365C 5.20868 6.4475 5.28493 6.28285 5.34291 6.20763C 5.40073 6.13262 5.37415 6.21304 5.22759 6.21304L 5.22759 3.21304ZM 2.20868 6.68365C 2.20868 7.53134 2.47419 8.35199 2.96682 8.99112C 3.4596 9.63045 4.24563 10.1543 5.22759 10.1543L 5.22759 7.15426C 5.37415 7.15426 5.40073 7.23468 5.34291 7.15967C 5.28493 7.08444 5.20868 6.91979 5.20868 6.68365L 2.20868 6.68365ZM 5.22759 10.1543L 16.2017 10.1543L 16.2017 7.15426L 5.22759 7.15426L 5.22759 10.1543ZM 14.7017 8.65426L 14.7017 11.8565L 17.7017 11.8565L 17.7017 8.65426L 14.7017 8.65426ZM 16.2017 10.3565L 8.35403 10.3565L 8.35403 13.3565L 16.2017 13.3565L 16.2017 10.3565ZM 8.35403 10.3565C 7.37207 10.3565 6.58603 10.8803 6.09325 11.5196C 5.60062 12.1588 5.33511 12.9794 5.33511 13.8271L 8.33511 13.8271C 8.33511 13.591 8.41136 13.4263 8.46934 13.3511C 8.52716 13.2761 8.50058 13.3565 8.35403 13.3565L 8.35403 10.3565ZM 5.33511 13.8271C 5.33511 14.6748 5.60062 15.4954 6.09325 16.1346C 6.58603 16.7739 7.37207 17.2977 8.35403 17.2977L 8.35403 14.2977C 8.50058 14.2977 8.52716 14.3781 8.46934 14.3031C 8.41136 14.2279 8.33511 14.0632 8.33511 13.8271L 5.33511 13.8271ZM 8.35403 17.2977L 16.2017 17.2977L 16.2017 14.2977L 8.35403 14.2977L 8.35403 17.2977ZM 14.7017 15.7977L 14.7017 19L 17.7017 19L 17.7017 15.7977L 14.7017 15.7977ZM 16.2017 17.5L 1.51891 17.5L 1.51891 20.5L 16.2017 20.5L 16.2017 17.5ZM 1.51891 17.5C 0.536954 17.5 -0.249077 18.0238 -0.741863 18.6631C -1.23449 19.3022 -1.5 20.1229 -1.5 20.9706L 1.5 20.9706C 1.5 20.7344 1.57624 20.5698 1.63422 20.4945C 1.69205 20.4195 1.66547 20.5 1.51891 20.5L 1.51891 17.5ZM -1.5 20.9706C -1.5 21.8183 -1.23449 22.6389 -0.741863 23.278C -0.249077 23.9174 0.536954 24.4412 1.51891 24.4412L 1.51891 21.4412C 1.66547 21.4412 1.69205 21.5216 1.63422 21.4466C 1.57624 21.3714 1.5 21.2067 1.5 20.9706L -1.5 20.9706ZM 1.51891 24.4412L 16.2017 24.4412L 16.2017 21.4412L 1.51891 21.4412L 1.51891 24.4412ZM 14.7017 22.9412L 14.7017 38.2134L 17.7017 38.2134L 17.7017 22.9412L 14.7017 22.9412ZM 14.7017 38.2134C 14.7017 39.1739 15.0008 40.0977 15.5516 40.8123C 16.1035 41.5283 16.9694 42.0945 18.0371 42.0945L 18.0371 39.0945C 18.0922 39.0945 18.0404 39.1271 17.9277 38.9809C 17.814 38.8334 17.7017 38.5666 17.7017 38.2134L 14.7017 38.2134ZM 18.0371 42.0945L 19.4168 42.0945L 19.4168 39.0945L 18.0371 39.0945L 18.0371 42.0945ZM 20.9158 40.6474C 21.0654 36.408 23.6404 33.5541 26.2177 33.4388L 26.0836 30.4418C 21.3195 30.6549 18.0972 35.4535 17.9177 40.5416L 20.9158 40.6474ZM 26.1506 33.4403C 26.1508 33.4403 26.151 33.4403 26.1512 33.4403C 26.1513 33.4403 26.1515 33.4403 26.1517 33.4403C 26.1518 33.4403 26.152 33.4403 26.1522 33.4403C 26.1524 33.4403 26.1525 33.4403 26.1527 33.4403C 26.1529 33.4403 26.1531 33.4403 26.1532 33.4403C 26.1534 33.4403 26.1536 33.4403 26.1537 33.4403C 26.1539 33.4403 26.1541 33.4403 26.1543 33.4403C 26.1544 33.4403 26.1546 33.4403 26.1548 33.4403C 26.155 33.4403 26.1551 33.4403 26.1553 33.4403C 26.1555 33.4403 26.1557 33.4403 26.1558 33.4403C 26.156 33.4403 26.1562 33.4403 26.1563 33.4403C 26.1565 33.4403 26.1567 33.4403 26.1569 33.4403C 26.157 33.4403 26.1572 33.4403 26.1574 33.4403C 26.1576 33.4403 26.1577 33.4403 26.1579 33.4403C 26.1581 33.4403 26.1582 33.4403 26.1584 33.4403C 26.1586 33.4403 26.1588 33.4403 26.1589 33.4403C 26.1591 33.4403 26.1593 33.4403 26.1595 33.4403C 26.1596 33.4403 26.1598 33.4403 26.16 33.4403C 26.1601 33.4403 26.1603 33.4403 26.1605 33.4403C 26.1607 33.4403 26.1608 33.4403 26.161 33.4403C 26.1612 33.4403 26.1614 33.4403 26.1615 33.4403C 26.1617 33.4403 26.1619 33.4403 26.1621 33.4403C 26.1622 33.4403 26.1624 33.4403 26.1626 33.4403C 26.1627 33.4403 26.1629 33.4403 26.1631 33.4403C 26.1633 33.4403 26.1634 33.4403 26.1636 33.4403C 26.1638 33.4403 26.164 33.4403 26.1641 33.4403C 26.1643 33.4403 26.1645 33.4403 26.1646 33.4403C 26.1648 33.4403 26.165 33.4403 26.1652 33.4403C 26.1653 33.4403 26.1655 33.4403 26.1657 33.4403C 26.1659 33.4403 26.166 33.4403 26.1662 33.4403C 26.1664 33.4403 26.1665 33.4403 26.1667 33.4403C 26.1669 33.4403 26.1671 33.4403 26.1672 33.4403C 26.1674 33.4403 26.1676 33.4403 26.1678 33.4403C 26.1679 33.4403 26.1681 33.4403 26.1683 33.4403C 26.1685 33.4403 26.1686 33.4403 26.1688 33.4403C 26.169 33.4403 26.1691 33.4403 26.1693 33.4403C 26.1695 33.4403 26.1697 33.4403 26.1698 33.4403C 26.17 33.4403 26.1702 33.4403 26.1704 33.4403C 26.1705 33.4403 26.1707 33.4403 26.1709 33.4403C 26.171 33.4403 26.1712 33.4403 26.1714 33.4403C 26.1716 33.4403 26.1717 33.4403 26.1719 33.4403C 26.1721 33.4403 26.1723 33.4403 26.1724 33.4403C 26.1726 33.4403 26.1728 33.4403 26.1729 33.4403C 26.1731 33.4403 26.1733 33.4403 26.1735 33.4403C 26.1736 33.4403 26.1738 33.4403 26.174 33.4403C 26.1742 33.4403 26.1743 33.4403 26.1745 33.4403C 26.1747 33.4403 26.1748 33.4403 26.175 33.4403C 26.1752 33.4403 26.1754 33.4403 26.1755 33.4403C 26.1757 33.4403 26.1759 33.4403 26.1761 33.4403C 26.1762 33.4403 26.1764 33.4403 26.1766 33.4403C 26.1768 33.4403 26.1769 33.4403 26.1771 33.4403C 26.1773 33.4403 26.1774 33.4403 26.1776 33.4403C 26.1778 33.4403 26.178 33.4403 26.1781 33.4403C 26.1783 33.4403 26.1785 33.4403 26.1787 33.4403C 26.1788 33.4403 26.179 33.4403 26.1792 33.4403C 26.1793 33.4403 26.1795 33.4403 26.1797 33.4403C 26.1799 33.4403 26.18 33.4403 26.1802 33.4403C 26.1804 33.4403 26.1806 33.4403 26.1807 33.4403C 26.1809 33.4403 26.1811 33.4403 26.1812 33.4403C 26.1814 33.4403 26.1816 33.4403 26.1818 33.4403C 26.1819 33.4403 26.1821 33.4403 26.1823 33.4403C 26.1825 33.4403 26.1826 33.4403 26.1828 33.4403C 26.183 33.4403 26.1831 33.4403 26.1833 33.4403C 26.1835 33.4403 26.1837 33.4403 26.1838 33.4403C 26.184 33.4403 26.1842 33.4403 26.1844 33.4403C 26.1845 33.4403 26.1847 33.4403 26.1849 33.4403C 26.185 33.4403 26.1852 33.4403 26.1854 33.4403C 26.1856 33.4403 26.1857 33.4403 26.1859 33.4403C 26.1861 33.4403 26.1863 33.4403 26.1864 33.4403C 26.1866 33.4403 26.1868 33.4403 26.1869 33.4403C 26.1871 33.4403 26.1873 33.4403 26.1875 33.4403C 26.1876 33.4403 26.1878 33.4403 26.188 33.4403C 26.1881 33.4403 26.1883 33.4403 26.1885 33.4403C 26.1887 33.4403 26.1888 33.4403 26.189 33.4403C 26.1892 33.4403 26.1894 33.4403 26.1895 33.4403C 26.1897 33.4403 26.1899 33.4403 26.19 33.4403C 26.1902 33.4403 26.1904 33.4403 26.1906 33.4403C 26.1907 33.4403 26.1909 33.4403 26.1911 33.4403C 26.1913 33.4403 26.1914 33.4403 26.1916 33.4403C 26.1918 33.4403 26.1919 33.4403 26.1921 33.4403C 26.1923 33.4403 26.1925 33.4403 26.1926 33.4403C 26.1928 33.4403 26.193 33.4403 26.1932 33.4403C 26.1933 33.4403 26.1935 33.4403 26.1937 33.4403C 26.1938 33.4403 26.194 33.4403 26.1942 33.4403C 26.1944 33.4403 26.1945 33.4403 26.1947 33.4403C 26.1949 33.4403 26.195 33.4403 26.1952 33.4403C 26.1954 33.4403 26.1956 33.4403 26.1957 33.4403C 26.1959 33.4403 26.1961 33.4403 26.1963 33.4403C 26.1964 33.4403 26.1966 33.4403 26.1968 33.4403C 26.1969 33.4403 26.1971 33.4403 26.1973 33.4403C 26.1975 33.4403 26.1976 33.4403 26.1978 33.4403C 26.198 33.4403 26.1981 33.4403 26.1983 33.4403C 26.1985 33.4403 26.1987 33.4403 26.1988 33.4403C 26.199 33.4403 26.1992 33.4403 26.1994 33.4403C 26.1995 33.4403 26.1997 33.4403 26.1999 33.4403C 26.2 33.4403 26.2002 33.4403 26.2004 33.4403C 26.2006 33.4403 26.2007 33.4403 26.2009 33.4403C 26.2011 33.4403 26.2012 33.4403 26.2014 33.4403C 26.2016 33.4403 26.2018 33.4403 26.2019 33.4403C 26.2021 33.4403 26.2023 33.4403 26.2025 33.4403C 26.2026 33.4403 26.2028 33.4403 26.203 33.4403C 26.2031 33.4403 26.2033 33.4403 26.2035 33.4403C 26.2037 33.4403 26.2038 33.4403 26.204 33.4403C 26.2042 33.4403 26.2043 33.4403 26.2045 33.4403C 26.2047 33.4403 26.2049 33.4403 26.205 33.4403C 26.2052 33.4403 26.2054 33.4403 26.2056 33.4403C 26.2057 33.4403 26.2059 33.4403 26.2061 33.4403C 26.2062 33.4403 26.2064 33.4403 26.2066 33.4403C 26.2068 33.4403 26.2069 33.4403 26.2071 33.4403C 26.2073 33.4403 26.2074 33.4403 26.2076 33.4403C 26.2078 33.4403 26.208 33.4403 26.2081 33.4403C 26.2083 33.4403 26.2085 33.4403 26.2086 33.4403C 26.2088 33.4403 26.209 33.4403 26.2092 33.4403C 26.2093 33.4403 26.2095 33.4403 26.2097 33.4403C 26.2098 33.4403 26.21 33.4403 26.2102 33.4403C 26.2104 33.4403 26.2105 33.4403 26.2107 33.4403C 26.2109 33.4403 26.2111 33.4403 26.2112 33.4403C 26.2114 33.4403 26.2116 33.4403 26.2117 33.4403C 26.2119 33.4403 26.2121 33.4403 26.2123 33.4403C 26.2124 33.4403 26.2126 33.4403 26.2128 33.4403C 26.2129 33.4403 26.2131 33.4403 26.2133 33.4403C 26.2135 33.4403 26.2136 33.4403 26.2138 33.4403C 26.214 33.4403 26.2141 33.4403 26.2143 33.4403C 26.2145 33.4403 26.2147 33.4403 26.2148 33.4403C 26.215 33.4403 26.2152 33.4403 26.2153 33.4403C 26.2155 33.4403 26.2157 33.4403 26.2159 33.4403C 26.216 33.4403 26.2162 33.4403 26.2164 33.4403C 26.2165 33.4403 26.2167 33.4403 26.2169 33.4403C 26.2171 33.4403 26.2172 33.4403 26.2174 33.4403C 26.2176 33.4403 26.2177 33.4403 26.2179 33.4403C 26.2181 33.4403 26.2183 33.4403 26.2184 33.4403C 26.2186 33.4403 26.2188 33.4403 26.2189 33.4403C 26.2191 33.4403 26.2193 33.4403 26.2195 33.4403C 26.2196 33.4403 26.2198 33.4403 26.22 33.4403C 26.2201 33.4403 26.2203 33.4403 26.2205 33.4403C 26.2207 33.4403 26.2208 33.4403 26.221 33.4403C 26.2212 33.4403 26.2213 33.4403 26.2215 33.4403C 26.2217 33.4403 26.2219 33.4403 26.222 33.4403C 26.2222 33.4403 26.2224 33.4403 26.2225 33.4403C 26.2227 33.4403 26.2229 33.4403 26.2231 33.4403C 26.2232 33.4403 26.2234 33.4403 26.2236 33.4403C 26.2237 33.4403 26.2239 33.4403 26.2241 33.4403C 26.2243 33.4403 26.2244 33.4403 26.2246 33.4403C 26.2248 33.4403 26.2249 33.4403 26.2251 33.4403C 26.2253 33.4403 26.2255 33.4403 26.2256 33.4403C 26.2258 33.4403 26.226 33.4403 26.2261 33.4403C 26.2263 33.4403 26.2265 33.4403 26.2266 33.4403C 26.2268 33.4403 26.227 33.4403 26.2272 33.4403C 26.2273 33.4403 26.2275 33.4403 26.2277 33.4403C 26.2278 33.4403 26.228 33.4403 26.2282 33.4403C 26.2284 33.4403 26.2285 33.4403 26.2287 33.4403C 26.2289 33.4403 26.229 33.4403 26.2292 33.4403C 26.2294 33.4403 26.2296 33.4403 26.2297 33.4403C 26.2299 33.4403 26.2301 33.4403 26.2302 33.4403C 26.2304 33.4403 26.2306 33.4403 26.2307 33.4403C 26.2309 33.4403 26.2311 33.4403 26.2313 33.4403C 26.2314 33.4403 26.2316 33.4403 26.2318 33.4403C 26.2319 33.4403 26.2321 33.4403 26.2323 33.4403C 26.2325 33.4403 26.2326 33.4403 26.2328 33.4403C 26.233 33.4403 26.2331 33.4403 26.2333 33.4403C 26.2335 33.4403 26.2337 33.4403 26.2338 33.4403C 26.234 33.4403 26.2342 33.4403 26.2343 33.4403C 26.2345 33.4403 26.2347 33.4403 26.2348 33.4403C 26.235 33.4403 26.2352 33.4403 26.2354 33.4403C 26.2355 33.4403 26.2357 33.4403 26.2359 33.4403C 26.236 33.4403 26.2362 33.4403 26.2364 33.4403C 26.2366 33.4403 26.2367 33.4403 26.2369 33.4403C 26.2371 33.4403 26.2372 33.4403 26.2374 33.4403C 26.2376 33.4403 26.2377 33.4403 26.2379 33.4403C 26.2381 33.4403 26.2383 33.4403 26.2384 33.4403C 26.2386 33.4403 26.2388 33.4403 26.2389 33.4403C 26.2391 33.4403 26.2393 33.4403 26.2394 33.4403C 26.2396 33.4403 26.2398 33.4403 26.24 33.4403C 26.2401 33.4403 26.2403 33.4403 26.2405 33.4403C 26.2406 33.4403 26.2408 33.4403 26.241 33.4403C 26.2411 33.4403 26.2413 33.4403 26.2415 33.4403C 26.2417 33.4403 26.2418 33.4403 26.242 33.4403C 26.2422 33.4403 26.2423 33.4403 26.2425 33.4403C 26.2427 33.4403 26.2428 33.4403 26.243 33.4403C 26.2432 33.4403 26.2434 33.4403 26.2435 33.4403C 26.2437 33.4403 26.2439 33.4403 26.244 33.4403C 26.2442 33.4403 26.2444 33.4403 26.2445 33.4403C 26.2447 33.4403 26.2449 33.4403 26.2451 33.4403C 26.2452 33.4403 26.2454 33.4403 26.2456 33.4403C 26.2457 33.4403 26.2459 33.4403 26.2461 33.4403C 26.2462 33.4403 26.2464 33.4403 26.2466 33.4403C 26.2468 33.4403 26.2469 33.4403 26.2471 33.4403C 26.2473 33.4403 26.2474 33.4403 26.2476 33.4403C 26.2478 33.4403 26.2479 33.4403 26.2481 33.4403C 26.2483 33.4403 26.2485 33.4403 26.2486 33.4403C 26.2488 33.4403 26.249 33.4403 26.2491 33.4403C 26.2493 33.4403 26.2495 33.4403 26.2496 33.4403C 26.2498 33.4403 26.25 33.4403 26.2502 33.4403C 26.2503 33.4403 26.2505 33.4403 26.2507 33.4403C 26.2508 33.4403 26.251 33.4403 26.2512 33.4403C 26.2513 33.4403 26.2515 33.4403 26.2517 33.4403C 26.2518 33.4403 26.252 33.4403 26.2522 33.4403C 26.2524 33.4403 26.2525 33.4403 26.2527 33.4403C 26.2529 33.4403 26.253 33.4403 26.2532 33.4403C 26.2534 33.4403 26.2535 33.4403 26.2537 33.4403C 26.2539 33.4403 26.254 33.4403 26.2542 33.4403C 26.2544 33.4403 26.2546 33.4403 26.2547 33.4403C 26.2549 33.4403 26.2551 33.4403 26.2552 33.4403C 26.2554 33.4403 26.2556 33.4403 26.2557 33.4403C 26.2559 33.4403 26.2561 33.4403 26.2562 33.4403C 26.2564 33.4403 26.2566 33.4403 26.2568 33.4403C 26.2569 33.4403 26.2571 33.4403 26.2573 33.4403C 26.2574 33.4403 26.2576 33.4403 26.2578 33.4403C 26.2579 33.4403 26.2581 33.4403 26.2583 33.4403C 26.2584 33.4403 26.2586 33.4403 26.2588 33.4403C 26.259 33.4403 26.2591 33.4403 26.2593 33.4403C 26.2595 33.4403 26.2596 33.4403 26.2598 33.4403C 26.26 33.4403 26.2601 33.4403 26.2603 33.4403C 26.2605 33.4403 26.2606 33.4403 26.2608 33.4403C 26.261 33.4403 26.2611 33.4403 26.2613 33.4403C 26.2615 33.4403 26.2617 33.4403 26.2618 33.4403C 26.262 33.4403 26.2622 33.4403 26.2623 33.4403C 26.2625 33.4403 26.2627 33.4403 26.2628 33.4403C 26.263 33.4403 26.2632 33.4403 26.2633 33.4403C 26.2635 33.4403 26.2637 33.4403 26.2638 33.4403C 26.264 33.4403 26.2642 33.4403 26.2643 33.4403C 26.2645 33.4403 26.2647 33.4403 26.2649 33.4403C 26.265 33.4403 26.2652 33.4403 26.2654 33.4403C 26.2655 33.4403 26.2657 33.4403 26.2659 33.4403C 26.266 33.4403 26.2662 33.4403 26.2664 33.4403C 26.2665 33.4403 26.2667 33.4403 26.2669 33.4403C 26.267 33.4403 26.2672 33.4403 26.2674 33.4403C 26.2675 33.4403 26.2677 33.4403 26.2679 33.4403C 26.268 33.4403 26.2682 33.4403 26.2684 33.4403C 26.2686 33.4403 26.2687 33.4403 26.2689 33.4403C 26.2691 33.4403 26.2692 33.4403 26.2694 33.4403C 26.2696 33.4403 26.2697 33.4403 26.2699 33.4403C 26.2701 33.4403 26.2702 33.4403 26.2704 33.4403C 26.2706 33.4403 26.2707 33.4403 26.2709 33.4403C 26.2711 33.4403 26.2712 33.4403 26.2714 33.4403C 26.2716 33.4403 26.2717 33.4403 26.2719 33.4403C 26.2721 33.4403 26.2722 33.4403 26.2724 33.4403C 26.2726 33.4403 26.2728 33.4403 26.2729 33.4403C 26.2731 33.4403 26.2733 33.4403 26.2734 33.4403C 26.2736 33.4403 26.2738 33.4403 26.2739 33.4403C 26.2741 33.4403 26.2743 33.4403 26.2744 33.4403C 26.2746 33.4403 26.2748 33.4403 26.2749 33.4403C 26.2751 33.4403 26.2753 33.4403 26.2754 33.4403C 26.2756 33.4403 26.2758 33.4403 26.2759 33.4403C 26.2761 33.4403 26.2763 33.4403 26.2764 33.4403C 26.2766 33.4403 26.2768 33.4403 26.2769 33.4403C 26.2771 33.4403 26.2773 33.4403 26.2774 33.4403C 26.2776 33.4403 26.2778 33.4403 26.2779 33.4403C 26.2781 33.4403 26.2783 33.4403 26.2784 33.4403C 26.2786 33.4403 26.2788 33.4403 26.2789 33.4403C 26.2791 33.4403 26.2793 33.4403 26.2794 33.4403C 26.2796 33.4403 26.2798 33.4403 26.2799 33.4403C 26.2801 33.4403 26.2803 33.4403 26.2805 33.4403C 26.2806 33.4403 26.2808 33.4403 26.281 33.4403C 26.2811 33.4403 26.2813 33.4403 26.2815 33.4403C 26.2816 33.4403 26.2818 33.4403 26.282 33.4403C 26.2821 33.4403 26.2823 33.4403 26.2825 33.4403C 26.2826 33.4403 26.2828 33.4403 26.283 33.4403C 26.2831 33.4403 26.2833 33.4403 26.2835 33.4403C 26.2836 33.4403 26.2838 33.4403 26.284 33.4403C 26.2841 33.4403 26.2843 33.4403 26.2845 33.4403C 26.2846 33.4403 26.2848 33.4403 26.285 33.4403C 26.2851 33.4403 26.2853 33.4403 26.2855 33.4403C 26.2856 33.4403 26.2858 33.4403 26.286 33.4403C 26.2861 33.4403 26.2863 33.4403 26.2865 33.4403C 26.2866 33.4403 26.2868 33.4403 26.287 33.4403C 26.2871 33.4403 26.2873 33.4403 26.2875 33.4403C 26.2876 33.4403 26.2878 33.4403 26.288 33.4403C 26.2881 33.4403 26.2883 33.4403 26.2884 33.4403C 26.2886 33.4403 26.2888 33.4403 26.2889 33.4403C 26.2891 33.4403 26.2893 33.4403 26.2894 33.4403C 26.2896 33.4403 26.2898 33.4403 26.2899 33.4403C 26.2901 33.4403 26.2903 33.4403 26.2904 33.4403C 26.2906 33.4403 26.2908 33.4403 26.2909 33.4403C 26.2911 33.4403 26.2913 33.4403 26.2914 33.4403C 26.2916 33.4403 26.2918 33.4403 26.2919 33.4403C 26.2921 33.4403 26.2923 33.4403 26.2924 33.4403C 26.2926 33.4403 26.2928 33.4403 26.2929 33.4403C 26.2931 33.4403 26.2933 33.4403 26.2934 33.4403C 26.2936 33.4403 26.2938 33.4403 26.2939 33.4403C 26.2941 33.4403 26.2943 33.4403 26.2944 33.4403C 26.2946 33.4403 26.2948 33.4403 26.2949 33.4403C 26.2951 33.4403 26.2952 33.4403 26.2954 33.4403C 26.2956 33.4403 26.2957 33.4403 26.2959 33.4403C 26.2961 33.4403 26.2962 33.4403 26.2964 33.4403C 26.2966 33.4403 26.2967 33.4403 26.2969 33.4403C 26.2971 33.4403 26.2972 33.4403 26.2974 33.4403C 26.2976 33.4403 26.2977 33.4403 26.2979 33.4403C 26.2981 33.4403 26.2982 33.4403 26.2984 33.4403C 26.2986 33.4403 26.2987 33.4403 26.2989 33.4403C 26.2991 33.4403 26.2992 33.4403 26.2994 33.4403C 26.2995 33.4403 26.2997 33.4403 26.2999 33.4403C 26.3 33.4403 26.3002 33.4403 26.3004 33.4403C 26.3005 33.4403 26.3007 33.4403 26.3009 33.4403C 26.301 33.4403 26.3012 33.4403 26.3014 33.4403C 26.3015 33.4403 26.3017 33.4403 26.3019 33.4403C 26.302 33.4403 26.3022 33.4403 26.3024 33.4403C 26.3025 33.4403 26.3027 33.4403 26.3028 33.4403C 26.303 33.4403 26.3032 33.4403 26.3033 33.4403C 26.3035 33.4403 26.3037 33.4403 26.3038 33.4403C 26.304 33.4403 26.3042 33.4403 26.3043 33.4403C 26.3045 33.4403 26.3047 33.4403 26.3048 33.4403C 26.305 33.4403 26.3051 33.4403 26.3053 33.4403C 26.3055 33.4403 26.3056 33.4403 26.3058 33.4403C 26.306 33.4403 26.3061 33.4403 26.3063 33.4403C 26.3065 33.4403 26.3066 33.4403 26.3068 33.4403C 26.307 33.4403 26.3071 33.4403 26.3073 33.4403C 26.3074 33.4403 26.3076 33.4403 26.3078 33.4403C 26.3079 33.4403 26.3081 33.4403 26.3083 33.4403C 26.3084 33.4403 26.3086 33.4403 26.3088 33.4403C 26.3089 33.4403 26.3091 33.4403 26.3093 33.4403C 26.3094 33.4403 26.3096 33.4403 26.3097 33.4403C 26.3099 33.4403 26.3101 33.4403 26.3102 33.4403C 26.3104 33.4403 26.3106 33.4403 26.3107 33.4403C 26.3109 33.4403 26.3111 33.4403 26.3112 33.4403C 26.3114 33.4403 26.3115 33.4403 26.3117 33.4403C 26.3119 33.4403 26.312 33.4403 26.3122 33.4403C 26.3124 33.4403 26.3125 33.4403 26.3127 33.4403C 26.3129 33.4403 26.313 33.4403 26.3132 33.4403C 26.3133 33.4403 26.3135 33.4403 26.3137 33.4403C 26.3138 33.4403 26.314 33.4403 26.3142 33.4403C 26.3143 33.4403 26.3145 33.4403 26.3147 33.4403C 26.3148 33.4403 26.315 33.4403 26.3151 33.4403C 26.3153 33.4403 26.3155 33.4403 26.3156 33.4403C 26.3158 33.4403 26.316 33.4403 26.3161 33.4403C 26.3163 33.4403 26.3164 33.4403 26.3166 33.4403C 26.3168 33.4403 26.3169 33.4403 26.3171 33.4403C 26.3173 33.4403 26.3174 33.4403 26.3176 33.4403C 26.3177 33.4403 26.3179 33.4403 26.3181 33.4403C 26.3182 33.4403 26.3184 33.4403 26.3186 33.4403C 26.3187 33.4403 26.3189 33.4403 26.3191 33.4403C 26.3192 33.4403 26.3194 33.4403 26.3195 33.4403C 26.3197 33.4403 26.3199 33.4403 26.32 33.4403C 26.3202 33.4403 26.3204 33.4403 26.3205 33.4403C 26.3207 33.4403 26.3208 33.4403 26.321 33.4403C 26.3212 33.4403 26.3213 33.4403 26.3215 33.4403C 26.3217 33.4403 26.3218 33.4403 26.322 33.4403C 26.3221 33.4403 26.3223 33.4403 26.3225 33.4403C 26.3226 33.4403 26.3228 33.4403 26.323 33.4403C 26.3231 33.4403 26.3233 33.4403 26.3234 33.4403C 26.3236 33.4403 26.3238 33.4403 26.3239 33.4403C 26.3241 33.4403 26.3242 33.4403 26.3244 33.4403C 26.3246 33.4403 26.3247 33.4403 26.3249 33.4403C 26.3251 33.4403 26.3252 33.4403 26.3254 33.4403C 26.3255 33.4403 26.3257 33.4403 26.3259 33.4403C 26.326 33.4403 26.3262 33.4403 26.3264 33.4403C 26.3265 33.4403 26.3267 33.4403 26.3268 33.4403C 26.327 33.4403 26.3272 33.4403 26.3273 33.4403C 26.3275 33.4403 26.3276 33.4403 26.3278 33.4403C 26.328 33.4403 26.3281 33.4403 26.3283 33.4403C 26.3285 33.4403 26.3286 33.4403 26.3288 33.4403C 26.3289 33.4403 26.3291 33.4403 26.3293 33.4403C 26.3294 33.4403 26.3296 33.4403 26.3297 33.4403C 26.3299 33.4403 26.3301 33.4403 26.3302 33.4403C 26.3304 33.4403 26.3306 33.4403 26.3307 33.4403C 26.3309 33.4403 26.331 33.4403 26.3312 33.4403C 26.3314 33.4403 26.3315 33.4403 26.3317 33.4403C 26.3318 33.4403 26.332 33.4403 26.3322 33.4403C 26.3323 33.4403 26.3325 33.4403 26.3326 33.4403C 26.3328 33.4403 26.333 33.4403 26.3331 33.4403C 26.3333 33.4403 26.3334 33.4403 26.3336 33.4403C 26.3338 33.4403 26.3339 33.4403 26.3341 33.4403C 26.3343 33.4403 26.3344 33.4403 26.3346 33.4403C 26.3347 33.4403 26.3349 33.4403 26.3351 33.4403C 26.3352 33.4403 26.3354 33.4403 26.3355 33.4403C 26.3357 33.4403 26.3359 33.4403 26.336 33.4403C 26.3362 33.4403 26.3363 33.4403 26.3365 33.4403C 26.3367 33.4403 26.3368 33.4403 26.337 33.4403C 26.3371 33.4403 26.3373 33.4403 26.3375 33.4403C 26.3376 33.4403 26.3378 33.4403 26.3379 33.4403C 26.3381 33.4403 26.3383 33.4403 26.3384 33.4403C 26.3386 33.4403 26.3387 33.4403 26.3389 33.4403C 26.3391 33.4403 26.3392 33.4403 26.3394 33.4403C 26.3395 33.4403 26.3397 33.4403 26.3399 33.4403C 26.34 33.4403 26.3402 33.4403 26.3403 33.4403C 26.3405 33.4403 26.3407 33.4403 26.3408 33.4403C 26.341 33.4403 26.3411 33.4403 26.3413 33.4403C 26.3415 33.4403 26.3416 33.4403 26.3418 33.4403C 26.3419 33.4403 26.3421 33.4403 26.3423 33.4403C 26.3424 33.4403 26.3426 33.4403 26.3427 33.4403C 26.3429 33.4403 26.3431 33.4403 26.3432 33.4403C 26.3434 33.4403 26.3435 33.4403 26.3437 33.4403C 26.3439 33.4403 26.344 33.4403 26.3442 33.4403C 26.3443 33.4403 26.3445 33.4403 26.3446 33.4403C 26.3448 33.4403 26.345 33.4403 26.3451 33.4403C 26.3453 33.4403 26.3454 33.4403 26.3456 33.4403C 26.3458 33.4403 26.3459 33.4403 26.3461 33.4403C 26.3462 33.4403 26.3464 33.4403 26.3466 33.4403C 26.3467 33.4403 26.3469 33.4403 26.347 33.4403C 26.3472 33.4403 26.3473 33.4403 26.3475 33.4403C 26.3477 33.4403 26.3478 33.4403 26.348 33.4403C 26.3481 33.4403 26.3483 33.4403 26.3485 33.4403C 26.3486 33.4403 26.3488 33.4403 26.3489 33.4403C 26.3491 33.4403 26.3493 33.4403 26.3494 33.4403C 26.3496 33.4403 26.3497 33.4403 26.3499 33.4403C 26.35 33.4403 26.3502 33.4403 26.3504 33.4403C 26.3505 33.4403 26.3507 33.4403 26.3508 33.4403C 26.351 33.4403 26.3512 33.4403 26.3513 33.4403C 26.3515 33.4403 26.3516 33.4403 26.3518 33.4403C 26.3519 33.4403 26.3521 33.4403 26.3523 33.4403C 26.3524 33.4403 26.3526 33.4403 26.3527 33.4403C 26.3529 33.4403 26.353 33.4403 26.3532 33.4403C 26.3534 33.4403 26.3535 33.4403 26.3537 33.4403C 26.3538 33.4403 26.354 33.4403 26.3542 33.4403C 26.3543 33.4403 26.3545 33.4403 26.3546 33.4403C 26.3548 33.4403 26.3549 33.4403 26.3551 33.4403C 26.3553 33.4403 26.3554 33.4403 26.3556 33.4403C 26.3557 33.4403 26.3559 33.4403 26.356 33.4403C 26.3562 33.4403 26.3564 33.4403 26.3565 33.4403C 26.3567 33.4403 26.3568 33.4403 26.357 33.4403C 26.3571 33.4403 26.3573 33.4403 26.3575 33.4403C 26.3576 33.4403 26.3578 33.4403 26.3579 33.4403C 26.3581 33.4403 26.3582 33.4403 26.3584 33.4403C 26.3586 33.4403 26.3587 33.4403 26.3589 33.4403C 26.359 33.4403 26.3592 33.4403 26.3593 33.4403C 26.3595 33.4403 26.3597 33.4403 26.3598 33.4403C 26.36 33.4403 26.3601 33.4403 26.3603 33.4403C 26.3604 33.4403 26.3606 33.4403 26.3608 33.4403C 26.3609 33.4403 26.3611 33.4403 26.3612 33.4403C 26.3614 33.4403 26.3615 33.4403 26.3617 33.4403C 26.3618 33.4403 26.362 33.4403 26.3622 33.4403C 26.3623 33.4403 26.3625 33.4403 26.3626 33.4403C 26.3628 33.4403 26.3629 33.4403 26.3631 33.4403C 26.3633 33.4403 26.3634 33.4403 26.3636 33.4403C 26.3637 33.4403 26.3639 33.4403 26.364 33.4403C 26.3642 33.4403 26.3643 33.4403 26.3645 33.4403C 26.3647 33.4403 26.3648 33.4403 26.365 33.4403C 26.3651 33.4403 26.3653 33.4403 26.3654 33.4403C 26.3656 33.4403 26.3657 33.4403 26.3659 33.4403C 26.3661 33.4403 26.3662 33.4403 26.3664 33.4403C 26.3665 33.4403 26.3667 33.4403 26.3668 33.4403C 26.367 33.4403 26.3671 33.4403 26.3673 33.4403C 26.3675 33.4403 26.3676 33.4403 26.3678 33.4403C 26.3679 33.4403 26.3681 33.4403 26.3682 33.4403C 26.3684 33.4403 26.3685 33.4403 26.3687 33.4403C 26.3689 33.4403 26.369 33.4403 26.3692 33.4403C 26.3693 33.4403 26.3695 33.4403 26.3696 33.4403C 26.3698 33.4403 26.3699 33.4403 26.3701 33.4403C 26.3703 33.4403 26.3704 33.4403 26.3706 33.4403C 26.3707 33.4403 26.3709 33.4403 26.371 33.4403C 26.3712 33.4403 26.3713 33.4403 26.3715 33.4403C 26.3716 33.4403 26.3718 33.4403 26.372 33.4403C 26.3721 33.4403 26.3723 33.4403 26.3724 33.4403C 26.3726 33.4403 26.3727 33.4403 26.3729 33.4403C 26.373 33.4403 26.3732 33.4403 26.3733 33.4403C 26.3735 33.4403 26.3737 33.4403 26.3738 33.4403C 26.374 33.4403 26.3741 33.4403 26.3743 33.4403C 26.3744 33.4403 26.3746 33.4403 26.3747 33.4403C 26.3749 33.4403 26.375 33.4403 26.3752 33.4403C 26.3754 33.4403 26.3755 33.4403 26.3757 33.4403C 26.3758 33.4403 26.376 33.4403 26.3761 33.4403C 26.3763 33.4403 26.3764 33.4403 26.3766 33.4403C 26.3767 33.4403 26.3769 33.4403 26.377 33.4403C 26.3772 33.4403 26.3773 33.4403 26.3775 33.4403C 26.3777 33.4403 26.3778 33.4403 26.378 33.4403C 26.3781 33.4403 26.3783 33.4403 26.3784 33.4403C 26.3786 33.4403 26.3787 33.4403 26.3789 33.4403C 26.379 33.4403 26.3792 33.4403 26.3793 33.4403C 26.3795 33.4403 26.3797 33.4403 26.3798 33.4403C 26.38 33.4403 26.3801 33.4403 26.3803 33.4403C 26.3804 33.4403 26.3806 33.4403 26.3807 33.4403C 26.3809 33.4403 26.381 33.4403 26.3812 33.4403C 26.3813 33.4403 26.3815 33.4403 26.3816 33.4403C 26.3818 33.4403 26.3819 33.4403 26.3821 33.4403C 26.3823 33.4403 26.3824 33.4403 26.3826 33.4403C 26.3827 33.4403 26.3829 33.4403 26.383 33.4403C 26.3832 33.4403 26.3833 33.4403 26.3835 33.4403C 26.3836 33.4403 26.3838 33.4403 26.3839 33.4403C 26.3841 33.4403 26.3842 33.4403 26.3844 33.4403C 26.3845 33.4403 26.3847 33.4403 26.3848 33.4403C 26.385 33.4403 26.3851 33.4403 26.3853 33.4403C 26.3855 33.4403 26.3856 33.4403 26.3858 33.4403C 26.3859 33.4403 26.3861 33.4403 26.3862 33.4403C 26.3864 33.4403 26.3865 33.4403 26.3867 33.4403C 26.3868 33.4403 26.387 33.4403 26.3871 33.4403C 26.3873 33.4403 26.3874 33.4403 26.3876 33.4403C 26.3877 33.4403 26.3879 33.4403 26.388 33.4403C 26.3882 33.4403 26.3883 33.4403 26.3885 33.4403C 26.3886 33.4403 26.3888 33.4403 26.3889 33.4403C 26.3891 33.4403 26.3892 33.4403 26.3894 33.4403C 26.3895 33.4403 26.3897 33.4403 26.3899 33.4403C 26.39 33.4403 26.3902 33.4403 26.3903 33.4403C 26.3905 33.4403 26.3906 33.4403 26.3908 33.4403C 26.3909 33.4403 26.3911 33.4403 26.3912 33.4403C 26.3914 33.4403 26.3915 33.4403 26.3917 33.4403C 26.3918 33.4403 26.392 33.4403 26.3921 33.4403C 26.3923 33.4403 26.3924 33.4403 26.3926 33.4403C 26.3927 33.4403 26.3929 33.4403 26.393 33.4403C 26.3932 33.4403 26.3933 33.4403 26.3935 33.4403C 26.3936 33.4403 26.3938 33.4403 26.3939 33.4403C 26.3941 33.4403 26.3942 33.4403 26.3944 33.4403C 26.3945 33.4403 26.3947 33.4403 26.3948 33.4403C 26.395 33.4403 26.3951 33.4403 26.3953 33.4403C 26.3954 33.4403 26.3956 33.4403 26.3957 33.4403C 26.3959 33.4403 26.396 33.4403 26.3962 33.4403C 26.3963 33.4403 26.3965 33.4403 26.3966 33.4403C 26.3968 33.4403 26.3969 33.4403 26.3971 33.4403C 26.3972 33.4403 26.3974 33.4403 26.3975 33.4403C 26.3977 33.4403 26.3978 33.4403 26.398 33.4403C 26.3981 33.4403 26.3983 33.4403 26.3984 33.4403C 26.3986 33.4403 26.3987 33.4403 26.3989 33.4403C 26.399 33.4403 26.3992 33.4403 26.3993 33.4403C 26.3995 33.4403 26.3996 33.4403 26.3998 33.4403C 26.3999 33.4403 26.4001 33.4403 26.4002 33.4403C 26.4004 33.4403 26.4005 33.4403 26.4007 33.4403C 26.4008 33.4403 26.401 33.4403 26.4011 33.4403C 26.4013 33.4403 26.4014 33.4403 26.4016 33.4403C 26.4017 33.4403 26.4019 33.4403 26.402 33.4403C 26.4021 33.4403 26.4023 33.4403 26.4024 33.4403C 26.4026 33.4403 26.4027 33.4403 26.4029 33.4403C 26.403 33.4403 26.4032 33.4403 26.4033 33.4403C 26.4035 33.4403 26.4036 33.4403 26.4038 33.4403L 26.4038 30.4403C 26.4036 30.4403 26.4035 30.4403 26.4033 30.4403C 26.4032 30.4403 26.403 30.4403 26.4029 30.4403C 26.4027 30.4403 26.4026 30.4403 26.4024 30.4403C 26.4023 30.4403 26.4021 30.4403 26.402 30.4403C 26.4019 30.4403 26.4017 30.4403 26.4016 30.4403C 26.4014 30.4403 26.4013 30.4403 26.4011 30.4403C 26.401 30.4403 26.4008 30.4403 26.4007 30.4403C 26.4005 30.4403 26.4004 30.4403 26.4002 30.4403C 26.4001 30.4403 26.3999 30.4403 26.3998 30.4403C 26.3996 30.4403 26.3995 30.4403 26.3993 30.4403C 26.3992 30.4403 26.399 30.4403 26.3989 30.4403C 26.3987 30.4403 26.3986 30.4403 26.3984 30.4403C 26.3983 30.4403 26.3981 30.4403 26.398 30.4403C 26.3978 30.4403 26.3977 30.4403 26.3975 30.4403C 26.3974 30.4403 26.3972 30.4403 26.3971 30.4403C 26.3969 30.4403 26.3968 30.4403 26.3966 30.4403C 26.3965 30.4403 26.3963 30.4403 26.3962 30.4403C 26.396 30.4403 26.3959 30.4403 26.3957 30.4403C 26.3956 30.4403 26.3954 30.4403 26.3953 30.4403C 26.3951 30.4403 26.395 30.4403 26.3948 30.4403C 26.3947 30.4403 26.3945 30.4403 26.3944 30.4403C 26.3942 30.4403 26.3941 30.4403 26.3939 30.4403C 26.3938 30.4403 26.3936 30.4403 26.3935 30.4403C 26.3933 30.4403 26.3932 30.4403 26.393 30.4403C 26.3929 30.4403 26.3927 30.4403 26.3926 30.4403C 26.3924 30.4403 26.3923 30.4403 26.3921 30.4403C 26.392 30.4403 26.3918 30.4403 26.3917 30.4403C 26.3915 30.4403 26.3914 30.4403 26.3912 30.4403C 26.3911 30.4403 26.3909 30.4403 26.3908 30.4403C 26.3906 30.4403 26.3905 30.4403 26.3903 30.4403C 26.3902 30.4403 26.39 30.4403 26.3899 30.4403C 26.3897 30.4403 26.3895 30.4403 26.3894 30.4403C 26.3892 30.4403 26.3891 30.4403 26.3889 30.4403C 26.3888 30.4403 26.3886 30.4403 26.3885 30.4403C 26.3883 30.4403 26.3882 30.4403 26.388 30.4403C 26.3879 30.4403 26.3877 30.4403 26.3876 30.4403C 26.3874 30.4403 26.3873 30.4403 26.3871 30.4403C 26.387 30.4403 26.3868 30.4403 26.3867 30.4403C 26.3865 30.4403 26.3864 30.4403 26.3862 30.4403C 26.3861 30.4403 26.3859 30.4403 26.3858 30.4403C 26.3856 30.4403 26.3855 30.4403 26.3853 30.4403C 26.3851 30.4403 26.385 30.4403 26.3848 30.4403C 26.3847 30.4403 26.3845 30.4403 26.3844 30.4403C 26.3842 30.4403 26.3841 30.4403 26.3839 30.4403C 26.3838 30.4403 26.3836 30.4403 26.3835 30.4403C 26.3833 30.4403 26.3832 30.4403 26.383 30.4403C 26.3829 30.4403 26.3827 30.4403 26.3826 30.4403C 26.3824 30.4403 26.3823 30.4403 26.3821 30.4403C 26.3819 30.4403 26.3818 30.4403 26.3816 30.4403C 26.3815 30.4403 26.3813 30.4403 26.3812 30.4403C 26.381 30.4403 26.3809 30.4403 26.3807 30.4403C 26.3806 30.4403 26.3804 30.4403 26.3803 30.4403C 26.3801 30.4403 26.38 30.4403 26.3798 30.4403C 26.3797 30.4403 26.3795 30.4403 26.3793 30.4403C 26.3792 30.4403 26.379 30.4403 26.3789 30.4403C 26.3787 30.4403 26.3786 30.4403 26.3784 30.4403C 26.3783 30.4403 26.3781 30.4403 26.378 30.4403C 26.3778 30.4403 26.3777 30.4403 26.3775 30.4403C 26.3773 30.4403 26.3772 30.4403 26.377 30.4403C 26.3769 30.4403 26.3767 30.4403 26.3766 30.4403C 26.3764 30.4403 26.3763 30.4403 26.3761 30.4403C 26.376 30.4403 26.3758 30.4403 26.3757 30.4403C 26.3755 30.4403 26.3754 30.4403 26.3752 30.4403C 26.375 30.4403 26.3749 30.4403 26.3747 30.4403C 26.3746 30.4403 26.3744 30.4403 26.3743 30.4403C 26.3741 30.4403 26.374 30.4403 26.3738 30.4403C 26.3737 30.4403 26.3735 30.4403 26.3733 30.4403C 26.3732 30.4403 26.373 30.4403 26.3729 30.4403C 26.3727 30.4403 26.3726 30.4403 26.3724 30.4403C 26.3723 30.4403 26.3721 30.4403 26.372 30.4403C 26.3718 30.4403 26.3716 30.4403 26.3715 30.4403C 26.3713 30.4403 26.3712 30.4403 26.371 30.4403C 26.3709 30.4403 26.3707 30.4403 26.3706 30.4403C 26.3704 30.4403 26.3703 30.4403 26.3701 30.4403C 26.3699 30.4403 26.3698 30.4403 26.3696 30.4403C 26.3695 30.4403 26.3693 30.4403 26.3692 30.4403C 26.369 30.4403 26.3689 30.4403 26.3687 30.4403C 26.3685 30.4403 26.3684 30.4403 26.3682 30.4403C 26.3681 30.4403 26.3679 30.4403 26.3678 30.4403C 26.3676 30.4403 26.3675 30.4403 26.3673 30.4403C 26.3671 30.4403 26.367 30.4403 26.3668 30.4403C 26.3667 30.4403 26.3665 30.4403 26.3664 30.4403C 26.3662 30.4403 26.3661 30.4403 26.3659 30.4403C 26.3657 30.4403 26.3656 30.4403 26.3654 30.4403C 26.3653 30.4403 26.3651 30.4403 26.365 30.4403C 26.3648 30.4403 26.3647 30.4403 26.3645 30.4403C 26.3643 30.4403 26.3642 30.4403 26.364 30.4403C 26.3639 30.4403 26.3637 30.4403 26.3636 30.4403C 26.3634 30.4403 26.3633 30.4403 26.3631 30.4403C 26.3629 30.4403 26.3628 30.4403 26.3626 30.4403C 26.3625 30.4403 26.3623 30.4403 26.3622 30.4403C 26.362 30.4403 26.3618 30.4403 26.3617 30.4403C 26.3615 30.4403 26.3614 30.4403 26.3612 30.4403C 26.3611 30.4403 26.3609 30.4403 26.3608 30.4403C 26.3606 30.4403 26.3604 30.4403 26.3603 30.4403C 26.3601 30.4403 26.36 30.4403 26.3598 30.4403C 26.3597 30.4403 26.3595 30.4403 26.3593 30.4403C 26.3592 30.4403 26.359 30.4403 26.3589 30.4403C 26.3587 30.4403 26.3586 30.4403 26.3584 30.4403C 26.3582 30.4403 26.3581 30.4403 26.3579 30.4403C 26.3578 30.4403 26.3576 30.4403 26.3575 30.4403C 26.3573 30.4403 26.3571 30.4403 26.357 30.4403C 26.3568 30.4403 26.3567 30.4403 26.3565 30.4403C 26.3564 30.4403 26.3562 30.4403 26.356 30.4403C 26.3559 30.4403 26.3557 30.4403 26.3556 30.4403C 26.3554 30.4403 26.3553 30.4403 26.3551 30.4403C 26.3549 30.4403 26.3548 30.4403 26.3546 30.4403C 26.3545 30.4403 26.3543 30.4403 26.3542 30.4403C 26.354 30.4403 26.3538 30.4403 26.3537 30.4403C 26.3535 30.4403 26.3534 30.4403 26.3532 30.4403C 26.353 30.4403 26.3529 30.4403 26.3527 30.4403C 26.3526 30.4403 26.3524 30.4403 26.3523 30.4403C 26.3521 30.4403 26.3519 30.4403 26.3518 30.4403C 26.3516 30.4403 26.3515 30.4403 26.3513 30.4403C 26.3512 30.4403 26.351 30.4403 26.3508 30.4403C 26.3507 30.4403 26.3505 30.4403 26.3504 30.4403C 26.3502 30.4403 26.35 30.4403 26.3499 30.4403C 26.3497 30.4403 26.3496 30.4403 26.3494 30.4403C 26.3493 30.4403 26.3491 30.4403 26.3489 30.4403C 26.3488 30.4403 26.3486 30.4403 26.3485 30.4403C 26.3483 30.4403 26.3481 30.4403 26.348 30.4403C 26.3478 30.4403 26.3477 30.4403 26.3475 30.4403C 26.3473 30.4403 26.3472 30.4403 26.347 30.4403C 26.3469 30.4403 26.3467 30.4403 26.3466 30.4403C 26.3464 30.4403 26.3462 30.4403 26.3461 30.4403C 26.3459 30.4403 26.3458 30.4403 26.3456 30.4403C 26.3454 30.4403 26.3453 30.4403 26.3451 30.4403C 26.345 30.4403 26.3448 30.4403 26.3446 30.4403C 26.3445 30.4403 26.3443 30.4403 26.3442 30.4403C 26.344 30.4403 26.3439 30.4403 26.3437 30.4403C 26.3435 30.4403 26.3434 30.4403 26.3432 30.4403C 26.3431 30.4403 26.3429 30.4403 26.3427 30.4403C 26.3426 30.4403 26.3424 30.4403 26.3423 30.4403C 26.3421 30.4403 26.3419 30.4403 26.3418 30.4403C 26.3416 30.4403 26.3415 30.4403 26.3413 30.4403C 26.3411 30.4403 26.341 30.4403 26.3408 30.4403C 26.3407 30.4403 26.3405 30.4403 26.3403 30.4403C 26.3402 30.4403 26.34 30.4403 26.3399 30.4403C 26.3397 30.4403 26.3395 30.4403 26.3394 30.4403C 26.3392 30.4403 26.3391 30.4403 26.3389 30.4403C 26.3387 30.4403 26.3386 30.4403 26.3384 30.4403C 26.3383 30.4403 26.3381 30.4403 26.3379 30.4403C 26.3378 30.4403 26.3376 30.4403 26.3375 30.4403C 26.3373 30.4403 26.3371 30.4403 26.337 30.4403C 26.3368 30.4403 26.3367 30.4403 26.3365 30.4403C 26.3363 30.4403 26.3362 30.4403 26.336 30.4403C 26.3359 30.4403 26.3357 30.4403 26.3355 30.4403C 26.3354 30.4403 26.3352 30.4403 26.3351 30.4403C 26.3349 30.4403 26.3347 30.4403 26.3346 30.4403C 26.3344 30.4403 26.3343 30.4403 26.3341 30.4403C 26.3339 30.4403 26.3338 30.4403 26.3336 30.4403C 26.3334 30.4403 26.3333 30.4403 26.3331 30.4403C 26.333 30.4403 26.3328 30.4403 26.3326 30.4403C 26.3325 30.4403 26.3323 30.4403 26.3322 30.4403C 26.332 30.4403 26.3318 30.4403 26.3317 30.4403C 26.3315 30.4403 26.3314 30.4403 26.3312 30.4403C 26.331 30.4403 26.3309 30.4403 26.3307 30.4403C 26.3306 30.4403 26.3304 30.4403 26.3302 30.4403C 26.3301 30.4403 26.3299 30.4403 26.3297 30.4403C 26.3296 30.4403 26.3294 30.4403 26.3293 30.4403C 26.3291 30.4403 26.3289 30.4403 26.3288 30.4403C 26.3286 30.4403 26.3285 30.4403 26.3283 30.4403C 26.3281 30.4403 26.328 30.4403 26.3278 30.4403C 26.3276 30.4403 26.3275 30.4403 26.3273 30.4403C 26.3272 30.4403 26.327 30.4403 26.3268 30.4403C 26.3267 30.4403 26.3265 30.4403 26.3264 30.4403C 26.3262 30.4403 26.326 30.4403 26.3259 30.4403C 26.3257 30.4403 26.3255 30.4403 26.3254 30.4403C 26.3252 30.4403 26.3251 30.4403 26.3249 30.4403C 26.3247 30.4403 26.3246 30.4403 26.3244 30.4403C 26.3242 30.4403 26.3241 30.4403 26.3239 30.4403C 26.3238 30.4403 26.3236 30.4403 26.3234 30.4403C 26.3233 30.4403 26.3231 30.4403 26.323 30.4403C 26.3228 30.4403 26.3226 30.4403 26.3225 30.4403C 26.3223 30.4403 26.3221 30.4403 26.322 30.4403C 26.3218 30.4403 26.3217 30.4403 26.3215 30.4403C 26.3213 30.4403 26.3212 30.4403 26.321 30.4403C 26.3208 30.4403 26.3207 30.4403 26.3205 30.4403C 26.3204 30.4403 26.3202 30.4403 26.32 30.4403C 26.3199 30.4403 26.3197 30.4403 26.3195 30.4403C 26.3194 30.4403 26.3192 30.4403 26.3191 30.4403C 26.3189 30.4403 26.3187 30.4403 26.3186 30.4403C 26.3184 30.4403 26.3182 30.4403 26.3181 30.4403C 26.3179 30.4403 26.3177 30.4403 26.3176 30.4403C 26.3174 30.4403 26.3173 30.4403 26.3171 30.4403C 26.3169 30.4403 26.3168 30.4403 26.3166 30.4403C 26.3164 30.4403 26.3163 30.4403 26.3161 30.4403C 26.316 30.4403 26.3158 30.4403 26.3156 30.4403C 26.3155 30.4403 26.3153 30.4403 26.3151 30.4403C 26.315 30.4403 26.3148 30.4403 26.3147 30.4403C 26.3145 30.4403 26.3143 30.4403 26.3142 30.4403C 26.314 30.4403 26.3138 30.4403 26.3137 30.4403C 26.3135 30.4403 26.3133 30.4403 26.3132 30.4403C 26.313 30.4403 26.3129 30.4403 26.3127 30.4403C 26.3125 30.4403 26.3124 30.4403 26.3122 30.4403C 26.312 30.4403 26.3119 30.4403 26.3117 30.4403C 26.3115 30.4403 26.3114 30.4403 26.3112 30.4403C 26.3111 30.4403 26.3109 30.4403 26.3107 30.4403C 26.3106 30.4403 26.3104 30.4403 26.3102 30.4403C 26.3101 30.4403 26.3099 30.4403 26.3097 30.4403C 26.3096 30.4403 26.3094 30.4403 26.3093 30.4403C 26.3091 30.4403 26.3089 30.4403 26.3088 30.4403C 26.3086 30.4403 26.3084 30.4403 26.3083 30.4403C 26.3081 30.4403 26.3079 30.4403 26.3078 30.4403C 26.3076 30.4403 26.3074 30.4403 26.3073 30.4403C 26.3071 30.4403 26.307 30.4403 26.3068 30.4403C 26.3066 30.4403 26.3065 30.4403 26.3063 30.4403C 26.3061 30.4403 26.306 30.4403 26.3058 30.4403C 26.3056 30.4403 26.3055 30.4403 26.3053 30.4403C 26.3051 30.4403 26.305 30.4403 26.3048 30.4403C 26.3047 30.4403 26.3045 30.4403 26.3043 30.4403C 26.3042 30.4403 26.304 30.4403 26.3038 30.4403C 26.3037 30.4403 26.3035 30.4403 26.3033 30.4403C 26.3032 30.4403 26.303 30.4403 26.3028 30.4403C 26.3027 30.4403 26.3025 30.4403 26.3024 30.4403C 26.3022 30.4403 26.302 30.4403 26.3019 30.4403C 26.3017 30.4403 26.3015 30.4403 26.3014 30.4403C 26.3012 30.4403 26.301 30.4403 26.3009 30.4403C 26.3007 30.4403 26.3005 30.4403 26.3004 30.4403C 26.3002 30.4403 26.3 30.4403 26.2999 30.4403C 26.2997 30.4403 26.2995 30.4403 26.2994 30.4403C 26.2992 30.4403 26.2991 30.4403 26.2989 30.4403C 26.2987 30.4403 26.2986 30.4403 26.2984 30.4403C 26.2982 30.4403 26.2981 30.4403 26.2979 30.4403C 26.2977 30.4403 26.2976 30.4403 26.2974 30.4403C 26.2972 30.4403 26.2971 30.4403 26.2969 30.4403C 26.2967 30.4403 26.2966 30.4403 26.2964 30.4403C 26.2962 30.4403 26.2961 30.4403 26.2959 30.4403C 26.2957 30.4403 26.2956 30.4403 26.2954 30.4403C 26.2952 30.4403 26.2951 30.4403 26.2949 30.4403C 26.2948 30.4403 26.2946 30.4403 26.2944 30.4403C 26.2943 30.4403 26.2941 30.4403 26.2939 30.4403C 26.2938 30.4403 26.2936 30.4403 26.2934 30.4403C 26.2933 30.4403 26.2931 30.4403 26.2929 30.4403C 26.2928 30.4403 26.2926 30.4403 26.2924 30.4403C 26.2923 30.4403 26.2921 30.4403 26.2919 30.4403C 26.2918 30.4403 26.2916 30.4403 26.2914 30.4403C 26.2913 30.4403 26.2911 30.4403 26.2909 30.4403C 26.2908 30.4403 26.2906 30.4403 26.2904 30.4403C 26.2903 30.4403 26.2901 30.4403 26.2899 30.4403C 26.2898 30.4403 26.2896 30.4403 26.2894 30.4403C 26.2893 30.4403 26.2891 30.4403 26.2889 30.4403C 26.2888 30.4403 26.2886 30.4403 26.2884 30.4403C 26.2883 30.4403 26.2881 30.4403 26.288 30.4403C 26.2878 30.4403 26.2876 30.4403 26.2875 30.4403C 26.2873 30.4403 26.2871 30.4403 26.287 30.4403C 26.2868 30.4403 26.2866 30.4403 26.2865 30.4403C 26.2863 30.4403 26.2861 30.4403 26.286 30.4403C 26.2858 30.4403 26.2856 30.4403 26.2855 30.4403C 26.2853 30.4403 26.2851 30.4403 26.285 30.4403C 26.2848 30.4403 26.2846 30.4403 26.2845 30.4403C 26.2843 30.4403 26.2841 30.4403 26.284 30.4403C 26.2838 30.4403 26.2836 30.4403 26.2835 30.4403C 26.2833 30.4403 26.2831 30.4403 26.283 30.4403C 26.2828 30.4403 26.2826 30.4403 26.2825 30.4403C 26.2823 30.4403 26.2821 30.4403 26.282 30.4403C 26.2818 30.4403 26.2816 30.4403 26.2815 30.4403C 26.2813 30.4403 26.2811 30.4403 26.281 30.4403C 26.2808 30.4403 26.2806 30.4403 26.2805 30.4403C 26.2803 30.4403 26.2801 30.4403 26.2799 30.4403C 26.2798 30.4403 26.2796 30.4403 26.2794 30.4403C 26.2793 30.4403 26.2791 30.4403 26.2789 30.4403C 26.2788 30.4403 26.2786 30.4403 26.2784 30.4403C 26.2783 30.4403 26.2781 30.4403 26.2779 30.4403C 26.2778 30.4403 26.2776 30.4403 26.2774 30.4403C 26.2773 30.4403 26.2771 30.4403 26.2769 30.4403C 26.2768 30.4403 26.2766 30.4403 26.2764 30.4403C 26.2763 30.4403 26.2761 30.4403 26.2759 30.4403C 26.2758 30.4403 26.2756 30.4403 26.2754 30.4403C 26.2753 30.4403 26.2751 30.4403 26.2749 30.4403C 26.2748 30.4403 26.2746 30.4403 26.2744 30.4403C 26.2743 30.4403 26.2741 30.4403 26.2739 30.4403C 26.2738 30.4403 26.2736 30.4403 26.2734 30.4403C 26.2733 30.4403 26.2731 30.4403 26.2729 30.4403C 26.2728 30.4403 26.2726 30.4403 26.2724 30.4403C 26.2722 30.4403 26.2721 30.4403 26.2719 30.4403C 26.2717 30.4403 26.2716 30.4403 26.2714 30.4403C 26.2712 30.4403 26.2711 30.4403 26.2709 30.4403C 26.2707 30.4403 26.2706 30.4403 26.2704 30.4403C 26.2702 30.4403 26.2701 30.4403 26.2699 30.4403C 26.2697 30.4403 26.2696 30.4403 26.2694 30.4403C 26.2692 30.4403 26.2691 30.4403 26.2689 30.4403C 26.2687 30.4403 26.2686 30.4403 26.2684 30.4403C 26.2682 30.4403 26.268 30.4403 26.2679 30.4403C 26.2677 30.4403 26.2675 30.4403 26.2674 30.4403C 26.2672 30.4403 26.267 30.4403 26.2669 30.4403C 26.2667 30.4403 26.2665 30.4403 26.2664 30.4403C 26.2662 30.4403 26.266 30.4403 26.2659 30.4403C 26.2657 30.4403 26.2655 30.4403 26.2654 30.4403C 26.2652 30.4403 26.265 30.4403 26.2649 30.4403C 26.2647 30.4403 26.2645 30.4403 26.2643 30.4403C 26.2642 30.4403 26.264 30.4403 26.2638 30.4403C 26.2637 30.4403 26.2635 30.4403 26.2633 30.4403C 26.2632 30.4403 26.263 30.4403 26.2628 30.4403C 26.2627 30.4403 26.2625 30.4403 26.2623 30.4403C 26.2622 30.4403 26.262 30.4403 26.2618 30.4403C 26.2617 30.4403 26.2615 30.4403 26.2613 30.4403C 26.2611 30.4403 26.261 30.4403 26.2608 30.4403C 26.2606 30.4403 26.2605 30.4403 26.2603 30.4403C 26.2601 30.4403 26.26 30.4403 26.2598 30.4403C 26.2596 30.4403 26.2595 30.4403 26.2593 30.4403C 26.2591 30.4403 26.259 30.4403 26.2588 30.4403C 26.2586 30.4403 26.2584 30.4403 26.2583 30.4403C 26.2581 30.4403 26.2579 30.4403 26.2578 30.4403C 26.2576 30.4403 26.2574 30.4403 26.2573 30.4403C 26.2571 30.4403 26.2569 30.4403 26.2568 30.4403C 26.2566 30.4403 26.2564 30.4403 26.2562 30.4403C 26.2561 30.4403 26.2559 30.4403 26.2557 30.4403C 26.2556 30.4403 26.2554 30.4403 26.2552 30.4403C 26.2551 30.4403 26.2549 30.4403 26.2547 30.4403C 26.2546 30.4403 26.2544 30.4403 26.2542 30.4403C 26.254 30.4403 26.2539 30.4403 26.2537 30.4403C 26.2535 30.4403 26.2534 30.4403 26.2532 30.4403C 26.253 30.4403 26.2529 30.4403 26.2527 30.4403C 26.2525 30.4403 26.2524 30.4403 26.2522 30.4403C 26.252 30.4403 26.2518 30.4403 26.2517 30.4403C 26.2515 30.4403 26.2513 30.4403 26.2512 30.4403C 26.251 30.4403 26.2508 30.4403 26.2507 30.4403C 26.2505 30.4403 26.2503 30.4403 26.2502 30.4403C 26.25 30.4403 26.2498 30.4403 26.2496 30.4403C 26.2495 30.4403 26.2493 30.4403 26.2491 30.4403C 26.249 30.4403 26.2488 30.4403 26.2486 30.4403C 26.2485 30.4403 26.2483 30.4403 26.2481 30.4403C 26.2479 30.4403 26.2478 30.4403 26.2476 30.4403C 26.2474 30.4403 26.2473 30.4403 26.2471 30.4403C 26.2469 30.4403 26.2468 30.4403 26.2466 30.4403C 26.2464 30.4403 26.2462 30.4403 26.2461 30.4403C 26.2459 30.4403 26.2457 30.4403 26.2456 30.4403C 26.2454 30.4403 26.2452 30.4403 26.2451 30.4403C 26.2449 30.4403 26.2447 30.4403 26.2445 30.4403C 26.2444 30.4403 26.2442 30.4403 26.244 30.4403C 26.2439 30.4403 26.2437 30.4403 26.2435 30.4403C 26.2434 30.4403 26.2432 30.4403 26.243 30.4403C 26.2428 30.4403 26.2427 30.4403 26.2425 30.4403C 26.2423 30.4403 26.2422 30.4403 26.242 30.4403C 26.2418 30.4403 26.2417 30.4403 26.2415 30.4403C 26.2413 30.4403 26.2411 30.4403 26.241 30.4403C 26.2408 30.4403 26.2406 30.4403 26.2405 30.4403C 26.2403 30.4403 26.2401 30.4403 26.24 30.4403C 26.2398 30.4403 26.2396 30.4403 26.2394 30.4403C 26.2393 30.4403 26.2391 30.4403 26.2389 30.4403C 26.2388 30.4403 26.2386 30.4403 26.2384 30.4403C 26.2383 30.4403 26.2381 30.4403 26.2379 30.4403C 26.2377 30.4403 26.2376 30.4403 26.2374 30.4403C 26.2372 30.4403 26.2371 30.4403 26.2369 30.4403C 26.2367 30.4403 26.2366 30.4403 26.2364 30.4403C 26.2362 30.4403 26.236 30.4403 26.2359 30.4403C 26.2357 30.4403 26.2355 30.4403 26.2354 30.4403C 26.2352 30.4403 26.235 30.4403 26.2348 30.4403C 26.2347 30.4403 26.2345 30.4403 26.2343 30.4403C 26.2342 30.4403 26.234 30.4403 26.2338 30.4403C 26.2337 30.4403 26.2335 30.4403 26.2333 30.4403C 26.2331 30.4403 26.233 30.4403 26.2328 30.4403C 26.2326 30.4403 26.2325 30.4403 26.2323 30.4403C 26.2321 30.4403 26.2319 30.4403 26.2318 30.4403C 26.2316 30.4403 26.2314 30.4403 26.2313 30.4403C 26.2311 30.4403 26.2309 30.4403 26.2307 30.4403C 26.2306 30.4403 26.2304 30.4403 26.2302 30.4403C 26.2301 30.4403 26.2299 30.4403 26.2297 30.4403C 26.2296 30.4403 26.2294 30.4403 26.2292 30.4403C 26.229 30.4403 26.2289 30.4403 26.2287 30.4403C 26.2285 30.4403 26.2284 30.4403 26.2282 30.4403C 26.228 30.4403 26.2278 30.4403 26.2277 30.4403C 26.2275 30.4403 26.2273 30.4403 26.2272 30.4403C 26.227 30.4403 26.2268 30.4403 26.2266 30.4403C 26.2265 30.4403 26.2263 30.4403 26.2261 30.4403C 26.226 30.4403 26.2258 30.4403 26.2256 30.4403C 26.2255 30.4403 26.2253 30.4403 26.2251 30.4403C 26.2249 30.4403 26.2248 30.4403 26.2246 30.4403C 26.2244 30.4403 26.2243 30.4403 26.2241 30.4403C 26.2239 30.4403 26.2237 30.4403 26.2236 30.4403C 26.2234 30.4403 26.2232 30.4403 26.2231 30.4403C 26.2229 30.4403 26.2227 30.4403 26.2225 30.4403C 26.2224 30.4403 26.2222 30.4403 26.222 30.4403C 26.2219 30.4403 26.2217 30.4403 26.2215 30.4403C 26.2213 30.4403 26.2212 30.4403 26.221 30.4403C 26.2208 30.4403 26.2207 30.4403 26.2205 30.4403C 26.2203 30.4403 26.2201 30.4403 26.22 30.4403C 26.2198 30.4403 26.2196 30.4403 26.2195 30.4403C 26.2193 30.4403 26.2191 30.4403 26.2189 30.4403C 26.2188 30.4403 26.2186 30.4403 26.2184 30.4403C 26.2183 30.4403 26.2181 30.4403 26.2179 30.4403C 26.2177 30.4403 26.2176 30.4403 26.2174 30.4403C 26.2172 30.4403 26.2171 30.4403 26.2169 30.4403C 26.2167 30.4403 26.2165 30.4403 26.2164 30.4403C 26.2162 30.4403 26.216 30.4403 26.2159 30.4403C 26.2157 30.4403 26.2155 30.4403 26.2153 30.4403C 26.2152 30.4403 26.215 30.4403 26.2148 30.4403C 26.2147 30.4403 26.2145 30.4403 26.2143 30.4403C 26.2141 30.4403 26.214 30.4403 26.2138 30.4403C 26.2136 30.4403 26.2135 30.4403 26.2133 30.4403C 26.2131 30.4403 26.2129 30.4403 26.2128 30.4403C 26.2126 30.4403 26.2124 30.4403 26.2123 30.4403C 26.2121 30.4403 26.2119 30.4403 26.2117 30.4403C 26.2116 30.4403 26.2114 30.4403 26.2112 30.4403C 26.2111 30.4403 26.2109 30.4403 26.2107 30.4403C 26.2105 30.4403 26.2104 30.4403 26.2102 30.4403C 26.21 30.4403 26.2098 30.4403 26.2097 30.4403C 26.2095 30.4403 26.2093 30.4403 26.2092 30.4403C 26.209 30.4403 26.2088 30.4403 26.2086 30.4403C 26.2085 30.4403 26.2083 30.4403 26.2081 30.4403C 26.208 30.4403 26.2078 30.4403 26.2076 30.4403C 26.2074 30.4403 26.2073 30.4403 26.2071 30.4403C 26.2069 30.4403 26.2068 30.4403 26.2066 30.4403C 26.2064 30.4403 26.2062 30.4403 26.2061 30.4403C 26.2059 30.4403 26.2057 30.4403 26.2056 30.4403C 26.2054 30.4403 26.2052 30.4403 26.205 30.4403C 26.2049 30.4403 26.2047 30.4403 26.2045 30.4403C 26.2043 30.4403 26.2042 30.4403 26.204 30.4403C 26.2038 30.4403 26.2037 30.4403 26.2035 30.4403C 26.2033 30.4403 26.2031 30.4403 26.203 30.4403C 26.2028 30.4403 26.2026 30.4403 26.2025 30.4403C 26.2023 30.4403 26.2021 30.4403 26.2019 30.4403C 26.2018 30.4403 26.2016 30.4403 26.2014 30.4403C 26.2012 30.4403 26.2011 30.4403 26.2009 30.4403C 26.2007 30.4403 26.2006 30.4403 26.2004 30.4403C 26.2002 30.4403 26.2 30.4403 26.1999 30.4403C 26.1997 30.4403 26.1995 30.4403 26.1994 30.4403C 26.1992 30.4403 26.199 30.4403 26.1988 30.4403C 26.1987 30.4403 26.1985 30.4403 26.1983 30.4403C 26.1981 30.4403 26.198 30.4403 26.1978 30.4403C 26.1976 30.4403 26.1975 30.4403 26.1973 30.4403C 26.1971 30.4403 26.1969 30.4403 26.1968 30.4403C 26.1966 30.4403 26.1964 30.4403 26.1963 30.4403C 26.1961 30.4403 26.1959 30.4403 26.1957 30.4403C 26.1956 30.4403 26.1954 30.4403 26.1952 30.4403C 26.195 30.4403 26.1949 30.4403 26.1947 30.4403C 26.1945 30.4403 26.1944 30.4403 26.1942 30.4403C 26.194 30.4403 26.1938 30.4403 26.1937 30.4403C 26.1935 30.4403 26.1933 30.4403 26.1932 30.4403C 26.193 30.4403 26.1928 30.4403 26.1926 30.4403C 26.1925 30.4403 26.1923 30.4403 26.1921 30.4403C 26.1919 30.4403 26.1918 30.4403 26.1916 30.4403C 26.1914 30.4403 26.1913 30.4403 26.1911 30.4403C 26.1909 30.4403 26.1907 30.4403 26.1906 30.4403C 26.1904 30.4403 26.1902 30.4403 26.19 30.4403C 26.1899 30.4403 26.1897 30.4403 26.1895 30.4403C 26.1894 30.4403 26.1892 30.4403 26.189 30.4403C 26.1888 30.4403 26.1887 30.4403 26.1885 30.4403C 26.1883 30.4403 26.1881 30.4403 26.188 30.4403C 26.1878 30.4403 26.1876 30.4403 26.1875 30.4403C 26.1873 30.4403 26.1871 30.4403 26.1869 30.4403C 26.1868 30.4403 26.1866 30.4403 26.1864 30.4403C 26.1863 30.4403 26.1861 30.4403 26.1859 30.4403C 26.1857 30.4403 26.1856 30.4403 26.1854 30.4403C 26.1852 30.4403 26.185 30.4403 26.1849 30.4403C 26.1847 30.4403 26.1845 30.4403 26.1844 30.4403C 26.1842 30.4403 26.184 30.4403 26.1838 30.4403C 26.1837 30.4403 26.1835 30.4403 26.1833 30.4403C 26.1831 30.4403 26.183 30.4403 26.1828 30.4403C 26.1826 30.4403 26.1825 30.4403 26.1823 30.4403C 26.1821 30.4403 26.1819 30.4403 26.1818 30.4403C 26.1816 30.4403 26.1814 30.4403 26.1812 30.4403C 26.1811 30.4403 26.1809 30.4403 26.1807 30.4403C 26.1806 30.4403 26.1804 30.4403 26.1802 30.4403C 26.18 30.4403 26.1799 30.4403 26.1797 30.4403C 26.1795 30.4403 26.1793 30.4403 26.1792 30.4403C 26.179 30.4403 26.1788 30.4403 26.1787 30.4403C 26.1785 30.4403 26.1783 30.4403 26.1781 30.4403C 26.178 30.4403 26.1778 30.4403 26.1776 30.4403C 26.1774 30.4403 26.1773 30.4403 26.1771 30.4403C 26.1769 30.4403 26.1768 30.4403 26.1766 30.4403C 26.1764 30.4403 26.1762 30.4403 26.1761 30.4403C 26.1759 30.4403 26.1757 30.4403 26.1755 30.4403C 26.1754 30.4403 26.1752 30.4403 26.175 30.4403C 26.1748 30.4403 26.1747 30.4403 26.1745 30.4403C 26.1743 30.4403 26.1742 30.4403 26.174 30.4403C 26.1738 30.4403 26.1736 30.4403 26.1735 30.4403C 26.1733 30.4403 26.1731 30.4403 26.1729 30.4403C 26.1728 30.4403 26.1726 30.4403 26.1724 30.4403C 26.1723 30.4403 26.1721 30.4403 26.1719 30.4403C 26.1717 30.4403 26.1716 30.4403 26.1714 30.4403C 26.1712 30.4403 26.171 30.4403 26.1709 30.4403C 26.1707 30.4403 26.1705 30.4403 26.1704 30.4403C 26.1702 30.4403 26.17 30.4403 26.1698 30.4403C 26.1697 30.4403 26.1695 30.4403 26.1693 30.4403C 26.1691 30.4403 26.169 30.4403 26.1688 30.4403C 26.1686 30.4403 26.1685 30.4403 26.1683 30.4403C 26.1681 30.4403 26.1679 30.4403 26.1678 30.4403C 26.1676 30.4403 26.1674 30.4403 26.1672 30.4403C 26.1671 30.4403 26.1669 30.4403 26.1667 30.4403C 26.1665 30.4403 26.1664 30.4403 26.1662 30.4403C 26.166 30.4403 26.1659 30.4403 26.1657 30.4403C 26.1655 30.4403 26.1653 30.4403 26.1652 30.4403C 26.165 30.4403 26.1648 30.4403 26.1646 30.4403C 26.1645 30.4403 26.1643 30.4403 26.1641 30.4403C 26.164 30.4403 26.1638 30.4403 26.1636 30.4403C 26.1634 30.4403 26.1633 30.4403 26.1631 30.4403C 26.1629 30.4403 26.1627 30.4403 26.1626 30.4403C 26.1624 30.4403 26.1622 30.4403 26.1621 30.4403C 26.1619 30.4403 26.1617 30.4403 26.1615 30.4403C 26.1614 30.4403 26.1612 30.4403 26.161 30.4403C 26.1608 30.4403 26.1607 30.4403 26.1605 30.4403C 26.1603 30.4403 26.1601 30.4403 26.16 30.4403C 26.1598 30.4403 26.1596 30.4403 26.1595 30.4403C 26.1593 30.4403 26.1591 30.4403 26.1589 30.4403C 26.1588 30.4403 26.1586 30.4403 26.1584 30.4403C 26.1582 30.4403 26.1581 30.4403 26.1579 30.4403C 26.1577 30.4403 26.1576 30.4403 26.1574 30.4403C 26.1572 30.4403 26.157 30.4403 26.1569 30.4403C 26.1567 30.4403 26.1565 30.4403 26.1563 30.4403C 26.1562 30.4403 26.156 30.4403 26.1558 30.4403C 26.1557 30.4403 26.1555 30.4403 26.1553 30.4403C 26.1551 30.4403 26.155 30.4403 26.1548 30.4403C 26.1546 30.4403 26.1544 30.4403 26.1543 30.4403C 26.1541 30.4403 26.1539 30.4403 26.1537 30.4403C 26.1536 30.4403 26.1534 30.4403 26.1532 30.4403C 26.1531 30.4403 26.1529 30.4403 26.1527 30.4403C 26.1525 30.4403 26.1524 30.4403 26.1522 30.4403C 26.152 30.4403 26.1518 30.4403 26.1517 30.4403C 26.1515 30.4403 26.1513 30.4403 26.1512 30.4403C 26.151 30.4403 26.1508 30.4403 26.1506 30.4403L 26.1506 33.4403ZM 26.4038 33.4403C 29.0305 33.4403 31.7304 36.2244 31.8918 40.6654L 34.8898 40.5565C 34.6967 35.243 31.2956 30.4403 26.4038 30.4403L 26.4038 33.4403ZM 33.3908 42.111L 47.5673 42.111L 47.5673 39.111L 33.3908 39.111L 33.3908 42.111ZM 47.5673 42.111C 48.635 42.111 49.5009 41.5447 50.0528 40.8288C 50.6036 40.1142 50.9027 39.1903 50.9027 38.2298L 47.9027 38.2298C 47.9027 38.5831 47.7904 38.8498 47.6767 38.9973C 47.564 39.1435 47.5122 39.111 47.5673 39.111L 47.5673 42.111ZM 50.9027 38.2298L 50.9027 2.38115L 47.9027 2.38115L 47.9027 38.2298L 50.9027 38.2298ZM 50.9027 2.38115C 50.9027 1.42066 50.6036 0.496806 50.0528 -0.217801C 49.5009 -0.933744 48.635 -1.5 47.5673 -1.5L 47.5673 1.5C 47.5122 1.5 47.564 1.46745 47.6767 1.61365C 47.7904 1.76118 47.9027 2.0279 47.9027 2.38115L 50.9027 2.38115Z"/>
</defs>
</svg>
