<svg width="38" height="25" viewBox="0 0 38 25" version="1.1" xmlns="http://www.w3.org/2000/svg" xmlns:xlink="http://www.w3.org/1999/xlink">
<title>grey_truck</title>
<desc>Created using Figma</desc>
<g id="Canvas" transform="translate(232 146)">
<clipPath id="clip-0" clip-rule="evenodd">
<path d="M -232 -146L -194 -146L -194 -121L -232 -121L -232 -146Z" fill="#FFFFFF"/>
</clipPath>
<g id="grey_truck" clip-path="url(#clip-0)">
<g id="Grey Truck">
<g id="Vector">
<mask id="mask0_outline_ins">
<use xlink:href="#path0_fill" fill="white" transform="matrix(0.999213 -0.0385494 0.0340588 0.999376 -220.267 -131.683)"/>
</mask>
<g mask="url(#mask0_outline_ins)">
<use xlink:href="#path1_stroke_2x" transform="matrix(0.999213 -0.0385494 0.0340588 0.999376 -220.267 -131.683)" fill="#8C97B2"/>
</g>
</g>
<g id="Vector">
<use xlink:href="#path2_fill" transform="translate(-206.032 -142.07)" fill="#8C97B2"/>
</g>
<g id="Vector">
<mask id="mask1_outline_ins">
<use xlink:href="#path3_fill" fill="white" transform="translate(-203.212 -131.768)"/>
</mask>
<g mask="url(#mask1_outline_ins)">
<use xlink:href="#path4_stroke_2x" transform="translate(-203.212 -131.768)" fill="#8C97B2"/>
</g>
</g>
<g id="Vector">
<mask id="mask2_outline_ins">
<use xlink:href="#path5_fill" fill="white" transform="translate(-231 -146)"/>
</mask>
<g mask="url(#mask2_outline_ins)">
<use xlink:href="#path6_stroke_2x" transform="translate(-231 -146)" fill="#8C97B2"/>
</g>
</g>
</g>
</g>
</g>
<defs>
<path id="path0_fill" d="M 2.20251 4.68604C 3.41892 4.68604 4.40502 3.63704 4.40502 2.34302C 4.40502 1.04901 3.41892 0 2.20251 0C 0.986098 0 0 1.04901 0 2.34302C 0 3.63704 0.986098 4.68604 2.20251 4.68604Z"/>
<path id="path1_stroke_2x" d="M 2.90502 2.34302C 2.90502 2.89735 2.50445 3.18604 2.20251 3.18604L 2.20251 6.18604C 4.33339 6.18604 5.90502 4.37672 5.90502 2.34302L 2.90502 2.34302ZM 2.20251 3.18604C 1.90057 3.18604 1.5 2.89735 1.5 2.34302L -1.5 2.34302C -1.5 4.37672 0.0716301 6.18604 2.20251 6.18604L 2.20251 3.18604ZM 1.5 2.34302C 1.5 1.78869 1.90056 1.5 2.20251 1.5L 2.20251 -1.5C 0.0716306 -1.5 -1.5 0.30932 -1.5 2.34302L 1.5 2.34302ZM 2.20251 1.5C 2.50445 1.5 2.90502 1.78869 2.90502 2.34302L 5.90502 2.34302C 5.90502 0.309321 4.33339 -1.5 2.20251 -1.5L 2.20251 1.5Z"/>
<path id="path2_fill" d="M 6.28253 0.617333C 6.02049 0.225692 5.60249 0 5.15329 0L 0 0L 0 6.23971L 0 12.4794L 1.57219 12.4794C 1.6533 10.5345 3.16934 8.97456 5.01604 8.97456C 6.86274 8.97456 8.37878 10.5279 8.45988 12.4794L 10.0321 12.4794L 10.0321 6.23971L 6.28253 0.617333ZM 1.1729 5.2241L 1.1729 1.27449L 5.01604 1.27449L 7.52406 5.2241L 1.1729 5.2241Z"/>
<path id="path3_fill" d="M 2.20231 4.68641C 3.41861 4.68641 4.40462 3.63732 4.40462 2.3432C 4.40462 1.04909 3.41861 0 2.20231 0C 0.986008 0 0 1.04909 0 2.3432C 0 3.63732 0.986008 4.68641 2.20231 4.68641Z"/>
<path id="path4_stroke_2x" d="M 2.90462 2.3432C 2.90462 2.89788 2.50391 3.18641 2.20231 3.18641L 2.20231 6.18641C 4.33331 6.18641 5.90462 4.37676 5.90462 2.3432L 2.90462 2.3432ZM 2.20231 3.18641C 1.90071 3.18641 1.5 2.89788 1.5 2.3432L -1.5 2.3432C -1.5 4.37676 0.0713086 6.18641 2.20231 6.18641L 2.20231 3.18641ZM 1.5 2.3432C 1.5 1.78853 1.90071 1.5 2.20231 1.5L 2.20231 -1.5C 0.0713091 -1.5 -1.5 0.309647 -1.5 2.3432L 1.5 2.3432ZM 2.20231 1.5C 2.50391 1.5 2.90462 1.78853 2.90462 2.3432L 5.90462 2.3432C 5.90462 0.309649 4.33331 -1.5 2.20231 -1.5L 2.20231 1.5Z"/>
<path id="path5_fill" d="M 23.4456 0L 8.89036 0C 8.39125 0 7.98573 0.43147 7.98573 0.962509L 7.98573 1.9051L 2.57664 1.9051C 2.16488 1.9051 1.82798 2.26356 1.82798 2.70166C 1.82798 3.13977 2.16488 3.49822 2.57664 3.49822L 7.98573 3.49822L 7.98573 4.79263L 4.11764 4.79263C 3.70588 4.79263 3.36898 5.15108 3.36898 5.58919C 3.36898 6.0273 3.70588 6.38575 4.11764 6.38575L 7.98573 6.38575L 7.98573 7.68016L 0.748662 7.68016C 0.336898 7.68016 0 8.03861 0 8.47672C 0 8.91483 0.336898 9.27328 0.748662 9.27328L 7.98573 9.27328L 7.98573 15.4466C 7.98573 15.9777 8.39125 16.4091 8.89036 16.4091L 9.5704 16.4091C 9.6515 14.5239 11.0802 12.9773 12.8895 12.9109C 12.9331 12.9109 12.9768 12.9109 13.0142 12.9109C 14.8672 12.9109 16.3707 14.4443 16.4581 16.4158L 23.4456 16.4158C 23.9447 16.4158 24.3502 15.9843 24.3502 15.4532L 24.3502 0.962509C 24.3502 0.43147 23.9447 0 23.4456 0Z"/>
<path id="path6_stroke_2x" d="M 7.98573 1.9051L 7.98573 3.4051L 9.48573 3.4051L 9.48573 1.9051L 7.98573 1.9051ZM 7.98573 3.49822L 9.48573 3.49822L 9.48573 1.99822L 7.98573 1.99822L 7.98573 3.49822ZM 7.98573 4.79263L 7.98573 6.29263L 9.48573 6.29263L 9.48573 4.79263L 7.98573 4.79263ZM 7.98573 6.38575L 9.48573 6.38575L 9.48573 4.88575L 7.98573 4.88575L 7.98573 6.38575ZM 7.98573 7.68016L 7.98573 9.18016L 9.48573 9.18016L 9.48573 7.68016L 7.98573 7.68016ZM 7.98573 9.27328L 9.48573 9.27328L 9.48573 7.77328L 7.98573 7.77328L 7.98573 9.27328ZM 9.5704 16.4091L 9.5704 17.9091L 11.0072 17.9091L 11.069 16.4736L 9.5704 16.4091ZM 12.8895 12.9109L 12.8895 11.4109L 12.862 11.4109L 12.8345 11.4119L 12.8895 12.9109ZM 16.4581 16.4158L 14.9596 16.4821L 15.0231 17.9158L 16.4581 17.9158L 16.4581 16.4158ZM 23.4456 -1.5L 8.89036 -1.5L 8.89036 1.5L 23.4456 1.5L 23.4456 -1.5ZM 8.89036 -1.5C 7.47655 -1.5 6.48573 -0.307968 6.48573 0.962509L 9.48573 0.962509C 9.48573 1.17091 9.30595 1.5 8.89036 1.5L 8.89036 -1.5ZM 6.48573 0.962509L 6.48573 1.9051L 9.48573 1.9051L 9.48573 0.962509L 6.48573 0.962509ZM 7.98573 0.405104L 2.57664 0.405104L 2.57664 3.4051L 7.98573 3.4051L 7.98573 0.405104ZM 2.57664 0.405104C 1.25018 0.405104 0.327983 1.52412 0.327983 2.70166L 3.32798 2.70166C 3.32798 3.00299 3.07958 3.4051 2.57664 3.4051L 2.57664 0.405104ZM 0.327983 2.70166C 0.327983 3.87921 1.25018 4.99822 2.57664 4.99822L 2.57664 1.99822C 3.07958 1.99822 3.32798 2.40033 3.32798 2.70166L 0.327983 2.70166ZM 2.57664 4.99822L 7.98573 4.99822L 7.98573 1.99822L 2.57664 1.99822L 2.57664 4.99822ZM 6.48573 3.49822L 6.48573 4.79263L 9.48573 4.79263L 9.48573 3.49822L 6.48573 3.49822ZM 7.98573 3.29263L 4.11764 3.29263L 4.11764 6.29263L 7.98573 6.29263L 7.98573 3.29263ZM 4.11764 3.29263C 2.79118 3.29263 1.86898 4.41164 1.86898 5.58919L 4.86898 5.58919C 4.86898 5.89052 4.62058 6.29263 4.11764 6.29263L 4.11764 3.29263ZM 1.86898 5.58919C 1.86898 6.76674 2.79118 7.88575 4.11764 7.88575L 4.11764 4.88575C 4.62058 4.88575 4.86898 5.28786 4.86898 5.58919L 1.86898 5.58919ZM 4.11764 7.88575L 7.98573 7.88575L 7.98573 4.88575L 4.11764 4.88575L 4.11764 7.88575ZM 6.48573 6.38575L 6.48573 7.68016L 9.48573 7.68016L 9.48573 6.38575L 6.48573 6.38575ZM 7.98573 6.18016L 0.748662 6.18016L 0.748662 9.18016L 7.98573 9.18016L 7.98573 6.18016ZM 0.748662 6.18016C -0.577803 6.18016 -1.5 7.29917 -1.5 8.47672L 1.5 8.47672C 1.5 8.77805 1.2516 9.18016 0.748662 9.18016L 0.748662 6.18016ZM -1.5 8.47672C -1.5 9.65426 -0.577803 10.7733 0.748662 10.7733L 0.748662 7.77328C 1.2516 7.77328 1.5 8.17539 1.5 8.47672L -1.5 8.47672ZM 0.748662 10.7733L 7.98573 10.7733L 7.98573 7.77328L 0.748662 7.77328L 0.748662 10.7733ZM 6.48573 9.27328L 6.48573 15.4466L 9.48573 15.4466L 9.48573 9.27328L 6.48573 9.27328ZM 6.48573 15.4466C 6.48573 16.7171 7.47655 17.9091 8.89036 17.9091L 8.89036 14.9091C 9.30595 14.9091 9.48573 15.2382 9.48573 15.4466L 6.48573 15.4466ZM 8.89036 17.9091L 9.5704 17.9091L 9.5704 14.9091L 8.89036 14.9091L 8.89036 17.9091ZM 11.069 16.4736C 11.1205 15.2771 12.0062 14.4443 12.9445 14.4099L 12.8345 11.4119C 10.1542 11.5102 8.18252 13.7708 8.07178 16.3446L 11.069 16.4736ZM 12.8895 14.4109C 12.8896 14.4109 12.8896 14.4109 12.8897 14.4109C 12.8898 14.4109 12.8899 14.4109 12.89 14.4109C 12.8901 14.4109 12.8901 14.4109 12.8902 14.4109C 12.8903 14.4109 12.8904 14.4109 12.8905 14.4109C 12.8906 14.4109 12.8907 14.4109 12.8907 14.4109C 12.8908 14.4109 12.8909 14.4109 12.891 14.4109C 12.8911 14.4109 12.8912 14.4109 12.8913 14.4109C 12.8913 14.4109 12.8914 14.4109 12.8915 14.4109C 12.8916 14.4109 12.8917 14.4109 12.8918 14.4109C 12.8919 14.4109 12.8919 14.4109 12.892 14.4109C 12.8921 14.4109 12.8922 14.4109 12.8923 14.4109C 12.8924 14.4109 12.8925 14.4109 12.8925 14.4109C 12.8926 14.4109 12.8927 14.4109 12.8928 14.4109C 12.8929 14.4109 12.893 14.4109 12.893 14.4109C 12.8931 14.4109 12.8932 14.4109 12.8933 14.4109C 12.8934 14.4109 12.8935 14.4109 12.8936 14.4109C 12.8936 14.4109 12.8937 14.4109 12.8938 14.4109C 12.8939 14.4109 12.894 14.4109 12.8941 14.4109C 12.8942 14.4109 12.8942 14.4109 12.8943 14.4109C 12.8944 14.4109 12.8945 14.4109 12.8946 14.4109C 12.8947 14.4109 12.8948 14.4109 12.8948 14.4109C 12.8949 14.4109 12.895 14.4109 12.8951 14.4109C 12.8952 14.4109 12.8953 14.4109 12.8953 14.4109C 12.8954 14.4109 12.8955 14.4109 12.8956 14.4109C 12.8957 14.4109 12.8958 14.4109 12.8959 14.4109C 12.8959 14.4109 12.896 14.4109 12.8961 14.4109C 12.8962 14.4109 12.8963 14.4109 12.8964 14.4109C 12.8965 14.4109 12.8965 14.4109 12.8966 14.4109C 12.8967 14.4109 12.8968 14.4109 12.8969 14.4109C 12.897 14.4109 12.8971 14.4109 12.8971 14.4109C 12.8972 14.4109 12.8973 14.4109 12.8974 14.4109C 12.8975 14.4109 12.8976 14.4109 12.8977 14.4109C 12.8977 14.4109 12.8978 14.4109 12.8979 14.4109C 12.898 14.4109 12.8981 14.4109 12.8982 14.4109C 12.8982 14.4109 12.8983 14.4109 12.8984 14.4109C 12.8985 14.4109 12.8986 14.4109 12.8987 14.4109C 12.8988 14.4109 12.8988 14.4109 12.8989 14.4109C 12.899 14.4109 12.8991 14.4109 12.8992 14.4109C 12.8993 14.4109 12.8994 14.4109 12.8994 14.4109C 12.8995 14.4109 12.8996 14.4109 12.8997 14.4109C 12.8998 14.4109 12.8999 14.4109 12.9 14.4109C 12.9 14.4109 12.9001 14.4109 12.9002 14.4109C 12.9003 14.4109 12.9004 14.4109 12.9005 14.4109C 12.9005 14.4109 12.9006 14.4109 12.9007 14.4109C 12.9008 14.4109 12.9009 14.4109 12.901 14.4109C 12.9011 14.4109 12.9011 14.4109 12.9012 14.4109C 12.9013 14.4109 12.9014 14.4109 12.9015 14.4109C 12.9016 14.4109 12.9017 14.4109 12.9017 14.4109C 12.9018 14.4109 12.9019 14.4109 12.902 14.4109C 12.9021 14.4109 12.9022 14.4109 12.9023 14.4109C 12.9023 14.4109 12.9024 14.4109 12.9025 14.4109C 12.9026 14.4109 12.9027 14.4109 12.9028 14.4109C 12.9028 14.4109 12.9029 14.4109 12.903 14.4109C 12.9031 14.4109 12.9032 14.4109 12.9033 14.4109C 12.9034 14.4109 12.9034 14.4109 12.9035 14.4109C 12.9036 14.4109 12.9037 14.4109 12.9038 14.4109C 12.9039 14.4109 12.904 14.4109 12.904 14.4109C 12.9041 14.4109 12.9042 14.4109 12.9043 14.4109C 12.9044 14.4109 12.9045 14.4109 12.9046 14.4109C 12.9046 14.4109 12.9047 14.4109 12.9048 14.4109C 12.9049 14.4109 12.905 14.4109 12.9051 14.4109C 12.9051 14.4109 12.9052 14.4109 12.9053 14.4109C 12.9054 14.4109 12.9055 14.4109 12.9056 14.4109C 12.9057 14.4109 12.9057 14.4109 12.9058 14.4109C 12.9059 14.4109 12.906 14.4109 12.9061 14.4109C 12.9062 14.4109 12.9063 14.4109 12.9063 14.4109C 12.9064 14.4109 12.9065 14.4109 12.9066 14.4109C 12.9067 14.4109 12.9068 14.4109 12.9069 14.4109C 12.9069 14.4109 12.907 14.4109 12.9071 14.4109C 12.9072 14.4109 12.9073 14.4109 12.9074 14.4109C 12.9074 14.4109 12.9075 14.4109 12.9076 14.4109C 12.9077 14.4109 12.9078 14.4109 12.9079 14.4109C 12.908 14.4109 12.908 14.4109 12.9081 14.4109C 12.9082 14.4109 12.9083 14.4109 12.9084 14.4109C 12.9085 14.4109 12.9086 14.4109 12.9086 14.4109C 12.9087 14.4109 12.9088 14.4109 12.9089 14.4109C 12.909 14.4109 12.9091 14.4109 12.9091 14.4109C 12.9092 14.4109 12.9093 14.4109 12.9094 14.4109C 12.9095 14.4109 12.9096 14.4109 12.9097 14.4109C 12.9097 14.4109 12.9098 14.4109 12.9099 14.4109C 12.91 14.4109 12.9101 14.4109 12.9102 14.4109C 12.9103 14.4109 12.9103 14.4109 12.9104 14.4109C 12.9105 14.4109 12.9106 14.4109 12.9107 14.4109C 12.9108 14.4109 12.9108 14.4109 12.9109 14.4109C 12.911 14.4109 12.9111 14.4109 12.9112 14.4109C 12.9113 14.4109 12.9114 14.4109 12.9114 14.4109C 12.9115 14.4109 12.9116 14.4109 12.9117 14.4109C 12.9118 14.4109 12.9119 14.4109 12.912 14.4109C 12.912 14.4109 12.9121 14.4109 12.9122 14.4109C 12.9123 14.4109 12.9124 14.4109 12.9125 14.4109C 12.9125 14.4109 12.9126 14.4109 12.9127 14.4109C 12.9128 14.4109 12.9129 14.4109 12.913 14.4109C 12.9131 14.4109 12.9131 14.4109 12.9132 14.4109C 12.9133 14.4109 12.9134 14.4109 12.9135 14.4109C 12.9136 14.4109 12.9136 14.4109 12.9137 14.4109C 12.9138 14.4109 12.9139 14.4109 12.914 14.4109C 12.9141 14.4109 12.9142 14.4109 12.9142 14.4109C 12.9143 14.4109 12.9144 14.4109 12.9145 14.4109C 12.9146 14.4109 12.9147 14.4109 12.9148 14.4109C 12.9148 14.4109 12.9149 14.4109 12.915 14.4109C 12.9151 14.4109 12.9152 14.4109 12.9153 14.4109C 12.9153 14.4109 12.9154 14.4109 12.9155 14.4109C 12.9156 14.4109 12.9157 14.4109 12.9158 14.4109C 12.9159 14.4109 12.9159 14.4109 12.916 14.4109C 12.9161 14.4109 12.9162 14.4109 12.9163 14.4109C 12.9164 14.4109 12.9164 14.4109 12.9165 14.4109C 12.9166 14.4109 12.9167 14.4109 12.9168 14.4109C 12.9169 14.4109 12.917 14.4109 12.917 14.4109C 12.9171 14.4109 12.9172 14.4109 12.9173 14.4109C 12.9174 14.4109 12.9175 14.4109 12.9176 14.4109C 12.9176 14.4109 12.9177 14.4109 12.9178 14.4109C 12.9179 14.4109 12.918 14.4109 12.9181 14.4109C 12.9181 14.4109 12.9182 14.4109 12.9183 14.4109C 12.9184 14.4109 12.9185 14.4109 12.9186 14.4109C 12.9187 14.4109 12.9187 14.4109 12.9188 14.4109C 12.9189 14.4109 12.919 14.4109 12.9191 14.4109C 12.9192 14.4109 12.9192 14.4109 12.9193 14.4109C 12.9194 14.4109 12.9195 14.4109 12.9196 14.4109C 12.9197 14.4109 12.9198 14.4109 12.9198 14.4109C 12.9199 14.4109 12.92 14.4109 12.9201 14.4109C 12.9202 14.4109 12.9203 14.4109 12.9203 14.4109C 12.9204 14.4109 12.9205 14.4109 12.9206 14.4109C 12.9207 14.4109 12.9208 14.4109 12.9209 14.4109C 12.9209 14.4109 12.921 14.4109 12.9211 14.4109C 12.9212 14.4109 12.9213 14.4109 12.9214 14.4109C 12.9214 14.4109 12.9215 14.4109 12.9216 14.4109C 12.9217 14.4109 12.9218 14.4109 12.9219 14.4109C 12.922 14.4109 12.922 14.4109 12.9221 14.4109C 12.9222 14.4109 12.9223 14.4109 12.9224 14.4109C 12.9225 14.4109 12.9225 14.4109 12.9226 14.4109C 12.9227 14.4109 12.9228 14.4109 12.9229 14.4109C 12.923 14.4109 12.9231 14.4109 12.9231 14.4109C 12.9232 14.4109 12.9233 14.4109 12.9234 14.4109C 12.9235 14.4109 12.9236 14.4109 12.9236 14.4109C 12.9237 14.4109 12.9238 14.4109 12.9239 14.4109C 12.924 14.4109 12.9241 14.4109 12.9241 14.4109C 12.9242 14.4109 12.9243 14.4109 12.9244 14.4109C 12.9245 14.4109 12.9246 14.4109 12.9247 14.4109C 12.9247 14.4109 12.9248 14.4109 12.9249 14.4109C 12.925 14.4109 12.9251 14.4109 12.9252 14.4109C 12.9252 14.4109 12.9253 14.4109 12.9254 14.4109C 12.9255 14.4109 12.9256 14.4109 12.9257 14.4109C 12.9258 14.4109 12.9258 14.4109 12.9259 14.4109C 12.926 14.4109 12.9261 14.4109 12.9262 14.4109C 12.9263 14.4109 12.9263 14.4109 12.9264 14.4109C 12.9265 14.4109 12.9266 14.4109 12.9267 14.4109C 12.9268 14.4109 12.9268 14.4109 12.9269 14.4109C 12.927 14.4109 12.9271 14.4109 12.9272 14.4109C 12.9273 14.4109 12.9274 14.4109 12.9274 14.4109C 12.9275 14.4109 12.9276 14.4109 12.9277 14.4109C 12.9278 14.4109 12.9279 14.4109 12.9279 14.4109C 12.928 14.4109 12.9281 14.4109 12.9282 14.4109C 12.9283 14.4109 12.9284 14.4109 12.9284 14.4109C 12.9285 14.4109 12.9286 14.4109 12.9287 14.4109C 12.9288 14.4109 12.9289 14.4109 12.929 14.4109C 12.929 14.4109 12.9291 14.4109 12.9292 14.4109C 12.9293 14.4109 12.9294 14.4109 12.9295 14.4109C 12.9295 14.4109 12.9296 14.4109 12.9297 14.4109C 12.9298 14.4109 12.9299 14.4109 12.93 14.4109C 12.93 14.4109 12.9301 14.4109 12.9302 14.4109C 12.9303 14.4109 12.9304 14.4109 12.9305 14.4109C 12.9306 14.4109 12.9306 14.4109 12.9307 14.4109C 12.9308 14.4109 12.9309 14.4109 12.931 14.4109C 12.9311 14.4109 12.9311 14.4109 12.9312 14.4109C 12.9313 14.4109 12.9314 14.4109 12.9315 14.4109C 12.9316 14.4109 12.9316 14.4109 12.9317 14.4109C 12.9318 14.4109 12.9319 14.4109 12.932 14.4109C 12.9321 14.4109 12.9321 14.4109 12.9322 14.4109C 12.9323 14.4109 12.9324 14.4109 12.9325 14.4109C 12.9326 14.4109 12.9327 14.4109 12.9327 14.4109C 12.9328 14.4109 12.9329 14.4109 12.933 14.4109C 12.9331 14.4109 12.9332 14.4109 12.9332 14.4109C 12.9333 14.4109 12.9334 14.4109 12.9335 14.4109C 12.9336 14.4109 12.9337 14.4109 12.9337 14.4109C 12.9338 14.4109 12.9339 14.4109 12.934 14.4109C 12.9341 14.4109 12.9342 14.4109 12.9342 14.4109C 12.9343 14.4109 12.9344 14.4109 12.9345 14.4109C 12.9346 14.4109 12.9347 14.4109 12.9348 14.4109C 12.9348 14.4109 12.9349 14.4109 12.935 14.4109C 12.9351 14.4109 12.9352 14.4109 12.9353 14.4109C 12.9353 14.4109 12.9354 14.4109 12.9355 14.4109C 12.9356 14.4109 12.9357 14.4109 12.9358 14.4109C 12.9358 14.4109 12.9359 14.4109 12.936 14.4109C 12.9361 14.4109 12.9362 14.4109 12.9363 14.4109C 12.9363 14.4109 12.9364 14.4109 12.9365 14.4109C 12.9366 14.4109 12.9367 14.4109 12.9368 14.4109C 12.9368 14.4109 12.9369 14.4109 12.937 14.4109C 12.9371 14.4109 12.9372 14.4109 12.9373 14.4109C 12.9373 14.4109 12.9374 14.4109 12.9375 14.4109C 12.9376 14.4109 12.9377 14.4109 12.9378 14.4109C 12.9378 14.4109 12.9379 14.4109 12.938 14.4109C 12.9381 14.4109 12.9382 14.4109 12.9383 14.4109C 12.9383 14.4109 12.9384 14.4109 12.9385 14.4109C 12.9386 14.4109 12.9387 14.4109 12.9388 14.4109C 12.9389 14.4109 12.9389 14.4109 12.939 14.4109C 12.9391 14.4109 12.9392 14.4109 12.9393 14.4109C 12.9394 14.4109 12.9394 14.4109 12.9395 14.4109C 12.9396 14.4109 12.9397 14.4109 12.9398 14.4109C 12.9399 14.4109 12.9399 14.4109 12.94 14.4109C 12.9401 14.4109 12.9402 14.4109 12.9403 14.4109C 12.9404 14.4109 12.9404 14.4109 12.9405 14.4109C 12.9406 14.4109 12.9407 14.4109 12.9408 14.4109C 12.9409 14.4109 12.9409 14.4109 12.941 14.4109C 12.9411 14.4109 12.9412 14.4109 12.9413 14.4109C 12.9414 14.4109 12.9414 14.4109 12.9415 14.4109C 12.9416 14.4109 12.9417 14.4109 12.9418 14.4109C 12.9419 14.4109 12.9419 14.4109 12.942 14.4109C 12.9421 14.4109 12.9422 14.4109 12.9423 14.4109C 12.9424 14.4109 12.9424 14.4109 12.9425 14.4109C 12.9426 14.4109 12.9427 14.4109 12.9428 14.4109C 12.9429 14.4109 12.9429 14.4109 12.943 14.4109C 12.9431 14.4109 12.9432 14.4109 12.9433 14.4109C 12.9434 14.4109 12.9434 14.4109 12.9435 14.4109C 12.9436 14.4109 12.9437 14.4109 12.9438 14.4109C 12.9439 14.4109 12.9439 14.4109 12.944 14.4109C 12.9441 14.4109 12.9442 14.4109 12.9443 14.4109C 12.9444 14.4109 12.9444 14.4109 12.9445 14.4109C 12.9446 14.4109 12.9447 14.4109 12.9448 14.4109C 12.9448 14.4109 12.9449 14.4109 12.945 14.4109C 12.9451 14.4109 12.9452 14.4109 12.9453 14.4109C 12.9453 14.4109 12.9454 14.4109 12.9455 14.4109C 12.9456 14.4109 12.9457 14.4109 12.9458 14.4109C 12.9458 14.4109 12.9459 14.4109 12.946 14.4109C 12.9461 14.4109 12.9462 14.4109 12.9463 14.4109C 12.9463 14.4109 12.9464 14.4109 12.9465 14.4109C 12.9466 14.4109 12.9467 14.4109 12.9468 14.4109C 12.9468 14.4109 12.9469 14.4109 12.947 14.4109C 12.9471 14.4109 12.9472 14.4109 12.9473 14.4109C 12.9473 14.4109 12.9474 14.4109 12.9475 14.4109C 12.9476 14.4109 12.9477 14.4109 12.9478 14.4109C 12.9478 14.4109 12.9479 14.4109 12.948 14.4109C 12.9481 14.4109 12.9482 14.4109 12.9483 14.4109C 12.9483 14.4109 12.9484 14.4109 12.9485 14.4109C 12.9486 14.4109 12.9487 14.4109 12.9487 14.4109C 12.9488 14.4109 12.9489 14.4109 12.949 14.4109C 12.9491 14.4109 12.9492 14.4109 12.9492 14.4109C 12.9493 14.4109 12.9494 14.4109 12.9495 14.4109C 12.9496 14.4109 12.9497 14.4109 12.9497 14.4109C 12.9498 14.4109 12.9499 14.4109 12.95 14.4109C 12.9501 14.4109 12.9502 14.4109 12.9502 14.4109C 12.9503 14.4109 12.9504 14.4109 12.9505 14.4109C 12.9506 14.4109 12.9506 14.4109 12.9507 14.4109C 12.9508 14.4109 12.9509 14.4109 12.951 14.4109C 12.9511 14.4109 12.9511 14.4109 12.9512 14.4109C 12.9513 14.4109 12.9514 14.4109 12.9515 14.4109C 12.9516 14.4109 12.9516 14.4109 12.9517 14.4109C 12.9518 14.4109 12.9519 14.4109 12.952 14.4109C 12.9521 14.4109 12.9521 14.4109 12.9522 14.4109C 12.9523 14.4109 12.9524 14.4109 12.9525 14.4109C 12.9525 14.4109 12.9526 14.4109 12.9527 14.4109C 12.9528 14.4109 12.9529 14.4109 12.953 14.4109C 12.953 14.4109 12.9531 14.4109 12.9532 14.4109C 12.9533 14.4109 12.9534 14.4109 12.9535 14.4109C 12.9535 14.4109 12.9536 14.4109 12.9537 14.4109C 12.9538 14.4109 12.9539 14.4109 12.9539 14.4109C 12.954 14.4109 12.9541 14.4109 12.9542 14.4109C 12.9543 14.4109 12.9544 14.4109 12.9544 14.4109C 12.9545 14.4109 12.9546 14.4109 12.9547 14.4109C 12.9548 14.4109 12.9549 14.4109 12.9549 14.4109C 12.955 14.4109 12.9551 14.4109 12.9552 14.4109C 12.9553 14.4109 12.9553 14.4109 12.9554 14.4109C 12.9555 14.4109 12.9556 14.4109 12.9557 14.4109C 12.9558 14.4109 12.9558 14.4109 12.9559 14.4109C 12.956 14.4109 12.9561 14.4109 12.9562 14.4109C 12.9562 14.4109 12.9563 14.4109 12.9564 14.4109C 12.9565 14.4109 12.9566 14.4109 12.9567 14.4109C 12.9567 14.4109 12.9568 14.4109 12.9569 14.4109C 12.957 14.4109 12.9571 14.4109 12.9571 14.4109C 12.9572 14.4109 12.9573 14.4109 12.9574 14.4109C 12.9575 14.4109 12.9576 14.4109 12.9576 14.4109C 12.9577 14.4109 12.9578 14.4109 12.9579 14.4109C 12.958 14.4109 12.958 14.4109 12.9581 14.4109C 12.9582 14.4109 12.9583 14.4109 12.9584 14.4109C 12.9585 14.4109 12.9585 14.4109 12.9586 14.4109C 12.9587 14.4109 12.9588 14.4109 12.9589 14.4109C 12.9589 14.4109 12.959 14.4109 12.9591 14.4109C 12.9592 14.4109 12.9593 14.4109 12.9594 14.4109C 12.9594 14.4109 12.9595 14.4109 12.9596 14.4109C 12.9597 14.4109 12.9598 14.4109 12.9598 14.4109C 12.9599 14.4109 12.96 14.4109 12.9601 14.4109C 12.9602 14.4109 12.9603 14.4109 12.9603 14.4109C 12.9604 14.4109 12.9605 14.4109 12.9606 14.4109C 12.9607 14.4109 12.9607 14.4109 12.9608 14.4109C 12.9609 14.4109 12.961 14.4109 12.9611 14.4109C 12.9612 14.4109 12.9612 14.4109 12.9613 14.4109C 12.9614 14.4109 12.9615 14.4109 12.9616 14.4109C 12.9616 14.4109 12.9617 14.4109 12.9618 14.4109C 12.9619 14.4109 12.962 14.4109 12.9621 14.4109C 12.9621 14.4109 12.9622 14.4109 12.9623 14.4109C 12.9624 14.4109 12.9625 14.4109 12.9625 14.4109C 12.9626 14.4109 12.9627 14.4109 12.9628 14.4109C 12.9629 14.4109 12.9629 14.4109 12.963 14.4109C 12.9631 14.4109 12.9632 14.4109 12.9633 14.4109C 12.9634 14.4109 12.9634 14.4109 12.9635 14.4109C 12.9636 14.4109 12.9637 14.4109 12.9638 14.4109C 12.9638 14.4109 12.9639 14.4109 12.964 14.4109C 12.9641 14.4109 12.9642 14.4109 12.9642 14.4109C 12.9643 14.4109 12.9644 14.4109 12.9645 14.4109C 12.9646 14.4109 12.9647 14.4109 12.9647 14.4109C 12.9648 14.4109 12.9649 14.4109 12.965 14.4109C 12.9651 14.4109 12.9651 14.4109 12.9652 14.4109C 12.9653 14.4109 12.9654 14.4109 12.9655 14.4109C 12.9655 14.4109 12.9656 14.4109 12.9657 14.4109C 12.9658 14.4109 12.9659 14.4109 12.9659 14.4109C 12.966 14.4109 12.9661 14.4109 12.9662 14.4109C 12.9663 14.4109 12.9664 14.4109 12.9664 14.4109C 12.9665 14.4109 12.9666 14.4109 12.9667 14.4109C 12.9668 14.4109 12.9668 14.4109 12.9669 14.4109C 12.967 14.4109 12.9671 14.4109 12.9672 14.4109C 12.9672 14.4109 12.9673 14.4109 12.9674 14.4109C 12.9675 14.4109 12.9676 14.4109 12.9676 14.4109C 12.9677 14.4109 12.9678 14.4109 12.9679 14.4109C 12.968 14.4109 12.9681 14.4109 12.9681 14.4109C 12.9682 14.4109 12.9683 14.4109 12.9684 14.4109C 12.9685 14.4109 12.9685 14.4109 12.9686 14.4109C 12.9687 14.4109 12.9688 14.4109 12.9689 14.4109C 12.9689 14.4109 12.969 14.4109 12.9691 14.4109C 12.9692 14.4109 12.9693 14.4109 12.9693 14.4109C 12.9694 14.4109 12.9695 14.4109 12.9696 14.4109C 12.9697 14.4109 12.9697 14.4109 12.9698 14.4109C 12.9699 14.4109 12.97 14.4109 12.9701 14.4109C 12.9701 14.4109 12.9702 14.4109 12.9703 14.4109C 12.9704 14.4109 12.9705 14.4109 12.9706 14.4109C 12.9706 14.4109 12.9707 14.4109 12.9708 14.4109C 12.9709 14.4109 12.971 14.4109 12.971 14.4109C 12.9711 14.4109 12.9712 14.4109 12.9713 14.4109C 12.9714 14.4109 12.9714 14.4109 12.9715 14.4109C 12.9716 14.4109 12.9717 14.4109 12.9718 14.4109C 12.9718 14.4109 12.9719 14.4109 12.972 14.4109C 12.9721 14.4109 12.9722 14.4109 12.9722 14.4109C 12.9723 14.4109 12.9724 14.4109 12.9725 14.4109C 12.9726 14.4109 12.9726 14.4109 12.9727 14.4109C 12.9728 14.4109 12.9729 14.4109 12.973 14.4109C 12.973 14.4109 12.9731 14.4109 12.9732 14.4109C 12.9733 14.4109 12.9734 14.4109 12.9734 14.4109C 12.9735 14.4109 12.9736 14.4109 12.9737 14.4109C 12.9738 14.4109 12.9738 14.4109 12.9739 14.4109C 12.974 14.4109 12.9741 14.4109 12.9742 14.4109C 12.9742 14.4109 12.9743 14.4109 12.9744 14.4109C 12.9745 14.4109 12.9746 14.4109 12.9746 14.4109C 12.9747 14.4109 12.9748 14.4109 12.9749 14.4109C 12.975 14.4109 12.975 14.4109 12.9751 14.4109C 12.9752 14.4109 12.9753 14.4109 12.9754 14.4109C 12.9754 14.4109 12.9755 14.4109 12.9756 14.4109C 12.9757 14.4109 12.9758 14.4109 12.9758 14.4109C 12.9759 14.4109 12.976 14.4109 12.9761 14.4109C 12.9762 14.4109 12.9762 14.4109 12.9763 14.4109C 12.9764 14.4109 12.9765 14.4109 12.9766 14.4109C 12.9766 14.4109 12.9767 14.4109 12.9768 14.4109C 12.9769 14.4109 12.977 14.4109 12.977 14.4109C 12.9771 14.4109 12.9772 14.4109 12.9773 14.4109C 12.9774 14.4109 12.9774 14.4109 12.9775 14.4109C 12.9776 14.4109 12.9777 14.4109 12.9777 14.4109C 12.9778 14.4109 12.9779 14.4109 12.978 14.4109C 12.9781 14.4109 12.9781 14.4109 12.9782 14.4109C 12.9783 14.4109 12.9784 14.4109 12.9785 14.4109C 12.9785 14.4109 12.9786 14.4109 12.9787 14.4109C 12.9788 14.4109 12.9789 14.4109 12.9789 14.4109C 12.979 14.4109 12.9791 14.4109 12.9792 14.4109C 12.9793 14.4109 12.9793 14.4109 12.9794 14.4109C 12.9795 14.4109 12.9796 14.4109 12.9797 14.4109C 12.9797 14.4109 12.9798 14.4109 12.9799 14.4109C 12.98 14.4109 12.98 14.4109 12.9801 14.4109C 12.9802 14.4109 12.9803 14.4109 12.9804 14.4109C 12.9804 14.4109 12.9805 14.4109 12.9806 14.4109C 12.9807 14.4109 12.9808 14.4109 12.9808 14.4109C 12.9809 14.4109 12.981 14.4109 12.9811 14.4109C 12.9812 14.4109 12.9812 14.4109 12.9813 14.4109C 12.9814 14.4109 12.9815 14.4109 12.9816 14.4109C 12.9816 14.4109 12.9817 14.4109 12.9818 14.4109C 12.9819 14.4109 12.9819 14.4109 12.982 14.4109C 12.9821 14.4109 12.9822 14.4109 12.9823 14.4109C 12.9823 14.4109 12.9824 14.4109 12.9825 14.4109C 12.9826 14.4109 12.9827 14.4109 12.9827 14.4109C 12.9828 14.4109 12.9829 14.4109 12.983 14.4109C 12.9831 14.4109 12.9831 14.4109 12.9832 14.4109C 12.9833 14.4109 12.9834 14.4109 12.9834 14.4109C 12.9835 14.4109 12.9836 14.4109 12.9837 14.4109C 12.9838 14.4109 12.9838 14.4109 12.9839 14.4109C 12.984 14.4109 12.9841 14.4109 12.9842 14.4109C 12.9842 14.4109 12.9843 14.4109 12.9844 14.4109C 12.9845 14.4109 12.9845 14.4109 12.9846 14.4109C 12.9847 14.4109 12.9848 14.4109 12.9849 14.4109C 12.9849 14.4109 12.985 14.4109 12.9851 14.4109C 12.9852 14.4109 12.9853 14.4109 12.9853 14.4109C 12.9854 14.4109 12.9855 14.4109 12.9856 14.4109C 12.9856 14.4109 12.9857 14.4109 12.9858 14.4109C 12.9859 14.4109 12.986 14.4109 12.986 14.4109C 12.9861 14.4109 12.9862 14.4109 12.9863 14.4109C 12.9863 14.4109 12.9864 14.4109 12.9865 14.4109C 12.9866 14.4109 12.9867 14.4109 12.9867 14.4109C 12.9868 14.4109 12.9869 14.4109 12.987 14.4109C 12.9871 14.4109 12.9871 14.4109 12.9872 14.4109C 12.9873 14.4109 12.9874 14.4109 12.9874 14.4109C 12.9875 14.4109 12.9876 14.4109 12.9877 14.4109C 12.9878 14.4109 12.9878 14.4109 12.9879 14.4109C 12.988 14.4109 12.9881 14.4109 12.9881 14.4109C 12.9882 14.4109 12.9883 14.4109 12.9884 14.4109C 12.9885 14.4109 12.9885 14.4109 12.9886 14.4109C 12.9887 14.4109 12.9888 14.4109 12.9888 14.4109C 12.9889 14.4109 12.989 14.4109 12.9891 14.4109C 12.9892 14.4109 12.9892 14.4109 12.9893 14.4109C 12.9894 14.4109 12.9895 14.4109 12.9895 14.4109C 12.9896 14.4109 12.9897 14.4109 12.9898 14.4109C 12.9899 14.4109 12.9899 14.4109 12.99 14.4109C 12.9901 14.4109 12.9902 14.4109 12.9902 14.4109C 12.9903 14.4109 12.9904 14.4109 12.9905 14.4109C 12.9906 14.4109 12.9906 14.4109 12.9907 14.4109C 12.9908 14.4109 12.9909 14.4109 12.9909 14.4109C 12.991 14.4109 12.9911 14.4109 12.9912 14.4109C 12.9913 14.4109 12.9913 14.4109 12.9914 14.4109C 12.9915 14.4109 12.9916 14.4109 12.9916 14.4109C 12.9917 14.4109 12.9918 14.4109 12.9919 14.4109C 12.9919 14.4109 12.992 14.4109 12.9921 14.4109C 12.9922 14.4109 12.9923 14.4109 12.9923 14.4109C 12.9924 14.4109 12.9925 14.4109 12.9926 14.4109C 12.9926 14.4109 12.9927 14.4109 12.9928 14.4109C 12.9929 14.4109 12.993 14.4109 12.993 14.4109C 12.9931 14.4109 12.9932 14.4109 12.9933 14.4109C 12.9933 14.4109 12.9934 14.4109 12.9935 14.4109C 12.9936 14.4109 12.9936 14.4109 12.9937 14.4109C 12.9938 14.4109 12.9939 14.4109 12.994 14.4109C 12.994 14.4109 12.9941 14.4109 12.9942 14.4109C 12.9943 14.4109 12.9943 14.4109 12.9944 14.4109C 12.9945 14.4109 12.9946 14.4109 12.9946 14.4109C 12.9947 14.4109 12.9948 14.4109 12.9949 14.4109C 12.995 14.4109 12.995 14.4109 12.9951 14.4109C 12.9952 14.4109 12.9953 14.4109 12.9953 14.4109C 12.9954 14.4109 12.9955 14.4109 12.9956 14.4109C 12.9956 14.4109 12.9957 14.4109 12.9958 14.4109C 12.9959 14.4109 12.996 14.4109 12.996 14.4109C 12.9961 14.4109 12.9962 14.4109 12.9963 14.4109C 12.9963 14.4109 12.9964 14.4109 12.9965 14.4109C 12.9966 14.4109 12.9966 14.4109 12.9967 14.4109C 12.9968 14.4109 12.9969 14.4109 12.9969 14.4109C 12.997 14.4109 12.9971 14.4109 12.9972 14.4109C 12.9973 14.4109 12.9973 14.4109 12.9974 14.4109C 12.9975 14.4109 12.9976 14.4109 12.9976 14.4109C 12.9977 14.4109 12.9978 14.4109 12.9979 14.4109C 12.9979 14.4109 12.998 14.4109 12.9981 14.4109C 12.9982 14.4109 12.9982 14.4109 12.9983 14.4109C 12.9984 14.4109 12.9985 14.4109 12.9986 14.4109C 12.9986 14.4109 12.9987 14.4109 12.9988 14.4109C 12.9989 14.4109 12.9989 14.4109 12.999 14.4109C 12.9991 14.4109 12.9992 14.4109 12.9992 14.4109C 12.9993 14.4109 12.9994 14.4109 12.9995 14.4109C 12.9995 14.4109 12.9996 14.4109 12.9997 14.4109C 12.9998 14.4109 12.9998 14.4109 12.9999 14.4109C 13 14.4109 13.0001 14.4109 13.0002 14.4109C 13.0002 14.4109 13.0003 14.4109 13.0004 14.4109C 13.0005 14.4109 13.0005 14.4109 13.0006 14.4109C 13.0007 14.4109 13.0008 14.4109 13.0008 14.4109C 13.0009 14.4109 13.001 14.4109 13.0011 14.4109C 13.0011 14.4109 13.0012 14.4109 13.0013 14.4109C 13.0014 14.4109 13.0014 14.4109 13.0015 14.4109C 13.0016 14.4109 13.0017 14.4109 13.0017 14.4109C 13.0018 14.4109 13.0019 14.4109 13.002 14.4109C 13.002 14.4109 13.0021 14.4109 13.0022 14.4109C 13.0023 14.4109 13.0023 14.4109 13.0024 14.4109C 13.0025 14.4109 13.0026 14.4109 13.0026 14.4109C 13.0027 14.4109 13.0028 14.4109 13.0029 14.4109C 13.003 14.4109 13.003 14.4109 13.0031 14.4109C 13.0032 14.4109 13.0033 14.4109 13.0033 14.4109C 13.0034 14.4109 13.0035 14.4109 13.0036 14.4109C 13.0036 14.4109 13.0037 14.4109 13.0038 14.4109C 13.0039 14.4109 13.0039 14.4109 13.004 14.4109C 13.0041 14.4109 13.0042 14.4109 13.0042 14.4109C 13.0043 14.4109 13.0044 14.4109 13.0045 14.4109C 13.0045 14.4109 13.0046 14.4109 13.0047 14.4109C 13.0048 14.4109 13.0048 14.4109 13.0049 14.4109C 13.005 14.4109 13.0051 14.4109 13.0051 14.4109C 13.0052 14.4109 13.0053 14.4109 13.0054 14.4109C 13.0054 14.4109 13.0055 14.4109 13.0056 14.4109C 13.0057 14.4109 13.0057 14.4109 13.0058 14.4109C 13.0059 14.4109 13.006 14.4109 13.006 14.4109C 13.0061 14.4109 13.0062 14.4109 13.0063 14.4109C 13.0063 14.4109 13.0064 14.4109 13.0065 14.4109C 13.0066 14.4109 13.0066 14.4109 13.0067 14.4109C 13.0068 14.4109 13.0069 14.4109 13.0069 14.4109C 13.007 14.4109 13.0071 14.4109 13.0072 14.4109C 13.0072 14.4109 13.0073 14.4109 13.0074 14.4109C 13.0074 14.4109 13.0075 14.4109 13.0076 14.4109C 13.0077 14.4109 13.0077 14.4109 13.0078 14.4109C 13.0079 14.4109 13.008 14.4109 13.008 14.4109C 13.0081 14.4109 13.0082 14.4109 13.0083 14.4109C 13.0083 14.4109 13.0084 14.4109 13.0085 14.4109C 13.0086 14.4109 13.0086 14.4109 13.0087 14.4109C 13.0088 14.4109 13.0089 14.4109 13.0089 14.4109C 13.009 14.4109 13.0091 14.4109 13.0092 14.4109C 13.0092 14.4109 13.0093 14.4109 13.0094 14.4109C 13.0095 14.4109 13.0095 14.4109 13.0096 14.4109C 13.0097 14.4109 13.0098 14.4109 13.0098 14.4109C 13.0099 14.4109 13.01 14.4109 13.01 14.4109C 13.0101 14.4109 13.0102 14.4109 13.0103 14.4109C 13.0103 14.4109 13.0104 14.4109 13.0105 14.4109C 13.0106 14.4109 13.0106 14.4109 13.0107 14.4109C 13.0108 14.4109 13.0109 14.4109 13.0109 14.4109C 13.011 14.4109 13.0111 14.4109 13.0112 14.4109C 13.0112 14.4109 13.0113 14.4109 13.0114 14.4109C 13.0115 14.4109 13.0115 14.4109 13.0116 14.4109C 13.0117 14.4109 13.0117 14.4109 13.0118 14.4109C 13.0119 14.4109 13.012 14.4109 13.012 14.4109C 13.0121 14.4109 13.0122 14.4109 13.0123 14.4109C 13.0123 14.4109 13.0124 14.4109 13.0125 14.4109C 13.0126 14.4109 13.0126 14.4109 13.0127 14.4109C 13.0128 14.4109 13.0128 14.4109 13.0129 14.4109C 13.013 14.4109 13.0131 14.4109 13.0131 14.4109C 13.0132 14.4109 13.0133 14.4109 13.0134 14.4109C 13.0134 14.4109 13.0135 14.4109 13.0136 14.4109C 13.0137 14.4109 13.0137 14.4109 13.0138 14.4109C 13.0139 14.4109 13.0139 14.4109 13.014 14.4109C 13.0141 14.4109 13.0142 14.4109 13.0142 14.4109L 13.0142 11.4109C 13.0142 11.4109 13.0141 11.4109 13.014 11.4109C 13.0139 11.4109 13.0139 11.4109 13.0138 11.4109C 13.0137 11.4109 13.0137 11.4109 13.0136 11.4109C 13.0135 11.4109 13.0134 11.4109 13.0134 11.4109C 13.0133 11.4109 13.0132 11.4109 13.0131 11.4109C 13.0131 11.4109 13.013 11.4109 13.0129 11.4109C 13.0128 11.4109 13.0128 11.4109 13.0127 11.4109C 13.0126 11.4109 13.0126 11.4109 13.0125 11.4109C 13.0124 11.4109 13.0123 11.4109 13.0123 11.4109C 13.0122 11.4109 13.0121 11.4109 13.012 11.4109C 13.012 11.4109 13.0119 11.4109 13.0118 11.4109C 13.0117 11.4109 13.0117 11.4109 13.0116 11.4109C 13.0115 11.4109 13.0115 11.4109 13.0114 11.4109C 13.0113 11.4109 13.0112 11.4109 13.0112 11.4109C 13.0111 11.4109 13.011 11.4109 13.0109 11.4109C 13.0109 11.4109 13.0108 11.4109 13.0107 11.4109C 13.0106 11.4109 13.0106 11.4109 13.0105 11.4109C 13.0104 11.4109 13.0103 11.4109 13.0103 11.4109C 13.0102 11.4109 13.0101 11.4109 13.01 11.4109C 13.01 11.4109 13.0099 11.4109 13.0098 11.4109C 13.0098 11.4109 13.0097 11.4109 13.0096 11.4109C 13.0095 11.4109 13.0095 11.4109 13.0094 11.4109C 13.0093 11.4109 13.0092 11.4109 13.0092 11.4109C 13.0091 11.4109 13.009 11.4109 13.0089 11.4109C 13.0089 11.4109 13.0088 11.4109 13.0087 11.4109C 13.0086 11.4109 13.0086 11.4109 13.0085 11.4109C 13.0084 11.4109 13.0083 11.4109 13.0083 11.4109C 13.0082 11.4109 13.0081 11.4109 13.008 11.4109C 13.008 11.4109 13.0079 11.4109 13.0078 11.4109C 13.0077 11.4109 13.0077 11.4109 13.0076 11.4109C 13.0075 11.4109 13.0074 11.4109 13.0074 11.4109C 13.0073 11.4109 13.0072 11.4109 13.0072 11.4109C 13.0071 11.4109 13.007 11.4109 13.0069 11.4109C 13.0069 11.4109 13.0068 11.4109 13.0067 11.4109C 13.0066 11.4109 13.0066 11.4109 13.0065 11.4109C 13.0064 11.4109 13.0063 11.4109 13.0063 11.4109C 13.0062 11.4109 13.0061 11.4109 13.006 11.4109C 13.006 11.4109 13.0059 11.4109 13.0058 11.4109C 13.0057 11.4109 13.0057 11.4109 13.0056 11.4109C 13.0055 11.4109 13.0054 11.4109 13.0054 11.4109C 13.0053 11.4109 13.0052 11.4109 13.0051 11.4109C 13.0051 11.4109 13.005 11.4109 13.0049 11.4109C 13.0048 11.4109 13.0048 11.4109 13.0047 11.4109C 13.0046 11.4109 13.0045 11.4109 13.0045 11.4109C 13.0044 11.4109 13.0043 11.4109 13.0042 11.4109C 13.0042 11.4109 13.0041 11.4109 13.004 11.4109C 13.0039 11.4109 13.0039 11.4109 13.0038 11.4109C 13.0037 11.4109 13.0036 11.4109 13.0036 11.4109C 13.0035 11.4109 13.0034 11.4109 13.0033 11.4109C 13.0033 11.4109 13.0032 11.4109 13.0031 11.4109C 13.003 11.4109 13.003 11.4109 13.0029 11.4109C 13.0028 11.4109 13.0027 11.4109 13.0026 11.4109C 13.0026 11.4109 13.0025 11.4109 13.0024 11.4109C 13.0023 11.4109 13.0023 11.4109 13.0022 11.4109C 13.0021 11.4109 13.002 11.4109 13.002 11.4109C 13.0019 11.4109 13.0018 11.4109 13.0017 11.4109C 13.0017 11.4109 13.0016 11.4109 13.0015 11.4109C 13.0014 11.4109 13.0014 11.4109 13.0013 11.4109C 13.0012 11.4109 13.0011 11.4109 13.0011 11.4109C 13.001 11.4109 13.0009 11.4109 13.0008 11.4109C 13.0008 11.4109 13.0007 11.4109 13.0006 11.4109C 13.0005 11.4109 13.0005 11.4109 13.0004 11.4109C 13.0003 11.4109 13.0002 11.4109 13.0002 11.4109C 13.0001 11.4109 13 11.4109 12.9999 11.4109C 12.9998 11.4109 12.9998 11.4109 12.9997 11.4109C 12.9996 11.4109 12.9995 11.4109 12.9995 11.4109C 12.9994 11.4109 12.9993 11.4109 12.9992 11.4109C 12.9992 11.4109 12.9991 11.4109 12.999 11.4109C 12.9989 11.4109 12.9989 11.4109 12.9988 11.4109C 12.9987 11.4109 12.9986 11.4109 12.9986 11.4109C 12.9985 11.4109 12.9984 11.4109 12.9983 11.4109C 12.9982 11.4109 12.9982 11.4109 12.9981 11.4109C 12.998 11.4109 12.9979 11.4109 12.9979 11.4109C 12.9978 11.4109 12.9977 11.4109 12.9976 11.4109C 12.9976 11.4109 12.9975 11.4109 12.9974 11.4109C 12.9973 11.4109 12.9973 11.4109 12.9972 11.4109C 12.9971 11.4109 12.997 11.4109 12.9969 11.4109C 12.9969 11.4109 12.9968 11.4109 12.9967 11.4109C 12.9966 11.4109 12.9966 11.4109 12.9965 11.4109C 12.9964 11.4109 12.9963 11.4109 12.9963 11.4109C 12.9962 11.4109 12.9961 11.4109 12.996 11.4109C 12.996 11.4109 12.9959 11.4109 12.9958 11.4109C 12.9957 11.4109 12.9956 11.4109 12.9956 11.4109C 12.9955 11.4109 12.9954 11.4109 12.9953 11.4109C 12.9953 11.4109 12.9952 11.4109 12.9951 11.4109C 12.995 11.4109 12.995 11.4109 12.9949 11.4109C 12.9948 11.4109 12.9947 11.4109 12.9946 11.4109C 12.9946 11.4109 12.9945 11.4109 12.9944 11.4109C 12.9943 11.4109 12.9943 11.4109 12.9942 11.4109C 12.9941 11.4109 12.994 11.4109 12.994 11.4109C 12.9939 11.4109 12.9938 11.4109 12.9937 11.4109C 12.9936 11.4109 12.9936 11.4109 12.9935 11.4109C 12.9934 11.4109 12.9933 11.4109 12.9933 11.4109C 12.9932 11.4109 12.9931 11.4109 12.993 11.4109C 12.993 11.4109 12.9929 11.4109 12.9928 11.4109C 12.9927 11.4109 12.9926 11.4109 12.9926 11.4109C 12.9925 11.4109 12.9924 11.4109 12.9923 11.4109C 12.9923 11.4109 12.9922 11.4109 12.9921 11.4109C 12.992 11.4109 12.9919 11.4109 12.9919 11.4109C 12.9918 11.4109 12.9917 11.4109 12.9916 11.4109C 12.9916 11.4109 12.9915 11.4109 12.9914 11.4109C 12.9913 11.4109 12.9913 11.4109 12.9912 11.4109C 12.9911 11.4109 12.991 11.4109 12.9909 11.4109C 12.9909 11.4109 12.9908 11.4109 12.9907 11.4109C 12.9906 11.4109 12.9906 11.4109 12.9905 11.4109C 12.9904 11.4109 12.9903 11.4109 12.9902 11.4109C 12.9902 11.4109 12.9901 11.4109 12.99 11.4109C 12.9899 11.4109 12.9899 11.4109 12.9898 11.4109C 12.9897 11.4109 12.9896 11.4109 12.9895 11.4109C 12.9895 11.4109 12.9894 11.4109 12.9893 11.4109C 12.9892 11.4109 12.9892 11.4109 12.9891 11.4109C 12.989 11.4109 12.9889 11.4109 12.9888 11.4109C 12.9888 11.4109 12.9887 11.4109 12.9886 11.4109C 12.9885 11.4109 12.9885 11.4109 12.9884 11.4109C 12.9883 11.4109 12.9882 11.4109 12.9881 11.4109C 12.9881 11.4109 12.988 11.4109 12.9879 11.4109C 12.9878 11.4109 12.9878 11.4109 12.9877 11.4109C 12.9876 11.4109 12.9875 11.4109 12.9874 11.4109C 12.9874 11.4109 12.9873 11.4109 12.9872 11.4109C 12.9871 11.4109 12.9871 11.4109 12.987 11.4109C 12.9869 11.4109 12.9868 11.4109 12.9867 11.4109C 12.9867 11.4109 12.9866 11.4109 12.9865 11.4109C 12.9864 11.4109 12.9863 11.4109 12.9863 11.4109C 12.9862 11.4109 12.9861 11.4109 12.986 11.4109C 12.986 11.4109 12.9859 11.4109 12.9858 11.4109C 12.9857 11.4109 12.9856 11.4109 12.9856 11.4109C 12.9855 11.4109 12.9854 11.4109 12.9853 11.4109C 12.9853 11.4109 12.9852 11.4109 12.9851 11.4109C 12.985 11.4109 12.9849 11.4109 12.9849 11.4109C 12.9848 11.4109 12.9847 11.4109 12.9846 11.4109C 12.9845 11.4109 12.9845 11.4109 12.9844 11.4109C 12.9843 11.4109 12.9842 11.4109 12.9842 11.4109C 12.9841 11.4109 12.984 11.4109 12.9839 11.4109C 12.9838 11.4109 12.9838 11.4109 12.9837 11.4109C 12.9836 11.4109 12.9835 11.4109 12.9834 11.4109C 12.9834 11.4109 12.9833 11.4109 12.9832 11.4109C 12.9831 11.4109 12.9831 11.4109 12.983 11.4109C 12.9829 11.4109 12.9828 11.4109 12.9827 11.4109C 12.9827 11.4109 12.9826 11.4109 12.9825 11.4109C 12.9824 11.4109 12.9823 11.4109 12.9823 11.4109C 12.9822 11.4109 12.9821 11.4109 12.982 11.4109C 12.9819 11.4109 12.9819 11.4109 12.9818 11.4109C 12.9817 11.4109 12.9816 11.4109 12.9816 11.4109C 12.9815 11.4109 12.9814 11.4109 12.9813 11.4109C 12.9812 11.4109 12.9812 11.4109 12.9811 11.4109C 12.981 11.4109 12.9809 11.4109 12.9808 11.4109C 12.9808 11.4109 12.9807 11.4109 12.9806 11.4109C 12.9805 11.4109 12.9804 11.4109 12.9804 11.4109C 12.9803 11.4109 12.9802 11.4109 12.9801 11.4109C 12.98 11.4109 12.98 11.4109 12.9799 11.4109C 12.9798 11.4109 12.9797 11.4109 12.9797 11.4109C 12.9796 11.4109 12.9795 11.4109 12.9794 11.4109C 12.9793 11.4109 12.9793 11.4109 12.9792 11.4109C 12.9791 11.4109 12.979 11.4109 12.9789 11.4109C 12.9789 11.4109 12.9788 11.4109 12.9787 11.4109C 12.9786 11.4109 12.9785 11.4109 12.9785 11.4109C 12.9784 11.4109 12.9783 11.4109 12.9782 11.4109C 12.9781 11.4109 12.9781 11.4109 12.978 11.4109C 12.9779 11.4109 12.9778 11.4109 12.9777 11.4109C 12.9777 11.4109 12.9776 11.4109 12.9775 11.4109C 12.9774 11.4109 12.9774 11.4109 12.9773 11.4109C 12.9772 11.4109 12.9771 11.4109 12.977 11.4109C 12.977 11.4109 12.9769 11.4109 12.9768 11.4109C 12.9767 11.4109 12.9766 11.4109 12.9766 11.4109C 12.9765 11.4109 12.9764 11.4109 12.9763 11.4109C 12.9762 11.4109 12.9762 11.4109 12.9761 11.4109C 12.976 11.4109 12.9759 11.4109 12.9758 11.4109C 12.9758 11.4109 12.9757 11.4109 12.9756 11.4109C 12.9755 11.4109 12.9754 11.4109 12.9754 11.4109C 12.9753 11.4109 12.9752 11.4109 12.9751 11.4109C 12.975 11.4109 12.975 11.4109 12.9749 11.4109C 12.9748 11.4109 12.9747 11.4109 12.9746 11.4109C 12.9746 11.4109 12.9745 11.4109 12.9744 11.4109C 12.9743 11.4109 12.9742 11.4109 12.9742 11.4109C 12.9741 11.4109 12.974 11.4109 12.9739 11.4109C 12.9738 11.4109 12.9738 11.4109 12.9737 11.4109C 12.9736 11.4109 12.9735 11.4109 12.9734 11.4109C 12.9734 11.4109 12.9733 11.4109 12.9732 11.4109C 12.9731 11.4109 12.973 11.4109 12.973 11.4109C 12.9729 11.4109 12.9728 11.4109 12.9727 11.4109C 12.9726 11.4109 12.9726 11.4109 12.9725 11.4109C 12.9724 11.4109 12.9723 11.4109 12.9722 11.4109C 12.9722 11.4109 12.9721 11.4109 12.972 11.4109C 12.9719 11.4109 12.9718 11.4109 12.9718 11.4109C 12.9717 11.4109 12.9716 11.4109 12.9715 11.4109C 12.9714 11.4109 12.9714 11.4109 12.9713 11.4109C 12.9712 11.4109 12.9711 11.4109 12.971 11.4109C 12.971 11.4109 12.9709 11.4109 12.9708 11.4109C 12.9707 11.4109 12.9706 11.4109 12.9706 11.4109C 12.9705 11.4109 12.9704 11.4109 12.9703 11.4109C 12.9702 11.4109 12.9701 11.4109 12.9701 11.4109C 12.97 11.4109 12.9699 11.4109 12.9698 11.4109C 12.9697 11.4109 12.9697 11.4109 12.9696 11.4109C 12.9695 11.4109 12.9694 11.4109 12.9693 11.4109C 12.9693 11.4109 12.9692 11.4109 12.9691 11.4109C 12.969 11.4109 12.9689 11.4109 12.9689 11.4109C 12.9688 11.4109 12.9687 11.4109 12.9686 11.4109C 12.9685 11.4109 12.9685 11.4109 12.9684 11.4109C 12.9683 11.4109 12.9682 11.4109 12.9681 11.4109C 12.9681 11.4109 12.968 11.4109 12.9679 11.4109C 12.9678 11.4109 12.9677 11.4109 12.9676 11.4109C 12.9676 11.4109 12.9675 11.4109 12.9674 11.4109C 12.9673 11.4109 12.9672 11.4109 12.9672 11.4109C 12.9671 11.4109 12.967 11.4109 12.9669 11.4109C 12.9668 11.4109 12.9668 11.4109 12.9667 11.4109C 12.9666 11.4109 12.9665 11.4109 12.9664 11.4109C 12.9664 11.4109 12.9663 11.4109 12.9662 11.4109C 12.9661 11.4109 12.966 11.4109 12.9659 11.4109C 12.9659 11.4109 12.9658 11.4109 12.9657 11.4109C 12.9656 11.4109 12.9655 11.4109 12.9655 11.4109C 12.9654 11.4109 12.9653 11.4109 12.9652 11.4109C 12.9651 11.4109 12.9651 11.4109 12.965 11.4109C 12.9649 11.4109 12.9648 11.4109 12.9647 11.4109C 12.9647 11.4109 12.9646 11.4109 12.9645 11.4109C 12.9644 11.4109 12.9643 11.4109 12.9642 11.4109C 12.9642 11.4109 12.9641 11.4109 12.964 11.4109C 12.9639 11.4109 12.9638 11.4109 12.9638 11.4109C 12.9637 11.4109 12.9636 11.4109 12.9635 11.4109C 12.9634 11.4109 12.9634 11.4109 12.9633 11.4109C 12.9632 11.4109 12.9631 11.4109 12.963 11.4109C 12.9629 11.4109 12.9629 11.4109 12.9628 11.4109C 12.9627 11.4109 12.9626 11.4109 12.9625 11.4109C 12.9625 11.4109 12.9624 11.4109 12.9623 11.4109C 12.9622 11.4109 12.9621 11.4109 12.9621 11.4109C 12.962 11.4109 12.9619 11.4109 12.9618 11.4109C 12.9617 11.4109 12.9616 11.4109 12.9616 11.4109C 12.9615 11.4109 12.9614 11.4109 12.9613 11.4109C 12.9612 11.4109 12.9612 11.4109 12.9611 11.4109C 12.961 11.4109 12.9609 11.4109 12.9608 11.4109C 12.9607 11.4109 12.9607 11.4109 12.9606 11.4109C 12.9605 11.4109 12.9604 11.4109 12.9603 11.4109C 12.9603 11.4109 12.9602 11.4109 12.9601 11.4109C 12.96 11.4109 12.9599 11.4109 12.9598 11.4109C 12.9598 11.4109 12.9597 11.4109 12.9596 11.4109C 12.9595 11.4109 12.9594 11.4109 12.9594 11.4109C 12.9593 11.4109 12.9592 11.4109 12.9591 11.4109C 12.959 11.4109 12.9589 11.4109 12.9589 11.4109C 12.9588 11.4109 12.9587 11.4109 12.9586 11.4109C 12.9585 11.4109 12.9585 11.4109 12.9584 11.4109C 12.9583 11.4109 12.9582 11.4109 12.9581 11.4109C 12.958 11.4109 12.958 11.4109 12.9579 11.4109C 12.9578 11.4109 12.9577 11.4109 12.9576 11.4109C 12.9576 11.4109 12.9575 11.4109 12.9574 11.4109C 12.9573 11.4109 12.9572 11.4109 12.9571 11.4109C 12.9571 11.4109 12.957 11.4109 12.9569 11.4109C 12.9568 11.4109 12.9567 11.4109 12.9567 11.4109C 12.9566 11.4109 12.9565 11.4109 12.9564 11.4109C 12.9563 11.4109 12.9562 11.4109 12.9562 11.4109C 12.9561 11.4109 12.956 11.4109 12.9559 11.4109C 12.9558 11.4109 12.9558 11.4109 12.9557 11.4109C 12.9556 11.4109 12.9555 11.4109 12.9554 11.4109C 12.9553 11.4109 12.9553 11.4109 12.9552 11.4109C 12.9551 11.4109 12.955 11.4109 12.9549 11.4109C 12.9549 11.4109 12.9548 11.4109 12.9547 11.4109C 12.9546 11.4109 12.9545 11.4109 12.9544 11.4109C 12.9544 11.4109 12.9543 11.4109 12.9542 11.4109C 12.9541 11.4109 12.954 11.4109 12.9539 11.4109C 12.9539 11.4109 12.9538 11.4109 12.9537 11.4109C 12.9536 11.4109 12.9535 11.4109 12.9535 11.4109C 12.9534 11.4109 12.9533 11.4109 12.9532 11.4109C 12.9531 11.4109 12.953 11.4109 12.953 11.4109C 12.9529 11.4109 12.9528 11.4109 12.9527 11.4109C 12.9526 11.4109 12.9525 11.4109 12.9525 11.4109C 12.9524 11.4109 12.9523 11.4109 12.9522 11.4109C 12.9521 11.4109 12.9521 11.4109 12.952 11.4109C 12.9519 11.4109 12.9518 11.4109 12.9517 11.4109C 12.9516 11.4109 12.9516 11.4109 12.9515 11.4109C 12.9514 11.4109 12.9513 11.4109 12.9512 11.4109C 12.9511 11.4109 12.9511 11.4109 12.951 11.4109C 12.9509 11.4109 12.9508 11.4109 12.9507 11.4109C 12.9506 11.4109 12.9506 11.4109 12.9505 11.4109C 12.9504 11.4109 12.9503 11.4109 12.9502 11.4109C 12.9502 11.4109 12.9501 11.4109 12.95 11.4109C 12.9499 11.4109 12.9498 11.4109 12.9497 11.4109C 12.9497 11.4109 12.9496 11.4109 12.9495 11.4109C 12.9494 11.4109 12.9493 11.4109 12.9492 11.4109C 12.9492 11.4109 12.9491 11.4109 12.949 11.4109C 12.9489 11.4109 12.9488 11.4109 12.9487 11.4109C 12.9487 11.4109 12.9486 11.4109 12.9485 11.4109C 12.9484 11.4109 12.9483 11.4109 12.9483 11.4109C 12.9482 11.4109 12.9481 11.4109 12.948 11.4109C 12.9479 11.4109 12.9478 11.4109 12.9478 11.4109C 12.9477 11.4109 12.9476 11.4109 12.9475 11.4109C 12.9474 11.4109 12.9473 11.4109 12.9473 11.4109C 12.9472 11.4109 12.9471 11.4109 12.947 11.4109C 12.9469 11.4109 12.9468 11.4109 12.9468 11.4109C 12.9467 11.4109 12.9466 11.4109 12.9465 11.4109C 12.9464 11.4109 12.9463 11.4109 12.9463 11.4109C 12.9462 11.4109 12.9461 11.4109 12.946 11.4109C 12.9459 11.4109 12.9458 11.4109 12.9458 11.4109C 12.9457 11.4109 12.9456 11.4109 12.9455 11.4109C 12.9454 11.4109 12.9453 11.4109 12.9453 11.4109C 12.9452 11.4109 12.9451 11.4109 12.945 11.4109C 12.9449 11.4109 12.9448 11.4109 12.9448 11.4109C 12.9447 11.4109 12.9446 11.4109 12.9445 11.4109C 12.9444 11.4109 12.9444 11.4109 12.9443 11.4109C 12.9442 11.4109 12.9441 11.4109 12.944 11.4109C 12.9439 11.4109 12.9439 11.4109 12.9438 11.4109C 12.9437 11.4109 12.9436 11.4109 12.9435 11.4109C 12.9434 11.4109 12.9434 11.4109 12.9433 11.4109C 12.9432 11.4109 12.9431 11.4109 12.943 11.4109C 12.9429 11.4109 12.9429 11.4109 12.9428 11.4109C 12.9427 11.4109 12.9426 11.4109 12.9425 11.4109C 12.9424 11.4109 12.9424 11.4109 12.9423 11.4109C 12.9422 11.4109 12.9421 11.4109 12.942 11.4109C 12.9419 11.4109 12.9419 11.4109 12.9418 11.4109C 12.9417 11.4109 12.9416 11.4109 12.9415 11.4109C 12.9414 11.4109 12.9414 11.4109 12.9413 11.4109C 12.9412 11.4109 12.9411 11.4109 12.941 11.4109C 12.9409 11.4109 12.9409 11.4109 12.9408 11.4109C 12.9407 11.4109 12.9406 11.4109 12.9405 11.4109C 12.9404 11.4109 12.9404 11.4109 12.9403 11.4109C 12.9402 11.4109 12.9401 11.4109 12.94 11.4109C 12.9399 11.4109 12.9399 11.4109 12.9398 11.4109C 12.9397 11.4109 12.9396 11.4109 12.9395 11.4109C 12.9394 11.4109 12.9394 11.4109 12.9393 11.4109C 12.9392 11.4109 12.9391 11.4109 12.939 11.4109C 12.9389 11.4109 12.9389 11.4109 12.9388 11.4109C 12.9387 11.4109 12.9386 11.4109 12.9385 11.4109C 12.9384 11.4109 12.9383 11.4109 12.9383 11.4109C 12.9382 11.4109 12.9381 11.4109 12.938 11.4109C 12.9379 11.4109 12.9378 11.4109 12.9378 11.4109C 12.9377 11.4109 12.9376 11.4109 12.9375 11.4109C 12.9374 11.4109 12.9373 11.4109 12.9373 11.4109C 12.9372 11.4109 12.9371 11.4109 12.937 11.4109C 12.9369 11.4109 12.9368 11.4109 12.9368 11.4109C 12.9367 11.4109 12.9366 11.4109 12.9365 11.4109C 12.9364 11.4109 12.9363 11.4109 12.9363 11.4109C 12.9362 11.4109 12.9361 11.4109 12.936 11.4109C 12.9359 11.4109 12.9358 11.4109 12.9358 11.4109C 12.9357 11.4109 12.9356 11.4109 12.9355 11.4109C 12.9354 11.4109 12.9353 11.4109 12.9353 11.4109C 12.9352 11.4109 12.9351 11.4109 12.935 11.4109C 12.9349 11.4109 12.9348 11.4109 12.9348 11.4109C 12.9347 11.4109 12.9346 11.4109 12.9345 11.4109C 12.9344 11.4109 12.9343 11.4109 12.9342 11.4109C 12.9342 11.4109 12.9341 11.4109 12.934 11.4109C 12.9339 11.4109 12.9338 11.4109 12.9337 11.4109C 12.9337 11.4109 12.9336 11.4109 12.9335 11.4109C 12.9334 11.4109 12.9333 11.4109 12.9332 11.4109C 12.9332 11.4109 12.9331 11.4109 12.933 11.4109C 12.9329 11.4109 12.9328 11.4109 12.9327 11.4109C 12.9327 11.4109 12.9326 11.4109 12.9325 11.4109C 12.9324 11.4109 12.9323 11.4109 12.9322 11.4109C 12.9321 11.4109 12.9321 11.4109 12.932 11.4109C 12.9319 11.4109 12.9318 11.4109 12.9317 11.4109C 12.9316 11.4109 12.9316 11.4109 12.9315 11.4109C 12.9314 11.4109 12.9313 11.4109 12.9312 11.4109C 12.9311 11.4109 12.9311 11.4109 12.931 11.4109C 12.9309 11.4109 12.9308 11.4109 12.9307 11.4109C 12.9306 11.4109 12.9306 11.4109 12.9305 11.4109C 12.9304 11.4109 12.9303 11.4109 12.9302 11.4109C 12.9301 11.4109 12.93 11.4109 12.93 11.4109C 12.9299 11.4109 12.9298 11.4109 12.9297 11.4109C 12.9296 11.4109 12.9295 11.4109 12.9295 11.4109C 12.9294 11.4109 12.9293 11.4109 12.9292 11.4109C 12.9291 11.4109 12.929 11.4109 12.929 11.4109C 12.9289 11.4109 12.9288 11.4109 12.9287 11.4109C 12.9286 11.4109 12.9285 11.4109 12.9284 11.4109C 12.9284 11.4109 12.9283 11.4109 12.9282 11.4109C 12.9281 11.4109 12.928 11.4109 12.9279 11.4109C 12.9279 11.4109 12.9278 11.4109 12.9277 11.4109C 12.9276 11.4109 12.9275 11.4109 12.9274 11.4109C 12.9274 11.4109 12.9273 11.4109 12.9272 11.4109C 12.9271 11.4109 12.927 11.4109 12.9269 11.4109C 12.9268 11.4109 12.9268 11.4109 12.9267 11.4109C 12.9266 11.4109 12.9265 11.4109 12.9264 11.4109C 12.9263 11.4109 12.9263 11.4109 12.9262 11.4109C 12.9261 11.4109 12.926 11.4109 12.9259 11.4109C 12.9258 11.4109 12.9258 11.4109 12.9257 11.4109C 12.9256 11.4109 12.9255 11.4109 12.9254 11.4109C 12.9253 11.4109 12.9252 11.4109 12.9252 11.4109C 12.9251 11.4109 12.925 11.4109 12.9249 11.4109C 12.9248 11.4109 12.9247 11.4109 12.9247 11.4109C 12.9246 11.4109 12.9245 11.4109 12.9244 11.4109C 12.9243 11.4109 12.9242 11.4109 12.9241 11.4109C 12.9241 11.4109 12.924 11.4109 12.9239 11.4109C 12.9238 11.4109 12.9237 11.4109 12.9236 11.4109C 12.9236 11.4109 12.9235 11.4109 12.9234 11.4109C 12.9233 11.4109 12.9232 11.4109 12.9231 11.4109C 12.9231 11.4109 12.923 11.4109 12.9229 11.4109C 12.9228 11.4109 12.9227 11.4109 12.9226 11.4109C 12.9225 11.4109 12.9225 11.4109 12.9224 11.4109C 12.9223 11.4109 12.9222 11.4109 12.9221 11.4109C 12.922 11.4109 12.922 11.4109 12.9219 11.4109C 12.9218 11.4109 12.9217 11.4109 12.9216 11.4109C 12.9215 11.4109 12.9214 11.4109 12.9214 11.4109C 12.9213 11.4109 12.9212 11.4109 12.9211 11.4109C 12.921 11.4109 12.9209 11.4109 12.9209 11.4109C 12.9208 11.4109 12.9207 11.4109 12.9206 11.4109C 12.9205 11.4109 12.9204 11.4109 12.9203 11.4109C 12.9203 11.4109 12.9202 11.4109 12.9201 11.4109C 12.92 11.4109 12.9199 11.4109 12.9198 11.4109C 12.9198 11.4109 12.9197 11.4109 12.9196 11.4109C 12.9195 11.4109 12.9194 11.4109 12.9193 11.4109C 12.9192 11.4109 12.9192 11.4109 12.9191 11.4109C 12.919 11.4109 12.9189 11.4109 12.9188 11.4109C 12.9187 11.4109 12.9187 11.4109 12.9186 11.4109C 12.9185 11.4109 12.9184 11.4109 12.9183 11.4109C 12.9182 11.4109 12.9181 11.4109 12.9181 11.4109C 12.918 11.4109 12.9179 11.4109 12.9178 11.4109C 12.9177 11.4109 12.9176 11.4109 12.9176 11.4109C 12.9175 11.4109 12.9174 11.4109 12.9173 11.4109C 12.9172 11.4109 12.9171 11.4109 12.917 11.4109C 12.917 11.4109 12.9169 11.4109 12.9168 11.4109C 12.9167 11.4109 12.9166 11.4109 12.9165 11.4109C 12.9164 11.4109 12.9164 11.4109 12.9163 11.4109C 12.9162 11.4109 12.9161 11.4109 12.916 11.4109C 12.9159 11.4109 12.9159 11.4109 12.9158 11.4109C 12.9157 11.4109 12.9156 11.4109 12.9155 11.4109C 12.9154 11.4109 12.9153 11.4109 12.9153 11.4109C 12.9152 11.4109 12.9151 11.4109 12.915 11.4109C 12.9149 11.4109 12.9148 11.4109 12.9148 11.4109C 12.9147 11.4109 12.9146 11.4109 12.9145 11.4109C 12.9144 11.4109 12.9143 11.4109 12.9142 11.4109C 12.9142 11.4109 12.9141 11.4109 12.914 11.4109C 12.9139 11.4109 12.9138 11.4109 12.9137 11.4109C 12.9136 11.4109 12.9136 11.4109 12.9135 11.4109C 12.9134 11.4109 12.9133 11.4109 12.9132 11.4109C 12.9131 11.4109 12.9131 11.4109 12.913 11.4109C 12.9129 11.4109 12.9128 11.4109 12.9127 11.4109C 12.9126 11.4109 12.9125 11.4109 12.9125 11.4109C 12.9124 11.4109 12.9123 11.4109 12.9122 11.4109C 12.9121 11.4109 12.912 11.4109 12.912 11.4109C 12.9119 11.4109 12.9118 11.4109 12.9117 11.4109C 12.9116 11.4109 12.9115 11.4109 12.9114 11.4109C 12.9114 11.4109 12.9113 11.4109 12.9112 11.4109C 12.9111 11.4109 12.911 11.4109 12.9109 11.4109C 12.9108 11.4109 12.9108 11.4109 12.9107 11.4109C 12.9106 11.4109 12.9105 11.4109 12.9104 11.4109C 12.9103 11.4109 12.9103 11.4109 12.9102 11.4109C 12.9101 11.4109 12.91 11.4109 12.9099 11.4109C 12.9098 11.4109 12.9097 11.4109 12.9097 11.4109C 12.9096 11.4109 12.9095 11.4109 12.9094 11.4109C 12.9093 11.4109 12.9092 11.4109 12.9091 11.4109C 12.9091 11.4109 12.909 11.4109 12.9089 11.4109C 12.9088 11.4109 12.9087 11.4109 12.9086 11.4109C 12.9086 11.4109 12.9085 11.4109 12.9084 11.4109C 12.9083 11.4109 12.9082 11.4109 12.9081 11.4109C 12.908 11.4109 12.908 11.4109 12.9079 11.4109C 12.9078 11.4109 12.9077 11.4109 12.9076 11.4109C 12.9075 11.4109 12.9074 11.4109 12.9074 11.4109C 12.9073 11.4109 12.9072 11.4109 12.9071 11.4109C 12.907 11.4109 12.9069 11.4109 12.9069 11.4109C 12.9068 11.4109 12.9067 11.4109 12.9066 11.4109C 12.9065 11.4109 12.9064 11.4109 12.9063 11.4109C 12.9063 11.4109 12.9062 11.4109 12.9061 11.4109C 12.906 11.4109 12.9059 11.4109 12.9058 11.4109C 12.9057 11.4109 12.9057 11.4109 12.9056 11.4109C 12.9055 11.4109 12.9054 11.4109 12.9053 11.4109C 12.9052 11.4109 12.9051 11.4109 12.9051 11.4109C 12.905 11.4109 12.9049 11.4109 12.9048 11.4109C 12.9047 11.4109 12.9046 11.4109 12.9046 11.4109C 12.9045 11.4109 12.9044 11.4109 12.9043 11.4109C 12.9042 11.4109 12.9041 11.4109 12.904 11.4109C 12.904 11.4109 12.9039 11.4109 12.9038 11.4109C 12.9037 11.4109 12.9036 11.4109 12.9035 11.4109C 12.9034 11.4109 12.9034 11.4109 12.9033 11.4109C 12.9032 11.4109 12.9031 11.4109 12.903 11.4109C 12.9029 11.4109 12.9028 11.4109 12.9028 11.4109C 12.9027 11.4109 12.9026 11.4109 12.9025 11.4109C 12.9024 11.4109 12.9023 11.4109 12.9023 11.4109C 12.9022 11.4109 12.9021 11.4109 12.902 11.4109C 12.9019 11.4109 12.9018 11.4109 12.9017 11.4109C 12.9017 11.4109 12.9016 11.4109 12.9015 11.4109C 12.9014 11.4109 12.9013 11.4109 12.9012 11.4109C 12.9011 11.4109 12.9011 11.4109 12.901 11.4109C 12.9009 11.4109 12.9008 11.4109 12.9007 11.4109C 12.9006 11.4109 12.9005 11.4109 12.9005 11.4109C 12.9004 11.4109 12.9003 11.4109 12.9002 11.4109C 12.9001 11.4109 12.9 11.4109 12.9 11.4109C 12.8999 11.4109 12.8998 11.4109 12.8997 11.4109C 12.8996 11.4109 12.8995 11.4109 12.8994 11.4109C 12.8994 11.4109 12.8993 11.4109 12.8992 11.4109C 12.8991 11.4109 12.899 11.4109 12.8989 11.4109C 12.8988 11.4109 12.8988 11.4109 12.8987 11.4109C 12.8986 11.4109 12.8985 11.4109 12.8984 11.4109C 12.8983 11.4109 12.8982 11.4109 12.8982 11.4109C 12.8981 11.4109 12.898 11.4109 12.8979 11.4109C 12.8978 11.4109 12.8977 11.4109 12.8977 11.4109C 12.8976 11.4109 12.8975 11.4109 12.8974 11.4109C 12.8973 11.4109 12.8972 11.4109 12.8971 11.4109C 12.8971 11.4109 12.897 11.4109 12.8969 11.4109C 12.8968 11.4109 12.8967 11.4109 12.8966 11.4109C 12.8965 11.4109 12.8965 11.4109 12.8964 11.4109C 12.8963 11.4109 12.8962 11.4109 12.8961 11.4109C 12.896 11.4109 12.8959 11.4109 12.8959 11.4109C 12.8958 11.4109 12.8957 11.4109 12.8956 11.4109C 12.8955 11.4109 12.8954 11.4109 12.8953 11.4109C 12.8953 11.4109 12.8952 11.4109 12.8951 11.4109C 12.895 11.4109 12.8949 11.4109 12.8948 11.4109C 12.8948 11.4109 12.8947 11.4109 12.8946 11.4109C 12.8945 11.4109 12.8944 11.4109 12.8943 11.4109C 12.8942 11.4109 12.8942 11.4109 12.8941 11.4109C 12.894 11.4109 12.8939 11.4109 12.8938 11.4109C 12.8937 11.4109 12.8936 11.4109 12.8936 11.4109C 12.8935 11.4109 12.8934 11.4109 12.8933 11.4109C 12.8932 11.4109 12.8931 11.4109 12.893 11.4109C 12.893 11.4109 12.8929 11.4109 12.8928 11.4109C 12.8927 11.4109 12.8926 11.4109 12.8925 11.4109C 12.8925 11.4109 12.8924 11.4109 12.8923 11.4109C 12.8922 11.4109 12.8921 11.4109 12.892 11.4109C 12.8919 11.4109 12.8919 11.4109 12.8918 11.4109C 12.8917 11.4109 12.8916 11.4109 12.8915 11.4109C 12.8914 11.4109 12.8913 11.4109 12.8913 11.4109C 12.8912 11.4109 12.8911 11.4109 12.891 11.4109C 12.8909 11.4109 12.8908 11.4109 12.8907 11.4109C 12.8907 11.4109 12.8906 11.4109 12.8905 11.4109C 12.8904 11.4109 12.8903 11.4109 12.8902 11.4109C 12.8901 11.4109 12.8901 11.4109 12.89 11.4109C 12.8899 11.4109 12.8898 11.4109 12.8897 11.4109C 12.8896 11.4109 12.8896 11.4109 12.8895 11.4109L 12.8895 14.4109ZM 13.0142 14.4109C 13.9795 14.4109 14.9038 15.2247 14.9596 16.4821L 17.9566 16.3494C 17.8376 13.6638 15.7548 11.4109 13.0142 11.4109L 13.0142 14.4109ZM 16.4581 17.9158L 23.4456 17.9158L 23.4456 14.9158L 16.4581 14.9158L 16.4581 17.9158ZM 23.4456 17.9158C 24.8594 17.9158 25.8502 16.7237 25.8502 15.4532L 22.8502 15.4532C 22.8502 15.2449 23.03 14.9158 23.4456 14.9158L 23.4456 17.9158ZM 25.8502 15.4532L 25.8502 0.962509L 22.8502 0.962509L 22.8502 15.4532L 25.8502 15.4532ZM 25.8502 0.962509C 25.8502 -0.30797 24.8594 -1.5 23.4456 -1.5L 23.4456 1.5C 23.03 1.5 22.8502 1.17091 22.8502 0.962509L 25.8502 0.962509Z"/>
</defs>
</svg>
