<svg width="26" height="20" viewBox="0 0 26 20" version="1.1" xmlns="http://www.w3.org/2000/svg" xmlns:xlink="http://www.w3.org/1999/xlink">
<title>logout</title>
<desc>Created using Figma</desc>
<g id="Canvas" transform="translate(-2427 -848)">
<g id="logout">
<g id="Group">
<g id="Group">
<g id="Vector">
<use xlink:href="#path0_fill" transform="matrix(-1 0 0 1 2452 849)" fill="#687178"/>
<use xlink:href="#path1_stroke" transform="matrix(-1 0 0 1 2452 849)" fill="#687178"/>
</g>
<g id="Vector">
<use xlink:href="#path2_fill" transform="matrix(-1 0 0 1 2441.9 853.405)" fill="#687178"/>
<use xlink:href="#path3_stroke" transform="matrix(-1 0 0 1 2441.9 853.405)" fill="#687178"/>
</g>
</g>
</g>
</g>
</g>
<defs>
<path id="path0_fill" d="M 0 3.03977L 0 15.1891C 0 16.8631 1.36569 18.2288 3.03977 18.2288L 12.8591 18.2288C 14.5331 18.2288 15.8988 16.8631 15.8988 15.1891L 15.8988 13.2213C 15.8988 12.8884 15.6296 12.6192 15.2968 12.6192C 14.9639 12.6192 14.6947 12.8884 14.6947 13.2213L 14.6947 15.1891C 14.6947 16.2023 13.8674 17.0296 12.8542 17.0296L 3.03977 17.0296C 2.02651 17.0296 1.19927 16.2023 1.19927 15.1891L 1.19927 3.03977C 1.19927 2.02651 2.02651 1.19927 3.03977 1.19927L 12.8591 1.19927C 13.8723 1.19927 14.6996 2.02651 14.6996 3.03977L 14.6996 5.00755C 14.6996 5.3404 14.9688 5.60963 15.3017 5.60963C 15.6345 5.60963 15.9037 5.3404 15.9037 5.00755L 15.9037 3.03977C 15.9037 1.36569 14.538 3.73456e-08 12.864 3.73456e-08L 3.03977 3.73456e-08C 1.36569 3.73456e-08 0 1.3608 0 3.03977Z"/>
<path id="path1_stroke" d="M -0.5 3.03977L -0.5 15.1891L 0.5 15.1891L 0.5 3.03977L -0.5 3.03977ZM -0.5 15.1891C -0.5 17.1393 1.08955 18.7288 3.03977 18.7288L 3.03977 17.7288C 1.64184 17.7288 0.5 16.587 0.5 15.1891L -0.5 15.1891ZM 3.03977 18.7288L 12.8591 18.7288L 12.8591 17.7288L 3.03977 17.7288L 3.03977 18.7288ZM 12.8591 18.7288C 14.8093 18.7288 16.3988 17.1393 16.3988 15.1891L 15.3988 15.1891C 15.3988 16.587 14.257 17.7288 12.8591 17.7288L 12.8591 18.7288ZM 16.3988 15.1891L 16.3988 13.2213L 15.3988 13.2213L 15.3988 15.1891L 16.3988 15.1891ZM 16.3988 13.2213C 16.3988 12.6123 15.9058 12.1192 15.2968 12.1192L 15.2968 13.1192C 15.3535 13.1192 15.3988 13.1646 15.3988 13.2213L 16.3988 13.2213ZM 15.2968 12.1192C 14.6878 12.1192 14.1947 12.6123 14.1947 13.2213L 15.1947 13.2213C 15.1947 13.1646 15.24 13.1192 15.2968 13.1192L 15.2968 12.1192ZM 14.1947 13.2213L 14.1947 15.1891L 15.1947 15.1891L 15.1947 13.2213L 14.1947 13.2213ZM 14.1947 15.1891C 14.1947 15.9262 13.5913 16.5296 12.8542 16.5296L 12.8542 17.5296C 14.1436 17.5296 15.1947 16.4785 15.1947 15.1891L 14.1947 15.1891ZM 12.8542 16.5296L 3.03977 16.5296L 3.03977 17.5296L 12.8542 17.5296L 12.8542 16.5296ZM 3.03977 16.5296C 2.30266 16.5296 1.69927 15.9262 1.69927 15.1891L 0.699266 15.1891C 0.699266 16.4785 1.75037 17.5296 3.03977 17.5296L 3.03977 16.5296ZM 1.69927 15.1891L 1.69927 3.03977L 0.699266 3.03977L 0.699266 15.1891L 1.69927 15.1891ZM 1.69927 3.03977C 1.69927 2.30266 2.30266 1.69927 3.03977 1.69927L 3.03977 0.699266C 1.75037 0.699266 0.699266 1.75037 0.699266 3.03977L 1.69927 3.03977ZM 3.03977 1.69927L 12.8591 1.69927L 12.8591 0.699266L 3.03977 0.699266L 3.03977 1.69927ZM 12.8591 1.69927C 13.5962 1.69927 14.1996 2.30266 14.1996 3.03977L 15.1996 3.03977C 15.1996 1.75037 14.1485 0.699266 12.8591 0.699266L 12.8591 1.69927ZM 14.1996 3.03977L 14.1996 5.00755L 15.1996 5.00755L 15.1996 3.03977L 14.1996 3.03977ZM 14.1996 5.00755C 14.1996 5.61655 14.6927 6.10963 15.3017 6.10963L 15.3017 5.10963C 15.2449 5.10963 15.1996 5.06426 15.1996 5.00755L 14.1996 5.00755ZM 15.3017 6.10963C 15.9107 6.10963 16.4037 5.61655 16.4037 5.00755L 15.4037 5.00755C 15.4037 5.06426 15.3584 5.10963 15.3017 5.10963L 15.3017 6.10963ZM 16.4037 5.00755L 16.4037 3.03977L 15.4037 3.03977L 15.4037 5.00755L 16.4037 5.00755ZM 16.4037 3.03977C 16.4037 1.08955 14.8142 -0.5 12.864 -0.5L 12.864 0.5C 14.2619 0.5 15.4037 1.64184 15.4037 3.03977L 16.4037 3.03977ZM 12.864 -0.5L 3.03977 -0.5L 3.03977 0.5L 12.864 0.5L 12.864 -0.5ZM 3.03977 -0.5C 1.09008 -0.5 -0.5 1.08413 -0.5 3.03977L 0.5 3.03977C 0.5 1.63747 1.64131 0.5 3.03977 0.5L 3.03977 -0.5Z"/>
<path id="path2_fill" d="M 8.76688 9.23679C 8.88436 9.35427 9.0361 9.41301 9.19274 9.41301C 9.34938 9.41301 9.50112 9.35427 9.6186 9.23679L 13.7255 5.12992C 13.9604 4.89496 13.9604 4.51805 13.7255 4.28309L 9.6186 0.176219C 9.38364 -0.0587394 9.00673 -0.0587394 8.77177 0.176219C 8.53681 0.411177 8.53681 0.788089 8.77177 1.02305L 11.8556 4.10687L 0.602081 4.10687C 0.269223 4.10687 1.49382e-07 4.3761 1.49382e-07 4.70895C 1.49382e-07 5.04181 0.269223 5.31103 0.602081 5.31103L 11.8507 5.31103L 8.76688 8.39486C 8.53192 8.62492 8.53192 9.00673 8.76688 9.23679Z"/>
<path id="path3_stroke" d="M 8.76688 9.23679L 9.12045 8.88322L 9.11669 8.87954L 8.76688 9.23679ZM 9.6186 9.23679L 9.26505 8.88324L 9.6186 9.23679ZM 13.7255 5.12992L 14.079 5.48347L 14.079 5.48347L 13.7255 5.12992ZM 13.7255 4.28309L 14.079 3.92954L 14.079 3.92954L 13.7255 4.28309ZM 9.6186 0.176219L 9.26505 0.529772L 9.26505 0.529772L 9.6186 0.176219ZM 8.77177 1.02305L 9.12533 0.669494L 9.12533 0.669494L 8.77177 1.02305ZM 11.8556 4.10687L 11.8556 4.60687L 13.0627 4.60687L 12.2092 3.75332L 11.8556 4.10687ZM 11.8507 5.31103L 12.2043 5.66459L 13.0578 4.81103L 11.8507 4.81103L 11.8507 5.31103ZM 8.76688 8.39486L 9.11671 8.75214L 9.12043 8.74841L 8.76688 8.39486ZM 8.41332 9.59035C 8.62779 9.80482 8.90812 9.91301 9.19274 9.91301L 9.19274 8.91301C 9.16408 8.91301 9.14092 8.90373 9.12043 8.88324L 8.41332 9.59035ZM 9.19274 9.91301C 9.47736 9.91301 9.75769 9.80481 9.97215 9.59035L 9.26505 8.88324C 9.24456 8.90373 9.2214 8.91301 9.19274 8.91301L 9.19274 9.91301ZM 9.97215 9.59035L 14.079 5.48347L 13.3719 4.77637L 9.26505 8.88324L 9.97215 9.59035ZM 14.079 5.48347C 14.5093 5.05325 14.5093 4.35976 14.079 3.92954L 13.3719 4.63665C 13.4116 4.67634 13.4116 4.73667 13.3719 4.77637L 14.079 5.48347ZM 14.079 3.92954L 9.97215 -0.177335L 9.26505 0.529772L 13.3719 4.63665L 14.079 3.92954ZM 9.97215 -0.177335C 9.54193 -0.607555 8.84844 -0.607555 8.41822 -0.177335L 9.12533 0.529772C 9.16502 0.490076 9.22535 0.490076 9.26505 0.529772L 9.97215 -0.177335ZM 8.41822 -0.177335C 7.988 0.252886 7.988 0.94638 8.41822 1.3766L 9.12533 0.669494C 9.08563 0.629798 9.08563 0.569468 9.12533 0.529772L 8.41822 -0.177335ZM 8.41822 1.3766L 11.502 4.46043L 12.2092 3.75332L 9.12533 0.669494L 8.41822 1.3766ZM 11.8556 3.60687L 0.602081 3.60687L 0.602081 4.60687L 11.8556 4.60687L 11.8556 3.60687ZM 0.602081 3.60687C -0.00691827 3.60687 -0.5 4.09995 -0.5 4.70895L 0.5 4.70895C 0.5 4.65224 0.545365 4.60687 0.602081 4.60687L 0.602081 3.60687ZM -0.5 4.70895C -0.5 5.31795 -0.00691988 5.81103 0.602081 5.81103L 0.602081 4.81103C 0.545366 4.81103 0.5 4.76567 0.5 4.70895L -0.5 4.70895ZM 0.602081 5.81103L 11.8507 5.81103L 11.8507 4.81103L 0.602081 4.81103L 0.602081 5.81103ZM 11.4972 4.95748L 8.41332 8.04131L 9.12043 8.74841L 12.2043 5.66459L 11.4972 4.95748ZM 8.41707 8.03761C 7.98186 8.46375 7.98186 9.16791 8.41707 9.59405L 9.11669 8.87954C 9.08198 8.84555 9.08198 8.7861 9.11669 8.75212L 8.41707 8.03761Z"/>
</defs>
</svg>
