<svg width="31" height="31" viewBox="0 0 31 31" version="1.1" xmlns="http://www.w3.org/2000/svg" xmlns:xlink="http://www.w3.org/1999/xlink">
<title>Notification Circle</title>
<desc>Created using Figma</desc>
<g id="Canvas" transform="translate(8652 -8609)">
<rect x="-8652" y="8609" width="31" height="31" fill="#E5E5E5"/>
<clipPath id="clip-0" clip-rule="evenodd">
<path d="M -9982 8583L -8542 8583L -8542 9607L -9982 9607L -9982 8583Z" fill="#FFFFFF"/>
</clipPath>
<g id="Directory" clip-path="url(#clip-0)">
<path d="M -9982 8583L -8542 8583L -8542 9607L -9982 9607L -9982 8583Z" fill="#FFFFFF"/>
<g id="Header">
<path d="M -9982 8583L -8542 8583L -8542 8693L -9982 8693L -9982 8583Z" fill="#FFFFFF"/>
<g id="Notification group">
<g id="Notification Bell">
<use xlink:href="#path0_fill" transform="translate(-8671 8622)" fill="#687178"/>
</g>
<g id="Notification Circle">
<g id="Ellipse">
<use xlink:href="#path1_fill" transform="translate(-8652 8609)" fill="#ED5454"/>
</g>
<g id="1">
<use xlink:href="#path2_fill" transform="translate(-8643 8616)" fill="#FFFFFF"/>
</g>
</g>
</g>
</g>
</g>
</g>
<defs>
<path id="path0_fill" fill-rule="evenodd" d="M 28.6582 19.4121L 28.6582 15.1025C 28.6582 10.1328 25.0107 5.94043 19.9736 4.58105L 19.9736 2.71777C 19.9736 1.20312 18.6279 0 16.9346 0L 16.0654 0C 14.3721 0 13.0264 1.20312 13.0264 2.71777L 13.0264 4.58105C 7.98926 5.94043 4.3418 10.1328 4.3418 15.1025L 4.3418 19.4121L 3.03906 19.4121C 1.3457 19.4121 0 20.6152 0 22.1299L 0 24.8467C 0 26.3613 1.3457 27.5645 3.03906 27.5645L 11.9404 27.5645L 11.9404 28.9238C 11.9404 31.1758 13.9814 33 16.5 33C 19.0186 33 21.0596 31.1758 21.0596 28.9238L 21.0596 27.5645L 29.9609 27.5645C 31.6543 27.5645 33 26.3613 33 24.8467L 33 22.1299C 33 20.6152 31.6543 19.4121 29.9609 19.4121L 28.6582 19.4121ZM 15.6309 2.71875C 15.6309 2.48535 15.8047 2.33008 16.0654 2.33008L 16.9336 2.33008C 17.1943 2.33008 17.3682 2.48535 17.3682 2.71875L 17.3682 4.1543C 17.2158 4.1543 17.0742 4.14453 16.9336 4.13477L 16.7041 4.12109L 16.499 4.11621C 16.1953 4.11621 15.9346 4.11621 15.6309 4.1543L 15.6309 2.71875ZM 16.501 6.44531C 11.2471 6.44531 6.94824 10.3281 6.94824 15.1025L 6.94824 19.4121L 26.0537 19.4121L 26.0537 15.1025C 26.0537 10.3281 21.7549 6.44531 16.501 6.44531ZM 18.4551 28.9229C 18.4551 29.8936 17.5859 30.6699 16.501 30.6699C 15.415 30.6699 14.5469 29.8936 14.5469 28.9229L 14.5469 27.5645L 18.4551 27.5645L 18.4551 28.9229ZM 30.3945 24.8467L 30.3945 22.1299C 30.3945 21.8965 30.2217 21.7412 29.9609 21.7412L 3.04004 21.7412C 2.7793 21.7412 2.60547 21.8965 2.60547 22.1299L 2.60547 24.8467C 2.60547 25.0801 2.7793 25.2354 3.04004 25.2354L 29.9609 25.2354C 30.2217 25.2354 30.3945 25.0801 30.3945 24.8467Z"/>
<path id="path1_fill" d="M 31 15.5C 31 24.0604 24.0604 31 15.5 31C 6.93959 31 0 24.0604 0 15.5C 0 6.93959 6.93959 0 15.5 0C 24.0604 0 31 6.93959 31 15.5Z"/>
<path id="path2_fill" d="M 8.79395 16L 6.07812 16L 6.07812 8.56445L 6.10449 7.34277L 6.14844 6.00684C 5.69727 6.45801 5.38379 6.75391 5.20801 6.89453L 3.73145 8.08105L 2.42188 6.44629L 6.56152 3.15039L 8.79395 3.15039L 8.79395 16Z"/>
</defs>
</svg>
