<svg width="33" height="33" viewBox="0 0 33 33" version="1.1" xmlns="http://www.w3.org/2000/svg" xmlns:xlink="http://www.w3.org/1999/xlink">
<title>Notification Bell</title>
<desc>Created using Figma</desc>
<g id="Canvas" transform="translate(1086 1668)">
<rect x="-1086" y="-1668" width="33" height="33" fill="#E5E5E5"/>
<clipPath id="clip-0" clip-rule="evenodd">
<path d="M -2397 -1707L -957 -1707L -957 -683L -2397 -683L -2397 -1707Z" fill="#FFFFFF"/>
</clipPath>
<g id="Pick ups for the month" clip-path="url(#clip-0)">
<path d="M -2397 -1707L -957 -1707L -957 -683L -2397 -683L -2397 -1707Z" fill="#FFFFFF"/>
<g id="Header">
<path d="M -2397 -1707L -957 -1707L -957 -1597L -2397 -1597L -2397 -1707Z" fill="#FFFFFF"/>
<g id="Notification group">
<g id="Notification Bell">
<use xlink:href="#path0_fill" transform="translate(-1086 -1668)" fill="#687178"/>
</g>
</g>
</g>
</g>
</g>
<defs>
<path id="path0_fill" fill-rule="evenodd" d="M 28.6579 19.4117L 28.6579 15.1024C 28.6579 10.1329 25.0105 5.93994 19.9737 4.58118L 19.9737 2.71765C 19.9737 1.20349 18.6276 0 16.9342 0L 16.0658 0C 14.3724 0 13.0263 1.20349 13.0263 2.71765L 13.0263 4.58118C 7.9895 5.93994 4.3421 10.1329 4.3421 15.1024L 4.3421 19.4117L 3.03949 19.4117C 1.34607 19.4117 0 20.6154 0 22.1294L 0 24.847C 0 26.3612 1.34607 27.5647 3.03949 27.5647L 11.9408 27.5647L 11.9408 28.9236C 11.9408 31.1753 13.9816 33 16.5 33C 19.0184 33 21.0592 31.1753 21.0592 28.9236L 21.0592 27.5647L 29.9605 27.5647C 31.6539 27.5647 33 26.3612 33 24.847L 33 22.1294C 33 20.6154 31.6539 19.4117 29.9605 19.4117L 28.6579 19.4117ZM 15.631 2.71826C 15.631 2.48535 15.8047 2.33008 16.0652 2.33008L 16.9336 2.33008C 17.1942 2.33008 17.3678 2.48535 17.3678 2.71826L 17.3678 4.15479C 17.273 4.15479 17.1824 4.151 17.0934 4.14587C 17.0397 4.14282 16.9867 4.13916 16.9337 4.1355C 16.7925 4.12573 16.6514 4.11597 16.4994 4.11597C 16.1954 4.11597 15.9349 4.11597 15.631 4.15479L 15.631 2.71826ZM 16.501 6.44482C 11.2471 6.44482 6.94836 10.3271 6.94836 15.1024L 6.94836 19.4119L 26.0536 19.4119L 26.0536 15.1024C 26.0536 10.3271 21.7549 6.44482 16.501 6.44482ZM 18.4544 28.9235C 18.4544 29.8942 17.586 30.6705 16.5004 30.6705C 15.4149 30.6705 14.5465 29.8942 14.5465 28.9235L 14.5465 27.5647L 18.4544 27.5647L 18.4544 28.9235ZM 30.3954 24.8473L 30.3954 22.1296C 30.3954 21.8967 30.2217 21.7415 29.9612 21.7415L 3.0401 21.7415C 2.7796 21.7415 2.6059 21.8967 2.6059 22.1296L 2.6059 24.8473C 2.6059 25.0803 2.7796 25.2356 3.0401 25.2356L 29.9612 25.2356C 30.2217 25.2356 30.3954 25.0803 30.3954 24.8473Z"/>
</defs>
</svg>
