<svg width="30" height="20" viewBox="0 0 30 20" fill="none" xmlns="http://www.w3.org/2000/svg">
<path d="M20 8C22.2133 8 23.9867 6.21333 23.9867 4C23.9867 1.78667 22.2133 0 20 0C17.7867 0 16 1.78667 16 4C16 6.21333 17.7867 8 20 8ZM9.33333 8C11.5467 8 13.32 6.21333 13.32 4C13.32 1.78667 11.5467 0 9.33333 0C7.12 0 5.33333 1.78667 5.33333 4C5.33333 6.21333 7.12 8 9.33333 8ZM9.33333 10.6667C6.22667 10.6667 0 12.2267 0 15.3333V18.6667H18.6667V15.3333C18.6667 12.2267 12.44 10.6667 9.33333 10.6667ZM20 10.6667C19.6133 10.6667 19.1733 10.6933 18.7067 10.7333C20.2533 11.8533 21.3333 13.36 21.3333 15.3333V18.6667H29.3333V15.3333C29.3333 12.2267 23.1067 10.6667 20 10.6667Z" transform="translate(0.333313 0.666504)" fill="#687178"/>
</svg>
