<svg width="39" height="35" viewBox="0 0 39 35" version="1.1" xmlns="http://www.w3.org/2000/svg" xmlns:xlink="http://www.w3.org/1999/xlink">
<title>phone</title>
<desc>Created using Figma</desc>
<g id="Canvas" transform="translate(508 358)">
<clipPath id="clip-0" clip-rule="evenodd">
<path d="M -508 -358L -469 -358L -469 -323L -508 -323L -508 -358Z" fill="#FFFFFF"/>
</clipPath>
<g id="phone" clip-path="url(#clip-0)">
<g id="open chip">
<g id="telephone-reciever">
<g id="Group">
<g id="Vector">
<use xlink:href="#path0_fill" transform="translate(-500 -352)" fill="#243847"/>
</g>
</g>
</g>
</g>
</g>
</g>
<defs>
<path id="path0_fill" d="M 15.9992 12.9269C 15.732 12.723 15.3549 12.748 15.1172 12.9858L 13.6931 14.4098C 12.2455 15.8574 9.6112 12.8082 9.3894 12.6108C 9.19183 12.3889 6.23426 9.66277 7.59023 8.30693L 9.01425 6.88291C 9.25195 6.64508 9.27724 6.26809 9.07318 6.00087L 4.69344 0.263964C 4.57598 0.110094 4.39775 0.0144876 4.20455 0.00151057C 4.01135 -0.0114665 3.82199 0.0596423 3.68507 0.196563L 1.14952 2.73225C 0.793844 3.14367 -1.27228 5.0256 1.18898 9.69826C 2.88328 12.9147 4.82625 15.0513 5.9044 16.0957C 6.94879 17.1737 9.08536 19.1168 12.3017 20.811C 16.9743 23.2722 18.8564 21.2064 19.2676 20.8504L 21.8032 18.3147C 21.9402 18.1779 22.0113 17.9886 21.9984 17.7954C 21.9854 17.6022 21.8898 17.424 21.736 17.3065L 15.9992 12.9269ZM 7.07975 6.91866L 2.97782 2.81686L 4.09901 1.69567L 7.64968 6.34873L 7.07975 6.91866ZM 18.234 19.9717C 18.2262 19.9814 16.5698 21.5845 12.9276 19.6232C 11.7709 19.0003 9.03875 17.4172 6.86735 15.2506C 4.65662 13.0449 3.01119 10.2503 2.37691 9.07258C 0.415524 5.43041 2.01872 3.77398 2.02838 3.76617L 6.24816 7.98595C 6.08873 8.36215 5.88454 8.93076 6.02557 9.63748C 6.46175 11.8232 10.631 15.7136 12.3625 15.9744C 13.2261 16.1045 13.6379 15.9112 14.0141 15.7518L 18.234 19.9717ZM 19.1833 19.0224L 15.0814 14.9204L 15.6513 14.3505L 20.3045 17.9013L 19.1833 19.0224Z"/>
</defs>
</svg>
