<svg width="104" height="63" viewBox="0 0 104 63" version="1.1" xmlns="http://www.w3.org/2000/svg" xmlns:xlink="http://www.w3.org/1999/xlink">
<title>delivery icon</title>
<desc>Created using Figma</desc>
<g id="Canvas" transform="translate(300 660)">
<g id="delivery icon">
<g id="Vector">
<mask id="mask0_outline_ins">
<use xlink:href="#path0_fill" fill="white" transform="matrix(0.999031 -0.0430088 0.0305253 0.999491 -268.107 -612.528)"/>
</mask>
<g mask="url(#mask0_outline_ins)">
<use xlink:href="#path1_stroke_2x" transform="matrix(0.999031 -0.0430088 0.0305253 0.999491 -268.107 -612.528)" fill="#F77676"/>
</g>
</g>
<g id="Vector">
<use xlink:href="#path2_fill" transform="translate(-225.81 -646.969)" fill="#F77676"/>
</g>
<g id="Vector">
<mask id="mask1_outline_ins">
<use xlink:href="#path3_fill" fill="white" transform="translate(-217.43 -612.812)"/>
</mask>
<g mask="url(#mask1_outline_ins)">
<use xlink:href="#path4_stroke_2x" transform="translate(-217.43 -612.812)" fill="#F77676"/>
</g>
</g>
<g id="Vector">
<mask id="mask2_outline_ins">
<use xlink:href="#path5_fill" fill="white" transform="translate(-300 -660)"/>
</mask>
<g mask="url(#mask2_outline_ins)">
<use xlink:href="#path6_stroke_2x" transform="translate(-300 -660)" fill="#F77676"/>
</g>
</g>
</g>
</g>
<defs>
<path id="path0_fill" d="M 6.54579 15.5361C 10.1609 15.5361 13.0916 12.0582 13.0916 7.76803C 13.0916 3.47787 10.1609 0 6.54579 0C 2.93065 0 0 3.47787 0 7.76803C 0 12.0582 2.93065 15.5361 6.54579 15.5361Z"/>
<path id="path1_stroke_2x" d="M 11.5916 7.76803C 11.5916 11.4807 9.10212 14.0361 6.54579 14.0361L 6.54579 17.0361C 11.2197 17.0361 14.5916 12.6357 14.5916 7.76803L 11.5916 7.76803ZM 6.54579 14.0361C 3.98946 14.0361 1.5 11.4807 1.5 7.76803L -1.5 7.76803C -1.5 12.6357 1.87184 17.0361 6.54579 17.0361L 6.54579 14.0361ZM 1.5 7.76803C 1.5 4.0554 3.98946 1.5 6.54579 1.5L 6.54579 -1.5C 1.87184 -1.5 -1.5 2.90033 -1.5 7.76803L 1.5 7.76803ZM 6.54579 1.5C 9.10212 1.5 11.5916 4.0554 11.5916 7.76803L 14.5916 7.76803C 14.5916 2.90034 11.2197 -1.5 6.54579 -1.5L 6.54579 1.5Z"/>
<path id="path2_fill" d="M 18.6681 2.04693C 17.8895 0.748339 16.6474 0 15.3127 0L 0 0L 0 20.6894L 0 41.3787L 4.67166 41.3787C 4.91266 34.9298 9.41747 29.7575 14.9048 29.7575C 20.3922 29.7575 24.897 34.9078 25.138 41.3787L 29.8096 41.3787L 29.8096 20.6894L 18.6681 2.04693ZM 3.4852 17.3218L 3.4852 4.22591L 14.9048 4.22591L 22.3572 17.3218L 3.4852 17.3218Z"/>
<path id="path3_fill" d="M 6.54403 15.539C 10.1582 15.539 13.0881 12.0605 13.0881 7.76952C 13.0881 3.47853 10.1582 0 6.54403 0C 2.92987 0 0 3.47853 0 7.76952C 0 12.0605 2.92987 15.539 6.54403 15.539Z"/>
<path id="path4_stroke_2x" d="M 11.5881 7.76952C 11.5881 11.4837 9.09881 14.039 6.54403 14.039L 6.54403 17.039C 11.2176 17.039 14.5881 12.6373 14.5881 7.76952L 11.5881 7.76952ZM 6.54403 14.039C 3.98926 14.039 1.5 11.4837 1.5 7.76952L -1.5 7.76952C -1.5 12.6373 1.87047 17.039 6.54403 17.039L 6.54403 14.039ZM 1.5 7.76952C 1.5 4.05537 3.98926 1.5 6.54403 1.5L 6.54403 -1.5C 1.87047 -1.5 -1.5 2.90169 -1.5 7.76952L 1.5 7.76952ZM 6.54403 1.5C 9.09881 1.5 11.5881 4.05537 11.5881 7.76952L 14.5881 7.76952C 14.5881 2.90169 11.2176 -1.5 6.54403 -1.5L 6.54403 1.5Z"/>
<path id="path5_fill" d="M 69.6671 0L 26.4171 0C 24.9341 0 23.7291 1.43065 23.7291 3.19144L 23.7291 6.31686L 7.65633 6.31686C 6.4328 6.31686 5.43173 7.5054 5.43173 8.95805C 5.43173 10.4107 6.4328 11.5992 7.65633 11.5992L 23.7291 11.5992L 23.7291 15.8912L 12.2353 15.8912C 11.0118 15.8912 10.0107 17.0797 10.0107 18.5324C 10.0107 19.985 11.0118 21.1736 12.2353 21.1736L 23.7291 21.1736L 23.7291 25.4655L 2.2246 25.4655C 1.00107 25.4655 0 26.6541 0 28.1067C 0 29.5594 1.00107 30.7479 2.2246 30.7479L 23.7291 30.7479L 23.7291 51.2172C 23.7291 52.978 24.9341 54.4086 26.4171 54.4086L 28.4378 54.4086C 28.6788 48.1578 32.9241 43.0295 38.3002 42.8094C 38.43 42.8094 38.5597 42.8094 38.671 42.8094C 44.1768 42.8094 48.6446 47.8937 48.9041 54.4306L 69.6671 54.4306C 71.1501 54.4306 72.3551 53 72.3551 51.2392L 72.3551 3.19144C 72.3551 1.43065 71.1501 0 69.6671 0Z"/>
<path id="path6_stroke_2x" d="M 23.7291 6.31686L 23.7291 7.81686L 25.2291 7.81686L 25.2291 6.31686L 23.7291 6.31686ZM 23.7291 11.5992L 25.2291 11.5992L 25.2291 10.0992L 23.7291 10.0992L 23.7291 11.5992ZM 23.7291 15.8912L 23.7291 17.3912L 25.2291 17.3912L 25.2291 15.8912L 23.7291 15.8912ZM 23.7291 21.1736L 25.2291 21.1736L 25.2291 19.6736L 23.7291 19.6736L 23.7291 21.1736ZM 23.7291 25.4655L 23.7291 26.9655L 25.2291 26.9655L 25.2291 25.4655L 23.7291 25.4655ZM 23.7291 30.7479L 25.2291 30.7479L 25.2291 29.2479L 23.7291 29.2479L 23.7291 30.7479ZM 28.4378 54.4086L 28.4378 55.9086L 29.8811 55.9086L 29.9367 54.4664L 28.4378 54.4086ZM 38.3002 42.8094L 38.3002 41.3094L 38.2695 41.3094L 38.2388 41.3106L 38.3002 42.8094ZM 48.9041 54.4306L 47.4053 54.4901L 47.4625 55.9306L 48.9041 55.9306L 48.9041 54.4306ZM 69.6671 -1.5L 26.4171 -1.5L 26.4171 1.5L 69.6671 1.5L 69.6671 -1.5ZM 26.4171 -1.5C 23.8747 -1.5 22.2291 0.85381 22.2291 3.19144L 25.2291 3.19144C 25.2291 2.00748 25.9935 1.5 26.4171 1.5L 26.4171 -1.5ZM 22.2291 3.19144L 22.2291 6.31686L 25.2291 6.31686L 25.2291 3.19144L 22.2291 3.19144ZM 23.7291 4.81686L 7.65633 4.81686L 7.65633 7.81686L 23.7291 7.81686L 23.7291 4.81686ZM 7.65633 4.81686C 5.3734 4.81686 3.93173 6.92856 3.93173 8.95805L 6.93173 8.95805C 6.93173 8.57167 7.06572 8.25701 7.23248 8.05902C 7.39734 7.8633 7.55462 7.81686 7.65633 7.81686L 7.65633 4.81686ZM 3.93173 8.95805C 3.93173 10.9875 5.3734 13.0992 7.65633 13.0992L 7.65633 10.0992C 7.55462 10.0992 7.39734 10.0528 7.23248 9.85708C 7.06572 9.6591 6.93173 9.34444 6.93173 8.95805L 3.93173 8.95805ZM 7.65633 13.0992L 23.7291 13.0992L 23.7291 10.0992L 7.65633 10.0992L 7.65633 13.0992ZM 22.2291 11.5992L 22.2291 15.8912L 25.2291 15.8912L 25.2291 11.5992L 22.2291 11.5992ZM 23.7291 14.3912L 12.2353 14.3912L 12.2353 17.3912L 23.7291 17.3912L 23.7291 14.3912ZM 12.2353 14.3912C 9.95237 14.3912 8.5107 16.5029 8.5107 18.5324L 11.5107 18.5324C 11.5107 18.146 11.6447 17.8313 11.8114 17.6334C 11.9763 17.4376 12.1336 17.3912 12.2353 17.3912L 12.2353 14.3912ZM 8.5107 18.5324C 8.5107 20.5619 9.95237 22.6736 12.2353 22.6736L 12.2353 19.6736C 12.1336 19.6736 11.9763 19.6271 11.8114 19.4314C 11.6447 19.2334 11.5107 18.9188 11.5107 18.5324L 8.5107 18.5324ZM 12.2353 22.6736L 23.7291 22.6736L 23.7291 19.6736L 12.2353 19.6736L 12.2353 22.6736ZM 22.2291 21.1736L 22.2291 25.4655L 25.2291 25.4655L 25.2291 21.1736L 22.2291 21.1736ZM 23.7291 23.9655L 2.2246 23.9655L 2.2246 26.9655L 23.7291 26.9655L 23.7291 23.9655ZM 2.2246 23.9655C -0.0583268 23.9655 -1.5 26.0772 -1.5 28.1067L 1.5 28.1067C 1.5 27.7203 1.63399 27.4057 1.80075 27.2077C 1.96561 27.012 2.12289 26.9655 2.2246 26.9655L 2.2246 23.9655ZM -1.5 28.1067C -1.5 30.1362 -0.0583268 32.2479 2.2246 32.2479L 2.2246 29.2479C 2.12289 29.2479 1.96561 29.2015 1.80075 29.0058C 1.63399 28.8078 1.5 28.4931 1.5 28.1067L -1.5 28.1067ZM 2.2246 32.2479L 23.7291 32.2479L 23.7291 29.2479L 2.2246 29.2479L 2.2246 32.2479ZM 22.2291 30.7479L 22.2291 51.2172L 25.2291 51.2172L 25.2291 30.7479L 22.2291 30.7479ZM 22.2291 51.2172C 22.2291 53.5548 23.8747 55.9086 26.4171 55.9086L 26.4171 52.9086C 25.9935 52.9086 25.2291 52.4011 25.2291 51.2172L 22.2291 51.2172ZM 26.4171 55.9086L 28.4378 55.9086L 28.4378 52.9086L 26.4171 52.9086L 26.4171 55.9086ZM 29.9367 54.4664C 30.1567 48.7599 33.9838 44.4873 38.3616 44.3081L 38.2388 41.3106C 31.8643 41.5716 27.2009 47.5557 26.9389 54.3508L 29.9367 54.4664ZM 38.3002 44.3094C 38.3005 44.3094 38.3007 44.3094 38.301 44.3094C 38.3012 44.3094 38.3015 44.3094 38.3017 44.3094C 38.302 44.3094 38.3022 44.3094 38.3025 44.3094C 38.3027 44.3094 38.303 44.3094 38.3032 44.3094C 38.3035 44.3094 38.3037 44.3094 38.304 44.3094C 38.3043 44.3094 38.3045 44.3094 38.3048 44.3094C 38.305 44.3094 38.3053 44.3094 38.3055 44.3094C 38.3058 44.3094 38.306 44.3094 38.3063 44.3094C 38.3065 44.3094 38.3068 44.3094 38.307 44.3094C 38.3073 44.3094 38.3075 44.3094 38.3078 44.3094C 38.3081 44.3094 38.3083 44.3094 38.3086 44.3094C 38.3088 44.3094 38.3091 44.3094 38.3093 44.3094C 38.3096 44.3094 38.3098 44.3094 38.3101 44.3094C 38.3103 44.3094 38.3106 44.3094 38.3108 44.3094C 38.3111 44.3094 38.3113 44.3094 38.3116 44.3094C 38.3119 44.3094 38.3121 44.3094 38.3124 44.3094C 38.3126 44.3094 38.3129 44.3094 38.3131 44.3094C 38.3134 44.3094 38.3136 44.3094 38.3139 44.3094C 38.3141 44.3094 38.3144 44.3094 38.3146 44.3094C 38.3149 44.3094 38.3151 44.3094 38.3154 44.3094C 38.3157 44.3094 38.3159 44.3094 38.3162 44.3094C 38.3164 44.3094 38.3167 44.3094 38.3169 44.3094C 38.3172 44.3094 38.3174 44.3094 38.3177 44.3094C 38.3179 44.3094 38.3182 44.3094 38.3184 44.3094C 38.3187 44.3094 38.319 44.3094 38.3192 44.3094C 38.3195 44.3094 38.3197 44.3094 38.32 44.3094C 38.3202 44.3094 38.3205 44.3094 38.3207 44.3094C 38.321 44.3094 38.3212 44.3094 38.3215 44.3094C 38.3217 44.3094 38.322 44.3094 38.3222 44.3094C 38.3225 44.3094 38.3228 44.3094 38.323 44.3094C 38.3233 44.3094 38.3235 44.3094 38.3238 44.3094C 38.324 44.3094 38.3243 44.3094 38.3245 44.3094C 38.3248 44.3094 38.325 44.3094 38.3253 44.3094C 38.3255 44.3094 38.3258 44.3094 38.326 44.3094C 38.3263 44.3094 38.3266 44.3094 38.3268 44.3094C 38.3271 44.3094 38.3273 44.3094 38.3276 44.3094C 38.3278 44.3094 38.3281 44.3094 38.3283 44.3094C 38.3286 44.3094 38.3288 44.3094 38.3291 44.3094C 38.3293 44.3094 38.3296 44.3094 38.3298 44.3094C 38.3301 44.3094 38.3303 44.3094 38.3306 44.3094C 38.3309 44.3094 38.3311 44.3094 38.3314 44.3094C 38.3316 44.3094 38.3319 44.3094 38.3321 44.3094C 38.3324 44.3094 38.3326 44.3094 38.3329 44.3094C 38.3331 44.3094 38.3334 44.3094 38.3336 44.3094C 38.3339 44.3094 38.3341 44.3094 38.3344 44.3094C 38.3347 44.3094 38.3349 44.3094 38.3352 44.3094C 38.3354 44.3094 38.3357 44.3094 38.3359 44.3094C 38.3362 44.3094 38.3364 44.3094 38.3367 44.3094C 38.3369 44.3094 38.3372 44.3094 38.3374 44.3094C 38.3377 44.3094 38.3379 44.3094 38.3382 44.3094C 38.3385 44.3094 38.3387 44.3094 38.339 44.3094C 38.3392 44.3094 38.3395 44.3094 38.3397 44.3094C 38.34 44.3094 38.3402 44.3094 38.3405 44.3094C 38.3407 44.3094 38.341 44.3094 38.3412 44.3094C 38.3415 44.3094 38.3417 44.3094 38.342 44.3094C 38.3422 44.3094 38.3425 44.3094 38.3428 44.3094C 38.343 44.3094 38.3433 44.3094 38.3435 44.3094C 38.3438 44.3094 38.344 44.3094 38.3443 44.3094C 38.3445 44.3094 38.3448 44.3094 38.345 44.3094C 38.3453 44.3094 38.3455 44.3094 38.3458 44.3094C 38.346 44.3094 38.3463 44.3094 38.3465 44.3094C 38.3468 44.3094 38.3471 44.3094 38.3473 44.3094C 38.3476 44.3094 38.3478 44.3094 38.3481 44.3094C 38.3483 44.3094 38.3486 44.3094 38.3488 44.3094C 38.3491 44.3094 38.3493 44.3094 38.3496 44.3094C 38.3498 44.3094 38.3501 44.3094 38.3503 44.3094C 38.3506 44.3094 38.3508 44.3094 38.3511 44.3094C 38.3514 44.3094 38.3516 44.3094 38.3519 44.3094C 38.3521 44.3094 38.3524 44.3094 38.3526 44.3094C 38.3529 44.3094 38.3531 44.3094 38.3534 44.3094C 38.3536 44.3094 38.3539 44.3094 38.3541 44.3094C 38.3544 44.3094 38.3546 44.3094 38.3549 44.3094C 38.3551 44.3094 38.3554 44.3094 38.3556 44.3094C 38.3559 44.3094 38.3562 44.3094 38.3564 44.3094C 38.3567 44.3094 38.3569 44.3094 38.3572 44.3094C 38.3574 44.3094 38.3577 44.3094 38.3579 44.3094C 38.3582 44.3094 38.3584 44.3094 38.3587 44.3094C 38.3589 44.3094 38.3592 44.3094 38.3594 44.3094C 38.3597 44.3094 38.3599 44.3094 38.3602 44.3094C 38.3605 44.3094 38.3607 44.3094 38.361 44.3094C 38.3612 44.3094 38.3615 44.3094 38.3617 44.3094C 38.362 44.3094 38.3622 44.3094 38.3625 44.3094C 38.3627 44.3094 38.363 44.3094 38.3632 44.3094C 38.3635 44.3094 38.3637 44.3094 38.364 44.3094C 38.3642 44.3094 38.3645 44.3094 38.3647 44.3094C 38.365 44.3094 38.3652 44.3094 38.3655 44.3094C 38.3658 44.3094 38.366 44.3094 38.3663 44.3094C 38.3665 44.3094 38.3668 44.3094 38.367 44.3094C 38.3673 44.3094 38.3675 44.3094 38.3678 44.3094C 38.368 44.3094 38.3683 44.3094 38.3685 44.3094C 38.3688 44.3094 38.369 44.3094 38.3693 44.3094C 38.3695 44.3094 38.3698 44.3094 38.37 44.3094C 38.3703 44.3094 38.3705 44.3094 38.3708 44.3094C 38.3711 44.3094 38.3713 44.3094 38.3716 44.3094C 38.3718 44.3094 38.3721 44.3094 38.3723 44.3094C 38.3726 44.3094 38.3728 44.3094 38.3731 44.3094C 38.3733 44.3094 38.3736 44.3094 38.3738 44.3094C 38.3741 44.3094 38.3743 44.3094 38.3746 44.3094C 38.3748 44.3094 38.3751 44.3094 38.3753 44.3094C 38.3756 44.3094 38.3758 44.3094 38.3761 44.3094C 38.3763 44.3094 38.3766 44.3094 38.3769 44.3094C 38.3771 44.3094 38.3774 44.3094 38.3776 44.3094C 38.3779 44.3094 38.3781 44.3094 38.3784 44.3094C 38.3786 44.3094 38.3789 44.3094 38.3791 44.3094C 38.3794 44.3094 38.3796 44.3094 38.3799 44.3094C 38.3801 44.3094 38.3804 44.3094 38.3806 44.3094C 38.3809 44.3094 38.3811 44.3094 38.3814 44.3094C 38.3816 44.3094 38.3819 44.3094 38.3821 44.3094C 38.3824 44.3094 38.3826 44.3094 38.3829 44.3094C 38.3831 44.3094 38.3834 44.3094 38.3837 44.3094C 38.3839 44.3094 38.3842 44.3094 38.3844 44.3094C 38.3847 44.3094 38.3849 44.3094 38.3852 44.3094C 38.3854 44.3094 38.3857 44.3094 38.3859 44.3094C 38.3862 44.3094 38.3864 44.3094 38.3867 44.3094C 38.3869 44.3094 38.3872 44.3094 38.3874 44.3094C 38.3877 44.3094 38.3879 44.3094 38.3882 44.3094C 38.3884 44.3094 38.3887 44.3094 38.3889 44.3094C 38.3892 44.3094 38.3894 44.3094 38.3897 44.3094C 38.3899 44.3094 38.3902 44.3094 38.3904 44.3094C 38.3907 44.3094 38.3909 44.3094 38.3912 44.3094C 38.3915 44.3094 38.3917 44.3094 38.392 44.3094C 38.3922 44.3094 38.3925 44.3094 38.3927 44.3094C 38.393 44.3094 38.3932 44.3094 38.3935 44.3094C 38.3937 44.3094 38.394 44.3094 38.3942 44.3094C 38.3945 44.3094 38.3947 44.3094 38.395 44.3094C 38.3952 44.3094 38.3955 44.3094 38.3957 44.3094C 38.396 44.3094 38.3962 44.3094 38.3965 44.3094C 38.3967 44.3094 38.397 44.3094 38.3972 44.3094C 38.3975 44.3094 38.3977 44.3094 38.398 44.3094C 38.3982 44.3094 38.3985 44.3094 38.3987 44.3094C 38.399 44.3094 38.3992 44.3094 38.3995 44.3094C 38.3997 44.3094 38.4 44.3094 38.4002 44.3094C 38.4005 44.3094 38.4007 44.3094 38.401 44.3094C 38.4013 44.3094 38.4015 44.3094 38.4018 44.3094C 38.402 44.3094 38.4023 44.3094 38.4025 44.3094C 38.4028 44.3094 38.403 44.3094 38.4033 44.3094C 38.4035 44.3094 38.4038 44.3094 38.404 44.3094C 38.4043 44.3094 38.4045 44.3094 38.4048 44.3094C 38.405 44.3094 38.4053 44.3094 38.4055 44.3094C 38.4058 44.3094 38.406 44.3094 38.4063 44.3094C 38.4065 44.3094 38.4068 44.3094 38.407 44.3094C 38.4073 44.3094 38.4075 44.3094 38.4078 44.3094C 38.408 44.3094 38.4083 44.3094 38.4085 44.3094C 38.4088 44.3094 38.409 44.3094 38.4093 44.3094C 38.4095 44.3094 38.4098 44.3094 38.41 44.3094C 38.4103 44.3094 38.4105 44.3094 38.4108 44.3094C 38.411 44.3094 38.4113 44.3094 38.4115 44.3094C 38.4118 44.3094 38.412 44.3094 38.4123 44.3094C 38.4125 44.3094 38.4128 44.3094 38.413 44.3094C 38.4133 44.3094 38.4135 44.3094 38.4138 44.3094C 38.414 44.3094 38.4143 44.3094 38.4145 44.3094C 38.4148 44.3094 38.415 44.3094 38.4153 44.3094C 38.4155 44.3094 38.4158 44.3094 38.416 44.3094C 38.4163 44.3094 38.4165 44.3094 38.4168 44.3094C 38.417 44.3094 38.4173 44.3094 38.4175 44.3094C 38.4178 44.3094 38.418 44.3094 38.4183 44.3094C 38.4185 44.3094 38.4188 44.3094 38.419 44.3094C 38.4193 44.3094 38.4195 44.3094 38.4198 44.3094C 38.42 44.3094 38.4203 44.3094 38.4205 44.3094C 38.4208 44.3094 38.421 44.3094 38.4213 44.3094C 38.4215 44.3094 38.4218 44.3094 38.422 44.3094C 38.4223 44.3094 38.4225 44.3094 38.4228 44.3094C 38.423 44.3094 38.4233 44.3094 38.4235 44.3094C 38.4238 44.3094 38.424 44.3094 38.4243 44.3094C 38.4245 44.3094 38.4248 44.3094 38.425 44.3094C 38.4253 44.3094 38.4255 44.3094 38.4258 44.3094C 38.426 44.3094 38.4263 44.3094 38.4265 44.3094C 38.4268 44.3094 38.427 44.3094 38.4273 44.3094C 38.4275 44.3094 38.4278 44.3094 38.428 44.3094C 38.4283 44.3094 38.4285 44.3094 38.4288 44.3094C 38.429 44.3094 38.4293 44.3094 38.4295 44.3094C 38.4298 44.3094 38.43 44.3094 38.4303 44.3094C 38.4305 44.3094 38.4308 44.3094 38.431 44.3094C 38.4313 44.3094 38.4315 44.3094 38.4318 44.3094C 38.432 44.3094 38.4323 44.3094 38.4325 44.3094C 38.4328 44.3094 38.433 44.3094 38.4333 44.3094C 38.4335 44.3094 38.4338 44.3094 38.434 44.3094C 38.4343 44.3094 38.4345 44.3094 38.4348 44.3094C 38.435 44.3094 38.4353 44.3094 38.4355 44.3094C 38.4358 44.3094 38.436 44.3094 38.4363 44.3094C 38.4365 44.3094 38.4368 44.3094 38.437 44.3094C 38.4373 44.3094 38.4375 44.3094 38.4377 44.3094C 38.438 44.3094 38.4382 44.3094 38.4385 44.3094C 38.4387 44.3094 38.439 44.3094 38.4392 44.3094C 38.4395 44.3094 38.4397 44.3094 38.44 44.3094C 38.4402 44.3094 38.4405 44.3094 38.4407 44.3094C 38.441 44.3094 38.4412 44.3094 38.4415 44.3094C 38.4417 44.3094 38.442 44.3094 38.4422 44.3094C 38.4425 44.3094 38.4427 44.3094 38.443 44.3094C 38.4432 44.3094 38.4435 44.3094 38.4437 44.3094C 38.444 44.3094 38.4442 44.3094 38.4445 44.3094C 38.4447 44.3094 38.445 44.3094 38.4452 44.3094C 38.4455 44.3094 38.4457 44.3094 38.446 44.3094C 38.4462 44.3094 38.4464 44.3094 38.4467 44.3094C 38.4469 44.3094 38.4472 44.3094 38.4474 44.3094C 38.4477 44.3094 38.4479 44.3094 38.4482 44.3094C 38.4484 44.3094 38.4487 44.3094 38.4489 44.3094C 38.4492 44.3094 38.4494 44.3094 38.4497 44.3094C 38.4499 44.3094 38.4502 44.3094 38.4504 44.3094C 38.4507 44.3094 38.4509 44.3094 38.4512 44.3094C 38.4514 44.3094 38.4517 44.3094 38.4519 44.3094C 38.4522 44.3094 38.4524 44.3094 38.4527 44.3094C 38.4529 44.3094 38.4531 44.3094 38.4534 44.3094C 38.4536 44.3094 38.4539 44.3094 38.4541 44.3094C 38.4544 44.3094 38.4546 44.3094 38.4549 44.3094C 38.4551 44.3094 38.4554 44.3094 38.4556 44.3094C 38.4559 44.3094 38.4561 44.3094 38.4564 44.3094C 38.4566 44.3094 38.4569 44.3094 38.4571 44.3094C 38.4574 44.3094 38.4576 44.3094 38.4579 44.3094C 38.4581 44.3094 38.4583 44.3094 38.4586 44.3094C 38.4588 44.3094 38.4591 44.3094 38.4593 44.3094C 38.4596 44.3094 38.4598 44.3094 38.4601 44.3094C 38.4603 44.3094 38.4606 44.3094 38.4608 44.3094C 38.4611 44.3094 38.4613 44.3094 38.4616 44.3094C 38.4618 44.3094 38.4621 44.3094 38.4623 44.3094C 38.4625 44.3094 38.4628 44.3094 38.463 44.3094C 38.4633 44.3094 38.4635 44.3094 38.4638 44.3094C 38.464 44.3094 38.4643 44.3094 38.4645 44.3094C 38.4648 44.3094 38.465 44.3094 38.4653 44.3094C 38.4655 44.3094 38.4658 44.3094 38.466 44.3094C 38.4663 44.3094 38.4665 44.3094 38.4667 44.3094C 38.467 44.3094 38.4672 44.3094 38.4675 44.3094C 38.4677 44.3094 38.468 44.3094 38.4682 44.3094C 38.4685 44.3094 38.4687 44.3094 38.469 44.3094C 38.4692 44.3094 38.4695 44.3094 38.4697 44.3094C 38.47 44.3094 38.4702 44.3094 38.4704 44.3094C 38.4707 44.3094 38.4709 44.3094 38.4712 44.3094C 38.4714 44.3094 38.4717 44.3094 38.4719 44.3094C 38.4722 44.3094 38.4724 44.3094 38.4727 44.3094C 38.4729 44.3094 38.4732 44.3094 38.4734 44.3094C 38.4736 44.3094 38.4739 44.3094 38.4741 44.3094C 38.4744 44.3094 38.4746 44.3094 38.4749 44.3094C 38.4751 44.3094 38.4754 44.3094 38.4756 44.3094C 38.4759 44.3094 38.4761 44.3094 38.4764 44.3094C 38.4766 44.3094 38.4768 44.3094 38.4771 44.3094C 38.4773 44.3094 38.4776 44.3094 38.4778 44.3094C 38.4781 44.3094 38.4783 44.3094 38.4786 44.3094C 38.4788 44.3094 38.4791 44.3094 38.4793 44.3094C 38.4795 44.3094 38.4798 44.3094 38.48 44.3094C 38.4803 44.3094 38.4805 44.3094 38.4808 44.3094C 38.481 44.3094 38.4813 44.3094 38.4815 44.3094C 38.4818 44.3094 38.482 44.3094 38.4822 44.3094C 38.4825 44.3094 38.4827 44.3094 38.483 44.3094C 38.4832 44.3094 38.4835 44.3094 38.4837 44.3094C 38.484 44.3094 38.4842 44.3094 38.4845 44.3094C 38.4847 44.3094 38.4849 44.3094 38.4852 44.3094C 38.4854 44.3094 38.4857 44.3094 38.4859 44.3094C 38.4862 44.3094 38.4864 44.3094 38.4867 44.3094C 38.4869 44.3094 38.4871 44.3094 38.4874 44.3094C 38.4876 44.3094 38.4879 44.3094 38.4881 44.3094C 38.4884 44.3094 38.4886 44.3094 38.4889 44.3094C 38.4891 44.3094 38.4894 44.3094 38.4896 44.3094C 38.4898 44.3094 38.4901 44.3094 38.4903 44.3094C 38.4906 44.3094 38.4908 44.3094 38.4911 44.3094C 38.4913 44.3094 38.4916 44.3094 38.4918 44.3094C 38.492 44.3094 38.4923 44.3094 38.4925 44.3094C 38.4928 44.3094 38.493 44.3094 38.4933 44.3094C 38.4935 44.3094 38.4938 44.3094 38.494 44.3094C 38.4942 44.3094 38.4945 44.3094 38.4947 44.3094C 38.495 44.3094 38.4952 44.3094 38.4955 44.3094C 38.4957 44.3094 38.496 44.3094 38.4962 44.3094C 38.4964 44.3094 38.4967 44.3094 38.4969 44.3094C 38.4972 44.3094 38.4974 44.3094 38.4977 44.3094C 38.4979 44.3094 38.4981 44.3094 38.4984 44.3094C 38.4986 44.3094 38.4989 44.3094 38.4991 44.3094C 38.4994 44.3094 38.4996 44.3094 38.4999 44.3094C 38.5001 44.3094 38.5003 44.3094 38.5006 44.3094C 38.5008 44.3094 38.5011 44.3094 38.5013 44.3094C 38.5016 44.3094 38.5018 44.3094 38.502 44.3094C 38.5023 44.3094 38.5025 44.3094 38.5028 44.3094C 38.503 44.3094 38.5033 44.3094 38.5035 44.3094C 38.5037 44.3094 38.504 44.3094 38.5042 44.3094C 38.5045 44.3094 38.5047 44.3094 38.505 44.3094C 38.5052 44.3094 38.5055 44.3094 38.5057 44.3094C 38.5059 44.3094 38.5062 44.3094 38.5064 44.3094C 38.5067 44.3094 38.5069 44.3094 38.5072 44.3094C 38.5074 44.3094 38.5076 44.3094 38.5079 44.3094C 38.5081 44.3094 38.5084 44.3094 38.5086 44.3094C 38.5089 44.3094 38.5091 44.3094 38.5093 44.3094C 38.5096 44.3094 38.5098 44.3094 38.5101 44.3094C 38.5103 44.3094 38.5105 44.3094 38.5108 44.3094C 38.511 44.3094 38.5113 44.3094 38.5115 44.3094C 38.5118 44.3094 38.512 44.3094 38.5122 44.3094C 38.5125 44.3094 38.5127 44.3094 38.513 44.3094C 38.5132 44.3094 38.5135 44.3094 38.5137 44.3094C 38.5139 44.3094 38.5142 44.3094 38.5144 44.3094C 38.5147 44.3094 38.5149 44.3094 38.5152 44.3094C 38.5154 44.3094 38.5156 44.3094 38.5159 44.3094C 38.5161 44.3094 38.5164 44.3094 38.5166 44.3094C 38.5168 44.3094 38.5171 44.3094 38.5173 44.3094C 38.5176 44.3094 38.5178 44.3094 38.5181 44.3094C 38.5183 44.3094 38.5185 44.3094 38.5188 44.3094C 38.519 44.3094 38.5193 44.3094 38.5195 44.3094C 38.5197 44.3094 38.52 44.3094 38.5202 44.3094C 38.5205 44.3094 38.5207 44.3094 38.521 44.3094C 38.5212 44.3094 38.5214 44.3094 38.5217 44.3094C 38.5219 44.3094 38.5222 44.3094 38.5224 44.3094C 38.5226 44.3094 38.5229 44.3094 38.5231 44.3094C 38.5234 44.3094 38.5236 44.3094 38.5239 44.3094C 38.5241 44.3094 38.5243 44.3094 38.5246 44.3094C 38.5248 44.3094 38.5251 44.3094 38.5253 44.3094C 38.5255 44.3094 38.5258 44.3094 38.526 44.3094C 38.5263 44.3094 38.5265 44.3094 38.5267 44.3094C 38.527 44.3094 38.5272 44.3094 38.5275 44.3094C 38.5277 44.3094 38.5279 44.3094 38.5282 44.3094C 38.5284 44.3094 38.5287 44.3094 38.5289 44.3094C 38.5291 44.3094 38.5294 44.3094 38.5296 44.3094C 38.5299 44.3094 38.5301 44.3094 38.5304 44.3094C 38.5306 44.3094 38.5308 44.3094 38.5311 44.3094C 38.5313 44.3094 38.5316 44.3094 38.5318 44.3094C 38.532 44.3094 38.5323 44.3094 38.5325 44.3094C 38.5328 44.3094 38.533 44.3094 38.5332 44.3094C 38.5335 44.3094 38.5337 44.3094 38.534 44.3094C 38.5342 44.3094 38.5344 44.3094 38.5347 44.3094C 38.5349 44.3094 38.5352 44.3094 38.5354 44.3094C 38.5356 44.3094 38.5359 44.3094 38.5361 44.3094C 38.5364 44.3094 38.5366 44.3094 38.5368 44.3094C 38.5371 44.3094 38.5373 44.3094 38.5375 44.3094C 38.5378 44.3094 38.538 44.3094 38.5383 44.3094C 38.5385 44.3094 38.5387 44.3094 38.539 44.3094C 38.5392 44.3094 38.5395 44.3094 38.5397 44.3094C 38.5399 44.3094 38.5402 44.3094 38.5404 44.3094C 38.5407 44.3094 38.5409 44.3094 38.5411 44.3094C 38.5414 44.3094 38.5416 44.3094 38.5419 44.3094C 38.5421 44.3094 38.5423 44.3094 38.5426 44.3094C 38.5428 44.3094 38.543 44.3094 38.5433 44.3094C 38.5435 44.3094 38.5438 44.3094 38.544 44.3094C 38.5442 44.3094 38.5445 44.3094 38.5447 44.3094C 38.545 44.3094 38.5452 44.3094 38.5454 44.3094C 38.5457 44.3094 38.5459 44.3094 38.5462 44.3094C 38.5464 44.3094 38.5466 44.3094 38.5469 44.3094C 38.5471 44.3094 38.5473 44.3094 38.5476 44.3094C 38.5478 44.3094 38.5481 44.3094 38.5483 44.3094C 38.5485 44.3094 38.5488 44.3094 38.549 44.3094C 38.5492 44.3094 38.5495 44.3094 38.5497 44.3094C 38.55 44.3094 38.5502 44.3094 38.5504 44.3094C 38.5507 44.3094 38.5509 44.3094 38.5512 44.3094C 38.5514 44.3094 38.5516 44.3094 38.5519 44.3094C 38.5521 44.3094 38.5523 44.3094 38.5526 44.3094C 38.5528 44.3094 38.5531 44.3094 38.5533 44.3094C 38.5535 44.3094 38.5538 44.3094 38.554 44.3094C 38.5542 44.3094 38.5545 44.3094 38.5547 44.3094C 38.555 44.3094 38.5552 44.3094 38.5554 44.3094C 38.5557 44.3094 38.5559 44.3094 38.5561 44.3094C 38.5564 44.3094 38.5566 44.3094 38.5568 44.3094C 38.5571 44.3094 38.5573 44.3094 38.5576 44.3094C 38.5578 44.3094 38.558 44.3094 38.5583 44.3094C 38.5585 44.3094 38.5587 44.3094 38.559 44.3094C 38.5592 44.3094 38.5595 44.3094 38.5597 44.3094C 38.5599 44.3094 38.5602 44.3094 38.5604 44.3094C 38.5606 44.3094 38.5609 44.3094 38.5611 44.3094C 38.5613 44.3094 38.5616 44.3094 38.5618 44.3094C 38.5621 44.3094 38.5623 44.3094 38.5625 44.3094C 38.5628 44.3094 38.563 44.3094 38.5632 44.3094C 38.5635 44.3094 38.5637 44.3094 38.5639 44.3094C 38.5642 44.3094 38.5644 44.3094 38.5647 44.3094C 38.5649 44.3094 38.5651 44.3094 38.5654 44.3094C 38.5656 44.3094 38.5658 44.3094 38.5661 44.3094C 38.5663 44.3094 38.5665 44.3094 38.5668 44.3094C 38.567 44.3094 38.5672 44.3094 38.5675 44.3094C 38.5677 44.3094 38.568 44.3094 38.5682 44.3094C 38.5684 44.3094 38.5687 44.3094 38.5689 44.3094C 38.5691 44.3094 38.5694 44.3094 38.5696 44.3094C 38.5698 44.3094 38.5701 44.3094 38.5703 44.3094C 38.5705 44.3094 38.5708 44.3094 38.571 44.3094C 38.5712 44.3094 38.5715 44.3094 38.5717 44.3094C 38.572 44.3094 38.5722 44.3094 38.5724 44.3094C 38.5727 44.3094 38.5729 44.3094 38.5731 44.3094C 38.5734 44.3094 38.5736 44.3094 38.5738 44.3094C 38.5741 44.3094 38.5743 44.3094 38.5745 44.3094C 38.5748 44.3094 38.575 44.3094 38.5752 44.3094C 38.5755 44.3094 38.5757 44.3094 38.5759 44.3094C 38.5762 44.3094 38.5764 44.3094 38.5766 44.3094C 38.5769 44.3094 38.5771 44.3094 38.5773 44.3094C 38.5776 44.3094 38.5778 44.3094 38.578 44.3094C 38.5783 44.3094 38.5785 44.3094 38.5787 44.3094C 38.579 44.3094 38.5792 44.3094 38.5794 44.3094C 38.5797 44.3094 38.5799 44.3094 38.5802 44.3094C 38.5804 44.3094 38.5806 44.3094 38.5809 44.3094C 38.5811 44.3094 38.5813 44.3094 38.5816 44.3094C 38.5818 44.3094 38.582 44.3094 38.5823 44.3094C 38.5825 44.3094 38.5827 44.3094 38.583 44.3094C 38.5832 44.3094 38.5834 44.3094 38.5837 44.3094C 38.5839 44.3094 38.5841 44.3094 38.5844 44.3094C 38.5846 44.3094 38.5848 44.3094 38.5851 44.3094C 38.5853 44.3094 38.5855 44.3094 38.5858 44.3094C 38.586 44.3094 38.5862 44.3094 38.5864 44.3094C 38.5867 44.3094 38.5869 44.3094 38.5871 44.3094C 38.5874 44.3094 38.5876 44.3094 38.5878 44.3094C 38.5881 44.3094 38.5883 44.3094 38.5885 44.3094C 38.5888 44.3094 38.589 44.3094 38.5892 44.3094C 38.5895 44.3094 38.5897 44.3094 38.5899 44.3094C 38.5902 44.3094 38.5904 44.3094 38.5906 44.3094C 38.5909 44.3094 38.5911 44.3094 38.5913 44.3094C 38.5916 44.3094 38.5918 44.3094 38.592 44.3094C 38.5923 44.3094 38.5925 44.3094 38.5927 44.3094C 38.593 44.3094 38.5932 44.3094 38.5934 44.3094C 38.5936 44.3094 38.5939 44.3094 38.5941 44.3094C 38.5943 44.3094 38.5946 44.3094 38.5948 44.3094C 38.595 44.3094 38.5953 44.3094 38.5955 44.3094C 38.5957 44.3094 38.596 44.3094 38.5962 44.3094C 38.5964 44.3094 38.5967 44.3094 38.5969 44.3094C 38.5971 44.3094 38.5973 44.3094 38.5976 44.3094C 38.5978 44.3094 38.598 44.3094 38.5983 44.3094C 38.5985 44.3094 38.5987 44.3094 38.599 44.3094C 38.5992 44.3094 38.5994 44.3094 38.5997 44.3094C 38.5999 44.3094 38.6001 44.3094 38.6003 44.3094C 38.6006 44.3094 38.6008 44.3094 38.601 44.3094C 38.6013 44.3094 38.6015 44.3094 38.6017 44.3094C 38.602 44.3094 38.6022 44.3094 38.6024 44.3094C 38.6027 44.3094 38.6029 44.3094 38.6031 44.3094C 38.6033 44.3094 38.6036 44.3094 38.6038 44.3094C 38.604 44.3094 38.6043 44.3094 38.6045 44.3094C 38.6047 44.3094 38.605 44.3094 38.6052 44.3094C 38.6054 44.3094 38.6056 44.3094 38.6059 44.3094C 38.6061 44.3094 38.6063 44.3094 38.6066 44.3094C 38.6068 44.3094 38.607 44.3094 38.6072 44.3094C 38.6075 44.3094 38.6077 44.3094 38.6079 44.3094C 38.6082 44.3094 38.6084 44.3094 38.6086 44.3094C 38.6089 44.3094 38.6091 44.3094 38.6093 44.3094C 38.6095 44.3094 38.6098 44.3094 38.61 44.3094C 38.6102 44.3094 38.6105 44.3094 38.6107 44.3094C 38.6109 44.3094 38.6111 44.3094 38.6114 44.3094C 38.6116 44.3094 38.6118 44.3094 38.6121 44.3094C 38.6123 44.3094 38.6125 44.3094 38.6127 44.3094C 38.613 44.3094 38.6132 44.3094 38.6134 44.3094C 38.6137 44.3094 38.6139 44.3094 38.6141 44.3094C 38.6143 44.3094 38.6146 44.3094 38.6148 44.3094C 38.615 44.3094 38.6153 44.3094 38.6155 44.3094C 38.6157 44.3094 38.6159 44.3094 38.6162 44.3094C 38.6164 44.3094 38.6166 44.3094 38.6169 44.3094C 38.6171 44.3094 38.6173 44.3094 38.6175 44.3094C 38.6178 44.3094 38.618 44.3094 38.6182 44.3094C 38.6184 44.3094 38.6187 44.3094 38.6189 44.3094C 38.6191 44.3094 38.6194 44.3094 38.6196 44.3094C 38.6198 44.3094 38.62 44.3094 38.6203 44.3094C 38.6205 44.3094 38.6207 44.3094 38.6209 44.3094C 38.6212 44.3094 38.6214 44.3094 38.6216 44.3094C 38.6219 44.3094 38.6221 44.3094 38.6223 44.3094C 38.6225 44.3094 38.6228 44.3094 38.623 44.3094C 38.6232 44.3094 38.6234 44.3094 38.6237 44.3094C 38.6239 44.3094 38.6241 44.3094 38.6243 44.3094C 38.6246 44.3094 38.6248 44.3094 38.625 44.3094C 38.6253 44.3094 38.6255 44.3094 38.6257 44.3094C 38.6259 44.3094 38.6262 44.3094 38.6264 44.3094C 38.6266 44.3094 38.6268 44.3094 38.6271 44.3094C 38.6273 44.3094 38.6275 44.3094 38.6277 44.3094C 38.628 44.3094 38.6282 44.3094 38.6284 44.3094C 38.6286 44.3094 38.6289 44.3094 38.6291 44.3094C 38.6293 44.3094 38.6295 44.3094 38.6298 44.3094C 38.63 44.3094 38.6302 44.3094 38.6304 44.3094C 38.6307 44.3094 38.6309 44.3094 38.6311 44.3094C 38.6313 44.3094 38.6316 44.3094 38.6318 44.3094C 38.632 44.3094 38.6322 44.3094 38.6325 44.3094C 38.6327 44.3094 38.6329 44.3094 38.6331 44.3094C 38.6334 44.3094 38.6336 44.3094 38.6338 44.3094C 38.634 44.3094 38.6343 44.3094 38.6345 44.3094C 38.6347 44.3094 38.6349 44.3094 38.6352 44.3094C 38.6354 44.3094 38.6356 44.3094 38.6358 44.3094C 38.6361 44.3094 38.6363 44.3094 38.6365 44.3094C 38.6367 44.3094 38.637 44.3094 38.6372 44.3094C 38.6374 44.3094 38.6376 44.3094 38.6379 44.3094C 38.6381 44.3094 38.6383 44.3094 38.6385 44.3094C 38.6388 44.3094 38.639 44.3094 38.6392 44.3094C 38.6394 44.3094 38.6397 44.3094 38.6399 44.3094C 38.6401 44.3094 38.6403 44.3094 38.6405 44.3094C 38.6408 44.3094 38.641 44.3094 38.6412 44.3094C 38.6414 44.3094 38.6417 44.3094 38.6419 44.3094C 38.6421 44.3094 38.6423 44.3094 38.6426 44.3094C 38.6428 44.3094 38.643 44.3094 38.6432 44.3094C 38.6434 44.3094 38.6437 44.3094 38.6439 44.3094C 38.6441 44.3094 38.6443 44.3094 38.6446 44.3094C 38.6448 44.3094 38.645 44.3094 38.6452 44.3094C 38.6455 44.3094 38.6457 44.3094 38.6459 44.3094C 38.6461 44.3094 38.6463 44.3094 38.6466 44.3094C 38.6468 44.3094 38.647 44.3094 38.6472 44.3094C 38.6475 44.3094 38.6477 44.3094 38.6479 44.3094C 38.6481 44.3094 38.6483 44.3094 38.6486 44.3094C 38.6488 44.3094 38.649 44.3094 38.6492 44.3094C 38.6494 44.3094 38.6497 44.3094 38.6499 44.3094C 38.6501 44.3094 38.6503 44.3094 38.6506 44.3094C 38.6508 44.3094 38.651 44.3094 38.6512 44.3094C 38.6514 44.3094 38.6517 44.3094 38.6519 44.3094C 38.6521 44.3094 38.6523 44.3094 38.6525 44.3094C 38.6528 44.3094 38.653 44.3094 38.6532 44.3094C 38.6534 44.3094 38.6537 44.3094 38.6539 44.3094C 38.6541 44.3094 38.6543 44.3094 38.6545 44.3094C 38.6548 44.3094 38.655 44.3094 38.6552 44.3094C 38.6554 44.3094 38.6556 44.3094 38.6559 44.3094C 38.6561 44.3094 38.6563 44.3094 38.6565 44.3094C 38.6567 44.3094 38.657 44.3094 38.6572 44.3094C 38.6574 44.3094 38.6576 44.3094 38.6578 44.3094C 38.6581 44.3094 38.6583 44.3094 38.6585 44.3094C 38.6587 44.3094 38.6589 44.3094 38.6592 44.3094C 38.6594 44.3094 38.6596 44.3094 38.6598 44.3094C 38.66 44.3094 38.6603 44.3094 38.6605 44.3094C 38.6607 44.3094 38.6609 44.3094 38.6611 44.3094C 38.6614 44.3094 38.6616 44.3094 38.6618 44.3094C 38.662 44.3094 38.6622 44.3094 38.6625 44.3094C 38.6627 44.3094 38.6629 44.3094 38.6631 44.3094C 38.6633 44.3094 38.6635 44.3094 38.6638 44.3094C 38.664 44.3094 38.6642 44.3094 38.6644 44.3094C 38.6646 44.3094 38.6649 44.3094 38.6651 44.3094C 38.6653 44.3094 38.6655 44.3094 38.6657 44.3094C 38.666 44.3094 38.6662 44.3094 38.6664 44.3094C 38.6666 44.3094 38.6668 44.3094 38.667 44.3094C 38.6673 44.3094 38.6675 44.3094 38.6677 44.3094C 38.6679 44.3094 38.6681 44.3094 38.6684 44.3094C 38.6686 44.3094 38.6688 44.3094 38.669 44.3094C 38.6692 44.3094 38.6694 44.3094 38.6697 44.3094C 38.6699 44.3094 38.6701 44.3094 38.6703 44.3094C 38.6705 44.3094 38.6707 44.3094 38.671 44.3094L 38.671 41.3094C 38.6707 41.3094 38.6705 41.3094 38.6703 41.3094C 38.6701 41.3094 38.6699 41.3094 38.6697 41.3094C 38.6694 41.3094 38.6692 41.3094 38.669 41.3094C 38.6688 41.3094 38.6686 41.3094 38.6684 41.3094C 38.6681 41.3094 38.6679 41.3094 38.6677 41.3094C 38.6675 41.3094 38.6673 41.3094 38.667 41.3094C 38.6668 41.3094 38.6666 41.3094 38.6664 41.3094C 38.6662 41.3094 38.666 41.3094 38.6657 41.3094C 38.6655 41.3094 38.6653 41.3094 38.6651 41.3094C 38.6649 41.3094 38.6646 41.3094 38.6644 41.3094C 38.6642 41.3094 38.664 41.3094 38.6638 41.3094C 38.6635 41.3094 38.6633 41.3094 38.6631 41.3094C 38.6629 41.3094 38.6627 41.3094 38.6625 41.3094C 38.6622 41.3094 38.662 41.3094 38.6618 41.3094C 38.6616 41.3094 38.6614 41.3094 38.6611 41.3094C 38.6609 41.3094 38.6607 41.3094 38.6605 41.3094C 38.6603 41.3094 38.66 41.3094 38.6598 41.3094C 38.6596 41.3094 38.6594 41.3094 38.6592 41.3094C 38.6589 41.3094 38.6587 41.3094 38.6585 41.3094C 38.6583 41.3094 38.6581 41.3094 38.6578 41.3094C 38.6576 41.3094 38.6574 41.3094 38.6572 41.3094C 38.657 41.3094 38.6567 41.3094 38.6565 41.3094C 38.6563 41.3094 38.6561 41.3094 38.6559 41.3094C 38.6556 41.3094 38.6554 41.3094 38.6552 41.3094C 38.655 41.3094 38.6548 41.3094 38.6545 41.3094C 38.6543 41.3094 38.6541 41.3094 38.6539 41.3094C 38.6537 41.3094 38.6534 41.3094 38.6532 41.3094C 38.653 41.3094 38.6528 41.3094 38.6525 41.3094C 38.6523 41.3094 38.6521 41.3094 38.6519 41.3094C 38.6517 41.3094 38.6514 41.3094 38.6512 41.3094C 38.651 41.3094 38.6508 41.3094 38.6506 41.3094C 38.6503 41.3094 38.6501 41.3094 38.6499 41.3094C 38.6497 41.3094 38.6494 41.3094 38.6492 41.3094C 38.649 41.3094 38.6488 41.3094 38.6486 41.3094C 38.6483 41.3094 38.6481 41.3094 38.6479 41.3094C 38.6477 41.3094 38.6475 41.3094 38.6472 41.3094C 38.647 41.3094 38.6468 41.3094 38.6466 41.3094C 38.6463 41.3094 38.6461 41.3094 38.6459 41.3094C 38.6457 41.3094 38.6455 41.3094 38.6452 41.3094C 38.645 41.3094 38.6448 41.3094 38.6446 41.3094C 38.6443 41.3094 38.6441 41.3094 38.6439 41.3094C 38.6437 41.3094 38.6434 41.3094 38.6432 41.3094C 38.643 41.3094 38.6428 41.3094 38.6426 41.3094C 38.6423 41.3094 38.6421 41.3094 38.6419 41.3094C 38.6417 41.3094 38.6414 41.3094 38.6412 41.3094C 38.641 41.3094 38.6408 41.3094 38.6405 41.3094C 38.6403 41.3094 38.6401 41.3094 38.6399 41.3094C 38.6397 41.3094 38.6394 41.3094 38.6392 41.3094C 38.639 41.3094 38.6388 41.3094 38.6385 41.3094C 38.6383 41.3094 38.6381 41.3094 38.6379 41.3094C 38.6376 41.3094 38.6374 41.3094 38.6372 41.3094C 38.637 41.3094 38.6367 41.3094 38.6365 41.3094C 38.6363 41.3094 38.6361 41.3094 38.6358 41.3094C 38.6356 41.3094 38.6354 41.3094 38.6352 41.3094C 38.6349 41.3094 38.6347 41.3094 38.6345 41.3094C 38.6343 41.3094 38.634 41.3094 38.6338 41.3094C 38.6336 41.3094 38.6334 41.3094 38.6331 41.3094C 38.6329 41.3094 38.6327 41.3094 38.6325 41.3094C 38.6322 41.3094 38.632 41.3094 38.6318 41.3094C 38.6316 41.3094 38.6313 41.3094 38.6311 41.3094C 38.6309 41.3094 38.6307 41.3094 38.6304 41.3094C 38.6302 41.3094 38.63 41.3094 38.6298 41.3094C 38.6295 41.3094 38.6293 41.3094 38.6291 41.3094C 38.6289 41.3094 38.6286 41.3094 38.6284 41.3094C 38.6282 41.3094 38.628 41.3094 38.6277 41.3094C 38.6275 41.3094 38.6273 41.3094 38.6271 41.3094C 38.6268 41.3094 38.6266 41.3094 38.6264 41.3094C 38.6262 41.3094 38.6259 41.3094 38.6257 41.3094C 38.6255 41.3094 38.6253 41.3094 38.625 41.3094C 38.6248 41.3094 38.6246 41.3094 38.6243 41.3094C 38.6241 41.3094 38.6239 41.3094 38.6237 41.3094C 38.6234 41.3094 38.6232 41.3094 38.623 41.3094C 38.6228 41.3094 38.6225 41.3094 38.6223 41.3094C 38.6221 41.3094 38.6219 41.3094 38.6216 41.3094C 38.6214 41.3094 38.6212 41.3094 38.6209 41.3094C 38.6207 41.3094 38.6205 41.3094 38.6203 41.3094C 38.62 41.3094 38.6198 41.3094 38.6196 41.3094C 38.6194 41.3094 38.6191 41.3094 38.6189 41.3094C 38.6187 41.3094 38.6184 41.3094 38.6182 41.3094C 38.618 41.3094 38.6178 41.3094 38.6175 41.3094C 38.6173 41.3094 38.6171 41.3094 38.6169 41.3094C 38.6166 41.3094 38.6164 41.3094 38.6162 41.3094C 38.6159 41.3094 38.6157 41.3094 38.6155 41.3094C 38.6153 41.3094 38.615 41.3094 38.6148 41.3094C 38.6146 41.3094 38.6143 41.3094 38.6141 41.3094C 38.6139 41.3094 38.6137 41.3094 38.6134 41.3094C 38.6132 41.3094 38.613 41.3094 38.6127 41.3094C 38.6125 41.3094 38.6123 41.3094 38.6121 41.3094C 38.6118 41.3094 38.6116 41.3094 38.6114 41.3094C 38.6111 41.3094 38.6109 41.3094 38.6107 41.3094C 38.6105 41.3094 38.6102 41.3094 38.61 41.3094C 38.6098 41.3094 38.6095 41.3094 38.6093 41.3094C 38.6091 41.3094 38.6089 41.3094 38.6086 41.3094C 38.6084 41.3094 38.6082 41.3094 38.6079 41.3094C 38.6077 41.3094 38.6075 41.3094 38.6072 41.3094C 38.607 41.3094 38.6068 41.3094 38.6066 41.3094C 38.6063 41.3094 38.6061 41.3094 38.6059 41.3094C 38.6056 41.3094 38.6054 41.3094 38.6052 41.3094C 38.605 41.3094 38.6047 41.3094 38.6045 41.3094C 38.6043 41.3094 38.604 41.3094 38.6038 41.3094C 38.6036 41.3094 38.6033 41.3094 38.6031 41.3094C 38.6029 41.3094 38.6027 41.3094 38.6024 41.3094C 38.6022 41.3094 38.602 41.3094 38.6017 41.3094C 38.6015 41.3094 38.6013 41.3094 38.601 41.3094C 38.6008 41.3094 38.6006 41.3094 38.6003 41.3094C 38.6001 41.3094 38.5999 41.3094 38.5997 41.3094C 38.5994 41.3094 38.5992 41.3094 38.599 41.3094C 38.5987 41.3094 38.5985 41.3094 38.5983 41.3094C 38.598 41.3094 38.5978 41.3094 38.5976 41.3094C 38.5973 41.3094 38.5971 41.3094 38.5969 41.3094C 38.5967 41.3094 38.5964 41.3094 38.5962 41.3094C 38.596 41.3094 38.5957 41.3094 38.5955 41.3094C 38.5953 41.3094 38.595 41.3094 38.5948 41.3094C 38.5946 41.3094 38.5943 41.3094 38.5941 41.3094C 38.5939 41.3094 38.5936 41.3094 38.5934 41.3094C 38.5932 41.3094 38.593 41.3094 38.5927 41.3094C 38.5925 41.3094 38.5923 41.3094 38.592 41.3094C 38.5918 41.3094 38.5916 41.3094 38.5913 41.3094C 38.5911 41.3094 38.5909 41.3094 38.5906 41.3094C 38.5904 41.3094 38.5902 41.3094 38.5899 41.3094C 38.5897 41.3094 38.5895 41.3094 38.5892 41.3094C 38.589 41.3094 38.5888 41.3094 38.5885 41.3094C 38.5883 41.3094 38.5881 41.3094 38.5878 41.3094C 38.5876 41.3094 38.5874 41.3094 38.5871 41.3094C 38.5869 41.3094 38.5867 41.3094 38.5864 41.3094C 38.5862 41.3094 38.586 41.3094 38.5858 41.3094C 38.5855 41.3094 38.5853 41.3094 38.5851 41.3094C 38.5848 41.3094 38.5846 41.3094 38.5844 41.3094C 38.5841 41.3094 38.5839 41.3094 38.5837 41.3094C 38.5834 41.3094 38.5832 41.3094 38.583 41.3094C 38.5827 41.3094 38.5825 41.3094 38.5823 41.3094C 38.582 41.3094 38.5818 41.3094 38.5816 41.3094C 38.5813 41.3094 38.5811 41.3094 38.5809 41.3094C 38.5806 41.3094 38.5804 41.3094 38.5802 41.3094C 38.5799 41.3094 38.5797 41.3094 38.5794 41.3094C 38.5792 41.3094 38.579 41.3094 38.5787 41.3094C 38.5785 41.3094 38.5783 41.3094 38.578 41.3094C 38.5778 41.3094 38.5776 41.3094 38.5773 41.3094C 38.5771 41.3094 38.5769 41.3094 38.5766 41.3094C 38.5764 41.3094 38.5762 41.3094 38.5759 41.3094C 38.5757 41.3094 38.5755 41.3094 38.5752 41.3094C 38.575 41.3094 38.5748 41.3094 38.5745 41.3094C 38.5743 41.3094 38.5741 41.3094 38.5738 41.3094C 38.5736 41.3094 38.5734 41.3094 38.5731 41.3094C 38.5729 41.3094 38.5727 41.3094 38.5724 41.3094C 38.5722 41.3094 38.572 41.3094 38.5717 41.3094C 38.5715 41.3094 38.5712 41.3094 38.571 41.3094C 38.5708 41.3094 38.5705 41.3094 38.5703 41.3094C 38.5701 41.3094 38.5698 41.3094 38.5696 41.3094C 38.5694 41.3094 38.5691 41.3094 38.5689 41.3094C 38.5687 41.3094 38.5684 41.3094 38.5682 41.3094C 38.568 41.3094 38.5677 41.3094 38.5675 41.3094C 38.5672 41.3094 38.567 41.3094 38.5668 41.3094C 38.5665 41.3094 38.5663 41.3094 38.5661 41.3094C 38.5658 41.3094 38.5656 41.3094 38.5654 41.3094C 38.5651 41.3094 38.5649 41.3094 38.5647 41.3094C 38.5644 41.3094 38.5642 41.3094 38.5639 41.3094C 38.5637 41.3094 38.5635 41.3094 38.5632 41.3094C 38.563 41.3094 38.5628 41.3094 38.5625 41.3094C 38.5623 41.3094 38.5621 41.3094 38.5618 41.3094C 38.5616 41.3094 38.5613 41.3094 38.5611 41.3094C 38.5609 41.3094 38.5606 41.3094 38.5604 41.3094C 38.5602 41.3094 38.5599 41.3094 38.5597 41.3094C 38.5595 41.3094 38.5592 41.3094 38.559 41.3094C 38.5587 41.3094 38.5585 41.3094 38.5583 41.3094C 38.558 41.3094 38.5578 41.3094 38.5576 41.3094C 38.5573 41.3094 38.5571 41.3094 38.5568 41.3094C 38.5566 41.3094 38.5564 41.3094 38.5561 41.3094C 38.5559 41.3094 38.5557 41.3094 38.5554 41.3094C 38.5552 41.3094 38.555 41.3094 38.5547 41.3094C 38.5545 41.3094 38.5542 41.3094 38.554 41.3094C 38.5538 41.3094 38.5535 41.3094 38.5533 41.3094C 38.5531 41.3094 38.5528 41.3094 38.5526 41.3094C 38.5523 41.3094 38.5521 41.3094 38.5519 41.3094C 38.5516 41.3094 38.5514 41.3094 38.5512 41.3094C 38.5509 41.3094 38.5507 41.3094 38.5504 41.3094C 38.5502 41.3094 38.55 41.3094 38.5497 41.3094C 38.5495 41.3094 38.5492 41.3094 38.549 41.3094C 38.5488 41.3094 38.5485 41.3094 38.5483 41.3094C 38.5481 41.3094 38.5478 41.3094 38.5476 41.3094C 38.5473 41.3094 38.5471 41.3094 38.5469 41.3094C 38.5466 41.3094 38.5464 41.3094 38.5462 41.3094C 38.5459 41.3094 38.5457 41.3094 38.5454 41.3094C 38.5452 41.3094 38.545 41.3094 38.5447 41.3094C 38.5445 41.3094 38.5442 41.3094 38.544 41.3094C 38.5438 41.3094 38.5435 41.3094 38.5433 41.3094C 38.543 41.3094 38.5428 41.3094 38.5426 41.3094C 38.5423 41.3094 38.5421 41.3094 38.5419 41.3094C 38.5416 41.3094 38.5414 41.3094 38.5411 41.3094C 38.5409 41.3094 38.5407 41.3094 38.5404 41.3094C 38.5402 41.3094 38.5399 41.3094 38.5397 41.3094C 38.5395 41.3094 38.5392 41.3094 38.539 41.3094C 38.5387 41.3094 38.5385 41.3094 38.5383 41.3094C 38.538 41.3094 38.5378 41.3094 38.5375 41.3094C 38.5373 41.3094 38.5371 41.3094 38.5368 41.3094C 38.5366 41.3094 38.5364 41.3094 38.5361 41.3094C 38.5359 41.3094 38.5356 41.3094 38.5354 41.3094C 38.5352 41.3094 38.5349 41.3094 38.5347 41.3094C 38.5344 41.3094 38.5342 41.3094 38.534 41.3094C 38.5337 41.3094 38.5335 41.3094 38.5332 41.3094C 38.533 41.3094 38.5328 41.3094 38.5325 41.3094C 38.5323 41.3094 38.532 41.3094 38.5318 41.3094C 38.5316 41.3094 38.5313 41.3094 38.5311 41.3094C 38.5308 41.3094 38.5306 41.3094 38.5304 41.3094C 38.5301 41.3094 38.5299 41.3094 38.5296 41.3094C 38.5294 41.3094 38.5291 41.3094 38.5289 41.3094C 38.5287 41.3094 38.5284 41.3094 38.5282 41.3094C 38.5279 41.3094 38.5277 41.3094 38.5275 41.3094C 38.5272 41.3094 38.527 41.3094 38.5267 41.3094C 38.5265 41.3094 38.5263 41.3094 38.526 41.3094C 38.5258 41.3094 38.5255 41.3094 38.5253 41.3094C 38.5251 41.3094 38.5248 41.3094 38.5246 41.3094C 38.5243 41.3094 38.5241 41.3094 38.5239 41.3094C 38.5236 41.3094 38.5234 41.3094 38.5231 41.3094C 38.5229 41.3094 38.5226 41.3094 38.5224 41.3094C 38.5222 41.3094 38.5219 41.3094 38.5217 41.3094C 38.5214 41.3094 38.5212 41.3094 38.521 41.3094C 38.5207 41.3094 38.5205 41.3094 38.5202 41.3094C 38.52 41.3094 38.5197 41.3094 38.5195 41.3094C 38.5193 41.3094 38.519 41.3094 38.5188 41.3094C 38.5185 41.3094 38.5183 41.3094 38.5181 41.3094C 38.5178 41.3094 38.5176 41.3094 38.5173 41.3094C 38.5171 41.3094 38.5168 41.3094 38.5166 41.3094C 38.5164 41.3094 38.5161 41.3094 38.5159 41.3094C 38.5156 41.3094 38.5154 41.3094 38.5152 41.3094C 38.5149 41.3094 38.5147 41.3094 38.5144 41.3094C 38.5142 41.3094 38.5139 41.3094 38.5137 41.3094C 38.5135 41.3094 38.5132 41.3094 38.513 41.3094C 38.5127 41.3094 38.5125 41.3094 38.5122 41.3094C 38.512 41.3094 38.5118 41.3094 38.5115 41.3094C 38.5113 41.3094 38.511 41.3094 38.5108 41.3094C 38.5105 41.3094 38.5103 41.3094 38.5101 41.3094C 38.5098 41.3094 38.5096 41.3094 38.5093 41.3094C 38.5091 41.3094 38.5089 41.3094 38.5086 41.3094C 38.5084 41.3094 38.5081 41.3094 38.5079 41.3094C 38.5076 41.3094 38.5074 41.3094 38.5072 41.3094C 38.5069 41.3094 38.5067 41.3094 38.5064 41.3094C 38.5062 41.3094 38.5059 41.3094 38.5057 41.3094C 38.5055 41.3094 38.5052 41.3094 38.505 41.3094C 38.5047 41.3094 38.5045 41.3094 38.5042 41.3094C 38.504 41.3094 38.5037 41.3094 38.5035 41.3094C 38.5033 41.3094 38.503 41.3094 38.5028 41.3094C 38.5025 41.3094 38.5023 41.3094 38.502 41.3094C 38.5018 41.3094 38.5016 41.3094 38.5013 41.3094C 38.5011 41.3094 38.5008 41.3094 38.5006 41.3094C 38.5003 41.3094 38.5001 41.3094 38.4999 41.3094C 38.4996 41.3094 38.4994 41.3094 38.4991 41.3094C 38.4989 41.3094 38.4986 41.3094 38.4984 41.3094C 38.4981 41.3094 38.4979 41.3094 38.4977 41.3094C 38.4974 41.3094 38.4972 41.3094 38.4969 41.3094C 38.4967 41.3094 38.4964 41.3094 38.4962 41.3094C 38.496 41.3094 38.4957 41.3094 38.4955 41.3094C 38.4952 41.3094 38.495 41.3094 38.4947 41.3094C 38.4945 41.3094 38.4942 41.3094 38.494 41.3094C 38.4938 41.3094 38.4935 41.3094 38.4933 41.3094C 38.493 41.3094 38.4928 41.3094 38.4925 41.3094C 38.4923 41.3094 38.492 41.3094 38.4918 41.3094C 38.4916 41.3094 38.4913 41.3094 38.4911 41.3094C 38.4908 41.3094 38.4906 41.3094 38.4903 41.3094C 38.4901 41.3094 38.4898 41.3094 38.4896 41.3094C 38.4894 41.3094 38.4891 41.3094 38.4889 41.3094C 38.4886 41.3094 38.4884 41.3094 38.4881 41.3094C 38.4879 41.3094 38.4876 41.3094 38.4874 41.3094C 38.4871 41.3094 38.4869 41.3094 38.4867 41.3094C 38.4864 41.3094 38.4862 41.3094 38.4859 41.3094C 38.4857 41.3094 38.4854 41.3094 38.4852 41.3094C 38.4849 41.3094 38.4847 41.3094 38.4845 41.3094C 38.4842 41.3094 38.484 41.3094 38.4837 41.3094C 38.4835 41.3094 38.4832 41.3094 38.483 41.3094C 38.4827 41.3094 38.4825 41.3094 38.4822 41.3094C 38.482 41.3094 38.4818 41.3094 38.4815 41.3094C 38.4813 41.3094 38.481 41.3094 38.4808 41.3094C 38.4805 41.3094 38.4803 41.3094 38.48 41.3094C 38.4798 41.3094 38.4795 41.3094 38.4793 41.3094C 38.4791 41.3094 38.4788 41.3094 38.4786 41.3094C 38.4783 41.3094 38.4781 41.3094 38.4778 41.3094C 38.4776 41.3094 38.4773 41.3094 38.4771 41.3094C 38.4768 41.3094 38.4766 41.3094 38.4764 41.3094C 38.4761 41.3094 38.4759 41.3094 38.4756 41.3094C 38.4754 41.3094 38.4751 41.3094 38.4749 41.3094C 38.4746 41.3094 38.4744 41.3094 38.4741 41.3094C 38.4739 41.3094 38.4736 41.3094 38.4734 41.3094C 38.4732 41.3094 38.4729 41.3094 38.4727 41.3094C 38.4724 41.3094 38.4722 41.3094 38.4719 41.3094C 38.4717 41.3094 38.4714 41.3094 38.4712 41.3094C 38.4709 41.3094 38.4707 41.3094 38.4704 41.3094C 38.4702 41.3094 38.47 41.3094 38.4697 41.3094C 38.4695 41.3094 38.4692 41.3094 38.469 41.3094C 38.4687 41.3094 38.4685 41.3094 38.4682 41.3094C 38.468 41.3094 38.4677 41.3094 38.4675 41.3094C 38.4672 41.3094 38.467 41.3094 38.4667 41.3094C 38.4665 41.3094 38.4663 41.3094 38.466 41.3094C 38.4658 41.3094 38.4655 41.3094 38.4653 41.3094C 38.465 41.3094 38.4648 41.3094 38.4645 41.3094C 38.4643 41.3094 38.464 41.3094 38.4638 41.3094C 38.4635 41.3094 38.4633 41.3094 38.463 41.3094C 38.4628 41.3094 38.4625 41.3094 38.4623 41.3094C 38.4621 41.3094 38.4618 41.3094 38.4616 41.3094C 38.4613 41.3094 38.4611 41.3094 38.4608 41.3094C 38.4606 41.3094 38.4603 41.3094 38.4601 41.3094C 38.4598 41.3094 38.4596 41.3094 38.4593 41.3094C 38.4591 41.3094 38.4588 41.3094 38.4586 41.3094C 38.4583 41.3094 38.4581 41.3094 38.4579 41.3094C 38.4576 41.3094 38.4574 41.3094 38.4571 41.3094C 38.4569 41.3094 38.4566 41.3094 38.4564 41.3094C 38.4561 41.3094 38.4559 41.3094 38.4556 41.3094C 38.4554 41.3094 38.4551 41.3094 38.4549 41.3094C 38.4546 41.3094 38.4544 41.3094 38.4541 41.3094C 38.4539 41.3094 38.4536 41.3094 38.4534 41.3094C 38.4531 41.3094 38.4529 41.3094 38.4527 41.3094C 38.4524 41.3094 38.4522 41.3094 38.4519 41.3094C 38.4517 41.3094 38.4514 41.3094 38.4512 41.3094C 38.4509 41.3094 38.4507 41.3094 38.4504 41.3094C 38.4502 41.3094 38.4499 41.3094 38.4497 41.3094C 38.4494 41.3094 38.4492 41.3094 38.4489 41.3094C 38.4487 41.3094 38.4484 41.3094 38.4482 41.3094C 38.4479 41.3094 38.4477 41.3094 38.4474 41.3094C 38.4472 41.3094 38.4469 41.3094 38.4467 41.3094C 38.4464 41.3094 38.4462 41.3094 38.446 41.3094C 38.4457 41.3094 38.4455 41.3094 38.4452 41.3094C 38.445 41.3094 38.4447 41.3094 38.4445 41.3094C 38.4442 41.3094 38.444 41.3094 38.4437 41.3094C 38.4435 41.3094 38.4432 41.3094 38.443 41.3094C 38.4427 41.3094 38.4425 41.3094 38.4422 41.3094C 38.442 41.3094 38.4417 41.3094 38.4415 41.3094C 38.4412 41.3094 38.441 41.3094 38.4407 41.3094C 38.4405 41.3094 38.4402 41.3094 38.44 41.3094C 38.4397 41.3094 38.4395 41.3094 38.4392 41.3094C 38.439 41.3094 38.4387 41.3094 38.4385 41.3094C 38.4382 41.3094 38.438 41.3094 38.4377 41.3094C 38.4375 41.3094 38.4373 41.3094 38.437 41.3094C 38.4368 41.3094 38.4365 41.3094 38.4363 41.3094C 38.436 41.3094 38.4358 41.3094 38.4355 41.3094C 38.4353 41.3094 38.435 41.3094 38.4348 41.3094C 38.4345 41.3094 38.4343 41.3094 38.434 41.3094C 38.4338 41.3094 38.4335 41.3094 38.4333 41.3094C 38.433 41.3094 38.4328 41.3094 38.4325 41.3094C 38.4323 41.3094 38.432 41.3094 38.4318 41.3094C 38.4315 41.3094 38.4313 41.3094 38.431 41.3094C 38.4308 41.3094 38.4305 41.3094 38.4303 41.3094C 38.43 41.3094 38.4298 41.3094 38.4295 41.3094C 38.4293 41.3094 38.429 41.3094 38.4288 41.3094C 38.4285 41.3094 38.4283 41.3094 38.428 41.3094C 38.4278 41.3094 38.4275 41.3094 38.4273 41.3094C 38.427 41.3094 38.4268 41.3094 38.4265 41.3094C 38.4263 41.3094 38.426 41.3094 38.4258 41.3094C 38.4255 41.3094 38.4253 41.3094 38.425 41.3094C 38.4248 41.3094 38.4245 41.3094 38.4243 41.3094C 38.424 41.3094 38.4238 41.3094 38.4235 41.3094C 38.4233 41.3094 38.423 41.3094 38.4228 41.3094C 38.4225 41.3094 38.4223 41.3094 38.422 41.3094C 38.4218 41.3094 38.4215 41.3094 38.4213 41.3094C 38.421 41.3094 38.4208 41.3094 38.4205 41.3094C 38.4203 41.3094 38.42 41.3094 38.4198 41.3094C 38.4195 41.3094 38.4193 41.3094 38.419 41.3094C 38.4188 41.3094 38.4185 41.3094 38.4183 41.3094C 38.418 41.3094 38.4178 41.3094 38.4175 41.3094C 38.4173 41.3094 38.417 41.3094 38.4168 41.3094C 38.4165 41.3094 38.4163 41.3094 38.416 41.3094C 38.4158 41.3094 38.4155 41.3094 38.4153 41.3094C 38.415 41.3094 38.4148 41.3094 38.4145 41.3094C 38.4143 41.3094 38.414 41.3094 38.4138 41.3094C 38.4135 41.3094 38.4133 41.3094 38.413 41.3094C 38.4128 41.3094 38.4125 41.3094 38.4123 41.3094C 38.412 41.3094 38.4118 41.3094 38.4115 41.3094C 38.4113 41.3094 38.411 41.3094 38.4108 41.3094C 38.4105 41.3094 38.4103 41.3094 38.41 41.3094C 38.4098 41.3094 38.4095 41.3094 38.4093 41.3094C 38.409 41.3094 38.4088 41.3094 38.4085 41.3094C 38.4083 41.3094 38.408 41.3094 38.4078 41.3094C 38.4075 41.3094 38.4073 41.3094 38.407 41.3094C 38.4068 41.3094 38.4065 41.3094 38.4063 41.3094C 38.406 41.3094 38.4058 41.3094 38.4055 41.3094C 38.4053 41.3094 38.405 41.3094 38.4048 41.3094C 38.4045 41.3094 38.4043 41.3094 38.404 41.3094C 38.4038 41.3094 38.4035 41.3094 38.4033 41.3094C 38.403 41.3094 38.4028 41.3094 38.4025 41.3094C 38.4023 41.3094 38.402 41.3094 38.4018 41.3094C 38.4015 41.3094 38.4013 41.3094 38.401 41.3094C 38.4007 41.3094 38.4005 41.3094 38.4002 41.3094C 38.4 41.3094 38.3997 41.3094 38.3995 41.3094C 38.3992 41.3094 38.399 41.3094 38.3987 41.3094C 38.3985 41.3094 38.3982 41.3094 38.398 41.3094C 38.3977 41.3094 38.3975 41.3094 38.3972 41.3094C 38.397 41.3094 38.3967 41.3094 38.3965 41.3094C 38.3962 41.3094 38.396 41.3094 38.3957 41.3094C 38.3955 41.3094 38.3952 41.3094 38.395 41.3094C 38.3947 41.3094 38.3945 41.3094 38.3942 41.3094C 38.394 41.3094 38.3937 41.3094 38.3935 41.3094C 38.3932 41.3094 38.393 41.3094 38.3927 41.3094C 38.3925 41.3094 38.3922 41.3094 38.392 41.3094C 38.3917 41.3094 38.3915 41.3094 38.3912 41.3094C 38.3909 41.3094 38.3907 41.3094 38.3904 41.3094C 38.3902 41.3094 38.3899 41.3094 38.3897 41.3094C 38.3894 41.3094 38.3892 41.3094 38.3889 41.3094C 38.3887 41.3094 38.3884 41.3094 38.3882 41.3094C 38.3879 41.3094 38.3877 41.3094 38.3874 41.3094C 38.3872 41.3094 38.3869 41.3094 38.3867 41.3094C 38.3864 41.3094 38.3862 41.3094 38.3859 41.3094C 38.3857 41.3094 38.3854 41.3094 38.3852 41.3094C 38.3849 41.3094 38.3847 41.3094 38.3844 41.3094C 38.3842 41.3094 38.3839 41.3094 38.3837 41.3094C 38.3834 41.3094 38.3831 41.3094 38.3829 41.3094C 38.3826 41.3094 38.3824 41.3094 38.3821 41.3094C 38.3819 41.3094 38.3816 41.3094 38.3814 41.3094C 38.3811 41.3094 38.3809 41.3094 38.3806 41.3094C 38.3804 41.3094 38.3801 41.3094 38.3799 41.3094C 38.3796 41.3094 38.3794 41.3094 38.3791 41.3094C 38.3789 41.3094 38.3786 41.3094 38.3784 41.3094C 38.3781 41.3094 38.3779 41.3094 38.3776 41.3094C 38.3774 41.3094 38.3771 41.3094 38.3769 41.3094C 38.3766 41.3094 38.3763 41.3094 38.3761 41.3094C 38.3758 41.3094 38.3756 41.3094 38.3753 41.3094C 38.3751 41.3094 38.3748 41.3094 38.3746 41.3094C 38.3743 41.3094 38.3741 41.3094 38.3738 41.3094C 38.3736 41.3094 38.3733 41.3094 38.3731 41.3094C 38.3728 41.3094 38.3726 41.3094 38.3723 41.3094C 38.3721 41.3094 38.3718 41.3094 38.3716 41.3094C 38.3713 41.3094 38.3711 41.3094 38.3708 41.3094C 38.3705 41.3094 38.3703 41.3094 38.37 41.3094C 38.3698 41.3094 38.3695 41.3094 38.3693 41.3094C 38.369 41.3094 38.3688 41.3094 38.3685 41.3094C 38.3683 41.3094 38.368 41.3094 38.3678 41.3094C 38.3675 41.3094 38.3673 41.3094 38.367 41.3094C 38.3668 41.3094 38.3665 41.3094 38.3663 41.3094C 38.366 41.3094 38.3658 41.3094 38.3655 41.3094C 38.3652 41.3094 38.365 41.3094 38.3647 41.3094C 38.3645 41.3094 38.3642 41.3094 38.364 41.3094C 38.3637 41.3094 38.3635 41.3094 38.3632 41.3094C 38.363 41.3094 38.3627 41.3094 38.3625 41.3094C 38.3622 41.3094 38.362 41.3094 38.3617 41.3094C 38.3615 41.3094 38.3612 41.3094 38.361 41.3094C 38.3607 41.3094 38.3605 41.3094 38.3602 41.3094C 38.3599 41.3094 38.3597 41.3094 38.3594 41.3094C 38.3592 41.3094 38.3589 41.3094 38.3587 41.3094C 38.3584 41.3094 38.3582 41.3094 38.3579 41.3094C 38.3577 41.3094 38.3574 41.3094 38.3572 41.3094C 38.3569 41.3094 38.3567 41.3094 38.3564 41.3094C 38.3562 41.3094 38.3559 41.3094 38.3556 41.3094C 38.3554 41.3094 38.3551 41.3094 38.3549 41.3094C 38.3546 41.3094 38.3544 41.3094 38.3541 41.3094C 38.3539 41.3094 38.3536 41.3094 38.3534 41.3094C 38.3531 41.3094 38.3529 41.3094 38.3526 41.3094C 38.3524 41.3094 38.3521 41.3094 38.3519 41.3094C 38.3516 41.3094 38.3514 41.3094 38.3511 41.3094C 38.3508 41.3094 38.3506 41.3094 38.3503 41.3094C 38.3501 41.3094 38.3498 41.3094 38.3496 41.3094C 38.3493 41.3094 38.3491 41.3094 38.3488 41.3094C 38.3486 41.3094 38.3483 41.3094 38.3481 41.3094C 38.3478 41.3094 38.3476 41.3094 38.3473 41.3094C 38.3471 41.3094 38.3468 41.3094 38.3465 41.3094C 38.3463 41.3094 38.346 41.3094 38.3458 41.3094C 38.3455 41.3094 38.3453 41.3094 38.345 41.3094C 38.3448 41.3094 38.3445 41.3094 38.3443 41.3094C 38.344 41.3094 38.3438 41.3094 38.3435 41.3094C 38.3433 41.3094 38.343 41.3094 38.3428 41.3094C 38.3425 41.3094 38.3422 41.3094 38.342 41.3094C 38.3417 41.3094 38.3415 41.3094 38.3412 41.3094C 38.341 41.3094 38.3407 41.3094 38.3405 41.3094C 38.3402 41.3094 38.34 41.3094 38.3397 41.3094C 38.3395 41.3094 38.3392 41.3094 38.339 41.3094C 38.3387 41.3094 38.3385 41.3094 38.3382 41.3094C 38.3379 41.3094 38.3377 41.3094 38.3374 41.3094C 38.3372 41.3094 38.3369 41.3094 38.3367 41.3094C 38.3364 41.3094 38.3362 41.3094 38.3359 41.3094C 38.3357 41.3094 38.3354 41.3094 38.3352 41.3094C 38.3349 41.3094 38.3347 41.3094 38.3344 41.3094C 38.3341 41.3094 38.3339 41.3094 38.3336 41.3094C 38.3334 41.3094 38.3331 41.3094 38.3329 41.3094C 38.3326 41.3094 38.3324 41.3094 38.3321 41.3094C 38.3319 41.3094 38.3316 41.3094 38.3314 41.3094C 38.3311 41.3094 38.3309 41.3094 38.3306 41.3094C 38.3303 41.3094 38.3301 41.3094 38.3298 41.3094C 38.3296 41.3094 38.3293 41.3094 38.3291 41.3094C 38.3288 41.3094 38.3286 41.3094 38.3283 41.3094C 38.3281 41.3094 38.3278 41.3094 38.3276 41.3094C 38.3273 41.3094 38.3271 41.3094 38.3268 41.3094C 38.3266 41.3094 38.3263 41.3094 38.326 41.3094C 38.3258 41.3094 38.3255 41.3094 38.3253 41.3094C 38.325 41.3094 38.3248 41.3094 38.3245 41.3094C 38.3243 41.3094 38.324 41.3094 38.3238 41.3094C 38.3235 41.3094 38.3233 41.3094 38.323 41.3094C 38.3228 41.3094 38.3225 41.3094 38.3222 41.3094C 38.322 41.3094 38.3217 41.3094 38.3215 41.3094C 38.3212 41.3094 38.321 41.3094 38.3207 41.3094C 38.3205 41.3094 38.3202 41.3094 38.32 41.3094C 38.3197 41.3094 38.3195 41.3094 38.3192 41.3094C 38.319 41.3094 38.3187 41.3094 38.3184 41.3094C 38.3182 41.3094 38.3179 41.3094 38.3177 41.3094C 38.3174 41.3094 38.3172 41.3094 38.3169 41.3094C 38.3167 41.3094 38.3164 41.3094 38.3162 41.3094C 38.3159 41.3094 38.3157 41.3094 38.3154 41.3094C 38.3151 41.3094 38.3149 41.3094 38.3146 41.3094C 38.3144 41.3094 38.3141 41.3094 38.3139 41.3094C 38.3136 41.3094 38.3134 41.3094 38.3131 41.3094C 38.3129 41.3094 38.3126 41.3094 38.3124 41.3094C 38.3121 41.3094 38.3119 41.3094 38.3116 41.3094C 38.3113 41.3094 38.3111 41.3094 38.3108 41.3094C 38.3106 41.3094 38.3103 41.3094 38.3101 41.3094C 38.3098 41.3094 38.3096 41.3094 38.3093 41.3094C 38.3091 41.3094 38.3088 41.3094 38.3086 41.3094C 38.3083 41.3094 38.3081 41.3094 38.3078 41.3094C 38.3075 41.3094 38.3073 41.3094 38.307 41.3094C 38.3068 41.3094 38.3065 41.3094 38.3063 41.3094C 38.306 41.3094 38.3058 41.3094 38.3055 41.3094C 38.3053 41.3094 38.305 41.3094 38.3048 41.3094C 38.3045 41.3094 38.3043 41.3094 38.304 41.3094C 38.3037 41.3094 38.3035 41.3094 38.3032 41.3094C 38.303 41.3094 38.3027 41.3094 38.3025 41.3094C 38.3022 41.3094 38.302 41.3094 38.3017 41.3094C 38.3015 41.3094 38.3012 41.3094 38.301 41.3094C 38.3007 41.3094 38.3005 41.3094 38.3002 41.3094L 38.3002 44.3094ZM 38.671 44.3094C 43.1501 44.3094 47.1681 48.5164 47.4053 54.4901L 50.4029 54.3711C 50.121 47.271 45.2036 41.3094 38.671 41.3094L 38.671 44.3094ZM 48.9041 55.9306L 69.6671 55.9306L 69.6671 52.9306L 48.9041 52.9306L 48.9041 55.9306ZM 69.6671 55.9306C 72.2095 55.9306 73.8551 53.5768 73.8551 51.2392L 70.8551 51.2392C 70.8551 52.4231 70.0907 52.9306 69.6671 52.9306L 69.6671 55.9306ZM 73.8551 51.2392L 73.8551 3.19144L 70.8551 3.19144L 70.8551 51.2392L 73.8551 51.2392ZM 73.8551 3.19144C 73.8551 0.853808 72.2095 -1.5 69.6671 -1.5L 69.6671 1.5C 70.0907 1.5 70.8551 2.00749 70.8551 3.19144L 73.8551 3.19144Z"/>
</defs>
</svg>
