<svg width="31" height="31" viewBox="0 0 31 31" version="1.1" xmlns="http://www.w3.org/2000/svg" xmlns:xlink="http://www.w3.org/1999/xlink">
<title>Grey Icon</title>
<desc>Created using Figma</desc>
<g id="Canvas" transform="translate(-2422 -391)">
<g id="Grey Icon">
<g id="Blue Icon">
<g id="Shape">
<use xlink:href="#path0_fill" transform="translate(2422.42 391.34)" fill="#687178"/>
</g>
<g id="Shape">
<use xlink:href="#path1_fill" transform="translate(2431.12 400)" fill="#687178"/>
</g>
</g>
</g>
</g>
<defs>
<path id="path0_fill" fill-rule="evenodd" d="M 27.1465 10.7561L 27.6294 10.7561C 29.0435 10.7561 30.1819 11.8901 30.1128 13.299L 30.1128 16.7355C 30.1128 18.1444 28.9746 19.2784 27.5603 19.2784L 27.0774 19.2784C 26.9395 19.6908 26.7668 20.1032 26.5945 20.4812L 26.9395 20.8248C 27.9397 21.8214 27.9397 23.4365 26.9395 24.4331L 24.4905 26.873C 24.0076 27.3541 23.3865 27.629 22.6968 27.629C 22.0413 27.629 21.386 27.3541 20.9031 26.873L 20.5581 26.5293C 20.1787 26.7355 19.7646 26.9073 19.3508 27.0448L 19.3508 27.4572C 19.3508 28.8661 18.2126 30.0001 16.7983 30.0001L 13.3145 30.0001C 11.9001 30.0001 10.762 28.8661 10.762 27.4572L 10.762 26.9761C 10.3481 26.8386 9.93408 26.6668 9.55469 26.495L 9.20972 26.8386C 8.72681 27.3197 8.10596 27.5946 7.41602 27.5946C 6.76074 27.5946 6.10522 27.3197 5.62256 26.8386L 3.17334 24.3987C 2.69043 23.9176 2.41455 23.2647 2.41455 22.6118C 2.41455 21.9589 2.69043 21.3059 3.17334 20.8248L 3.51831 20.4812C 3.31128 20.1032 3.13892 19.6908 3.00098 19.2784L 2.55249 19.2784C 1.13818 19.2784 0 18.1444 0 16.7355L 0 13.299C 0 11.8901 1.13818 10.7561 2.58691 10.6873L 3.0354 10.6873C 3.13477 10.4498 3.23413 10.2122 3.3335 9.98114C 3.40674 9.81119 3.47974 9.64481 3.55273 9.48459L 3.20801 9.14093C 2.7251 8.65982 2.44897 8.0069 2.44897 7.35397C 2.44897 6.70105 2.7251 6.04813 3.20801 5.56705L 5.65698 3.12717C 6.13989 2.64606 6.76074 2.37115 7.45068 2.37115C 8.10596 2.37115 8.76123 2.64606 9.24414 3.12717L 9.58911 3.47079C 9.96851 3.29898 10.3826 3.12717 10.7964 2.98972L 10.7964 2.54297C 10.7964 1.13403 11.9348 0 13.3489 0L 16.8672 0C 18.2815 0 19.4199 1.13403 19.4199 2.54297L 19.4199 2.98972C 19.6135 3.07013 19.8071 3.15054 19.9973 3.23096C 20.2136 3.32236 20.4253 3.41376 20.6272 3.50516L 20.9719 3.16153C 21.4548 2.68042 22.0759 2.40552 22.7656 2.40552C 23.4211 2.40552 24.0764 2.68042 24.5593 3.16153L 27.0083 5.60141C 28.0088 6.59796 28.0088 8.2131 27.0083 9.20966L 26.6636 9.55331C 26.7625 9.77036 26.8613 9.99872 26.9539 10.2319C 27.0225 10.4049 27.0876 10.5805 27.1465 10.7561ZM 27.6294 16.8727C 27.6982 16.8727 27.7673 16.804 27.7673 16.7352L 27.7673 13.2988C 27.7673 13.2301 27.6982 13.1613 27.6294 13.1613L 25.3528 13.1613L 25.1113 12.2679C 24.9043 11.4431 24.5593 10.6527 24.1455 9.89673L 23.697 9.10632L 25.3181 7.49121C 25.3872 7.42249 25.3872 7.35376 25.3181 7.28503L 22.8691 4.84515C 22.8003 4.77643 22.7312 4.77643 22.6621 4.84515L 21.041 6.46027L 20.2478 6.01355C 19.4888 5.60117 18.6956 5.29187 17.8677 5.05133L 16.9707 4.81079L 16.9707 2.54272C 16.9707 2.474 16.9019 2.40527 16.8328 2.40527L 13.3489 2.40527C 13.28 2.40527 13.2109 2.474 13.2109 2.54272L 13.2109 4.81079L 12.3142 5.05133C 11.4863 5.25751 10.6929 5.60117 9.93408 6.01355L 9.14087 6.46027L 7.51953 4.84515C 7.45068 4.77643 7.38159 4.77643 7.31274 4.84515L 4.86353 7.28503C 4.8291 7.3194 4.8291 7.35376 4.8291 7.38812C 4.8291 7.42249 4.8291 7.45685 4.86353 7.49121L 6.48486 9.10632L 6.03638 9.89673C 5.62256 10.6527 5.31201 11.4431 5.07056 12.2679L 4.8291 13.1613L 2.55249 13.1613C 2.48364 13.1613 2.41455 13.2301 2.41455 13.2988L 2.41455 16.7352C 2.41455 16.804 2.48364 16.8727 2.55249 16.8727L 4.8291 16.8727L 5.07056 17.7662C 5.27759 18.5909 5.62256 19.3813 6.03638 20.1373L 6.48486 20.9277L 4.86353 22.5428C 4.8291 22.5772 4.8291 22.6115 4.8291 22.6459C 4.8291 22.6803 4.8291 22.7146 4.86353 22.749L 7.31274 25.1889C 7.35962 25.2357 7.40674 25.2506 7.45361 25.2336C 7.47559 25.2257 7.49756 25.2108 7.51953 25.1889L 9.14087 23.5738L 9.93408 24.0205C 10.6929 24.4329 11.4863 24.7422 12.3142 24.9827L 13.2109 25.2232L 13.2109 27.4913C 13.2109 27.56 13.28 27.6288 13.3489 27.6288L 16.8328 27.6288C 16.874 27.6288 16.9153 27.6042 16.9419 27.5697C 16.9597 27.5465 16.9707 27.5189 16.9707 27.4913L 16.9707 25.2232L 17.8677 24.9827C 18.6956 24.7765 19.4888 24.4329 20.2478 24.0205L 21.041 23.5738L 22.6621 25.1889C 22.6863 25.213 22.7104 25.2286 22.7346 25.2358C 22.7795 25.2491 22.8245 25.2335 22.8691 25.1889L 25.3181 22.749C 25.3872 22.6803 25.3872 22.6115 25.3181 22.5428L 23.697 20.9277L 24.1455 20.1373C 24.5593 19.3813 24.8699 18.5909 25.1113 17.7662L 25.3528 16.8727L 27.6294 16.8727Z"/>
<path id="path1_fill" fill-rule="evenodd" d="M 0 6.35742C 0 2.85223 2.86304 0 6.38135 0C 9.89966 0 12.7627 2.85223 12.7627 6.35742C 12.7627 9.86258 9.89966 12.7148 6.38135 12.7148C 2.86304 12.7148 0 9.86258 0 6.35742ZM 2.41455 6.35706C 2.41455 8.522 4.20825 10.309 6.38135 10.309C 8.58887 10.309 10.3481 8.522 10.3481 6.35706C 10.3481 4.19211 8.55444 2.40515 6.38135 2.40515C 4.20825 2.40515 2.41455 4.19211 2.41455 6.35706Z"/>
</defs>
</svg>
