<svg width="31" height="31" viewBox="0 0 31 31" version="1.1" xmlns="http://www.w3.org/2000/svg" xmlns:xlink="http://www.w3.org/1999/xlink">
<title>Blue Icon</title>
<desc>Created using Figma</desc>
<g id="Canvas" transform="translate(2360 2709)">
<rect x="-2360" y="-2709" width="31" height="31" fill="#E5E5E5"/>
<clipPath id="clip-0" clip-rule="evenodd">
<path d="M -2384 -3161L -944 -3161L -944 -2137L -2384 -2137L -2384 -3161Z" fill="#FFFFFF"/>
</clipPath>
<g id="Calendar" clip-path="url(#clip-0)">
<path d="M -2384 -3161L -944 -3161L -944 -2137L -2384 -2137L -2384 -3161Z" fill="#FFFFFF"/>
<g id="Student Cordinator Navigation">
<g id="dining hall navigation">
<clipPath id="clip-1" clip-rule="evenodd">
<path d="M -2384 -3161L -2124 -3161L -2124 -2137L -2384 -2137L -2384 -3161Z" fill="#FFFFFF"/>
</clipPath>
<g id="Frame" clip-path="url(#clip-1)">
<path d="M -2384 -3161L -2124 -3161L -2124 -2137L -2384 -2137L -2384 -3161Z" fill="#FFFFFF"/>
<g id="Rectangle" filter="url(#filter0_i)">
<use xlink:href="#path0_fill" transform="translate(-2384 -3161)" fill="#FFFFFF"/>
</g>
<g id="Settings">
<g id="Inactive">
<g id="Grey Icon">
<g id="Blue Icon">
<g id="Shape">
<use xlink:href="#path1_fill" transform="translate(-2359.58 -2708.66)" fill="#687178"/>
</g>
<g id="Shape">
<use xlink:href="#path2_fill" transform="translate(-2350.88 -2700)" fill="#687178"/>
</g>
</g>
</g>
</g>
</g>
</g>
</g>
</g>
</g>
</g>
<defs>
<filter id="filter0_i" filterUnits="userSpaceOnUse" x="-2384" y="-3161" width="260" height="1024" color-interpolation-filters="sRGB">
<feFlood flood-opacity="0" result="BackgroundImageFix"/>
<feBlend mode="normal" in="SourceGraphic" in2="BackgroundImageFix" result="shape"/>
<feColorMatrix in="SourceAlpha" type="matrix" values="0 0 0 0 0 0 0 0 0 0 0 0 0 0 0 0 0 0 255 0" result="hardAlpha"/>
<feOffset dx="-1" dy="0"/>
<feComposite in2="hardAlpha" operator="arithmetic" k2="-1" k3="1"/>
<feColorMatrix type="matrix" values="0 0 0 0 0.866667 0 0 0 0 0.866667 0 0 0 0 0.866667 0 0 0 1 0"/>
<feBlend mode="normal" in2="shape" result="effect1_innerShadow"/>
</filter>
<path id="path0_fill" fill-rule="evenodd" d="M 0 0L 260 0L 260 1024L 0 1024L 0 0Z"/>
<path id="path1_fill" fill-rule="evenodd" d="M 27.1465 10.7561L 27.6294 10.7561C 29.0435 10.7561 30.1819 11.8901 30.1128 13.2991L 30.1128 16.7354C 30.1128 18.1445 28.9746 19.2783 27.5603 19.2783L 27.0774 19.2783C 26.9395 19.6909 26.7668 20.1033 26.5945 20.4812L 26.9395 20.825C 27.9397 21.8213 27.9397 23.4365 26.9395 24.4331L 24.4905 26.873C 24.0076 27.354 23.3865 27.6289 22.6968 27.6289C 22.0413 27.6289 21.386 27.354 20.9031 26.873L 20.5581 26.5293C 20.2751 26.6831 19.9729 26.8176 19.666 26.9333C 19.5613 26.9727 19.4561 27.0098 19.3508 27.0447L 19.3508 27.4573C 19.3508 28.8662 18.2126 30.0002 16.7983 30.0002L 13.3145 30.0002C 11.9001 30.0002 10.762 28.8662 10.762 27.4573L 10.762 26.9761C 10.3481 26.8386 9.93408 26.6667 9.55469 26.4949L 9.20972 26.8386C 8.72681 27.3198 8.10596 27.5947 7.41602 27.5947C 6.76074 27.5947 6.10522 27.3198 5.62256 26.8386L 3.17334 24.3987C 2.69043 23.9177 2.41455 23.2646 2.41455 22.6118C 2.41455 21.9587 2.69043 21.3059 3.17334 20.825L 3.51831 20.4812C 3.31128 20.1033 3.13892 19.6909 3.00098 19.2783L 2.55249 19.2783C 1.13818 19.2783 0 18.1445 0 16.7354L 0 13.2991C 0 11.8901 1.13818 10.7561 2.58691 10.6873L 3.0354 10.6873L 3.04419 10.6667C 3.21387 10.2612 3.3833 9.8562 3.55273 9.48462L 3.20801 9.14087C 2.7251 8.65991 2.44897 8.00684 2.44897 7.354C 2.44897 6.70117 2.7251 6.0481 3.20801 5.56714L 5.65698 3.1272C 6.13989 2.646 6.76074 2.37109 7.45068 2.37109C 8.10596 2.37109 8.76123 2.646 9.24414 3.1272L 9.58911 3.4707C 9.96851 3.29907 10.3826 3.1272 10.7964 2.98975L 10.7964 2.54297C 10.7964 1.13403 11.9348 0 13.3489 0L 16.8672 0C 18.2815 0 19.4199 1.13403 19.4199 2.54297L 19.4199 2.98975C 19.8337 3.16162 20.2476 3.33325 20.6272 3.50513L 20.9719 3.16162C 21.4548 2.68042 22.0759 2.40552 22.7656 2.40552C 23.4211 2.40552 24.0764 2.68042 24.5593 3.16162L 27.0083 5.60132C 28.0088 6.5979 28.0088 8.21313 27.0083 9.20972L 26.6636 9.55322C 26.8359 9.9314 27.0083 10.3438 27.1465 10.7561ZM 27.6294 16.8728C 27.6982 16.8728 27.7673 16.804 27.7673 16.7354L 27.7673 13.2988C 27.7673 13.23 27.6982 13.1614 27.6294 13.1614L 25.3528 13.1614L 25.1113 12.2678C 24.9043 11.4431 24.5593 10.6528 24.1455 9.89673L 23.697 9.10645L 25.3181 7.49121C 25.3872 7.42236 25.3872 7.35376 25.3181 7.28491L 22.8691 4.84521C 22.8003 4.77637 22.7312 4.77637 22.6621 4.84521L 21.041 6.46021L 20.2478 6.01343C 19.4888 5.60107 18.6956 5.29199 17.8677 5.05127L 16.9707 4.81079L 16.9707 2.54272C 16.9707 2.47412 16.9019 2.40527 16.8328 2.40527L 13.3489 2.40527C 13.28 2.40527 13.2109 2.47412 13.2109 2.54272L 13.2109 4.81079L 12.3142 5.05127C 11.4863 5.25757 10.6929 5.60107 9.93408 6.01343L 9.14087 6.46021L 7.51953 4.84521C 7.45068 4.77637 7.38159 4.77637 7.31274 4.84521L 4.86353 7.28491C 4.8396 7.30884 4.83228 7.33276 4.83008 7.35669C 4.8291 7.36719 4.8291 7.37769 4.8291 7.38818C 4.8291 7.40918 4.8291 7.43042 4.83716 7.45166C 4.84229 7.46484 4.85034 7.47803 4.86353 7.49121L 6.48486 9.10645L 6.03638 9.89673C 5.62256 10.6528 5.31201 11.4431 5.07056 12.2678L 4.8291 13.1614L 2.55249 13.1614C 2.48364 13.1614 2.41455 13.23 2.41455 13.2988L 2.41455 16.7354C 2.41455 16.804 2.48364 16.8728 2.55249 16.8728L 4.8291 16.8728L 5.07056 17.7661C 5.27759 18.5908 5.62256 19.3813 6.03638 20.1372L 6.48486 20.9277L 4.86353 22.5427C 4.8291 22.5771 4.8291 22.6116 4.8291 22.646C 4.8291 22.667 4.8291 22.688 4.83691 22.709C 4.84204 22.7222 4.8501 22.7356 4.86353 22.749L 7.31274 25.189C 7.38159 25.2576 7.45068 25.2576 7.51953 25.189L 9.14087 23.5737L 9.93408 24.0205C 10.6929 24.4329 11.4863 24.7422 12.3142 24.9827L 13.2109 25.2231L 13.2109 27.4912C 13.2109 27.5601 13.28 27.6287 13.3489 27.6287L 16.8328 27.6287C 16.9019 27.6287 16.9707 27.5601 16.9707 27.4912L 16.9707 25.2231L 17.8677 24.9827C 18.6956 24.7766 19.4888 24.4329 20.2478 24.0205L 21.041 23.5737L 22.6621 25.189C 22.7312 25.2576 22.8003 25.2576 22.8691 25.189L 25.3181 22.749C 25.3872 22.6802 25.3872 22.6116 25.3181 22.5427L 23.697 20.9277L 24.1455 20.1372C 24.5593 19.3813 24.8699 18.5908 25.1113 17.7661L 25.3528 16.8728L 27.6294 16.8728Z"/>
<path id="path2_fill" fill-rule="evenodd" d="M 0 6.35742C 0 2.85229 2.86304 0 6.38135 0C 9.89966 0 12.7627 2.85229 12.7627 6.35742C 12.7627 9.86255 9.89966 12.7148 6.38135 12.7148C 2.86304 12.7148 0 9.86255 0 6.35742ZM 2.41455 6.35718C 2.41455 8.52222 4.20825 10.3091 6.38135 10.3091C 8.58887 10.3091 10.3481 8.52222 10.3481 6.35718C 10.3481 4.19214 8.55444 2.40527 6.38135 2.40527C 4.20825 2.40527 2.41455 4.19214 2.41455 6.35718Z"/>
</defs>
</svg>
