<svg width="30" height="36" viewBox="0 0 30 36" version="1.1" xmlns="http://www.w3.org/2000/svg" xmlns:xlink="http://www.w3.org/1999/xlink">
<title>shelter</title>
<desc>Created using Figma</desc>
<g id="Canvas" transform="translate(6870 -24448)">
<g id="shelter">
<g id="Group">
<g id="Vector">
<use xlink:href="#path0_fill" transform="translate(-6861.85 24449)" fill="#243847"/>
<use xlink:href="#path1_stroke" transform="translate(-6861.85 24449)" fill="#243847"/>
</g>
<g id="Vector">
<use xlink:href="#path2_fill" transform="translate(-6869 24463)" fill="#243847"/>
<use xlink:href="#path3_stroke" transform="translate(-6869 24463)" fill="#243847"/>
</g>
</g>
</g>
</g>
<defs>
<path id="path0_fill" d="M 6.34867 12.7384C 6.45741 12.873 6.62719 12.9521 6.80732 12.9521C 6.98745 12.9521 7.15723 12.873 7.26596 12.7384L 12.826 5.85579C 13.342 5.21726 13.6146 4.45563 13.6146 3.65336C 13.6146 1.63888 11.8648 0 9.71379 0C 8.58892 0 7.53229 0.455611 6.80034 1.22535C 6.0904 0.474212 5.05363 0 3.90084 0C 1.74985 0 2.99547e-07 1.63888 2.99547e-07 3.65329C 2.99547e-07 4.45564 0.272688 5.21719 0.788541 5.85572L 6.34867 12.7384ZM 3.90084 1.07726C 5.40178 1.07726 6.62289 2.22089 6.62289 3.62664C 6.62289 3.92411 6.88032 4.16528 7.19802 4.16528C 7.51572 4.16528 7.77315 3.92411 7.77315 3.62664C 7.77315 3.11487 7.65943 2.62759 7.4543 2.1857C 7.96548 1.49618 8.80839 1.07726 9.71379 1.07726C 11.2305 1.07726 12.4644 2.23288 12.4644 3.65329C 12.4644 4.219 12.2723 4.75583 11.9087 5.20577L 6.80732 11.5208L 1.70584 5.2057C 1.34235 4.75583 1.15026 4.21907 1.15026 3.65329C 1.15026 2.23288 2.38411 1.07726 3.90084 1.07726Z"/>
<path id="path1_stroke" d="M 6.34867 12.7384L 6.1542 12.8955L 6.15421 12.8955L 6.34867 12.7384ZM 7.26596 12.7384L 7.46043 12.8955L 7.46044 12.8955L 7.26596 12.7384ZM 12.826 5.85579L 12.6316 5.69866L 12.6315 5.69869L 12.826 5.85579ZM 13.6146 3.65336L 13.3646 3.65336L 13.6146 3.65336ZM 6.80034 1.22535L 6.61865 1.39708L 6.79979 1.58873L 6.98151 1.39762L 6.80034 1.22535ZM 0.788541 5.85572L 0.983012 5.69862L 0.983009 5.69861L 0.788541 5.85572ZM 7.4543 2.1857L 7.25347 2.03681L 7.16497 2.15618L 7.22754 2.29096L 7.4543 2.1857ZM 11.9087 5.20577L 11.7143 5.04865L 11.7142 5.04867L 11.9087 5.20577ZM 6.80732 11.5208L 6.61284 11.6779L 6.80732 11.9186L 7.00179 11.6779L 6.80732 11.5208ZM 1.70584 5.2057L 1.90031 5.0486L 1.90029 5.04858L 1.70584 5.2057ZM 1.15026 3.65329L 0.900261 3.65329L 1.15026 3.65329ZM 6.15421 12.8955C 6.31264 13.0916 6.55528 13.2021 6.80732 13.2021L 6.80732 12.7021C 6.69909 12.7021 6.60218 12.6544 6.54313 12.5813L 6.15421 12.8955ZM 6.80732 13.2021C 7.05936 13.2021 7.302 13.0916 7.46043 12.8955L 7.0715 12.5813C 7.01245 12.6544 6.91554 12.7021 6.80732 12.7021L 6.80732 13.2021ZM 7.46044 12.8955L 13.0205 6.01289L 12.6315 5.69869L 7.07149 12.5813L 7.46044 12.8955ZM 13.0205 6.01293C 13.5715 5.33101 13.8646 4.51422 13.8646 3.65336L 13.3646 3.65336C 13.3646 4.39705 13.1125 5.10351 12.6316 5.69866L 13.0205 6.01293ZM 13.8646 3.65336C 13.8646 1.48563 11.9872 -0.25 9.71379 -0.25L 9.71379 0.25C 11.7424 0.25 13.3646 1.79213 13.3646 3.65336L 13.8646 3.65336ZM 9.71379 -0.25C 8.52217 -0.25 7.3995 0.232463 6.61917 1.05308L 6.98151 1.39762C 7.66508 0.678758 8.65567 0.25 9.71379 0.25L 9.71379 -0.25ZM 6.98203 1.05363C 6.22506 0.252734 5.12267 -0.25 3.90084 -0.25L 3.90084 0.25C 4.98459 0.25 5.95573 0.695689 6.61865 1.39708L 6.98203 1.05363ZM 3.90084 -0.25C 1.62747 -0.25 -0.25 1.48562 -0.25 3.65329L 0.25 3.65329C 0.25 1.79213 1.87223 0.25 3.90084 0.25L 3.90084 -0.25ZM -0.25 3.65329C -0.25 4.51424 0.0431946 5.33094 0.594073 6.01283L 0.983009 5.69861C 0.502181 5.10344 0.25 4.39703 0.25 3.65329L -0.25 3.65329ZM 0.59407 6.01282L 6.1542 12.8955L 6.54314 12.5813L 0.983012 5.69862L 0.59407 6.01282ZM 3.90084 1.32726C 5.27939 1.32726 6.37289 2.37414 6.37289 3.62664L 6.87289 3.62664C 6.87289 2.06763 5.52416 0.827264 3.90084 0.827264L 3.90084 1.32726ZM 6.37289 3.62664C 6.37289 4.07735 6.75792 4.41528 7.19802 4.41528L 7.19802 3.91528C 7.00272 3.91528 6.87289 3.77088 6.87289 3.62664L 6.37289 3.62664ZM 7.19802 4.41528C 7.63812 4.41528 8.02315 4.07735 8.02315 3.62664L 7.52315 3.62664C 7.52315 3.77088 7.39332 3.91528 7.19802 3.91528L 7.19802 4.41528ZM 8.02315 3.62664C 8.02315 3.07737 7.90101 2.55425 7.68106 2.08043L 7.22754 2.29096C 7.41785 2.70093 7.52315 3.15238 7.52315 3.62664L 8.02315 3.62664ZM 7.65513 2.33458C 8.11718 1.71133 8.8842 1.32726 9.71379 1.32726L 9.71379 0.827264C 8.73258 0.827264 7.81377 1.28102 7.25347 2.03681L 7.65513 2.33458ZM 9.71379 1.32726C 11.1081 1.32726 12.2144 2.38614 12.2144 3.65329L 12.7144 3.65329C 12.7144 2.07962 11.3528 0.827264 9.71379 0.827264L 9.71379 1.32726ZM 12.2144 3.65329C 12.2144 4.16045 12.0428 4.64212 11.7143 5.04865L 12.1032 5.36289C 12.5018 4.86955 12.7144 4.27755 12.7144 3.65329L 12.2144 3.65329ZM 11.7142 5.04867L 6.61284 11.3637L 7.00179 11.6779L 12.1032 5.36287L 11.7142 5.04867ZM 7.00179 11.3637L 1.90031 5.0486L 1.51136 5.3628L 6.61284 11.6779L 7.00179 11.3637ZM 1.90029 5.04858C 1.57188 4.64212 1.40026 4.16052 1.40026 3.65329L 0.900261 3.65329C 0.900261 4.27762 1.11282 4.86954 1.51138 5.36282L 1.90029 5.04858ZM 1.40026 3.65329C 1.40026 2.38613 2.50649 1.32726 3.90084 1.32726L 3.90084 0.827264C 2.26172 0.827264 0.900261 2.07963 0.900261 3.65329L 1.40026 3.65329Z"/>
<path id="path2_fill" d="M 27.59 6.1371L 14.2082 0.0540784C 14.0496 -0.0180264 13.8645 -0.0180264 13.7058 0.0540784L 0.324081 6.1371C 0.0383564 6.26702 -0.0808106 6.58919 0.0578341 6.85685C 0.196479 7.12452 0.540713 7.2362 0.826361 7.10621L 1.21423 6.92989L 1.21423 19.195C 1.21423 19.4925 1.47166 19.7337 1.78936 19.7337L 10.3001 19.7337C 10.6178 19.7337 10.8753 19.4925 10.8753 19.195L 10.8753 8.99723L 17.0387 8.99723L 17.0387 10.6131C 17.0387 10.9106 17.2962 11.1518 17.6139 11.1518C 17.9316 11.1518 18.189 10.9106 18.189 10.6131L 18.189 8.4586C 18.189 8.16113 17.9316 7.91997 17.6139 7.91997L 10.3001 7.91997C 9.98243 7.91997 9.725 8.16113 9.725 8.4586L 9.725 18.6564L 2.36449 18.6564L 2.36449 6.40706L 13.957 1.13737L 25.5496 6.40699L 25.5496 18.6564L 18.1891 18.6564L 18.1891 12.7677C 18.1891 12.4702 17.9316 12.229 17.6139 12.229C 17.2962 12.229 17.0388 12.4702 17.0388 12.7677L 17.0388 19.195C 17.0388 19.4925 17.2962 19.7337 17.6139 19.7337L 26.1247 19.7337C 26.4424 19.7337 26.6999 19.4925 26.6999 19.195L 26.6999 6.92989L 27.0877 7.10621C 27.1687 7.14298 27.2542 7.16043 27.3385 7.16043C 27.5519 7.16043 27.7569 7.04868 27.8563 6.85685C 27.995 6.58919 27.8757 6.26694 27.59 6.1371Z"/>
<path id="path3_stroke" d="M 27.59 6.1371L 27.4865 6.36469L 27.4866 6.3647L 27.59 6.1371ZM 14.2082 0.0540784L 14.1047 0.281658L 14.1047 0.281668L 14.2082 0.0540784ZM 13.7058 0.0540784L 13.6024 -0.17352L 13.6024 -0.173511L 13.7058 0.0540784ZM 0.324081 6.1371L 0.220625 5.90951L 0.220602 5.90952L 0.324081 6.1371ZM 0.826361 7.10621L 0.722906 6.87862L 0.722812 6.87866L 0.826361 7.10621ZM 1.21423 6.92989L 1.46423 6.92989L 1.46423 6.54163L 1.11077 6.7023L 1.21423 6.92989ZM 10.8753 8.99723L 10.8753 8.74723L 10.6253 8.74723L 10.6253 8.99723L 10.8753 8.99723ZM 17.0387 8.99723L 17.2887 8.99723L 17.2887 8.74723L 17.0387 8.74723L 17.0387 8.99723ZM 9.725 18.6564L 9.725 18.9064L 9.975 18.9064L 9.975 18.6564L 9.725 18.6564ZM 2.36449 18.6564L 2.11449 18.6564L 2.11449 18.9064L 2.36449 18.9064L 2.36449 18.6564ZM 2.36449 6.40706L 2.26103 6.17947L 2.11449 6.24609L 2.11449 6.40706L 2.36449 6.40706ZM 13.957 1.13737L 14.0605 0.909785L 13.957 0.862757L 13.8536 0.909786L 13.957 1.13737ZM 25.5496 6.40699L 25.7996 6.40699L 25.7996 6.24602L 25.653 6.1794L 25.5496 6.40699ZM 25.5496 18.6564L 25.5496 18.9064L 25.7996 18.9064L 25.7996 18.6564L 25.5496 18.6564ZM 18.1891 18.6564L 17.9391 18.6564L 17.9391 18.9064L 18.1891 18.9064L 18.1891 18.6564ZM 26.6999 6.92989L 26.8033 6.7023L 26.4499 6.54163L 26.4499 6.92989L 26.6999 6.92989ZM 27.0877 7.10621L 26.9843 7.3338L 26.9844 7.33384L 27.0877 7.10621ZM 27.8563 6.85685L 28.0783 6.97193L 28.0783 6.97184L 27.8563 6.85685ZM 27.6935 5.90951L 14.3116 -0.173511L 14.1047 0.281668L 27.4865 6.36469L 27.6935 5.90951ZM 14.3117 -0.173501C 14.0873 -0.275507 13.8268 -0.275486 13.6024 -0.17352L 13.8093 0.281677C 13.9022 0.239433 14.0119 0.239454 14.1047 0.281658L 14.3117 -0.173501ZM 13.6024 -0.173511L 0.220625 5.90951L 0.427538 6.36469L 13.8093 0.281667L 13.6024 -0.173511ZM 0.220602 5.90952C -0.185934 6.09437 -0.373292 6.56808 -0.164153 6.97184L 0.279822 6.74187C 0.211671 6.6103 0.262647 6.43966 0.42756 6.36468L 0.220602 5.90952ZM -0.164153 6.97184C 0.0397379 7.36547 0.531195 7.5152 0.929911 7.33375L 0.722812 6.87866C 0.550232 6.9572 0.35322 6.88357 0.279822 6.74187L -0.164153 6.97184ZM 0.929817 7.3338L 1.31768 7.15748L 1.11077 6.7023L 0.722906 6.87862L 0.929817 7.3338ZM 0.964229 6.92989L 0.964229 19.195L 1.46423 19.195L 1.46423 6.92989L 0.964229 6.92989ZM 0.964229 19.195C 0.964229 19.6457 1.34926 19.9837 1.78936 19.9837L 1.78936 19.4837C 1.59406 19.4837 1.46423 19.3393 1.46423 19.195L 0.964229 19.195ZM 1.78936 19.9837L 10.3001 19.9837L 10.3001 19.4837L 1.78936 19.4837L 1.78936 19.9837ZM 10.3001 19.9837C 10.7402 19.9837 11.1253 19.6457 11.1253 19.195L 10.6253 19.195C 10.6253 19.3393 10.4954 19.4837 10.3001 19.4837L 10.3001 19.9837ZM 11.1253 19.195L 11.1253 8.99723L 10.6253 8.99723L 10.6253 19.195L 11.1253 19.195ZM 10.8753 9.24723L 17.0387 9.24723L 17.0387 8.74723L 10.8753 8.74723L 10.8753 9.24723ZM 16.7887 8.99723L 16.7887 10.6131L 17.2887 10.6131L 17.2887 8.99723L 16.7887 8.99723ZM 16.7887 10.6131C 16.7887 11.0638 17.1738 11.4018 17.6139 11.4018L 17.6139 10.9018C 17.4186 10.9018 17.2887 10.7574 17.2887 10.6131L 16.7887 10.6131ZM 17.6139 11.4018C 18.054 11.4018 18.439 11.0638 18.439 10.6131L 17.939 10.6131C 17.939 10.7574 17.8092 10.9018 17.6139 10.9018L 17.6139 11.4018ZM 18.439 10.6131L 18.439 8.4586L 17.939 8.4586L 17.939 10.6131L 18.439 10.6131ZM 18.439 8.4586C 18.439 8.0079 18.054 7.66997 17.6139 7.66997L 17.6139 8.16997C 17.8092 8.16997 17.939 8.31437 17.939 8.4586L 18.439 8.4586ZM 17.6139 7.66997L 10.3001 7.66997L 10.3001 8.16997L 17.6139 8.16997L 17.6139 7.66997ZM 10.3001 7.66997C 9.86003 7.66997 9.475 8.0079 9.475 8.4586L 9.975 8.4586C 9.975 8.31437 10.1048 8.16997 10.3001 8.16997L 10.3001 7.66997ZM 9.475 8.4586L 9.475 18.6564L 9.975 18.6564L 9.975 8.4586L 9.475 8.4586ZM 9.725 18.4064L 2.36449 18.4064L 2.36449 18.9064L 9.725 18.9064L 9.725 18.4064ZM 2.61449 18.6564L 2.61449 6.40706L 2.11449 6.40706L 2.11449 18.6564L 2.61449 18.6564ZM 2.46795 6.63465L 14.0605 1.36496L 13.8536 0.909786L 2.26103 6.17947L 2.46795 6.63465ZM 13.8536 1.36496L 25.4461 6.63458L 25.653 6.1794L 14.0605 0.909785L 13.8536 1.36496ZM 25.2996 6.40699L 25.2996 18.6564L 25.7996 18.6564L 25.7996 6.40699L 25.2996 6.40699ZM 25.5496 18.4064L 18.1891 18.4064L 18.1891 18.9064L 25.5496 18.9064L 25.5496 18.4064ZM 18.4391 18.6564L 18.4391 12.7677L 17.9391 12.7677L 17.9391 18.6564L 18.4391 18.6564ZM 18.4391 12.7677C 18.4391 12.317 18.0541 11.979 17.6139 11.979L 17.6139 12.479C 17.8092 12.479 17.9391 12.6234 17.9391 12.7677L 18.4391 12.7677ZM 17.6139 11.979C 17.1738 11.979 16.7888 12.317 16.7888 12.7677L 17.2888 12.7677C 17.2888 12.6234 17.4186 12.479 17.6139 12.479L 17.6139 11.979ZM 16.7888 12.7677L 16.7888 19.195L 17.2888 19.195L 17.2888 12.7677L 16.7888 12.7677ZM 16.7888 19.195C 16.7888 19.6457 17.1738 19.9837 17.6139 19.9837L 17.6139 19.4837C 17.4186 19.4837 17.2888 19.3393 17.2888 19.195L 16.7888 19.195ZM 17.6139 19.9837L 26.1247 19.9837L 26.1247 19.4837L 17.6139 19.4837L 17.6139 19.9837ZM 26.1247 19.9837C 26.5648 19.9837 26.9499 19.6457 26.9499 19.195L 26.4499 19.195C 26.4499 19.3393 26.32 19.4837 26.1247 19.4837L 26.1247 19.9837ZM 26.9499 19.195L 26.9499 6.92989L 26.4499 6.92989L 26.4499 19.195L 26.9499 19.195ZM 26.5964 7.15748L 26.9843 7.3338L 27.1912 6.87862L 26.8033 6.7023L 26.5964 7.15748ZM 26.9844 7.33384C 27.0988 7.38579 27.2196 7.41043 27.3385 7.41043L 27.3385 6.91043C 27.2888 6.91043 27.2386 6.90017 27.1911 6.87857L 26.9844 7.33384ZM 27.3385 7.41043C 27.6354 7.41043 27.9315 7.25503 28.0783 6.97193L 27.6344 6.74178C 27.5822 6.84233 27.4683 6.91043 27.3385 6.91043L 27.3385 7.41043ZM 28.0783 6.97184C 28.2875 6.56806 28.1 6.09426 27.6934 5.9095L 27.4866 6.3647C 27.6515 6.43963 27.7025 6.61032 27.6343 6.74187L 28.0783 6.97184Z"/>
</defs>
</svg>
