<svg width="20" height="20" viewBox="2 -2 20 20" version="1.1" xmlns="http://www.w3.org/2000/svg" xmlns:xlink="http://www.w3.org/1999/xlink">
<title>Grey Icon</title>
<desc>Created using Figma</desc>
<g id="Canvas" transform="matrix(0.5 0 0 0.5 -1207 -78)">
<g id="Grey Icon">
<g id="Vector">
<mask id="mask0_outline_ins">
<use xlink:href="#path0_fill" fill="white" transform="matrix(0.999197 -0.0389746 0.0336871 0.999389 2427.97 174.838)"/>
</mask>
<g mask="url(#mask0_outline_ins)">
<use xlink:href="#path1_stroke_2x" transform="matrix(0.999197 -0.0389746 0.0336871 0.999389 2427.97 174.838)" fill="#687178"/>
</g>
</g>
<g id="Vector">
<use xlink:href="#path2_fill" transform="translate(2446.49 161.171)" fill="#687178"/>
</g>
<g id="Vector">
<mask id="mask1_outline_ins">
<use xlink:href="#path3_fill" fill="white" transform="translate(2450.16 174.726)"/>
</mask>
<g mask="url(#mask1_outline_ins)">
<use xlink:href="#path4_stroke_2x" transform="translate(2450.16 174.726)" fill="#687178"/>
</g>
</g>
<g id="Vector">
<mask id="mask2_outline_ins">
<use xlink:href="#path5_fill" fill="white" transform="translate(2414 156)"/>
</mask>
<g mask="url(#mask2_outline_ins)">
<use xlink:href="#path6_stroke_2x" transform="translate(2414 156)" fill="#687178"/>
</g>
</g>
</g>
</g>
<defs>
<path id="path0_fill" d="M 2.86643 6.16579C 4.44952 6.16579 5.73286 4.78553 5.73286 3.0829C 5.73286 1.38026 4.44952 0 2.86643 0C 1.28335 0 0 1.38026 0 3.0829C 0 4.78553 1.28335 6.16579 2.86643 6.16579Z"/>
<path id="path1_stroke_2x" d="M 4.23286 3.0829C 4.23286 4.06182 3.52012 4.66579 2.86643 4.66579L 2.86643 7.66579C 5.37892 7.66579 7.23286 5.50924 7.23286 3.0829L 4.23286 3.0829ZM 2.86643 4.66579C 2.21275 4.66579 1.5 4.06182 1.5 3.0829L -1.5 3.0829C -1.5 5.50925 0.353946 7.66579 2.86643 7.66579L 2.86643 4.66579ZM 1.5 3.0829C 1.5 2.10397 2.21275 1.5 2.86643 1.5L 2.86643 -1.5C 0.353946 -1.5 -1.5 0.656545 -1.5 3.0829L 1.5 3.0829ZM 2.86643 1.5C 3.52012 1.5 4.23286 2.10397 4.23286 3.0829L 7.23286 3.0829C 7.23286 0.656547 5.37892 -1.5 2.86643 -1.5L 2.86643 1.5Z"/>
<path id="path2_fill" d="M 8.1762 0.81228C 7.83518 0.296963 7.29119 0 6.70659 0L 0 0L 0 8.21015L 0 16.4203L 2.04608 16.4203C 2.15163 13.8612 4.12464 11.8086 6.52797 11.8086C 8.9313 11.8086 10.9043 13.8524 11.0099 16.4203L 13.0559 16.4203L 13.0559 8.21015L 8.1762 0.81228ZM 1.52644 6.87381L 1.52644 1.67697L 6.52797 1.67697L 9.79195 6.87381L 1.52644 6.87381Z"/>
<path id="path3_fill" d="M 2.86613 6.16634C 4.44905 6.16634 5.73225 4.78596 5.73225 3.08317C 5.73225 1.38038 4.44905 0 2.86613 0C 1.28321 0 0 1.38038 0 3.08317C 0 4.78596 1.28321 6.16634 2.86613 6.16634Z"/>
<path id="path4_stroke_2x" d="M 4.23225 3.08317C 4.23225 4.06253 3.51938 4.66634 2.86613 4.66634L 2.86613 7.66634C 5.37871 7.66634 7.23225 5.50939 7.23225 3.08317L 4.23225 3.08317ZM 2.86613 4.66634C 2.21288 4.66634 1.5 4.06253 1.5 3.08317L -1.5 3.08317C -1.5 5.50939 0.353544 7.66634 2.86613 7.66634L 2.86613 4.66634ZM 1.5 3.08317C 1.5 2.10381 2.21287 1.5 2.86613 1.5L 2.86613 -1.5C 0.353544 -1.5 -1.5 0.656955 -1.5 3.08317L 1.5 3.08317ZM 2.86613 1.5C 3.51938 1.5 4.23225 2.10381 4.23225 3.08317L 7.23225 3.08317C 7.23225 0.656956 5.37871 -1.5 2.86613 -1.5L 2.86613 1.5Z"/>
<path id="path5_fill" d="M 30.5125 0L 11.5701 0C 10.9205 0 10.3928 0.567723 10.3928 1.26646L 10.3928 2.50671L 3.35329 2.50671C 2.81742 2.50671 2.37897 2.97836 2.37897 3.55482C 2.37897 4.13128 2.81742 4.60292 3.35329 4.60292L 10.3928 4.60292L 10.3928 6.30609L 5.35877 6.30609C 4.8229 6.30609 4.38445 6.77774 4.38445 7.35419C 4.38445 7.93065 4.8229 8.4023 5.35877 8.4023L 10.3928 8.4023L 10.3928 10.1055L 0.974322 10.1055C 0.438445 10.1055 0 10.5771 0 11.1536C 0 11.73 0.438445 12.2017 0.974322 12.2017L 10.3928 12.2017L 10.3928 20.3245C 10.3928 21.0232 10.9205 21.5909 11.5701 21.5909L 12.4551 21.5909C 12.5606 19.1104 14.42 17.0754 16.7746 16.988C 16.8314 16.988 16.8883 16.988 16.937 16.988C 19.3484 16.988 21.3052 19.0056 21.4189 21.5997L 30.5125 21.5997C 31.1621 21.5997 31.6898 21.0319 31.6898 20.3332L 31.6898 1.26646C 31.6898 0.567723 31.1621 0 30.5125 0Z"/>
<path id="path6_stroke_2x" d="M 10.3928 2.50671L 10.3928 4.00671L 11.8928 4.00671L 11.8928 2.50671L 10.3928 2.50671ZM 10.3928 4.60292L 11.8928 4.60292L 11.8928 3.10292L 10.3928 3.10292L 10.3928 4.60292ZM 10.3928 6.30609L 10.3928 7.80609L 11.8928 7.80609L 11.8928 6.30609L 10.3928 6.30609ZM 10.3928 8.4023L 11.8928 8.4023L 11.8928 6.9023L 10.3928 6.9023L 10.3928 8.4023ZM 10.3928 10.1055L 10.3928 11.6055L 11.8928 11.6055L 11.8928 10.1055L 10.3928 10.1055ZM 10.3928 12.2017L 11.8928 12.2017L 11.8928 10.7017L 10.3928 10.7017L 10.3928 12.2017ZM 12.4551 21.5909L 12.4551 23.0909L 13.8926 23.0909L 13.9537 21.6547L 12.4551 21.5909ZM 16.7746 16.988L 16.7746 15.488L 16.7468 15.488L 16.719 15.489L 16.7746 16.988ZM 21.4189 21.5997L 19.9203 21.6653L 19.9831 23.0997L 21.4189 23.0997L 21.4189 21.5997ZM 30.5125 -1.5L 11.5701 -1.5L 11.5701 1.5L 30.5125 1.5L 30.5125 -1.5ZM 11.5701 -1.5C 9.99087 -1.5 8.89277 -0.155707 8.89277 1.26646L 11.8928 1.26646C 11.8928 1.29712 11.8805 1.34507 11.8365 1.39249C 11.7907 1.44167 11.6974 1.5 11.5701 1.5L 11.5701 -1.5ZM 8.89277 1.26646L 8.89277 2.50671L 11.8928 2.50671L 11.8928 1.26646L 8.89277 1.26646ZM 10.3928 1.00671L 3.35329 1.00671L 3.35329 4.00671L 10.3928 4.00671L 10.3928 1.00671ZM 3.35329 1.00671C 1.88775 1.00671 0.878971 2.25493 0.878971 3.55482L 3.87897 3.55482C 3.87897 3.64906 3.84275 3.75096 3.7638 3.83588C 3.68348 3.92228 3.54007 4.00671 3.35329 4.00671L 3.35329 1.00671ZM 0.878971 3.55482C 0.878971 4.85471 1.88775 6.10292 3.35329 6.10292L 3.35329 3.10292C 3.54007 3.10292 3.68348 3.18736 3.7638 3.27376C 3.84275 3.35868 3.87897 3.46058 3.87897 3.55482L 0.878971 3.55482ZM 3.35329 6.10292L 10.3928 6.10292L 10.3928 3.10292L 3.35329 3.10292L 3.35329 6.10292ZM 8.89277 4.60292L 8.89277 6.30609L 11.8928 6.30609L 11.8928 4.60292L 8.89277 4.60292ZM 10.3928 4.80609L 5.35877 4.80609L 5.35877 7.80609L 10.3928 7.80609L 10.3928 4.80609ZM 5.35877 4.80609C 3.89323 4.80609 2.88445 6.05431 2.88445 7.35419L 5.88445 7.35419C 5.88445 7.44843 5.84823 7.55033 5.76928 7.63526C 5.68896 7.72166 5.54555 7.80609 5.35877 7.80609L 5.35877 4.80609ZM 2.88445 7.35419C 2.88445 8.65408 3.89323 9.9023 5.35877 9.9023L 5.35877 6.9023C 5.54555 6.9023 5.68896 6.98673 5.76928 7.07313C 5.84823 7.15806 5.88445 7.25995 5.88445 7.35419L 2.88445 7.35419ZM 5.35877 9.9023L 10.3928 9.9023L 10.3928 6.9023L 5.35877 6.9023L 5.35877 9.9023ZM 8.89277 8.4023L 8.89277 10.1055L 11.8928 10.1055L 11.8928 8.4023L 8.89277 8.4023ZM 10.3928 8.60546L 0.974322 8.60546L 0.974322 11.6055L 10.3928 11.6055L 10.3928 8.60546ZM 0.974322 8.60546C -0.491219 8.60546 -1.5 9.85368 -1.5 11.1536L 1.5 11.1536C 1.5 11.2478 1.46378 11.3497 1.38483 11.4346C 1.30451 11.521 1.1611 11.6055 0.974322 11.6055L 0.974322 8.60546ZM -1.5 11.1536C -1.5 12.4535 -0.491219 13.7017 0.974322 13.7017L 0.974322 10.7017C 1.1611 10.7017 1.30451 10.7861 1.38483 10.8725C 1.46378 10.9574 1.5 11.0593 1.5 11.1536L -1.5 11.1536ZM 0.974322 13.7017L 10.3928 13.7017L 10.3928 10.7017L 0.974322 10.7017L 0.974322 13.7017ZM 8.89277 12.2017L 8.89277 20.3245L 11.8928 20.3245L 11.8928 12.2017L 8.89277 12.2017ZM 8.89277 20.3245C 8.89277 21.7466 9.99086 23.0909 11.5701 23.0909L 11.5701 20.0909C 11.6974 20.0909 11.7907 20.1493 11.8365 20.1984C 11.8805 20.2459 11.8928 20.2938 11.8928 20.3245L 8.89277 20.3245ZM 11.5701 23.0909L 12.4551 23.0909L 12.4551 20.0909L 11.5701 20.0909L 11.5701 23.0909ZM 13.9537 21.6547C 14.0306 19.8487 15.3598 18.5415 16.8302 18.487L 16.719 15.489C 13.4801 15.6092 11.0907 18.3722 10.9564 21.5272L 13.9537 21.6547ZM 16.7746 18.488C 16.7747 18.488 16.7748 18.488 16.7749 18.488C 16.775 18.488 16.7751 18.488 16.7753 18.488C 16.7754 18.488 16.7755 18.488 16.7756 18.488C 16.7757 18.488 16.7758 18.488 16.7759 18.488C 16.776 18.488 16.7761 18.488 16.7763 18.488C 16.7764 18.488 16.7765 18.488 16.7766 18.488C 16.7767 18.488 16.7768 18.488 16.7769 18.488C 16.777 18.488 16.7771 18.488 16.7772 18.488C 16.7774 18.488 16.7775 18.488 16.7776 18.488C 16.7777 18.488 16.7778 18.488 16.7779 18.488C 16.778 18.488 16.7781 18.488 16.7782 18.488C 16.7784 18.488 16.7785 18.488 16.7786 18.488C 16.7787 18.488 16.7788 18.488 16.7789 18.488C 16.779 18.488 16.7791 18.488 16.7792 18.488C 16.7794 18.488 16.7795 18.488 16.7796 18.488C 16.7797 18.488 16.7798 18.488 16.7799 18.488C 16.78 18.488 16.7801 18.488 16.7802 18.488C 16.7804 18.488 16.7805 18.488 16.7806 18.488C 16.7807 18.488 16.7808 18.488 16.7809 18.488C 16.781 18.488 16.7811 18.488 16.7812 18.488C 16.7814 18.488 16.7815 18.488 16.7816 18.488C 16.7817 18.488 16.7818 18.488 16.7819 18.488C 16.782 18.488 16.7821 18.488 16.7822 18.488C 16.7824 18.488 16.7825 18.488 16.7826 18.488C 16.7827 18.488 16.7828 18.488 16.7829 18.488C 16.783 18.488 16.7831 18.488 16.7832 18.488C 16.7834 18.488 16.7835 18.488 16.7836 18.488C 16.7837 18.488 16.7838 18.488 16.7839 18.488C 16.784 18.488 16.7841 18.488 16.7842 18.488C 16.7844 18.488 16.7845 18.488 16.7846 18.488C 16.7847 18.488 16.7848 18.488 16.7849 18.488C 16.785 18.488 16.7851 18.488 16.7852 18.488C 16.7854 18.488 16.7855 18.488 16.7856 18.488C 16.7857 18.488 16.7858 18.488 16.7859 18.488C 16.786 18.488 16.7861 18.488 16.7862 18.488C 16.7863 18.488 16.7865 18.488 16.7866 18.488C 16.7867 18.488 16.7868 18.488 16.7869 18.488C 16.787 18.488 16.7871 18.488 16.7872 18.488C 16.7873 18.488 16.7875 18.488 16.7876 18.488C 16.7877 18.488 16.7878 18.488 16.7879 18.488C 16.788 18.488 16.7881 18.488 16.7882 18.488C 16.7883 18.488 16.7885 18.488 16.7886 18.488C 16.7887 18.488 16.7888 18.488 16.7889 18.488C 16.789 18.488 16.7891 18.488 16.7892 18.488C 16.7893 18.488 16.7895 18.488 16.7896 18.488C 16.7897 18.488 16.7898 18.488 16.7899 18.488C 16.79 18.488 16.7901 18.488 16.7902 18.488C 16.7903 18.488 16.7905 18.488 16.7906 18.488C 16.7907 18.488 16.7908 18.488 16.7909 18.488C 16.791 18.488 16.7911 18.488 16.7912 18.488C 16.7913 18.488 16.7915 18.488 16.7916 18.488C 16.7917 18.488 16.7918 18.488 16.7919 18.488C 16.792 18.488 16.7921 18.488 16.7922 18.488C 16.7923 18.488 16.7924 18.488 16.7926 18.488C 16.7927 18.488 16.7928 18.488 16.7929 18.488C 16.793 18.488 16.7931 18.488 16.7932 18.488C 16.7933 18.488 16.7934 18.488 16.7936 18.488C 16.7937 18.488 16.7938 18.488 16.7939 18.488C 16.794 18.488 16.7941 18.488 16.7942 18.488C 16.7943 18.488 16.7944 18.488 16.7946 18.488C 16.7947 18.488 16.7948 18.488 16.7949 18.488C 16.795 18.488 16.7951 18.488 16.7952 18.488C 16.7953 18.488 16.7954 18.488 16.7955 18.488C 16.7957 18.488 16.7958 18.488 16.7959 18.488C 16.796 18.488 16.7961 18.488 16.7962 18.488C 16.7963 18.488 16.7964 18.488 16.7965 18.488C 16.7967 18.488 16.7968 18.488 16.7969 18.488C 16.797 18.488 16.7971 18.488 16.7972 18.488C 16.7973 18.488 16.7974 18.488 16.7975 18.488C 16.7977 18.488 16.7978 18.488 16.7979 18.488C 16.798 18.488 16.7981 18.488 16.7982 18.488C 16.7983 18.488 16.7984 18.488 16.7985 18.488C 16.7987 18.488 16.7988 18.488 16.7989 18.488C 16.799 18.488 16.7991 18.488 16.7992 18.488C 16.7993 18.488 16.7994 18.488 16.7995 18.488C 16.7996 18.488 16.7998 18.488 16.7999 18.488C 16.8 18.488 16.8001 18.488 16.8002 18.488C 16.8003 18.488 16.8004 18.488 16.8005 18.488C 16.8006 18.488 16.8008 18.488 16.8009 18.488C 16.801 18.488 16.8011 18.488 16.8012 18.488C 16.8013 18.488 16.8014 18.488 16.8015 18.488C 16.8016 18.488 16.8017 18.488 16.8019 18.488C 16.802 18.488 16.8021 18.488 16.8022 18.488C 16.8023 18.488 16.8024 18.488 16.8025 18.488C 16.8026 18.488 16.8027 18.488 16.8029 18.488C 16.803 18.488 16.8031 18.488 16.8032 18.488C 16.8033 18.488 16.8034 18.488 16.8035 18.488C 16.8036 18.488 16.8037 18.488 16.8039 18.488C 16.804 18.488 16.8041 18.488 16.8042 18.488C 16.8043 18.488 16.8044 18.488 16.8045 18.488C 16.8046 18.488 16.8047 18.488 16.8048 18.488C 16.805 18.488 16.8051 18.488 16.8052 18.488C 16.8053 18.488 16.8054 18.488 16.8055 18.488C 16.8056 18.488 16.8057 18.488 16.8058 18.488C 16.8059 18.488 16.8061 18.488 16.8062 18.488C 16.8063 18.488 16.8064 18.488 16.8065 18.488C 16.8066 18.488 16.8067 18.488 16.8068 18.488C 16.8069 18.488 16.8071 18.488 16.8072 18.488C 16.8073 18.488 16.8074 18.488 16.8075 18.488C 16.8076 18.488 16.8077 18.488 16.8078 18.488C 16.8079 18.488 16.808 18.488 16.8082 18.488C 16.8083 18.488 16.8084 18.488 16.8085 18.488C 16.8086 18.488 16.8087 18.488 16.8088 18.488C 16.8089 18.488 16.809 18.488 16.8092 18.488C 16.8093 18.488 16.8094 18.488 16.8095 18.488C 16.8096 18.488 16.8097 18.488 16.8098 18.488C 16.8099 18.488 16.81 18.488 16.8101 18.488C 16.8103 18.488 16.8104 18.488 16.8105 18.488C 16.8106 18.488 16.8107 18.488 16.8108 18.488C 16.8109 18.488 16.811 18.488 16.8111 18.488C 16.8112 18.488 16.8114 18.488 16.8115 18.488C 16.8116 18.488 16.8117 18.488 16.8118 18.488C 16.8119 18.488 16.812 18.488 16.8121 18.488C 16.8122 18.488 16.8123 18.488 16.8125 18.488C 16.8126 18.488 16.8127 18.488 16.8128 18.488C 16.8129 18.488 16.813 18.488 16.8131 18.488C 16.8132 18.488 16.8133 18.488 16.8135 18.488C 16.8136 18.488 16.8137 18.488 16.8138 18.488C 16.8139 18.488 16.814 18.488 16.8141 18.488C 16.8142 18.488 16.8143 18.488 16.8144 18.488C 16.8146 18.488 16.8147 18.488 16.8148 18.488C 16.8149 18.488 16.815 18.488 16.8151 18.488C 16.8152 18.488 16.8153 18.488 16.8154 18.488C 16.8155 18.488 16.8157 18.488 16.8158 18.488C 16.8159 18.488 16.816 18.488 16.8161 18.488C 16.8162 18.488 16.8163 18.488 16.8164 18.488C 16.8165 18.488 16.8166 18.488 16.8168 18.488C 16.8169 18.488 16.817 18.488 16.8171 18.488C 16.8172 18.488 16.8173 18.488 16.8174 18.488C 16.8175 18.488 16.8176 18.488 16.8177 18.488C 16.8179 18.488 16.818 18.488 16.8181 18.488C 16.8182 18.488 16.8183 18.488 16.8184 18.488C 16.8185 18.488 16.8186 18.488 16.8187 18.488C 16.8188 18.488 16.819 18.488 16.8191 18.488C 16.8192 18.488 16.8193 18.488 16.8194 18.488C 16.8195 18.488 16.8196 18.488 16.8197 18.488C 16.8198 18.488 16.8199 18.488 16.8201 18.488C 16.8202 18.488 16.8203 18.488 16.8204 18.488C 16.8205 18.488 16.8206 18.488 16.8207 18.488C 16.8208 18.488 16.8209 18.488 16.821 18.488C 16.8212 18.488 16.8213 18.488 16.8214 18.488C 16.8215 18.488 16.8216 18.488 16.8217 18.488C 16.8218 18.488 16.8219 18.488 16.822 18.488C 16.8221 18.488 16.8223 18.488 16.8224 18.488C 16.8225 18.488 16.8226 18.488 16.8227 18.488C 16.8228 18.488 16.8229 18.488 16.823 18.488C 16.8231 18.488 16.8232 18.488 16.8233 18.488C 16.8235 18.488 16.8236 18.488 16.8237 18.488C 16.8238 18.488 16.8239 18.488 16.824 18.488C 16.8241 18.488 16.8242 18.488 16.8243 18.488C 16.8244 18.488 16.8246 18.488 16.8247 18.488C 16.8248 18.488 16.8249 18.488 16.825 18.488C 16.8251 18.488 16.8252 18.488 16.8253 18.488C 16.8254 18.488 16.8255 18.488 16.8256 18.488C 16.8258 18.488 16.8259 18.488 16.826 18.488C 16.8261 18.488 16.8262 18.488 16.8263 18.488C 16.8264 18.488 16.8265 18.488 16.8266 18.488C 16.8267 18.488 16.8269 18.488 16.827 18.488C 16.8271 18.488 16.8272 18.488 16.8273 18.488C 16.8274 18.488 16.8275 18.488 16.8276 18.488C 16.8277 18.488 16.8278 18.488 16.8279 18.488C 16.8281 18.488 16.8282 18.488 16.8283 18.488C 16.8284 18.488 16.8285 18.488 16.8286 18.488C 16.8287 18.488 16.8288 18.488 16.8289 18.488C 16.829 18.488 16.8292 18.488 16.8293 18.488C 16.8294 18.488 16.8295 18.488 16.8296 18.488C 16.8297 18.488 16.8298 18.488 16.8299 18.488C 16.83 18.488 16.8301 18.488 16.8302 18.488C 16.8304 18.488 16.8305 18.488 16.8306 18.488C 16.8307 18.488 16.8308 18.488 16.8309 18.488C 16.831 18.488 16.8311 18.488 16.8312 18.488C 16.8313 18.488 16.8314 18.488 16.8316 18.488C 16.8317 18.488 16.8318 18.488 16.8319 18.488C 16.832 18.488 16.8321 18.488 16.8322 18.488C 16.8323 18.488 16.8324 18.488 16.8325 18.488C 16.8326 18.488 16.8328 18.488 16.8329 18.488C 16.833 18.488 16.8331 18.488 16.8332 18.488C 16.8333 18.488 16.8334 18.488 16.8335 18.488C 16.8336 18.488 16.8337 18.488 16.8338 18.488C 16.834 18.488 16.8341 18.488 16.8342 18.488C 16.8343 18.488 16.8344 18.488 16.8345 18.488C 16.8346 18.488 16.8347 18.488 16.8348 18.488C 16.8349 18.488 16.835 18.488 16.8352 18.488C 16.8353 18.488 16.8354 18.488 16.8355 18.488C 16.8356 18.488 16.8357 18.488 16.8358 18.488C 16.8359 18.488 16.836 18.488 16.8361 18.488C 16.8362 18.488 16.8364 18.488 16.8365 18.488C 16.8366 18.488 16.8367 18.488 16.8368 18.488C 16.8369 18.488 16.837 18.488 16.8371 18.488C 16.8372 18.488 16.8373 18.488 16.8374 18.488C 16.8376 18.488 16.8377 18.488 16.8378 18.488C 16.8379 18.488 16.838 18.488 16.8381 18.488C 16.8382 18.488 16.8383 18.488 16.8384 18.488C 16.8385 18.488 16.8386 18.488 16.8387 18.488C 16.8389 18.488 16.839 18.488 16.8391 18.488C 16.8392 18.488 16.8393 18.488 16.8394 18.488C 16.8395 18.488 16.8396 18.488 16.8397 18.488C 16.8398 18.488 16.8399 18.488 16.8401 18.488C 16.8402 18.488 16.8403 18.488 16.8404 18.488C 16.8405 18.488 16.8406 18.488 16.8407 18.488C 16.8408 18.488 16.8409 18.488 16.841 18.488C 16.8411 18.488 16.8412 18.488 16.8414 18.488C 16.8415 18.488 16.8416 18.488 16.8417 18.488C 16.8418 18.488 16.8419 18.488 16.842 18.488C 16.8421 18.488 16.8422 18.488 16.8423 18.488C 16.8424 18.488 16.8426 18.488 16.8427 18.488C 16.8428 18.488 16.8429 18.488 16.843 18.488C 16.8431 18.488 16.8432 18.488 16.8433 18.488C 16.8434 18.488 16.8435 18.488 16.8436 18.488C 16.8437 18.488 16.8439 18.488 16.844 18.488C 16.8441 18.488 16.8442 18.488 16.8443 18.488C 16.8444 18.488 16.8445 18.488 16.8446 18.488C 16.8447 18.488 16.8448 18.488 16.8449 18.488C 16.845 18.488 16.8451 18.488 16.8453 18.488C 16.8454 18.488 16.8455 18.488 16.8456 18.488C 16.8457 18.488 16.8458 18.488 16.8459 18.488C 16.846 18.488 16.8461 18.488 16.8462 18.488C 16.8463 18.488 16.8464 18.488 16.8466 18.488C 16.8467 18.488 16.8468 18.488 16.8469 18.488C 16.847 18.488 16.8471 18.488 16.8472 18.488C 16.8473 18.488 16.8474 18.488 16.8475 18.488C 16.8476 18.488 16.8477 18.488 16.8479 18.488C 16.848 18.488 16.8481 18.488 16.8482 18.488C 16.8483 18.488 16.8484 18.488 16.8485 18.488C 16.8486 18.488 16.8487 18.488 16.8488 18.488C 16.8489 18.488 16.849 18.488 16.8491 18.488C 16.8493 18.488 16.8494 18.488 16.8495 18.488C 16.8496 18.488 16.8497 18.488 16.8498 18.488C 16.8499 18.488 16.85 18.488 16.8501 18.488C 16.8502 18.488 16.8503 18.488 16.8504 18.488C 16.8506 18.488 16.8507 18.488 16.8508 18.488C 16.8509 18.488 16.851 18.488 16.8511 18.488C 16.8512 18.488 16.8513 18.488 16.8514 18.488C 16.8515 18.488 16.8516 18.488 16.8517 18.488C 16.8518 18.488 16.852 18.488 16.8521 18.488C 16.8522 18.488 16.8523 18.488 16.8524 18.488C 16.8525 18.488 16.8526 18.488 16.8527 18.488C 16.8528 18.488 16.8529 18.488 16.853 18.488C 16.8531 18.488 16.8532 18.488 16.8533 18.488C 16.8535 18.488 16.8536 18.488 16.8537 18.488C 16.8538 18.488 16.8539 18.488 16.854 18.488C 16.8541 18.488 16.8542 18.488 16.8543 18.488C 16.8544 18.488 16.8545 18.488 16.8546 18.488C 16.8547 18.488 16.8549 18.488 16.855 18.488C 16.8551 18.488 16.8552 18.488 16.8553 18.488C 16.8554 18.488 16.8555 18.488 16.8556 18.488C 16.8557 18.488 16.8558 18.488 16.8559 18.488C 16.856 18.488 16.8561 18.488 16.8563 18.488C 16.8564 18.488 16.8565 18.488 16.8566 18.488C 16.8567 18.488 16.8568 18.488 16.8569 18.488C 16.857 18.488 16.8571 18.488 16.8572 18.488C 16.8573 18.488 16.8574 18.488 16.8575 18.488C 16.8576 18.488 16.8578 18.488 16.8579 18.488C 16.858 18.488 16.8581 18.488 16.8582 18.488C 16.8583 18.488 16.8584 18.488 16.8585 18.488C 16.8586 18.488 16.8587 18.488 16.8588 18.488C 16.8589 18.488 16.859 18.488 16.8591 18.488C 16.8593 18.488 16.8594 18.488 16.8595 18.488C 16.8596 18.488 16.8597 18.488 16.8598 18.488C 16.8599 18.488 16.86 18.488 16.8601 18.488C 16.8602 18.488 16.8603 18.488 16.8604 18.488C 16.8605 18.488 16.8606 18.488 16.8607 18.488C 16.8609 18.488 16.861 18.488 16.8611 18.488C 16.8612 18.488 16.8613 18.488 16.8614 18.488C 16.8615 18.488 16.8616 18.488 16.8617 18.488C 16.8618 18.488 16.8619 18.488 16.862 18.488C 16.8621 18.488 16.8622 18.488 16.8623 18.488C 16.8625 18.488 16.8626 18.488 16.8627 18.488C 16.8628 18.488 16.8629 18.488 16.863 18.488C 16.8631 18.488 16.8632 18.488 16.8633 18.488C 16.8634 18.488 16.8635 18.488 16.8636 18.488C 16.8637 18.488 16.8638 18.488 16.8639 18.488C 16.8641 18.488 16.8642 18.488 16.8643 18.488C 16.8644 18.488 16.8645 18.488 16.8646 18.488C 16.8647 18.488 16.8648 18.488 16.8649 18.488C 16.865 18.488 16.8651 18.488 16.8652 18.488C 16.8653 18.488 16.8654 18.488 16.8655 18.488C 16.8657 18.488 16.8658 18.488 16.8659 18.488C 16.866 18.488 16.8661 18.488 16.8662 18.488C 16.8663 18.488 16.8664 18.488 16.8665 18.488C 16.8666 18.488 16.8667 18.488 16.8668 18.488C 16.8669 18.488 16.867 18.488 16.8671 18.488C 16.8672 18.488 16.8674 18.488 16.8675 18.488C 16.8676 18.488 16.8677 18.488 16.8678 18.488C 16.8679 18.488 16.868 18.488 16.8681 18.488C 16.8682 18.488 16.8683 18.488 16.8684 18.488C 16.8685 18.488 16.8686 18.488 16.8687 18.488C 16.8688 18.488 16.8689 18.488 16.869 18.488C 16.8692 18.488 16.8693 18.488 16.8694 18.488C 16.8695 18.488 16.8696 18.488 16.8697 18.488C 16.8698 18.488 16.8699 18.488 16.87 18.488C 16.8701 18.488 16.8702 18.488 16.8703 18.488C 16.8704 18.488 16.8705 18.488 16.8706 18.488C 16.8707 18.488 16.8708 18.488 16.871 18.488C 16.8711 18.488 16.8712 18.488 16.8713 18.488C 16.8714 18.488 16.8715 18.488 16.8716 18.488C 16.8717 18.488 16.8718 18.488 16.8719 18.488C 16.872 18.488 16.8721 18.488 16.8722 18.488C 16.8723 18.488 16.8724 18.488 16.8725 18.488C 16.8726 18.488 16.8728 18.488 16.8729 18.488C 16.873 18.488 16.8731 18.488 16.8732 18.488C 16.8733 18.488 16.8734 18.488 16.8735 18.488C 16.8736 18.488 16.8737 18.488 16.8738 18.488C 16.8739 18.488 16.874 18.488 16.8741 18.488C 16.8742 18.488 16.8743 18.488 16.8744 18.488C 16.8745 18.488 16.8746 18.488 16.8748 18.488C 16.8749 18.488 16.875 18.488 16.8751 18.488C 16.8752 18.488 16.8753 18.488 16.8754 18.488C 16.8755 18.488 16.8756 18.488 16.8757 18.488C 16.8758 18.488 16.8759 18.488 16.876 18.488C 16.8761 18.488 16.8762 18.488 16.8763 18.488C 16.8764 18.488 16.8765 18.488 16.8766 18.488C 16.8768 18.488 16.8769 18.488 16.877 18.488C 16.8771 18.488 16.8772 18.488 16.8773 18.488C 16.8774 18.488 16.8775 18.488 16.8776 18.488C 16.8777 18.488 16.8778 18.488 16.8779 18.488C 16.878 18.488 16.8781 18.488 16.8782 18.488C 16.8783 18.488 16.8784 18.488 16.8785 18.488C 16.8786 18.488 16.8787 18.488 16.8789 18.488C 16.879 18.488 16.8791 18.488 16.8792 18.488C 16.8793 18.488 16.8794 18.488 16.8795 18.488C 16.8796 18.488 16.8797 18.488 16.8798 18.488C 16.8799 18.488 16.88 18.488 16.8801 18.488C 16.8802 18.488 16.8803 18.488 16.8804 18.488C 16.8805 18.488 16.8806 18.488 16.8807 18.488C 16.8808 18.488 16.8809 18.488 16.8811 18.488C 16.8812 18.488 16.8813 18.488 16.8814 18.488C 16.8815 18.488 16.8816 18.488 16.8817 18.488C 16.8818 18.488 16.8819 18.488 16.882 18.488C 16.8821 18.488 16.8822 18.488 16.8823 18.488C 16.8824 18.488 16.8825 18.488 16.8826 18.488C 16.8827 18.488 16.8828 18.488 16.8829 18.488C 16.883 18.488 16.8831 18.488 16.8832 18.488C 16.8834 18.488 16.8835 18.488 16.8836 18.488C 16.8837 18.488 16.8838 18.488 16.8839 18.488C 16.884 18.488 16.8841 18.488 16.8842 18.488C 16.8843 18.488 16.8844 18.488 16.8845 18.488C 16.8846 18.488 16.8847 18.488 16.8848 18.488C 16.8849 18.488 16.885 18.488 16.8851 18.488C 16.8852 18.488 16.8853 18.488 16.8854 18.488C 16.8855 18.488 16.8856 18.488 16.8857 18.488C 16.8858 18.488 16.886 18.488 16.8861 18.488C 16.8862 18.488 16.8863 18.488 16.8864 18.488C 16.8865 18.488 16.8866 18.488 16.8867 18.488C 16.8868 18.488 16.8869 18.488 16.887 18.488C 16.8871 18.488 16.8872 18.488 16.8873 18.488C 16.8874 18.488 16.8875 18.488 16.8876 18.488C 16.8877 18.488 16.8878 18.488 16.8879 18.488C 16.888 18.488 16.8881 18.488 16.8882 18.488C 16.8883 18.488 16.8884 18.488 16.8885 18.488C 16.8887 18.488 16.8888 18.488 16.8889 18.488C 16.889 18.488 16.8891 18.488 16.8892 18.488C 16.8893 18.488 16.8894 18.488 16.8895 18.488C 16.8896 18.488 16.8897 18.488 16.8898 18.488C 16.8899 18.488 16.89 18.488 16.8901 18.488C 16.8902 18.488 16.8903 18.488 16.8904 18.488C 16.8905 18.488 16.8906 18.488 16.8907 18.488C 16.8908 18.488 16.8909 18.488 16.891 18.488C 16.8911 18.488 16.8912 18.488 16.8913 18.488C 16.8914 18.488 16.8915 18.488 16.8916 18.488C 16.8918 18.488 16.8919 18.488 16.892 18.488C 16.8921 18.488 16.8922 18.488 16.8923 18.488C 16.8924 18.488 16.8925 18.488 16.8926 18.488C 16.8927 18.488 16.8928 18.488 16.8929 18.488C 16.893 18.488 16.8931 18.488 16.8932 18.488C 16.8933 18.488 16.8934 18.488 16.8935 18.488C 16.8936 18.488 16.8937 18.488 16.8938 18.488C 16.8939 18.488 16.894 18.488 16.8941 18.488C 16.8942 18.488 16.8943 18.488 16.8944 18.488C 16.8945 18.488 16.8946 18.488 16.8947 18.488C 16.8948 18.488 16.8949 18.488 16.895 18.488C 16.8951 18.488 16.8953 18.488 16.8954 18.488C 16.8955 18.488 16.8956 18.488 16.8957 18.488C 16.8958 18.488 16.8959 18.488 16.896 18.488C 16.8961 18.488 16.8962 18.488 16.8963 18.488C 16.8964 18.488 16.8965 18.488 16.8966 18.488C 16.8967 18.488 16.8968 18.488 16.8969 18.488C 16.897 18.488 16.8971 18.488 16.8972 18.488C 16.8973 18.488 16.8974 18.488 16.8975 18.488C 16.8976 18.488 16.8977 18.488 16.8978 18.488C 16.8979 18.488 16.898 18.488 16.8981 18.488C 16.8982 18.488 16.8983 18.488 16.8984 18.488C 16.8985 18.488 16.8986 18.488 16.8987 18.488C 16.8988 18.488 16.8989 18.488 16.899 18.488C 16.8991 18.488 16.8992 18.488 16.8993 18.488C 16.8994 18.488 16.8995 18.488 16.8997 18.488C 16.8998 18.488 16.8999 18.488 16.9 18.488C 16.9001 18.488 16.9002 18.488 16.9003 18.488C 16.9004 18.488 16.9005 18.488 16.9006 18.488C 16.9007 18.488 16.9008 18.488 16.9009 18.488C 16.901 18.488 16.9011 18.488 16.9012 18.488C 16.9013 18.488 16.9014 18.488 16.9015 18.488C 16.9016 18.488 16.9017 18.488 16.9018 18.488C 16.9019 18.488 16.902 18.488 16.9021 18.488C 16.9022 18.488 16.9023 18.488 16.9024 18.488C 16.9025 18.488 16.9026 18.488 16.9027 18.488C 16.9028 18.488 16.9029 18.488 16.903 18.488C 16.9031 18.488 16.9032 18.488 16.9033 18.488C 16.9034 18.488 16.9035 18.488 16.9036 18.488C 16.9037 18.488 16.9038 18.488 16.9039 18.488C 16.904 18.488 16.9041 18.488 16.9042 18.488C 16.9043 18.488 16.9044 18.488 16.9045 18.488C 16.9046 18.488 16.9047 18.488 16.9048 18.488C 16.9049 18.488 16.905 18.488 16.9051 18.488C 16.9052 18.488 16.9053 18.488 16.9054 18.488C 16.9055 18.488 16.9056 18.488 16.9057 18.488C 16.9058 18.488 16.9059 18.488 16.906 18.488C 16.9061 18.488 16.9062 18.488 16.9063 18.488C 16.9064 18.488 16.9065 18.488 16.9067 18.488C 16.9068 18.488 16.9069 18.488 16.907 18.488C 16.9071 18.488 16.9072 18.488 16.9073 18.488C 16.9074 18.488 16.9075 18.488 16.9076 18.488C 16.9077 18.488 16.9078 18.488 16.9079 18.488C 16.908 18.488 16.9081 18.488 16.9082 18.488C 16.9083 18.488 16.9084 18.488 16.9085 18.488C 16.9086 18.488 16.9087 18.488 16.9088 18.488C 16.9089 18.488 16.909 18.488 16.9091 18.488C 16.9092 18.488 16.9093 18.488 16.9094 18.488C 16.9095 18.488 16.9096 18.488 16.9097 18.488C 16.9098 18.488 16.9099 18.488 16.91 18.488C 16.9101 18.488 16.9102 18.488 16.9103 18.488C 16.9104 18.488 16.9105 18.488 16.9106 18.488C 16.9107 18.488 16.9108 18.488 16.9109 18.488C 16.911 18.488 16.9111 18.488 16.9112 18.488C 16.9113 18.488 16.9114 18.488 16.9115 18.488C 16.9116 18.488 16.9117 18.488 16.9118 18.488C 16.9119 18.488 16.912 18.488 16.9121 18.488C 16.9122 18.488 16.9123 18.488 16.9124 18.488C 16.9125 18.488 16.9126 18.488 16.9127 18.488C 16.9128 18.488 16.9129 18.488 16.913 18.488C 16.9131 18.488 16.9132 18.488 16.9133 18.488C 16.9134 18.488 16.9135 18.488 16.9136 18.488C 16.9137 18.488 16.9138 18.488 16.9139 18.488C 16.914 18.488 16.9141 18.488 16.9142 18.488C 16.9143 18.488 16.9144 18.488 16.9145 18.488C 16.9146 18.488 16.9147 18.488 16.9148 18.488C 16.9149 18.488 16.915 18.488 16.9151 18.488C 16.9152 18.488 16.9153 18.488 16.9154 18.488C 16.9155 18.488 16.9156 18.488 16.9157 18.488C 16.9158 18.488 16.9159 18.488 16.916 18.488C 16.9161 18.488 16.9162 18.488 16.9163 18.488C 16.9164 18.488 16.9165 18.488 16.9166 18.488C 16.9167 18.488 16.9168 18.488 16.9169 18.488C 16.917 18.488 16.9171 18.488 16.9172 18.488C 16.9172 18.488 16.9173 18.488 16.9174 18.488C 16.9175 18.488 16.9176 18.488 16.9177 18.488C 16.9178 18.488 16.9179 18.488 16.918 18.488C 16.9181 18.488 16.9182 18.488 16.9183 18.488C 16.9184 18.488 16.9185 18.488 16.9186 18.488C 16.9187 18.488 16.9188 18.488 16.9189 18.488C 16.919 18.488 16.9191 18.488 16.9192 18.488C 16.9193 18.488 16.9194 18.488 16.9195 18.488C 16.9196 18.488 16.9197 18.488 16.9198 18.488C 16.9199 18.488 16.92 18.488 16.9201 18.488C 16.9202 18.488 16.9203 18.488 16.9204 18.488C 16.9205 18.488 16.9206 18.488 16.9207 18.488C 16.9208 18.488 16.9209 18.488 16.921 18.488C 16.9211 18.488 16.9212 18.488 16.9213 18.488C 16.9214 18.488 16.9215 18.488 16.9216 18.488C 16.9217 18.488 16.9218 18.488 16.9219 18.488C 16.922 18.488 16.9221 18.488 16.9222 18.488C 16.9223 18.488 16.9224 18.488 16.9225 18.488C 16.9226 18.488 16.9227 18.488 16.9228 18.488C 16.9229 18.488 16.923 18.488 16.9231 18.488C 16.9232 18.488 16.9233 18.488 16.9234 18.488C 16.9235 18.488 16.9236 18.488 16.9236 18.488C 16.9237 18.488 16.9238 18.488 16.9239 18.488C 16.924 18.488 16.9241 18.488 16.9242 18.488C 16.9243 18.488 16.9244 18.488 16.9245 18.488C 16.9246 18.488 16.9247 18.488 16.9248 18.488C 16.9249 18.488 16.925 18.488 16.9251 18.488C 16.9252 18.488 16.9253 18.488 16.9254 18.488C 16.9255 18.488 16.9256 18.488 16.9257 18.488C 16.9258 18.488 16.9259 18.488 16.926 18.488C 16.9261 18.488 16.9262 18.488 16.9263 18.488C 16.9264 18.488 16.9265 18.488 16.9266 18.488C 16.9267 18.488 16.9268 18.488 16.9269 18.488C 16.927 18.488 16.9271 18.488 16.9272 18.488C 16.9273 18.488 16.9274 18.488 16.9275 18.488C 16.9275 18.488 16.9276 18.488 16.9277 18.488C 16.9278 18.488 16.9279 18.488 16.928 18.488C 16.9281 18.488 16.9282 18.488 16.9283 18.488C 16.9284 18.488 16.9285 18.488 16.9286 18.488C 16.9287 18.488 16.9288 18.488 16.9289 18.488C 16.929 18.488 16.9291 18.488 16.9292 18.488C 16.9293 18.488 16.9294 18.488 16.9295 18.488C 16.9296 18.488 16.9297 18.488 16.9298 18.488C 16.9299 18.488 16.93 18.488 16.9301 18.488C 16.9302 18.488 16.9303 18.488 16.9304 18.488C 16.9305 18.488 16.9305 18.488 16.9306 18.488C 16.9307 18.488 16.9308 18.488 16.9309 18.488C 16.931 18.488 16.9311 18.488 16.9312 18.488C 16.9313 18.488 16.9314 18.488 16.9315 18.488C 16.9316 18.488 16.9317 18.488 16.9318 18.488C 16.9319 18.488 16.932 18.488 16.9321 18.488C 16.9322 18.488 16.9323 18.488 16.9324 18.488C 16.9325 18.488 16.9326 18.488 16.9327 18.488C 16.9328 18.488 16.9329 18.488 16.933 18.488C 16.9331 18.488 16.9331 18.488 16.9332 18.488C 16.9333 18.488 16.9334 18.488 16.9335 18.488C 16.9336 18.488 16.9337 18.488 16.9338 18.488C 16.9339 18.488 16.934 18.488 16.9341 18.488C 16.9342 18.488 16.9343 18.488 16.9344 18.488C 16.9345 18.488 16.9346 18.488 16.9347 18.488C 16.9348 18.488 16.9349 18.488 16.935 18.488C 16.9351 18.488 16.9352 18.488 16.9353 18.488C 16.9354 18.488 16.9354 18.488 16.9355 18.488C 16.9356 18.488 16.9357 18.488 16.9358 18.488C 16.9359 18.488 16.936 18.488 16.9361 18.488C 16.9362 18.488 16.9363 18.488 16.9364 18.488C 16.9365 18.488 16.9366 18.488 16.9367 18.488C 16.9368 18.488 16.9369 18.488 16.937 18.488L 16.937 15.488C 16.9369 15.488 16.9368 15.488 16.9367 15.488C 16.9366 15.488 16.9365 15.488 16.9364 15.488C 16.9363 15.488 16.9362 15.488 16.9361 15.488C 16.936 15.488 16.9359 15.488 16.9358 15.488C 16.9357 15.488 16.9356 15.488 16.9355 15.488C 16.9354 15.488 16.9354 15.488 16.9353 15.488C 16.9352 15.488 16.9351 15.488 16.935 15.488C 16.9349 15.488 16.9348 15.488 16.9347 15.488C 16.9346 15.488 16.9345 15.488 16.9344 15.488C 16.9343 15.488 16.9342 15.488 16.9341 15.488C 16.934 15.488 16.9339 15.488 16.9338 15.488C 16.9337 15.488 16.9336 15.488 16.9335 15.488C 16.9334 15.488 16.9333 15.488 16.9332 15.488C 16.9331 15.488 16.9331 15.488 16.933 15.488C 16.9329 15.488 16.9328 15.488 16.9327 15.488C 16.9326 15.488 16.9325 15.488 16.9324 15.488C 16.9323 15.488 16.9322 15.488 16.9321 15.488C 16.932 15.488 16.9319 15.488 16.9318 15.488C 16.9317 15.488 16.9316 15.488 16.9315 15.488C 16.9314 15.488 16.9313 15.488 16.9312 15.488C 16.9311 15.488 16.931 15.488 16.9309 15.488C 16.9308 15.488 16.9307 15.488 16.9306 15.488C 16.9305 15.488 16.9305 15.488 16.9304 15.488C 16.9303 15.488 16.9302 15.488 16.9301 15.488C 16.93 15.488 16.9299 15.488 16.9298 15.488C 16.9297 15.488 16.9296 15.488 16.9295 15.488C 16.9294 15.488 16.9293 15.488 16.9292 15.488C 16.9291 15.488 16.929 15.488 16.9289 15.488C 16.9288 15.488 16.9287 15.488 16.9286 15.488C 16.9285 15.488 16.9284 15.488 16.9283 15.488C 16.9282 15.488 16.9281 15.488 16.928 15.488C 16.9279 15.488 16.9278 15.488 16.9277 15.488C 16.9276 15.488 16.9275 15.488 16.9275 15.488C 16.9274 15.488 16.9273 15.488 16.9272 15.488C 16.9271 15.488 16.927 15.488 16.9269 15.488C 16.9268 15.488 16.9267 15.488 16.9266 15.488C 16.9265 15.488 16.9264 15.488 16.9263 15.488C 16.9262 15.488 16.9261 15.488 16.926 15.488C 16.9259 15.488 16.9258 15.488 16.9257 15.488C 16.9256 15.488 16.9255 15.488 16.9254 15.488C 16.9253 15.488 16.9252 15.488 16.9251 15.488C 16.925 15.488 16.9249 15.488 16.9248 15.488C 16.9247 15.488 16.9246 15.488 16.9245 15.488C 16.9244 15.488 16.9243 15.488 16.9242 15.488C 16.9241 15.488 16.924 15.488 16.9239 15.488C 16.9238 15.488 16.9237 15.488 16.9236 15.488C 16.9236 15.488 16.9235 15.488 16.9234 15.488C 16.9233 15.488 16.9232 15.488 16.9231 15.488C 16.923 15.488 16.9229 15.488 16.9228 15.488C 16.9227 15.488 16.9226 15.488 16.9225 15.488C 16.9224 15.488 16.9223 15.488 16.9222 15.488C 16.9221 15.488 16.922 15.488 16.9219 15.488C 16.9218 15.488 16.9217 15.488 16.9216 15.488C 16.9215 15.488 16.9214 15.488 16.9213 15.488C 16.9212 15.488 16.9211 15.488 16.921 15.488C 16.9209 15.488 16.9208 15.488 16.9207 15.488C 16.9206 15.488 16.9205 15.488 16.9204 15.488C 16.9203 15.488 16.9202 15.488 16.9201 15.488C 16.92 15.488 16.9199 15.488 16.9198 15.488C 16.9197 15.488 16.9196 15.488 16.9195 15.488C 16.9194 15.488 16.9193 15.488 16.9192 15.488C 16.9191 15.488 16.919 15.488 16.9189 15.488C 16.9188 15.488 16.9187 15.488 16.9186 15.488C 16.9185 15.488 16.9184 15.488 16.9183 15.488C 16.9182 15.488 16.9181 15.488 16.918 15.488C 16.9179 15.488 16.9178 15.488 16.9177 15.488C 16.9176 15.488 16.9175 15.488 16.9174 15.488C 16.9173 15.488 16.9172 15.488 16.9172 15.488C 16.9171 15.488 16.917 15.488 16.9169 15.488C 16.9168 15.488 16.9167 15.488 16.9166 15.488C 16.9165 15.488 16.9164 15.488 16.9163 15.488C 16.9162 15.488 16.9161 15.488 16.916 15.488C 16.9159 15.488 16.9158 15.488 16.9157 15.488C 16.9156 15.488 16.9155 15.488 16.9154 15.488C 16.9153 15.488 16.9152 15.488 16.9151 15.488C 16.915 15.488 16.9149 15.488 16.9148 15.488C 16.9147 15.488 16.9146 15.488 16.9145 15.488C 16.9144 15.488 16.9143 15.488 16.9142 15.488C 16.9141 15.488 16.914 15.488 16.9139 15.488C 16.9138 15.488 16.9137 15.488 16.9136 15.488C 16.9135 15.488 16.9134 15.488 16.9133 15.488C 16.9132 15.488 16.9131 15.488 16.913 15.488C 16.9129 15.488 16.9128 15.488 16.9127 15.488C 16.9126 15.488 16.9125 15.488 16.9124 15.488C 16.9123 15.488 16.9122 15.488 16.9121 15.488C 16.912 15.488 16.9119 15.488 16.9118 15.488C 16.9117 15.488 16.9116 15.488 16.9115 15.488C 16.9114 15.488 16.9113 15.488 16.9112 15.488C 16.9111 15.488 16.911 15.488 16.9109 15.488C 16.9108 15.488 16.9107 15.488 16.9106 15.488C 16.9105 15.488 16.9104 15.488 16.9103 15.488C 16.9102 15.488 16.9101 15.488 16.91 15.488C 16.9099 15.488 16.9098 15.488 16.9097 15.488C 16.9096 15.488 16.9095 15.488 16.9094 15.488C 16.9093 15.488 16.9092 15.488 16.9091 15.488C 16.909 15.488 16.9089 15.488 16.9088 15.488C 16.9087 15.488 16.9086 15.488 16.9085 15.488C 16.9084 15.488 16.9083 15.488 16.9082 15.488C 16.9081 15.488 16.908 15.488 16.9079 15.488C 16.9078 15.488 16.9077 15.488 16.9076 15.488C 16.9075 15.488 16.9074 15.488 16.9073 15.488C 16.9072 15.488 16.9071 15.488 16.907 15.488C 16.9069 15.488 16.9068 15.488 16.9067 15.488C 16.9065 15.488 16.9064 15.488 16.9063 15.488C 16.9062 15.488 16.9061 15.488 16.906 15.488C 16.9059 15.488 16.9058 15.488 16.9057 15.488C 16.9056 15.488 16.9055 15.488 16.9054 15.488C 16.9053 15.488 16.9052 15.488 16.9051 15.488C 16.905 15.488 16.9049 15.488 16.9048 15.488C 16.9047 15.488 16.9046 15.488 16.9045 15.488C 16.9044 15.488 16.9043 15.488 16.9042 15.488C 16.9041 15.488 16.904 15.488 16.9039 15.488C 16.9038 15.488 16.9037 15.488 16.9036 15.488C 16.9035 15.488 16.9034 15.488 16.9033 15.488C 16.9032 15.488 16.9031 15.488 16.903 15.488C 16.9029 15.488 16.9028 15.488 16.9027 15.488C 16.9026 15.488 16.9025 15.488 16.9024 15.488C 16.9023 15.488 16.9022 15.488 16.9021 15.488C 16.902 15.488 16.9019 15.488 16.9018 15.488C 16.9017 15.488 16.9016 15.488 16.9015 15.488C 16.9014 15.488 16.9013 15.488 16.9012 15.488C 16.9011 15.488 16.901 15.488 16.9009 15.488C 16.9008 15.488 16.9007 15.488 16.9006 15.488C 16.9005 15.488 16.9004 15.488 16.9003 15.488C 16.9002 15.488 16.9001 15.488 16.9 15.488C 16.8999 15.488 16.8998 15.488 16.8997 15.488C 16.8995 15.488 16.8994 15.488 16.8993 15.488C 16.8992 15.488 16.8991 15.488 16.899 15.488C 16.8989 15.488 16.8988 15.488 16.8987 15.488C 16.8986 15.488 16.8985 15.488 16.8984 15.488C 16.8983 15.488 16.8982 15.488 16.8981 15.488C 16.898 15.488 16.8979 15.488 16.8978 15.488C 16.8977 15.488 16.8976 15.488 16.8975 15.488C 16.8974 15.488 16.8973 15.488 16.8972 15.488C 16.8971 15.488 16.897 15.488 16.8969 15.488C 16.8968 15.488 16.8967 15.488 16.8966 15.488C 16.8965 15.488 16.8964 15.488 16.8963 15.488C 16.8962 15.488 16.8961 15.488 16.896 15.488C 16.8959 15.488 16.8958 15.488 16.8957 15.488C 16.8956 15.488 16.8955 15.488 16.8954 15.488C 16.8953 15.488 16.8951 15.488 16.895 15.488C 16.8949 15.488 16.8948 15.488 16.8947 15.488C 16.8946 15.488 16.8945 15.488 16.8944 15.488C 16.8943 15.488 16.8942 15.488 16.8941 15.488C 16.894 15.488 16.8939 15.488 16.8938 15.488C 16.8937 15.488 16.8936 15.488 16.8935 15.488C 16.8934 15.488 16.8933 15.488 16.8932 15.488C 16.8931 15.488 16.893 15.488 16.8929 15.488C 16.8928 15.488 16.8927 15.488 16.8926 15.488C 16.8925 15.488 16.8924 15.488 16.8923 15.488C 16.8922 15.488 16.8921 15.488 16.892 15.488C 16.8919 15.488 16.8918 15.488 16.8916 15.488C 16.8915 15.488 16.8914 15.488 16.8913 15.488C 16.8912 15.488 16.8911 15.488 16.891 15.488C 16.8909 15.488 16.8908 15.488 16.8907 15.488C 16.8906 15.488 16.8905 15.488 16.8904 15.488C 16.8903 15.488 16.8902 15.488 16.8901 15.488C 16.89 15.488 16.8899 15.488 16.8898 15.488C 16.8897 15.488 16.8896 15.488 16.8895 15.488C 16.8894 15.488 16.8893 15.488 16.8892 15.488C 16.8891 15.488 16.889 15.488 16.8889 15.488C 16.8888 15.488 16.8887 15.488 16.8885 15.488C 16.8884 15.488 16.8883 15.488 16.8882 15.488C 16.8881 15.488 16.888 15.488 16.8879 15.488C 16.8878 15.488 16.8877 15.488 16.8876 15.488C 16.8875 15.488 16.8874 15.488 16.8873 15.488C 16.8872 15.488 16.8871 15.488 16.887 15.488C 16.8869 15.488 16.8868 15.488 16.8867 15.488C 16.8866 15.488 16.8865 15.488 16.8864 15.488C 16.8863 15.488 16.8862 15.488 16.8861 15.488C 16.886 15.488 16.8858 15.488 16.8857 15.488C 16.8856 15.488 16.8855 15.488 16.8854 15.488C 16.8853 15.488 16.8852 15.488 16.8851 15.488C 16.885 15.488 16.8849 15.488 16.8848 15.488C 16.8847 15.488 16.8846 15.488 16.8845 15.488C 16.8844 15.488 16.8843 15.488 16.8842 15.488C 16.8841 15.488 16.884 15.488 16.8839 15.488C 16.8838 15.488 16.8837 15.488 16.8836 15.488C 16.8835 15.488 16.8834 15.488 16.8832 15.488C 16.8831 15.488 16.883 15.488 16.8829 15.488C 16.8828 15.488 16.8827 15.488 16.8826 15.488C 16.8825 15.488 16.8824 15.488 16.8823 15.488C 16.8822 15.488 16.8821 15.488 16.882 15.488C 16.8819 15.488 16.8818 15.488 16.8817 15.488C 16.8816 15.488 16.8815 15.488 16.8814 15.488C 16.8813 15.488 16.8812 15.488 16.8811 15.488C 16.8809 15.488 16.8808 15.488 16.8807 15.488C 16.8806 15.488 16.8805 15.488 16.8804 15.488C 16.8803 15.488 16.8802 15.488 16.8801 15.488C 16.88 15.488 16.8799 15.488 16.8798 15.488C 16.8797 15.488 16.8796 15.488 16.8795 15.488C 16.8794 15.488 16.8793 15.488 16.8792 15.488C 16.8791 15.488 16.879 15.488 16.8789 15.488C 16.8787 15.488 16.8786 15.488 16.8785 15.488C 16.8784 15.488 16.8783 15.488 16.8782 15.488C 16.8781 15.488 16.878 15.488 16.8779 15.488C 16.8778 15.488 16.8777 15.488 16.8776 15.488C 16.8775 15.488 16.8774 15.488 16.8773 15.488C 16.8772 15.488 16.8771 15.488 16.877 15.488C 16.8769 15.488 16.8768 15.488 16.8766 15.488C 16.8765 15.488 16.8764 15.488 16.8763 15.488C 16.8762 15.488 16.8761 15.488 16.876 15.488C 16.8759 15.488 16.8758 15.488 16.8757 15.488C 16.8756 15.488 16.8755 15.488 16.8754 15.488C 16.8753 15.488 16.8752 15.488 16.8751 15.488C 16.875 15.488 16.8749 15.488 16.8748 15.488C 16.8746 15.488 16.8745 15.488 16.8744 15.488C 16.8743 15.488 16.8742 15.488 16.8741 15.488C 16.874 15.488 16.8739 15.488 16.8738 15.488C 16.8737 15.488 16.8736 15.488 16.8735 15.488C 16.8734 15.488 16.8733 15.488 16.8732 15.488C 16.8731 15.488 16.873 15.488 16.8729 15.488C 16.8728 15.488 16.8726 15.488 16.8725 15.488C 16.8724 15.488 16.8723 15.488 16.8722 15.488C 16.8721 15.488 16.872 15.488 16.8719 15.488C 16.8718 15.488 16.8717 15.488 16.8716 15.488C 16.8715 15.488 16.8714 15.488 16.8713 15.488C 16.8712 15.488 16.8711 15.488 16.871 15.488C 16.8708 15.488 16.8707 15.488 16.8706 15.488C 16.8705 15.488 16.8704 15.488 16.8703 15.488C 16.8702 15.488 16.8701 15.488 16.87 15.488C 16.8699 15.488 16.8698 15.488 16.8697 15.488C 16.8696 15.488 16.8695 15.488 16.8694 15.488C 16.8693 15.488 16.8692 15.488 16.869 15.488C 16.8689 15.488 16.8688 15.488 16.8687 15.488C 16.8686 15.488 16.8685 15.488 16.8684 15.488C 16.8683 15.488 16.8682 15.488 16.8681 15.488C 16.868 15.488 16.8679 15.488 16.8678 15.488C 16.8677 15.488 16.8676 15.488 16.8675 15.488C 16.8674 15.488 16.8672 15.488 16.8671 15.488C 16.867 15.488 16.8669 15.488 16.8668 15.488C 16.8667 15.488 16.8666 15.488 16.8665 15.488C 16.8664 15.488 16.8663 15.488 16.8662 15.488C 16.8661 15.488 16.866 15.488 16.8659 15.488C 16.8658 15.488 16.8657 15.488 16.8655 15.488C 16.8654 15.488 16.8653 15.488 16.8652 15.488C 16.8651 15.488 16.865 15.488 16.8649 15.488C 16.8648 15.488 16.8647 15.488 16.8646 15.488C 16.8645 15.488 16.8644 15.488 16.8643 15.488C 16.8642 15.488 16.8641 15.488 16.8639 15.488C 16.8638 15.488 16.8637 15.488 16.8636 15.488C 16.8635 15.488 16.8634 15.488 16.8633 15.488C 16.8632 15.488 16.8631 15.488 16.863 15.488C 16.8629 15.488 16.8628 15.488 16.8627 15.488C 16.8626 15.488 16.8625 15.488 16.8623 15.488C 16.8622 15.488 16.8621 15.488 16.862 15.488C 16.8619 15.488 16.8618 15.488 16.8617 15.488C 16.8616 15.488 16.8615 15.488 16.8614 15.488C 16.8613 15.488 16.8612 15.488 16.8611 15.488C 16.861 15.488 16.8609 15.488 16.8607 15.488C 16.8606 15.488 16.8605 15.488 16.8604 15.488C 16.8603 15.488 16.8602 15.488 16.8601 15.488C 16.86 15.488 16.8599 15.488 16.8598 15.488C 16.8597 15.488 16.8596 15.488 16.8595 15.488C 16.8594 15.488 16.8593 15.488 16.8591 15.488C 16.859 15.488 16.8589 15.488 16.8588 15.488C 16.8587 15.488 16.8586 15.488 16.8585 15.488C 16.8584 15.488 16.8583 15.488 16.8582 15.488C 16.8581 15.488 16.858 15.488 16.8579 15.488C 16.8578 15.488 16.8576 15.488 16.8575 15.488C 16.8574 15.488 16.8573 15.488 16.8572 15.488C 16.8571 15.488 16.857 15.488 16.8569 15.488C 16.8568 15.488 16.8567 15.488 16.8566 15.488C 16.8565 15.488 16.8564 15.488 16.8563 15.488C 16.8561 15.488 16.856 15.488 16.8559 15.488C 16.8558 15.488 16.8557 15.488 16.8556 15.488C 16.8555 15.488 16.8554 15.488 16.8553 15.488C 16.8552 15.488 16.8551 15.488 16.855 15.488C 16.8549 15.488 16.8547 15.488 16.8546 15.488C 16.8545 15.488 16.8544 15.488 16.8543 15.488C 16.8542 15.488 16.8541 15.488 16.854 15.488C 16.8539 15.488 16.8538 15.488 16.8537 15.488C 16.8536 15.488 16.8535 15.488 16.8533 15.488C 16.8532 15.488 16.8531 15.488 16.853 15.488C 16.8529 15.488 16.8528 15.488 16.8527 15.488C 16.8526 15.488 16.8525 15.488 16.8524 15.488C 16.8523 15.488 16.8522 15.488 16.8521 15.488C 16.852 15.488 16.8518 15.488 16.8517 15.488C 16.8516 15.488 16.8515 15.488 16.8514 15.488C 16.8513 15.488 16.8512 15.488 16.8511 15.488C 16.851 15.488 16.8509 15.488 16.8508 15.488C 16.8507 15.488 16.8506 15.488 16.8504 15.488C 16.8503 15.488 16.8502 15.488 16.8501 15.488C 16.85 15.488 16.8499 15.488 16.8498 15.488C 16.8497 15.488 16.8496 15.488 16.8495 15.488C 16.8494 15.488 16.8493 15.488 16.8491 15.488C 16.849 15.488 16.8489 15.488 16.8488 15.488C 16.8487 15.488 16.8486 15.488 16.8485 15.488C 16.8484 15.488 16.8483 15.488 16.8482 15.488C 16.8481 15.488 16.848 15.488 16.8479 15.488C 16.8477 15.488 16.8476 15.488 16.8475 15.488C 16.8474 15.488 16.8473 15.488 16.8472 15.488C 16.8471 15.488 16.847 15.488 16.8469 15.488C 16.8468 15.488 16.8467 15.488 16.8466 15.488C 16.8464 15.488 16.8463 15.488 16.8462 15.488C 16.8461 15.488 16.846 15.488 16.8459 15.488C 16.8458 15.488 16.8457 15.488 16.8456 15.488C 16.8455 15.488 16.8454 15.488 16.8453 15.488C 16.8451 15.488 16.845 15.488 16.8449 15.488C 16.8448 15.488 16.8447 15.488 16.8446 15.488C 16.8445 15.488 16.8444 15.488 16.8443 15.488C 16.8442 15.488 16.8441 15.488 16.844 15.488C 16.8439 15.488 16.8437 15.488 16.8436 15.488C 16.8435 15.488 16.8434 15.488 16.8433 15.488C 16.8432 15.488 16.8431 15.488 16.843 15.488C 16.8429 15.488 16.8428 15.488 16.8427 15.488C 16.8426 15.488 16.8424 15.488 16.8423 15.488C 16.8422 15.488 16.8421 15.488 16.842 15.488C 16.8419 15.488 16.8418 15.488 16.8417 15.488C 16.8416 15.488 16.8415 15.488 16.8414 15.488C 16.8412 15.488 16.8411 15.488 16.841 15.488C 16.8409 15.488 16.8408 15.488 16.8407 15.488C 16.8406 15.488 16.8405 15.488 16.8404 15.488C 16.8403 15.488 16.8402 15.488 16.8401 15.488C 16.8399 15.488 16.8398 15.488 16.8397 15.488C 16.8396 15.488 16.8395 15.488 16.8394 15.488C 16.8393 15.488 16.8392 15.488 16.8391 15.488C 16.839 15.488 16.8389 15.488 16.8387 15.488C 16.8386 15.488 16.8385 15.488 16.8384 15.488C 16.8383 15.488 16.8382 15.488 16.8381 15.488C 16.838 15.488 16.8379 15.488 16.8378 15.488C 16.8377 15.488 16.8376 15.488 16.8374 15.488C 16.8373 15.488 16.8372 15.488 16.8371 15.488C 16.837 15.488 16.8369 15.488 16.8368 15.488C 16.8367 15.488 16.8366 15.488 16.8365 15.488C 16.8364 15.488 16.8362 15.488 16.8361 15.488C 16.836 15.488 16.8359 15.488 16.8358 15.488C 16.8357 15.488 16.8356 15.488 16.8355 15.488C 16.8354 15.488 16.8353 15.488 16.8352 15.488C 16.835 15.488 16.8349 15.488 16.8348 15.488C 16.8347 15.488 16.8346 15.488 16.8345 15.488C 16.8344 15.488 16.8343 15.488 16.8342 15.488C 16.8341 15.488 16.834 15.488 16.8338 15.488C 16.8337 15.488 16.8336 15.488 16.8335 15.488C 16.8334 15.488 16.8333 15.488 16.8332 15.488C 16.8331 15.488 16.833 15.488 16.8329 15.488C 16.8328 15.488 16.8326 15.488 16.8325 15.488C 16.8324 15.488 16.8323 15.488 16.8322 15.488C 16.8321 15.488 16.832 15.488 16.8319 15.488C 16.8318 15.488 16.8317 15.488 16.8316 15.488C 16.8314 15.488 16.8313 15.488 16.8312 15.488C 16.8311 15.488 16.831 15.488 16.8309 15.488C 16.8308 15.488 16.8307 15.488 16.8306 15.488C 16.8305 15.488 16.8304 15.488 16.8302 15.488C 16.8301 15.488 16.83 15.488 16.8299 15.488C 16.8298 15.488 16.8297 15.488 16.8296 15.488C 16.8295 15.488 16.8294 15.488 16.8293 15.488C 16.8292 15.488 16.829 15.488 16.8289 15.488C 16.8288 15.488 16.8287 15.488 16.8286 15.488C 16.8285 15.488 16.8284 15.488 16.8283 15.488C 16.8282 15.488 16.8281 15.488 16.8279 15.488C 16.8278 15.488 16.8277 15.488 16.8276 15.488C 16.8275 15.488 16.8274 15.488 16.8273 15.488C 16.8272 15.488 16.8271 15.488 16.827 15.488C 16.8269 15.488 16.8267 15.488 16.8266 15.488C 16.8265 15.488 16.8264 15.488 16.8263 15.488C 16.8262 15.488 16.8261 15.488 16.826 15.488C 16.8259 15.488 16.8258 15.488 16.8256 15.488C 16.8255 15.488 16.8254 15.488 16.8253 15.488C 16.8252 15.488 16.8251 15.488 16.825 15.488C 16.8249 15.488 16.8248 15.488 16.8247 15.488C 16.8246 15.488 16.8244 15.488 16.8243 15.488C 16.8242 15.488 16.8241 15.488 16.824 15.488C 16.8239 15.488 16.8238 15.488 16.8237 15.488C 16.8236 15.488 16.8235 15.488 16.8233 15.488C 16.8232 15.488 16.8231 15.488 16.823 15.488C 16.8229 15.488 16.8228 15.488 16.8227 15.488C 16.8226 15.488 16.8225 15.488 16.8224 15.488C 16.8223 15.488 16.8221 15.488 16.822 15.488C 16.8219 15.488 16.8218 15.488 16.8217 15.488C 16.8216 15.488 16.8215 15.488 16.8214 15.488C 16.8213 15.488 16.8212 15.488 16.821 15.488C 16.8209 15.488 16.8208 15.488 16.8207 15.488C 16.8206 15.488 16.8205 15.488 16.8204 15.488C 16.8203 15.488 16.8202 15.488 16.8201 15.488C 16.8199 15.488 16.8198 15.488 16.8197 15.488C 16.8196 15.488 16.8195 15.488 16.8194 15.488C 16.8193 15.488 16.8192 15.488 16.8191 15.488C 16.819 15.488 16.8188 15.488 16.8187 15.488C 16.8186 15.488 16.8185 15.488 16.8184 15.488C 16.8183 15.488 16.8182 15.488 16.8181 15.488C 16.818 15.488 16.8179 15.488 16.8177 15.488C 16.8176 15.488 16.8175 15.488 16.8174 15.488C 16.8173 15.488 16.8172 15.488 16.8171 15.488C 16.817 15.488 16.8169 15.488 16.8168 15.488C 16.8166 15.488 16.8165 15.488 16.8164 15.488C 16.8163 15.488 16.8162 15.488 16.8161 15.488C 16.816 15.488 16.8159 15.488 16.8158 15.488C 16.8157 15.488 16.8155 15.488 16.8154 15.488C 16.8153 15.488 16.8152 15.488 16.8151 15.488C 16.815 15.488 16.8149 15.488 16.8148 15.488C 16.8147 15.488 16.8146 15.488 16.8144 15.488C 16.8143 15.488 16.8142 15.488 16.8141 15.488C 16.814 15.488 16.8139 15.488 16.8138 15.488C 16.8137 15.488 16.8136 15.488 16.8135 15.488C 16.8133 15.488 16.8132 15.488 16.8131 15.488C 16.813 15.488 16.8129 15.488 16.8128 15.488C 16.8127 15.488 16.8126 15.488 16.8125 15.488C 16.8123 15.488 16.8122 15.488 16.8121 15.488C 16.812 15.488 16.8119 15.488 16.8118 15.488C 16.8117 15.488 16.8116 15.488 16.8115 15.488C 16.8114 15.488 16.8112 15.488 16.8111 15.488C 16.811 15.488 16.8109 15.488 16.8108 15.488C 16.8107 15.488 16.8106 15.488 16.8105 15.488C 16.8104 15.488 16.8103 15.488 16.8101 15.488C 16.81 15.488 16.8099 15.488 16.8098 15.488C 16.8097 15.488 16.8096 15.488 16.8095 15.488C 16.8094 15.488 16.8093 15.488 16.8092 15.488C 16.809 15.488 16.8089 15.488 16.8088 15.488C 16.8087 15.488 16.8086 15.488 16.8085 15.488C 16.8084 15.488 16.8083 15.488 16.8082 15.488C 16.808 15.488 16.8079 15.488 16.8078 15.488C 16.8077 15.488 16.8076 15.488 16.8075 15.488C 16.8074 15.488 16.8073 15.488 16.8072 15.488C 16.8071 15.488 16.8069 15.488 16.8068 15.488C 16.8067 15.488 16.8066 15.488 16.8065 15.488C 16.8064 15.488 16.8063 15.488 16.8062 15.488C 16.8061 15.488 16.8059 15.488 16.8058 15.488C 16.8057 15.488 16.8056 15.488 16.8055 15.488C 16.8054 15.488 16.8053 15.488 16.8052 15.488C 16.8051 15.488 16.805 15.488 16.8048 15.488C 16.8047 15.488 16.8046 15.488 16.8045 15.488C 16.8044 15.488 16.8043 15.488 16.8042 15.488C 16.8041 15.488 16.804 15.488 16.8039 15.488C 16.8037 15.488 16.8036 15.488 16.8035 15.488C 16.8034 15.488 16.8033 15.488 16.8032 15.488C 16.8031 15.488 16.803 15.488 16.8029 15.488C 16.8027 15.488 16.8026 15.488 16.8025 15.488C 16.8024 15.488 16.8023 15.488 16.8022 15.488C 16.8021 15.488 16.802 15.488 16.8019 15.488C 16.8017 15.488 16.8016 15.488 16.8015 15.488C 16.8014 15.488 16.8013 15.488 16.8012 15.488C 16.8011 15.488 16.801 15.488 16.8009 15.488C 16.8008 15.488 16.8006 15.488 16.8005 15.488C 16.8004 15.488 16.8003 15.488 16.8002 15.488C 16.8001 15.488 16.8 15.488 16.7999 15.488C 16.7998 15.488 16.7996 15.488 16.7995 15.488C 16.7994 15.488 16.7993 15.488 16.7992 15.488C 16.7991 15.488 16.799 15.488 16.7989 15.488C 16.7988 15.488 16.7987 15.488 16.7985 15.488C 16.7984 15.488 16.7983 15.488 16.7982 15.488C 16.7981 15.488 16.798 15.488 16.7979 15.488C 16.7978 15.488 16.7977 15.488 16.7975 15.488C 16.7974 15.488 16.7973 15.488 16.7972 15.488C 16.7971 15.488 16.797 15.488 16.7969 15.488C 16.7968 15.488 16.7967 15.488 16.7965 15.488C 16.7964 15.488 16.7963 15.488 16.7962 15.488C 16.7961 15.488 16.796 15.488 16.7959 15.488C 16.7958 15.488 16.7957 15.488 16.7955 15.488C 16.7954 15.488 16.7953 15.488 16.7952 15.488C 16.7951 15.488 16.795 15.488 16.7949 15.488C 16.7948 15.488 16.7947 15.488 16.7946 15.488C 16.7944 15.488 16.7943 15.488 16.7942 15.488C 16.7941 15.488 16.794 15.488 16.7939 15.488C 16.7938 15.488 16.7937 15.488 16.7936 15.488C 16.7934 15.488 16.7933 15.488 16.7932 15.488C 16.7931 15.488 16.793 15.488 16.7929 15.488C 16.7928 15.488 16.7927 15.488 16.7926 15.488C 16.7924 15.488 16.7923 15.488 16.7922 15.488C 16.7921 15.488 16.792 15.488 16.7919 15.488C 16.7918 15.488 16.7917 15.488 16.7916 15.488C 16.7915 15.488 16.7913 15.488 16.7912 15.488C 16.7911 15.488 16.791 15.488 16.7909 15.488C 16.7908 15.488 16.7907 15.488 16.7906 15.488C 16.7905 15.488 16.7903 15.488 16.7902 15.488C 16.7901 15.488 16.79 15.488 16.7899 15.488C 16.7898 15.488 16.7897 15.488 16.7896 15.488C 16.7895 15.488 16.7893 15.488 16.7892 15.488C 16.7891 15.488 16.789 15.488 16.7889 15.488C 16.7888 15.488 16.7887 15.488 16.7886 15.488C 16.7885 15.488 16.7883 15.488 16.7882 15.488C 16.7881 15.488 16.788 15.488 16.7879 15.488C 16.7878 15.488 16.7877 15.488 16.7876 15.488C 16.7875 15.488 16.7873 15.488 16.7872 15.488C 16.7871 15.488 16.787 15.488 16.7869 15.488C 16.7868 15.488 16.7867 15.488 16.7866 15.488C 16.7865 15.488 16.7863 15.488 16.7862 15.488C 16.7861 15.488 16.786 15.488 16.7859 15.488C 16.7858 15.488 16.7857 15.488 16.7856 15.488C 16.7855 15.488 16.7854 15.488 16.7852 15.488C 16.7851 15.488 16.785 15.488 16.7849 15.488C 16.7848 15.488 16.7847 15.488 16.7846 15.488C 16.7845 15.488 16.7844 15.488 16.7842 15.488C 16.7841 15.488 16.784 15.488 16.7839 15.488C 16.7838 15.488 16.7837 15.488 16.7836 15.488C 16.7835 15.488 16.7834 15.488 16.7832 15.488C 16.7831 15.488 16.783 15.488 16.7829 15.488C 16.7828 15.488 16.7827 15.488 16.7826 15.488C 16.7825 15.488 16.7824 15.488 16.7822 15.488C 16.7821 15.488 16.782 15.488 16.7819 15.488C 16.7818 15.488 16.7817 15.488 16.7816 15.488C 16.7815 15.488 16.7814 15.488 16.7812 15.488C 16.7811 15.488 16.781 15.488 16.7809 15.488C 16.7808 15.488 16.7807 15.488 16.7806 15.488C 16.7805 15.488 16.7804 15.488 16.7802 15.488C 16.7801 15.488 16.78 15.488 16.7799 15.488C 16.7798 15.488 16.7797 15.488 16.7796 15.488C 16.7795 15.488 16.7794 15.488 16.7792 15.488C 16.7791 15.488 16.779 15.488 16.7789 15.488C 16.7788 15.488 16.7787 15.488 16.7786 15.488C 16.7785 15.488 16.7784 15.488 16.7782 15.488C 16.7781 15.488 16.778 15.488 16.7779 15.488C 16.7778 15.488 16.7777 15.488 16.7776 15.488C 16.7775 15.488 16.7774 15.488 16.7772 15.488C 16.7771 15.488 16.777 15.488 16.7769 15.488C 16.7768 15.488 16.7767 15.488 16.7766 15.488C 16.7765 15.488 16.7764 15.488 16.7763 15.488C 16.7761 15.488 16.776 15.488 16.7759 15.488C 16.7758 15.488 16.7757 15.488 16.7756 15.488C 16.7755 15.488 16.7754 15.488 16.7753 15.488C 16.7751 15.488 16.775 15.488 16.7749 15.488C 16.7748 15.488 16.7747 15.488 16.7746 15.488L 16.7746 18.488ZM 16.937 18.488C 18.4465 18.488 19.8373 19.7706 19.9203 21.6653L 22.9174 21.534C 22.7731 18.2406 20.2504 15.488 16.937 15.488L 16.937 18.488ZM 21.4189 23.0997L 30.5125 23.0997L 30.5125 20.0997L 21.4189 20.0997L 21.4189 23.0997ZM 30.5125 23.0997C 32.0917 23.0997 33.1898 21.7554 33.1898 20.3332L 30.1898 20.3332C 30.1898 20.3025 30.2021 20.2546 30.2461 20.2072C 30.2919 20.158 30.3852 20.0997 30.5125 20.0997L 30.5125 23.0997ZM 33.1898 20.3332L 33.1898 1.26646L 30.1898 1.26646L 30.1898 20.3332L 33.1898 20.3332ZM 33.1898 1.26646C 33.1898 -0.155708 32.0917 -1.5 30.5125 -1.5L 30.5125 1.5C 30.3852 1.5 30.2919 1.44168 30.2461 1.39249C 30.2021 1.34507 30.1898 1.29712 30.1898 1.26646L 33.1898 1.26646Z"/>
</defs>
</svg>
