<svg width="36" height="41" viewBox="0 0 36 41" version="1.1" xmlns="http://www.w3.org/2000/svg" xmlns:xlink="http://www.w3.org/1999/xlink">
<title>vitamins</title>
<desc>Created using Figma</desc>
<g id="Canvas" transform="translate(6858 -24565)">
<g id="vitamins">
<g id="Group">
<g id="Vector">
<use xlink:href="#path0_fill" transform="translate(-6857 24588.9)" fill="#243847"/>
<use xlink:href="#path1_stroke" transform="translate(-6857 24588.9)" fill="#243847"/>
</g>
<g id="Vector">
<use xlink:href="#path2_fill" transform="translate(-6847.63 24566)" fill="#243847"/>
<use xlink:href="#path3_stroke" transform="translate(-6847.63 24566)" fill="#243847"/>
</g>
<g id="Vector">
<use xlink:href="#path4_fill" transform="translate(-6844.91 24571)" fill="#243847"/>
<use xlink:href="#path5_stroke" transform="translate(-6844.91 24571)" fill="#243847"/>
</g>
<g id="Vector">
<use xlink:href="#path6_fill" transform="translate(-6841.87 24582.7)" fill="#243847"/>
<use xlink:href="#path7_stroke" transform="translate(-6841.87 24582.7)" fill="#243847"/>
</g>
</g>
</g>
</g>
<defs>
<path id="path0_fill" d="M 31.3453 9.20163L 24.8227 9.20163C 24.448 9.20163 24.1443 9.48473 24.1443 9.83393C 24.1443 10.1831 24.448 10.4662 24.8227 10.4662L 31.3453 10.4662C 32.0602 10.4662 32.6418 11.0083 32.6418 11.6746C 32.6418 11.7929 32.6233 11.9089 32.5879 12.0197C 32.217 11.8356 31.7941 11.7308 31.3453 11.7308L 22.51 11.7308C 23.0755 10.7892 22.9299 9.57367 22.0718 8.77385L 14.5951 1.80536C 13.5089 0.792995 11.4548 -8.34978e-05 9.91868 8.09451e-07L 0.678414 8.09451e-07C 0.303748 8.09451e-07 -2.20838e-08 0.283104 -2.20838e-08 0.632305C -2.20838e-08 0.981505 0.303748 1.26461 0.678414 1.26461L 9.91868 1.26461C 11.0989 1.26461 12.801 1.9217 13.6357 2.6996L 21.1123 9.6681C 21.6178 10.1392 21.6178 10.9058 21.1123 11.377C 20.8675 11.6052 20.5418 11.7309 20.1956 11.7309C 19.8492 11.7309 19.5237 11.6052 19.2788 11.377L 13.2023 5.71358C 12.9374 5.46665 12.5078 5.46665 12.2429 5.71358C 11.978 5.96052 11.978 6.36089 12.2429 6.60775L 18.3194 12.2712C 18.8206 12.7383 19.4868 12.9955 20.1956 12.9955L 31.3453 12.9955C 32.0601 12.9955 32.6417 13.5375 32.6417 14.2038C 32.6417 14.8701 32.0602 15.4121 31.346 15.4121L 18.8954 15.4018C 18.5633 15.4016 18.0002 15.2648 17.7043 15.1136L 5.04939 7.82995C 5.04152 7.8254 5.03356 7.82101 5.02542 7.8168C 4.5299 7.55713 3.72766 7.36137 3.15915 7.36137L 0.678414 7.36137C 0.303748 7.36137 -2.20838e-08 7.64447 -2.20838e-08 7.99367C -2.20838e-08 8.34287 0.303748 8.62598 0.678414 8.62598L 3.15915 8.62598C 3.49094 8.62598 4.05384 8.7623 4.34963 8.91355L 17.0045 16.1972C 17.0124 16.2017 17.0203 16.2061 17.0285 16.2103C 17.5238 16.4699 18.3259 16.666 18.8941 16.6664L 31.3453 16.6767C 32.8084 16.6767 33.9987 15.5673 33.9987 14.2037C 33.9987 13.7422 33.862 13.3101 33.6248 12.94C 33.868 12.5604 33.9987 12.1256 33.9987 11.6745C 33.9986 10.311 32.8084 9.20163 31.3453 9.20163Z"/>
<path id="path1_stroke" d="M 32.5879 12.0197L 32.5324 12.1317L 32.6627 12.1963L 32.707 12.0577L 32.5879 12.0197ZM 22.51 11.7308L 22.4029 11.6665L 22.2892 11.8558L 22.51 11.8558L 22.51 11.7308ZM 22.0718 8.77385L 22.157 8.68241L 22.0718 8.77385ZM 14.5951 1.80536L 14.5099 1.8968L 14.5951 1.80536ZM 9.91868 8.09451e-07L 9.91868 0.125001L 9.91869 0.125001L 9.91868 8.09451e-07ZM 13.6357 2.6996L 13.5504 2.79104L 13.6357 2.6996ZM 21.1123 9.6681L 21.1976 9.57666L 21.1123 9.6681ZM 21.1123 11.377L 21.1976 11.4684L 21.1976 11.4684L 21.1123 11.377ZM 19.2788 11.377L 19.364 11.2856L 19.364 11.2856L 19.2788 11.377ZM 13.2023 5.71358L 13.1171 5.80503L 13.1171 5.80503L 13.2023 5.71358ZM 12.2429 5.71358L 12.3282 5.80503L 12.3282 5.80501L 12.2429 5.71358ZM 12.2429 6.60775L 12.3282 6.5163L 12.3281 6.51629L 12.2429 6.60775ZM 18.3194 12.2712L 18.4047 12.1797L 18.4047 12.1797L 18.3194 12.2712ZM 31.346 15.4121L 31.3459 15.5371L 31.346 15.5371L 31.346 15.4121ZM 18.8954 15.4018L 18.8955 15.2768L 18.8955 15.2768L 18.8954 15.4018ZM 17.7043 15.1136L 17.6418 15.2221L 17.6474 15.2249L 17.7043 15.1136ZM 5.04939 7.82995L 4.9868 7.93815L 4.98703 7.93829L 5.04939 7.82995ZM 5.02542 7.8168L 4.9674 7.92752L 4.96794 7.9278L 5.02542 7.8168ZM 4.34963 8.91355L 4.41206 8.80508L 4.40654 8.80225L 4.34963 8.91355ZM 17.0045 16.1972L 17.0671 16.089L 17.0668 16.0889L 17.0045 16.1972ZM 17.0285 16.2103L 17.0865 16.0996L 17.0859 16.0993L 17.0285 16.2103ZM 18.8941 16.6664L 18.8942 16.5414L 18.8942 16.5414L 18.8941 16.6664ZM 31.3453 16.6767L 31.3452 16.8017L 31.3453 16.8017L 31.3453 16.6767ZM 33.6248 12.94L 33.5196 12.8726L 33.4764 12.94L 33.5196 13.0074L 33.6248 12.94ZM 33.9987 11.6745L 34.1237 11.6745L 34.1237 11.6745L 33.9987 11.6745ZM 31.3453 9.07663L 24.8227 9.07663L 24.8227 9.32663L 31.3453 9.32663L 31.3453 9.07663ZM 24.8227 9.07663C 24.3874 9.07663 24.0193 9.40755 24.0193 9.83393L 24.2693 9.83393C 24.2693 9.56191 24.5086 9.32663 24.8227 9.32663L 24.8227 9.07663ZM 24.0193 9.83393C 24.0193 10.2603 24.3874 10.5912 24.8227 10.5912L 24.8227 10.3412C 24.5086 10.3412 24.2693 10.106 24.2693 9.83393L 24.0193 9.83393ZM 24.8227 10.5912L 31.3453 10.5912L 31.3453 10.3412L 24.8227 10.3412L 24.8227 10.5912ZM 31.3453 10.5912C 31.9996 10.5912 32.5168 11.0855 32.5168 11.6746L 32.7668 11.6746C 32.7668 10.9312 32.1208 10.3412 31.3453 10.3412L 31.3453 10.5912ZM 32.5168 11.6746C 32.5168 11.7798 32.5004 11.883 32.4688 11.9817L 32.707 12.0577C 32.7462 11.9348 32.7668 11.806 32.7668 11.6746L 32.5168 11.6746ZM 32.6435 11.9077C 32.2555 11.7152 31.8137 11.6058 31.3453 11.6058L 31.3453 11.8558C 31.7745 11.8558 32.1784 11.956 32.5324 12.1317L 32.6435 11.9077ZM 31.3453 11.6058L 22.51 11.6058L 22.51 11.8558L 31.3453 11.8558L 31.3453 11.6058ZM 22.6172 11.7952C 23.2129 10.8031 23.0585 9.5226 22.157 8.68241L 21.9866 8.86529C 22.8014 9.62475 22.938 10.7753 22.4029 11.6665L 22.6172 11.7952ZM 22.157 8.68241L 14.6804 1.71391L 14.5099 1.8968L 21.9866 8.86529L 22.157 8.68241ZM 14.6804 1.71391C 14.1223 1.19378 13.322 0.735067 12.4706 0.4064C 11.6191 0.0776496 10.706 -0.125042 9.91868 -0.124999L 9.91869 0.125001C 10.6675 0.12496 11.5495 0.318765 12.3806 0.639623C 13.2119 0.960564 13.9818 1.40457 14.5099 1.8968L 14.6804 1.71391ZM 9.91868 -0.124999L 0.678414 -0.124999L 0.678414 0.125001L 9.91868 0.125001L 9.91868 -0.124999ZM 0.678414 -0.124999C 0.243145 -0.124999 -0.125 0.205928 -0.125 0.632305L 0.125 0.632305C 0.125 0.360281 0.364352 0.125001 0.678414 0.125001L 0.678414 -0.124999ZM -0.125 0.632305C -0.125 1.05868 0.243145 1.38961 0.678414 1.38961L 0.678414 1.13961C 0.364352 1.13961 0.125 0.904329 0.125 0.632305L -0.125 0.632305ZM 0.678414 1.38961L 9.91868 1.38961L 9.91868 1.13961L 0.678414 1.13961L 0.678414 1.38961ZM 9.91868 1.38961C 10.4887 1.38961 11.1935 1.54904 11.8617 1.807C 12.5302 2.06507 13.1487 2.41662 13.5504 2.79104L 13.7209 2.60816C 13.288 2.20469 12.6381 1.83873 11.9518 1.57378C 11.2652 1.30872 10.5289 1.13961 9.91868 1.13961L 9.91868 1.38961ZM 13.5504 2.79104L 21.0271 9.75954L 21.1976 9.57666L 13.7209 2.60816L 13.5504 2.79104ZM 21.0271 9.75954C 21.4795 10.1812 21.4795 10.8638 21.0271 11.2856L 21.1976 11.4684C 21.756 10.9478 21.7561 10.0972 21.1976 9.57666L 21.0271 9.75954ZM 21.0271 11.2856C 20.8063 11.4914 20.5114 11.6059 20.1956 11.6059L 20.1956 11.8559C 20.5722 11.8559 20.9287 11.719 21.1976 11.4684L 21.0271 11.2856ZM 20.1956 11.6059C 19.8796 11.6059 19.5849 11.4914 19.364 11.2856L 19.1936 11.4684C 19.4624 11.719 19.8188 11.8559 20.1956 11.8559L 20.1956 11.6059ZM 19.364 11.2856L 13.2875 5.62214L 13.1171 5.80503L 19.1936 11.4684L 19.364 11.2856ZM 13.2875 5.62214C 12.9746 5.33047 12.4706 5.33045 12.1577 5.62216L 12.3282 5.80501C 12.545 5.60285 12.9001 5.60283 13.1171 5.80503L 13.2875 5.62214ZM 12.1577 5.62214C 11.8397 5.9185 11.8397 6.40291 12.1577 6.6992L 12.3281 6.51629C 12.1163 6.31888 12.1162 6.00254 12.3282 5.80503L 12.1577 5.62214ZM 12.1577 6.69919L 18.2342 12.3626L 18.4047 12.1797L 12.3282 6.5163L 12.1577 6.69919ZM 18.2342 12.3626C 18.7593 12.8521 19.4564 13.1205 20.1956 13.1205L 20.1956 12.8705C 19.5173 12.8705 18.8818 12.6245 18.4047 12.1797L 18.2342 12.3626ZM 20.1956 13.1205L 31.3453 13.1205L 31.3453 12.8705L 20.1956 12.8705L 20.1956 13.1205ZM 31.3453 13.1205C 31.9995 13.1205 32.5167 13.6147 32.5167 14.2038L 32.7667 14.2038C 32.7667 13.4604 32.1207 12.8705 31.3453 12.8705L 31.3453 13.1205ZM 32.5167 14.2038C 32.5167 14.793 31.9996 15.2871 31.346 15.2871L 31.346 15.5371C 32.1209 15.5371 32.7667 14.9472 32.7667 14.2038L 32.5167 14.2038ZM 31.3461 15.2871L 18.8955 15.2768L 18.8953 15.5268L 31.3459 15.5371L 31.3461 15.2871ZM 18.8955 15.2768C 18.7432 15.2767 18.5301 15.2448 18.3157 15.1928C 18.1014 15.1409 17.897 15.0717 17.7611 15.0023L 17.6474 15.2249C 17.8074 15.3067 18.0326 15.3815 18.2568 15.4358C 18.481 15.4901 18.7155 15.5267 18.8953 15.5268L 18.8955 15.2768ZM 17.7666 15.0053L 5.11174 7.72161L 4.98703 7.93829L 17.6419 15.2219L 17.7666 15.0053ZM 5.11198 7.72175C 5.10259 7.71632 5.09293 7.71099 5.08289 7.70579L 4.96794 7.9278C 4.97419 7.93104 4.98044 7.93447 4.9868 7.93815L 5.11198 7.72175ZM 5.08344 7.70608C 4.56972 7.43687 3.74752 7.23637 3.15915 7.23637L 3.15915 7.48637C 3.70779 7.48637 4.49009 7.67739 4.9674 7.92752L 5.08344 7.70608ZM 3.15915 7.23637L 0.678414 7.23637L 0.678414 7.48637L 3.15915 7.48637L 3.15915 7.23637ZM 0.678414 7.23637C 0.243145 7.23637 -0.125 7.5673 -0.125 7.99367L 0.125 7.99367C 0.125 7.72165 0.364352 7.48637 0.678414 7.48637L 0.678414 7.23637ZM -0.125 7.99367C -0.125 8.42005 0.243145 8.75098 0.678414 8.75098L 0.678414 8.50098C 0.364352 8.50098 0.125 8.2657 0.125 7.99367L -0.125 7.99367ZM 0.678414 8.75098L 3.15915 8.75098L 3.15915 8.50098L 0.678414 8.50098L 0.678414 8.75098ZM 3.15915 8.75098C 3.31127 8.75098 3.52427 8.78275 3.73851 8.83455C 3.95272 8.88633 4.15696 8.95542 4.29272 9.02484L 4.40654 8.80225C 4.24651 8.72043 4.0214 8.64573 3.79726 8.59155C 3.57316 8.53737 3.33881 8.50098 3.15915 8.50098L 3.15915 8.75098ZM 4.28727 9.02189L 16.9421 16.3055L 17.0668 16.0889L 4.41198 8.80521L 4.28727 9.02189ZM 16.9419 16.3054C 16.9513 16.3108 16.961 16.3162 16.971 16.3213L 17.0859 16.0993C 17.0797 16.0961 17.0734 16.0927 17.0671 16.089L 16.9419 16.3054ZM 16.9704 16.3211C 17.4839 16.5902 18.3059 16.791 18.894 16.7914L 18.8942 16.5414C 18.3458 16.541 17.5636 16.3497 17.0865 16.0996L 16.9704 16.3211ZM 18.894 16.7914L 31.3452 16.8017L 31.3454 16.5517L 18.8942 16.5414L 18.894 16.7914ZM 31.3453 16.8017C 32.869 16.8017 34.1237 15.6445 34.1237 14.2037L 33.8737 14.2037C 33.8737 15.4902 32.7478 16.5517 31.3453 16.5517L 31.3453 16.8017ZM 34.1237 14.2037C 34.1237 13.7171 33.9794 13.2617 33.7301 12.8725L 33.5196 13.0074C 33.7446 13.3585 33.8737 13.7674 33.8737 14.2037L 34.1237 14.2037ZM 33.7301 13.0074C 33.9858 12.6083 34.1237 12.1501 34.1237 11.6745L 33.8737 11.6745C 33.8737 12.101 33.7501 12.5126 33.5196 12.8726L 33.7301 13.0074ZM 34.1237 11.6745C 34.1236 10.2339 32.869 9.07663 31.3453 9.07663L 31.3453 9.32663C 32.7478 9.32663 33.8736 10.3882 33.8737 11.6745L 34.1237 11.6745Z"/>
<path id="path2_fill" d="M 4.9697 22.3203C 5.72654 24.0232 7.4934 25.1236 9.47111 25.1236C 10.1112 25.1236 10.7377 25.007 11.3333 24.777C 11.6829 24.642 12.0114 24.4717 12.3148 24.2683C 12.6184 24.4718 12.9468 24.6421 13.2965 24.777C 13.892 25.007 14.5186 25.1235 15.1587 25.1236C 15.1587 25.1236 15.1587 25.1236 15.1587 25.1236C 17.1363 25.1236 18.9032 24.0232 19.66 22.3203L 24.0316 12.4836C 24.829 10.6891 24.829 8.71265 24.0316 6.91817C 23.234 5.12369 21.7345 3.72613 19.8092 2.98279C 18.8551 2.61445 17.8518 2.42771 16.8271 2.42771C 15.4816 2.42771 14.1585 2.75701 12.9933 3.36799L 12.9933 0.632304C 12.9933 0.283104 12.6895 0 12.3148 0C 11.9402 0 11.6364 0.283104 11.6364 0.632304L 11.6364 3.36791C 10.4712 2.75693 9.14809 2.42771 7.80257 2.42771C 6.7779 2.42771 5.77457 2.61445 4.82045 2.98279C 2.89511 3.72604 1.39563 5.12369 0.598089 6.91817C -0.199363 8.71265 -0.199363 10.6891 0.598089 12.4836L 4.9697 22.3203ZM 1.85171 7.40209C 2.51049 5.91972 3.74928 4.76521 5.33975 4.15112C 6.12843 3.8466 6.95709 3.69223 7.80266 3.69223C 9.28477 3.69223 10.7349 4.1743 11.886 5.04967C 12.1357 5.23953 12.4942 5.23953 12.7438 5.04967C 13.8949 4.1743 15.3451 3.69223 16.8272 3.69223C 17.6728 3.69223 18.5014 3.8466 19.2901 4.15112C 20.8806 4.76513 22.1194 5.91972 22.7781 7.40209C 23.4369 8.88446 23.4369 10.5172 22.7781 11.9996L 18.4065 21.8362C 17.8604 23.065 16.5856 23.8589 15.1587 23.8589C 14.6977 23.8589 14.2459 23.7747 13.8156 23.6086C 13.4295 23.4596 13.0795 23.2512 12.7753 22.9891C 12.6453 22.8772 12.48 22.8212 12.3148 22.8212C 12.1497 22.8212 11.9843 22.8772 11.8544 22.9891C 11.5503 23.2511 11.2003 23.4596 10.8141 23.6086C 10.3839 23.7747 9.93207 23.8589 9.47111 23.8589C 8.04418 23.8589 6.7693 23.065 6.22332 21.8363L 1.85171 11.9997C 1.19292 10.5173 1.19292 8.88446 1.85171 7.40209Z"/>
<path id="path3_stroke" d="M 4.9697 22.3203L 4.85547 22.371L 4.85547 22.371L 4.9697 22.3203ZM 11.3333 24.777L 11.2883 24.6604L 11.2883 24.6604L 11.3333 24.777ZM 12.3148 24.2683L 12.3844 24.1645L 12.3148 24.1179L 12.2453 24.1645L 12.3148 24.2683ZM 13.2965 24.777L 13.3415 24.6604L 13.3415 24.6603L 13.2965 24.777ZM 15.1587 25.1236L 15.1586 25.2486L 15.1587 25.2486L 15.1587 25.1236ZM 19.66 22.3203L 19.5458 22.2695L 19.5458 22.2695L 19.66 22.3203ZM 24.0316 12.4836L 24.1458 12.5344L 24.1458 12.5344L 24.0316 12.4836ZM 24.0316 6.91817L 24.1458 6.8674L 24.1458 6.8674L 24.0316 6.91817ZM 19.8092 2.98279L 19.8543 2.86618L 19.8542 2.86618L 19.8092 2.98279ZM 12.9933 3.36799L 12.8683 3.36799L 12.8683 3.57467L 13.0513 3.47869L 12.9933 3.36799ZM 11.6364 3.36791L 11.5784 3.47861L 11.7614 3.57459L 11.7614 3.36791L 11.6364 3.36791ZM 4.82045 2.98279L 4.86546 3.0994L 4.86546 3.0994L 4.82045 2.98279ZM 0.598089 6.91817L 0.483863 6.8674L 0.483861 6.8674L 0.598089 6.91817ZM 0.598089 12.4836L 0.483861 12.5344L 0.483862 12.5344L 0.598089 12.4836ZM 5.33975 4.15112L 5.38477 4.26773L 5.38477 4.26773L 5.33975 4.15112ZM 11.886 5.04967L 11.8103 5.14916L 11.8103 5.14918L 11.886 5.04967ZM 12.7438 5.04967L 12.6681 4.95017L 12.6681 4.95018L 12.7438 5.04967ZM 19.2901 4.15112L 19.2451 4.26773L 19.2451 4.26773L 19.2901 4.15112ZM 22.7781 11.9996L 22.8924 12.0504L 22.8924 12.0504L 22.7781 11.9996ZM 18.4065 21.8362L 18.5208 21.887L 18.5208 21.887L 18.4065 21.8362ZM 13.8156 23.6086L 13.7706 23.7252L 13.7706 23.7253L 13.8156 23.6086ZM 12.7753 22.9891L 12.8568 22.8944L 12.8568 22.8944L 12.7753 22.9891ZM 11.8544 22.9891L 11.936 23.0839L 11.936 23.0838L 11.8544 22.9891ZM 10.8141 23.6086L 10.7691 23.492L 10.7691 23.492L 10.8141 23.6086ZM 6.22332 21.8363L 6.33755 21.7856L 6.33754 21.7856L 6.22332 21.8363ZM 1.85171 11.9997L 1.73748 12.0505L 1.73748 12.0505L 1.85171 11.9997ZM 4.85547 22.371C 5.63391 24.1225 7.44789 25.2486 9.47111 25.2486L 9.47111 24.9986C 7.5389 24.9986 5.81917 23.9238 5.08392 22.2695L 4.85547 22.371ZM 9.47111 25.2486C 10.1265 25.2486 10.7683 25.1291 11.3783 24.8936L 11.2883 24.6604C 10.707 24.8848 10.0958 24.9986 9.47111 24.9986L 9.47111 25.2486ZM 11.3783 24.8936C 11.7364 24.7553 12.0731 24.5808 12.3844 24.3722L 12.2453 24.1645C 11.9496 24.3626 11.6295 24.5286 11.2883 24.6604L 11.3783 24.8936ZM 12.2452 24.3722C 12.5567 24.5809 12.8934 24.7554 13.2515 24.8936L 13.3415 24.6603C 13.0003 24.5287 12.6801 24.3627 12.3844 24.1645L 12.2452 24.3722ZM 13.2514 24.8936C 13.8614 25.1291 14.5033 25.2485 15.1586 25.2486L 15.1587 24.9986C 14.5339 24.9985 13.9226 24.8848 13.3415 24.6604L 13.2514 24.8936ZM 15.1587 25.2486C 15.1587 25.2486 15.1587 25.2486 15.1587 25.2486C 15.1587 25.2486 15.1587 25.2486 15.1587 25.2486C 15.1587 25.2486 15.1587 25.2486 15.1587 25.2486L 15.1587 25.2486L 15.1587 25.2486L 15.1587 25.2486L 15.1587 25.2486L 15.1587 25.2486L 15.1587 25.2486L 15.1587 25.2486L 15.1587 25.2486C 15.1587 25.2486 15.1587 25.2486 15.1587 25.2486C 15.1587 25.2486 15.1587 25.2486 15.1587 25.2486C 15.1587 25.2486 15.1587 25.2486 15.1587 25.2486L 15.1587 25.2486C 15.1587 25.2486 15.1587 25.2486 15.1587 25.2486C 15.1587 25.2486 15.1587 25.2486 15.1587 25.2486L 15.1587 25.2486C 15.1587 25.2486 15.1587 25.2486 15.1587 25.2486L 15.1587 25.2486C 15.1587 25.2486 15.1587 25.2486 15.1587 25.2486L 15.1587 25.2486L 15.1587 25.2486C 15.1587 25.2486 15.1587 25.2486 15.1587 25.2486C 15.1587 25.2486 15.1587 25.2486 15.1587 25.2486C 15.1587 25.2486 15.1587 25.2486 15.1587 25.2486C 15.1587 25.2486 15.1587 25.2486 15.1587 25.2486C 15.1587 25.2486 15.1587 25.2486 15.1587 25.2486L 15.1587 25.2486C 15.1587 25.2486 15.1587 25.2486 15.1587 25.2486C 15.1587 25.2486 15.1587 25.2486 15.1587 25.2486C 15.1587 25.2486 15.1587 25.2486 15.1587 25.2486C 15.1587 25.2486 15.1587 25.2486 15.1587 25.2486C 15.1587 25.2486 15.1587 25.2486 15.1587 25.2486C 15.1587 25.2486 15.1587 25.2486 15.1587 25.2486L 15.1587 25.2486C 15.1587 25.2486 15.1587 25.2486 15.1587 25.2486C 15.1587 25.2486 15.1587 25.2486 15.1587 25.2486L 15.1587 25.2486C 15.1587 25.2486 15.1587 25.2486 15.1587 25.2486L 15.1587 25.2486L 15.1587 25.2486C 15.1587 25.2486 15.1587 25.2486 15.1587 25.2486L 15.1587 25.2486L 15.1587 25.2486C 15.1587 25.2486 15.1587 25.2486 15.1587 25.2486C 15.1587 25.2486 15.1587 25.2486 15.1587 25.2486C 15.1587 25.1236 15.1587 24.9986 15.1587 24.9986C 15.1587 24.9986 15.1587 25.1236 15.1587 25.2486C 15.1587 25.2486 15.1587 25.2486 15.1587 25.2486C 15.1587 25.2486 15.1587 25.2486 15.1587 25.2486L 15.1587 25.2486L 15.1587 25.2486C 15.1587 25.2486 15.1587 25.2486 15.1587 25.2486C 15.1587 25.2486 15.1587 25.2486 15.1587 25.2486C 15.1587 25.2486 15.1587 25.2486 15.1587 25.2486C 15.1587 25.2486 15.1587 25.2486 15.1587 25.2486L 15.1587 25.2486L 15.1587 25.2486L 15.1587 25.2486C 15.1587 25.2486 15.1587 25.2486 15.1587 25.2486C 15.1587 25.2486 15.1587 25.2486 15.1587 25.2486C 15.1587 25.2486 15.1587 25.2486 15.1587 25.2486C 15.1587 25.2486 15.1587 25.2486 15.1587 25.2486C 15.1587 25.2486 15.1587 25.2486 15.1587 25.2486L 15.1587 25.2486C 15.1587 25.2486 15.1587 25.2486 15.1587 25.2486C 15.1587 25.2486 15.1587 25.2486 15.1587 25.2486L 15.1587 25.2486L 15.1587 25.2486L 15.1587 25.2486L 15.1587 25.2486C 15.1587 25.2486 15.1587 25.2486 15.1587 25.2486C 15.1587 25.2486 15.1587 25.2486 15.1587 25.2486C 15.1587 25.2486 15.1587 25.2486 15.1587 25.2486C 15.1587 25.2486 15.1587 25.2486 15.1587 25.2486C 15.1587 25.2486 15.1587 25.2486 15.1587 25.2486L 15.1587 25.2486C 15.1587 25.2486 15.1587 25.2486 15.1587 25.2486C 15.1587 25.2486 15.1587 25.2486 15.1587 25.2486L 15.1587 25.2486C 15.1587 25.2486 15.1587 25.2486 15.1587 25.2486C 15.1587 25.2486 15.1587 25.2486 15.1587 25.2486C 15.1587 25.2486 15.1587 25.2486 15.1587 25.2486L 15.1587 25.2486L 15.1587 25.2486L 15.1587 25.2486L 15.1587 25.2486L 15.1587 25.2486L 15.1587 25.2486L 15.1587 25.2486L 15.1587 25.2486C 15.1587 25.2486 15.1587 25.2486 15.1587 25.2486C 15.1587 25.2486 15.1587 25.2486 15.1587 25.2486C 15.1587 25.2486 15.1587 25.2486 15.1587 25.2486L 15.1587 24.9986C 15.1587 24.9986 15.1587 24.9986 15.1587 24.9986C 15.1587 24.9986 15.1587 24.9986 15.1587 24.9986C 15.1587 24.9986 15.1587 24.9986 15.1587 24.9986L 15.1587 24.9986L 15.1587 24.9986L 15.1587 24.9986L 15.1587 24.9986L 15.1587 24.9986L 15.1587 24.9986L 15.1587 24.9986L 15.1587 24.9986C 15.1587 24.9986 15.1587 24.9986 15.1587 24.9986C 15.1587 24.9986 15.1587 24.9986 15.1587 24.9986C 15.1587 24.9986 15.1587 24.9986 15.1587 24.9986L 15.1587 24.9986C 15.1587 24.9986 15.1587 24.9986 15.1587 24.9986C 15.1587 24.9986 15.1587 24.9986 15.1587 24.9986L 15.1587 24.9986C 15.1587 24.9986 15.1587 24.9986 15.1587 24.9986C 15.1587 24.9986 15.1587 24.9986 15.1587 24.9986C 15.1587 24.9986 15.1587 24.9986 15.1587 24.9986C 15.1587 24.9986 15.1587 24.9986 15.1587 24.9986C 15.1587 24.9986 15.1587 24.9986 15.1587 24.9986L 15.1587 24.9986L 15.1587 24.9986L 15.1587 24.9986L 15.1587 24.9986C 15.1587 24.9986 15.1587 24.9986 15.1587 24.9986C 15.1587 24.9986 15.1587 24.9986 15.1587 24.9986L 15.1587 24.9986C 15.1587 24.9986 15.1587 24.9986 15.1587 24.9986C 15.1587 24.9986 15.1587 24.9986 15.1587 24.9986C 15.1587 24.9986 15.1587 24.9986 15.1587 24.9986C 15.1587 24.9986 15.1587 24.9986 15.1587 24.9986C 15.1587 24.9986 15.1587 24.9986 15.1587 24.9986L 15.1587 24.9986L 15.1587 24.9986L 15.1587 24.9986C 15.1587 24.9986 15.1587 24.9986 15.1587 24.9986C 15.1587 24.9986 15.1587 24.9986 15.1587 24.9986C 15.1587 24.9986 15.1587 24.9986 15.1587 24.9986C 15.1587 24.9986 15.1587 24.9986 15.1587 24.9986L 15.1587 24.9986L 15.1587 24.9986C 15.1587 24.9986 15.1587 24.9986 15.1587 24.9986C 15.1587 24.9986 15.1587 24.9986 15.1587 24.9986C 15.1587 25.1236 15.1587 25.2486 15.1587 25.2486C 15.1587 25.2486 15.1587 25.1236 15.1587 24.9986C 15.1587 24.9986 15.1587 24.9986 15.1587 24.9986C 15.1587 24.9986 15.1587 24.9986 15.1587 24.9986L 15.1587 24.9986L 15.1587 24.9986C 15.1587 24.9986 15.1587 24.9986 15.1587 24.9986L 15.1587 24.9986L 15.1587 24.9986C 15.1587 24.9986 15.1587 24.9986 15.1587 24.9986L 15.1587 24.9986C 15.1587 24.9986 15.1587 24.9986 15.1587 24.9986C 15.1587 24.9986 15.1587 24.9986 15.1587 24.9986L 15.1587 24.9986C 15.1587 24.9986 15.1587 24.9986 15.1587 24.9986C 15.1587 24.9986 15.1587 24.9986 15.1587 24.9986C 15.1587 24.9986 15.1587 24.9986 15.1587 24.9986C 15.1587 24.9986 15.1587 24.9986 15.1587 24.9986C 15.1587 24.9986 15.1587 24.9986 15.1587 24.9986C 15.1587 24.9986 15.1587 24.9986 15.1587 24.9986L 15.1587 24.9986C 15.1587 24.9986 15.1587 24.9986 15.1587 24.9986C 15.1587 24.9986 15.1587 24.9986 15.1587 24.9986C 15.1587 24.9986 15.1587 24.9986 15.1587 24.9986C 15.1587 24.9986 15.1587 24.9986 15.1587 24.9986C 15.1587 24.9986 15.1587 24.9986 15.1587 24.9986L 15.1587 24.9986L 15.1587 24.9986C 15.1587 24.9986 15.1587 24.9986 15.1587 24.9986L 15.1587 24.9986C 15.1587 24.9986 15.1587 24.9986 15.1587 24.9986L 15.1587 24.9986C 15.1587 24.9986 15.1587 24.9986 15.1587 24.9986C 15.1587 24.9986 15.1587 24.9986 15.1587 24.9986L 15.1587 24.9986C 15.1587 24.9986 15.1587 24.9986 15.1587 24.9986C 15.1587 24.9986 15.1587 24.9986 15.1587 24.9986C 15.1587 24.9986 15.1587 24.9986 15.1587 24.9986L 15.1587 24.9986L 15.1587 24.9986L 15.1587 24.9986L 15.1587 24.9986L 15.1587 24.9986L 15.1587 24.9986L 15.1587 24.9986L 15.1587 24.9986C 15.1587 24.9986 15.1587 24.9986 15.1587 24.9986C 15.1587 24.9986 15.1587 24.9986 15.1587 24.9986C 15.1587 24.9986 15.1587 24.9986 15.1587 24.9986L 15.1587 25.2486ZM 15.1587 25.2486C 17.1818 25.2486 18.9959 24.1225 19.7742 22.371L 19.5458 22.2695C 18.8106 23.9238 17.0908 24.9986 15.1587 24.9986L 15.1587 25.2486ZM 19.7742 22.371L 24.1458 12.5344L 23.9174 12.4329L 19.5458 22.2695L 19.7742 22.371ZM 24.1458 12.5344C 24.9576 10.7076 24.9576 8.6942 24.1458 6.8674L 23.9174 6.96893C 24.7004 8.73109 24.7004 10.6707 23.9174 12.4329L 24.1458 12.5344ZM 24.1458 6.8674C 23.3341 5.041 21.8086 3.62076 19.8543 2.86618L 19.7642 3.0994C 21.6603 3.83149 23.134 5.20637 23.9174 6.96893L 24.1458 6.8674ZM 19.8542 2.86618C 18.8857 2.49228 17.8671 2.30271 16.8271 2.30271L 16.8271 2.55271C 17.8364 2.55271 18.8245 2.73662 19.7642 3.0994L 19.8542 2.86618ZM 16.8271 2.30271C 15.4614 2.30271 14.1184 2.63691 12.9352 3.25728L 13.0513 3.47869C 14.1986 2.87712 15.5018 2.55271 16.8271 2.55271L 16.8271 2.30271ZM 13.1183 3.36799L 13.1183 0.632304L 12.8683 0.632304L 12.8683 3.36799L 13.1183 3.36799ZM 13.1183 0.632304C 13.1183 0.205927 12.7501 -0.125 12.3148 -0.125L 12.3148 0.125C 12.6289 0.125 12.8683 0.36028 12.8683 0.632304L 13.1183 0.632304ZM 12.3148 -0.125C 11.8796 -0.125 11.5114 0.205927 11.5114 0.632304L 11.7614 0.632304C 11.7614 0.36028 12.0008 0.125 12.3148 0.125L 12.3148 -0.125ZM 11.5114 0.632304L 11.5114 3.36791L 11.7614 3.36791L 11.7614 0.632304L 11.5114 0.632304ZM 11.6945 3.2572C 10.5113 2.63683 9.1683 2.30271 7.80257 2.30271L 7.80257 2.55271C 9.12789 2.55271 10.4311 2.87703 11.5784 3.47861L 11.6945 3.2572ZM 7.80257 2.30271C 6.76253 2.30271 5.74394 2.49228 4.77543 2.86618L 4.86546 3.0994C 5.80519 2.73662 6.79326 2.55271 7.80257 2.55271L 7.80257 2.30271ZM 4.77543 2.86618C 2.82096 3.62068 1.29559 5.04101 0.483863 6.8674L 0.712316 6.96893C 1.49567 5.20637 2.96926 3.83141 4.86546 3.0994L 4.77543 2.86618ZM 0.483861 6.8674C -0.327954 8.6942 -0.327954 10.7076 0.483861 12.5344L 0.712318 12.4329C -0.070773 10.6707 -0.070773 8.73109 0.712318 6.96893L 0.483861 6.8674ZM 0.483862 12.5344L 4.85547 22.371L 5.08393 22.2695L 0.712317 12.4329L 0.483862 12.5344ZM 1.96594 7.45286C 2.61053 6.0024 3.82342 4.87058 5.38477 4.26773L 5.29472 4.03451C 3.67513 4.65985 2.41045 5.83703 1.73748 7.35133L 1.96594 7.45286ZM 5.38477 4.26773C 6.15908 3.96876 6.97248 3.81723 7.80266 3.81723L 7.80266 3.56723C 6.9417 3.56723 6.09777 3.72444 5.29472 4.03451L 5.38477 4.26773ZM 7.80266 3.81723C 9.25817 3.81723 10.6816 4.29078 11.8103 5.14916L 11.9617 4.95017C 10.7883 4.05782 9.31137 3.56723 7.80266 3.56723L 7.80266 3.81723ZM 11.8103 5.14918C 12.1048 5.37301 12.5252 5.37304 12.8195 5.14915L 12.6681 4.95018C 12.4633 5.10601 12.1667 5.10604 11.9616 4.95016L 11.8103 5.14918ZM 12.8194 5.14917C 13.9482 4.29078 15.3717 3.81723 16.8272 3.81723L 16.8272 3.56723C 15.3185 3.56723 13.8416 4.05782 12.6681 4.95017L 12.8194 5.14917ZM 16.8272 3.81723C 17.6574 3.81723 18.4708 3.96876 19.2451 4.26773L 19.3351 4.03451C 18.5321 3.72444 17.6882 3.56723 16.8272 3.56723L 16.8272 3.81723ZM 19.2451 4.26773C 20.8064 4.8705 22.0193 6.0024 22.6639 7.45286L 22.8924 7.35133C 22.2194 5.83703 20.9547 4.65976 19.3351 4.03451L 19.2451 4.26773ZM 22.6639 7.45286C 23.3083 8.90291 23.3083 10.4988 22.6639 11.9489L 22.8924 12.0504C 23.5655 10.5357 23.5655 8.86602 22.8924 7.35133L 22.6639 7.45286ZM 22.6639 11.9489L 18.2923 21.7855L 18.5208 21.887L 22.8924 12.0504L 22.6639 11.9489ZM 18.2923 21.7855C 17.7677 22.9657 16.5401 23.7339 15.1587 23.7339L 15.1587 23.9839C 16.6311 23.9839 17.953 23.1644 18.5208 21.887L 18.2923 21.7855ZM 15.1587 23.7339C 14.7131 23.7339 14.2765 23.6526 13.8606 23.492L 13.7706 23.7253C 14.2152 23.8969 14.6823 23.9839 15.1587 23.9839L 15.1587 23.7339ZM 13.8606 23.492C 13.4875 23.348 13.1499 23.1468 12.8568 22.8944L 12.6937 23.0839C 13.0091 23.3555 13.3716 23.5712 13.7706 23.7252L 13.8606 23.492ZM 12.8568 22.8944C 12.7026 22.7616 12.5078 22.6962 12.3148 22.6962L 12.3148 22.9462C 12.4522 22.9462 12.588 22.9928 12.6937 23.0839L 12.8568 22.8944ZM 12.3148 22.6962C 12.1219 22.6962 11.927 22.7616 11.7728 22.8945L 11.936 23.0838C 12.0416 22.9928 12.1774 22.9462 12.3148 22.9462L 12.3148 22.6962ZM 11.7728 22.8944C 11.4799 23.1468 11.1423 23.348 10.7691 23.492L 10.8591 23.7253C 11.2582 23.5712 11.6207 23.3554 11.936 23.0839L 11.7728 22.8944ZM 10.7691 23.492C 10.3532 23.6526 9.91666 23.7339 9.47111 23.7339L 9.47111 23.9839C 9.94747 23.9839 10.4146 23.8969 10.8591 23.7253L 10.7691 23.492ZM 9.47111 23.7339C 8.08968 23.7339 6.86194 22.9657 6.33755 21.7856L 6.10909 21.8871C 6.67667 23.1644 7.99868 23.9839 9.47111 23.9839L 9.47111 23.7339ZM 6.33754 21.7856L 1.96594 11.9489L 1.73748 12.0505L 6.10909 21.8871L 6.33754 21.7856ZM 1.96594 11.9489C 1.32151 10.4989 1.32151 8.90291 1.96594 7.45286L 1.73748 7.35133C 1.06433 8.86602 1.06433 10.5358 1.73748 12.0505L 1.96594 11.9489Z"/>
<path id="path4_fill" d="M 2.05663 10.3088C 2.16482 10.5522 2.41746 10.6993 2.68367 10.6993C 2.77024 10.6993 2.85816 10.6837 2.943 10.651C 3.28918 10.5173 3.45353 10.1474 3.31016 9.82483L 1.64362 6.07484C 1.26217 5.21659 1.26217 4.27126 1.64362 3.41309C 2.02506 2.55493 2.74219 1.88646 3.66303 1.53094C 4.12082 1.35423 4.60005 1.26461 5.08752 1.26461C 5.9463 1.26461 6.78726 1.54442 7.45536 2.05246C 7.74554 2.27326 8.17303 2.23288 8.40985 1.96225C 8.64675 1.69171 8.60342 1.29336 8.31306 1.07264C 7.40344 0.3809 6.25792 1.20924e-07 5.08752 1.20924e-07C 4.42104 1.20924e-07 3.76705 0.121993 3.14382 0.362605C 1.88821 0.847372 0.910295 1.7589 0.390087 2.92917C -0.13003 4.09944 -0.13003 5.3885 0.390087 6.55885L 2.05663 10.3088Z"/>
<path id="path5_stroke" d="M 2.05663 10.3088L 2.17087 10.258L 2.17086 10.258L 2.05663 10.3088ZM 2.943 10.651L 2.89799 10.5343L 2.89794 10.5344L 2.943 10.651ZM 3.31016 9.82483L 3.19594 9.87559L 3.19594 9.8756L 3.31016 9.82483ZM 1.64362 6.07484L 1.75784 6.02408L 1.75784 6.02407L 1.64362 6.07484ZM 1.64362 3.41309L 1.52939 3.36232L 1.64362 3.41309ZM 3.66303 1.53094L 3.61802 1.41432L 3.61801 1.41432L 3.66303 1.53094ZM 7.45536 2.05246L 7.53105 1.95298L 7.53102 1.95296L 7.45536 2.05246ZM 8.40985 1.96225L 8.3158 1.8799L 8.31577 1.87993L 8.40985 1.96225ZM 8.31306 1.07264L 8.23739 1.17214L 8.23741 1.17215L 8.31306 1.07264ZM 3.14382 0.362605L 3.0988 0.245994L 3.09879 0.245995L 3.14382 0.362605ZM 0.390087 2.92917L 0.275864 2.8784L 0.275861 2.8784L 0.390087 2.92917ZM 0.390087 6.55885L 0.275859 6.60961L 0.27586 6.60961L 0.390087 6.55885ZM 1.9424 10.3595C 2.07284 10.6531 2.3737 10.8243 2.68367 10.8243L 2.68367 10.5743C 2.46122 10.5743 2.25679 10.4514 2.17087 10.258L 1.9424 10.3595ZM 2.68367 10.8243C 2.78519 10.8243 2.88843 10.8061 2.98807 10.7675L 2.89794 10.5344C 2.82789 10.5614 2.75528 10.5743 2.68367 10.5743L 2.68367 10.8243ZM 2.98802 10.7676C 3.39492 10.6105 3.59932 10.1676 3.42439 9.77406L 3.19594 9.8756C 3.30774 10.1271 3.18344 10.4242 2.89799 10.5343L 2.98802 10.7676ZM 3.42439 9.77406L 1.75784 6.02408L 1.52939 6.12561L 3.19594 9.87559L 3.42439 9.77406ZM 1.75784 6.02407C 1.39076 5.19815 1.39076 4.2897 1.75784 3.46387L 1.52939 3.36232C 1.13357 4.25281 1.13358 5.23504 1.52939 6.12561L 1.75784 6.02407ZM 1.75784 3.46387C 2.12511 2.63761 2.81635 1.99182 3.70805 1.64755L 3.61801 1.41432C 2.66804 1.78109 1.92502 2.47225 1.52939 3.36232L 1.75784 3.46387ZM 3.70804 1.64755C 4.15158 1.47634 4.61556 1.38961 5.08752 1.38961L 5.08752 1.13961C 4.58455 1.13961 4.09007 1.23211 3.61802 1.41432L 3.70804 1.64755ZM 5.08752 1.38961C 5.91965 1.38961 6.73389 1.66088 7.3797 2.15196L 7.53102 1.95296C 6.84063 1.42797 5.97295 1.13961 5.08752 1.13961L 5.08752 1.38961ZM 7.37967 2.15194C 7.72096 2.41163 8.22285 2.36577 8.50391 2.04457L 8.31577 1.87993C 8.12322 2.09999 7.77012 2.13489 7.53105 1.95298L 7.37967 2.15194ZM 8.50389 2.0446C 8.78972 1.71818 8.73526 1.23656 8.3887 0.973127L 8.23741 1.17215C 8.47158 1.35015 8.50377 1.66524 8.3158 1.8799L 8.50389 2.0446ZM 8.38872 0.973143C 7.45679 0.264429 6.28453 -0.125 5.08752 -0.125L 5.08752 0.125C 6.2313 0.125 7.35009 0.497371 8.23739 1.17214L 8.38872 0.973143ZM 5.08752 -0.125C 4.40561 -0.125 3.73636 -0.000150712 3.0988 0.245994L 3.18884 0.479217C 3.79774 0.244136 4.43647 0.125 5.08752 0.125L 5.08752 -0.125ZM 3.09879 0.245995C 1.81406 0.742008 0.810255 1.67622 0.275864 2.8784L 0.504311 2.97994C 1.01034 1.84158 1.96236 0.952736 3.18884 0.479216L 3.09879 0.245995ZM 0.275861 2.8784C -0.258622 4.08099 -0.25862 5.40694 0.275859 6.60961L 0.504315 6.50809C -0.00143984 5.37005 -0.00143835 4.11788 0.504314 2.97994L 0.275861 2.8784ZM 0.27586 6.60961L 1.94241 10.3595L 2.17086 10.258L 0.504315 6.50808L 0.27586 6.60961Z"/>
<path id="path6_fill" d="M 3.71263 4.60173C 3.38717 4.60173 3.09645 4.42063 2.97189 4.1404L 1.30534 0.390496C 1.16197 0.0678528 0.765145 -0.0853327 0.418973 0.0482943C 0.0728009 0.181921 -0.0915553 0.551861 0.0518162 0.87442L 1.71836 4.6244C 2.05377 5.37887 2.83648 5.86633 3.71263 5.86633C 4.08729 5.86633 4.39104 5.58323 4.39104 5.23403C 4.39104 4.88483 4.08729 4.60173 3.71263 4.60173Z"/>
<path id="path7_stroke" d="M 2.97189 4.1404L 2.85766 4.19116L 2.85767 4.19117L 2.97189 4.1404ZM 1.30534 0.390496L 1.19111 0.441256L 1.19112 0.441262L 1.30534 0.390496ZM 0.0518162 0.87442L 0.166044 0.823656L 0.166041 0.82365L 0.0518162 0.87442ZM 1.71836 4.6244L 1.60413 4.67517L 1.60414 4.67518L 1.71836 4.6244ZM 3.71263 4.47673C 3.43269 4.47673 3.18908 4.32128 3.08612 4.08963L 2.85767 4.19117C 3.00382 4.51999 3.34165 4.72673 3.71263 4.72673L 3.71263 4.47673ZM 3.08612 4.08963L 1.41957 0.339731L 1.19112 0.441262L 2.85766 4.19116L 3.08612 4.08963ZM 1.41957 0.339737C 1.24696 -0.0487043 0.777132 -0.223949 0.373959 -0.0683192L 0.463987 0.164908C 0.753158 0.053284 1.07698 0.18441 1.19111 0.441256L 1.41957 0.339737ZM 0.373959 -0.0683192C -0.0329402 0.088749 -0.237345 0.531617 -0.0624087 0.925191L 0.166041 0.82365C 0.0542345 0.572105 0.178542 0.275093 0.463987 0.164908L 0.373959 -0.0683192ZM -0.0624116 0.925185L 1.60413 4.67517L 1.83259 4.57364L 0.166044 0.823656L -0.0624116 0.925185ZM 1.60414 4.67518C 1.96115 5.47823 2.79097 5.99133 3.71263 5.99133L 3.71263 5.74133C 2.88199 5.74133 2.1464 5.27951 1.83258 4.57363L 1.60414 4.67518ZM 3.71263 5.99133C 4.1479 5.99133 4.51604 5.66041 4.51604 5.23403L 4.26604 5.23403C 4.26604 5.50605 4.02669 5.74133 3.71263 5.74133L 3.71263 5.99133ZM 4.51604 5.23403C 4.51604 4.80765 4.1479 4.47673 3.71263 4.47673L 3.71263 4.72673C 4.02669 4.72673 4.26604 4.96201 4.26604 5.23403L 4.51604 5.23403Z"/>
</defs>
</svg>
