<svg width="24" height="39" viewBox="0 0 24 39" version="1.1" xmlns="http://www.w3.org/2000/svg" xmlns:xlink="http://www.w3.org/1999/xlink">
<title>volunteer</title>
<desc>Created using Figma</desc>
<g id="Canvas" transform="translate(6848 -24319)">
<g id="volunteer">
<g id="Group">
<g id="Group">
<g id="Vector">
<use xlink:href="#path0_fill" transform="translate(-6844.38 24319)" fill="#243847"/>
</g>
</g>
</g>
<g id="Group">
<g id="Group">
<g id="Vector">
<use xlink:href="#path1_fill" transform="translate(-6848 24326.9)" fill="#243847"/>
</g>
</g>
</g>
<g id="Group">
<g id="Group">
<g id="Vector">
<use xlink:href="#path2_fill" transform="translate(-6835.81 24322.4)" fill="#243847"/>
</g>
</g>
</g>
</g>
</g>
<defs>
<path id="path0_fill" d="M 3.37003 6.73278C 5.23125 6.73278 6.74006 5.22559 6.74006 3.36639C 6.74006 1.50718 5.23125 0 3.37003 0C 1.50882 0 0 1.50718 0 3.36639C 0 5.22559 1.50882 6.73278 3.37003 6.73278Z"/>
<path id="path1_fill" d="M 16.2234 7.50048L 10.8638 6.92498L 8.82153 2.656L 11.2229 5.64104L 10.7798 1.99987C 10.628 0.753094 9.49323 -0.134738 8.24511 0.0168556L 4.215 0.506257C 2.96688 0.657851 2.07809 1.7914 2.22985 3.03817L 3.62703 14.519L 3.39815 19.9834L 0.14177 27.8785C -0.25244 28.8342 0.203659 29.928 1.16034 30.3217C 2.1168 30.7154 3.21196 30.26 3.60625 29.3043L 6.98851 21.1041C 7.0717 20.9023 7.11896 20.6875 7.12811 20.4694C 7.4062 13.8315 7.39037 14.2399 7.38985 14.1651L 8.38344 14.0444L 10.5732 20.0083L 11.7772 28.844C 11.9168 29.8684 12.8611 30.5855 13.8863 30.4459C 14.9115 30.3066 15.6295 29.3633 15.4899 28.3391L 14.2583 19.302C 14.2401 19.1683 14.2074 19.0368 14.1608 18.91L 12.1818 13.5201L 11.9199 11.3672C 10.9315 11.261 10.0201 11.1632 9.03495 11.0574C 8.17887 10.9654 7.51175 10.3305 7.33681 9.5343L 6.11719 3.94683L 8.52004 8.96951C 8.74411 9.43801 9.19534 9.75708 9.71205 9.81253L 15.9031 10.4774C 16.7261 10.5658 17.465 9.97087 17.5534 9.14883C 17.6419 8.32694 17.0464 7.58891 16.2234 7.50048Z"/>
<path id="path2_fill" d="M 10.467 -1.60079e-08L 2.92511 -1.60079e-08C 2.45558 -1.60079e-08 2.07487 0.380296 2.07487 0.849315L 2.07487 5.78987C 2.07487 6.25889 2.45558 6.63918 2.92511 6.63918L 0.974163 6.63918C 0.436146 6.63918 -7.14267e-07 7.07486 -7.14267e-07 7.61229L -7.14267e-07 10.2867L 4.17428 10.735C 5.71737 10.9007 6.83391 12.2846 6.66798 13.8261C 6.57353 14.7037 6.08352 15.4426 5.39442 15.8862L 9.49384 15.8862C 10.0319 15.8862 10.468 15.4505 10.468 14.9131L 10.468 7.61236C 10.468 7.07493 10.0319 6.63926 9.49384 6.63926L 10.4671 6.63926C 10.9366 6.63926 11.3173 6.25896 11.3173 5.78994L 11.3173 0.849315C 11.3173 0.380296 10.9366 -1.60079e-08 10.467 -1.60079e-08Z"/>
</defs>
</svg>
